<svg width="24" height="24" viewBox="0 0 24 24" fill="none" xmlns="http://www.w3.org/2000/svg">
<path fill-rule="evenodd" clip-rule="evenodd" d="M5.65495 6.15397C6.0165 5.79242 6.60269 5.79243 6.96424 6.15397L11.5003 10.69L16.0364 6.15397C16.3979 5.79243 16.9841 5.79242 17.3457 6.15397C17.7072 6.51552 17.7072 7.10171 17.3457 7.46326L12.8096 11.9993L17.3457 16.5354C17.7072 16.897 17.7072 17.4831 17.3457 17.8447C16.9841 18.2062 16.3979 18.2062 16.0364 17.8447L11.5003 13.3086L6.96424 17.8447C6.60269 18.2062 6.0165 18.2062 5.65495 17.8447C5.2934 17.4831 5.2934 16.897 5.65495 16.5354L10.191 11.9993L5.65495 7.46326C5.2934 7.10171 5.2934 6.51552 5.65495 6.15397Z" fill="#2554C3"/>
</svg>
