<svg width="64" height="64" viewBox="0 0 64 64" fill="none" xmlns="http://www.w3.org/2000/svg">
<g clip-path="url(#clip0_2448_2272)">
<path fill-rule="evenodd" clip-rule="evenodd" d="M60.8682 41.6264C58.9091 49.8331 49.9368 53.6115 42.068 56.509C35.1088 59.0715 27.7789 59.2114 20.9727 56.3166C13.3788 53.0868 5.90763 48.237 3.75421 40.2134C1.45818 31.6585 4.3529 22.4708 10.0723 15.7022C15.7367 8.99852 24.2458 4.77301 32.9091 5.70961C40.8926 6.57271 45.811 13.7439 50.7595 20.1009C55.8722 26.6687 62.8118 33.4845 60.8682 41.6264Z" fill="#D1E3F4"/>
<path fill-rule="evenodd" clip-rule="evenodd" d="M24.8455 16.4097C23.2702 18.4246 22.3158 21.1776 22.3158 24.0516C22.3158 25.7193 22.6011 27.315 23.1034 28.8343H32.4743L36.1298 22.302L38.414 30.3378L41.2091 26.7255H48.2105V28.8946H42.2646L37.507 35.0429L35.4755 27.8955L33.7362 31.0033H18V28.8343H20.844C20.4064 27.3174 20.1579 25.7204 20.1579 24.0516C20.1579 20.7164 21.2597 17.4859 23.1488 15.0696C25.0429 12.6465 27.7711 11 30.981 11C34.7612 11 37.6359 13.1293 39.5789 16.1339C41.5219 13.1295 44.3966 11 48.1769 11C51.3872 11 54.1153 12.6468 56.0094 15.0699C57.8983 17.4864 59 20.717 59 24.0516C59 31.1905 54.0976 37.152 49.4595 41.2212C47.1139 43.2791 44.7734 44.908 43.0217 46.0218C42.1447 46.5795 41.4124 47.0098 40.8971 47.3019C40.6393 47.448 40.4356 47.5597 40.2949 47.6355C40.2247 47.6734 40.1701 47.7024 40.1323 47.7223L40.0886 47.7451L40.0765 47.7514L40.0729 47.7534L40.0717 47.7539C40.0717 47.7539 40.0709 47.7544 39.5789 46.7891C39.1109 47.7663 39.1106 47.7662 39.1106 47.7662L39.1041 47.763L39.0891 47.7557L39.0346 47.7288C38.9878 47.7054 38.9199 47.6713 38.8327 47.6267C38.6584 47.5373 38.4065 47.4056 38.0896 47.2328C37.456 46.8873 36.5613 46.3769 35.5068 45.712C33.4015 44.3845 30.64 42.4297 28.0431 39.9286C26.6578 38.5945 25.3123 37.0983 24.1366 35.4517C23.7892 34.9651 23.8999 34.2874 24.384 33.9382C24.8681 33.589 25.5423 33.7004 25.8897 34.187C26.9735 35.7048 28.2265 37.1013 29.5359 38.3624C31.9948 40.7305 34.628 42.5974 36.6535 43.8745C37.6644 44.5119 38.5191 44.9994 39.1186 45.3262C39.2887 45.4191 39.4383 45.4989 39.5647 45.5654C39.6462 45.5202 39.7371 45.4693 39.8371 45.4126C40.3248 45.1361 41.0255 44.7245 41.8682 44.1888C43.5555 43.1159 45.8006 41.5523 48.0405 39.5871C52.5735 35.6101 56.8421 30.2028 56.8421 24.0516C56.8421 21.178 55.8878 18.4251 54.3126 16.41C52.7426 14.4016 50.5987 13.169 48.1769 13.169C44.8291 13.169 42.2325 15.3606 40.5474 18.8105L39.5789 20.7933L38.6105 18.8105C36.9253 15.3604 34.3287 13.169 30.981 13.169C28.5594 13.169 26.4155 14.4014 24.8455 16.4097ZM39.5789 46.7891L39.1106 47.7662L39.5939 48L40.0717 47.7539L39.5789 46.7891Z" fill="#2554C3"/>
</g>
<defs>
<clipPath id="clip0_2448_2272">
<rect width="64" height="64" fill="white"/>
</clipPath>
</defs>
</svg>
