<svg width="64" height="64" viewBox="0 0 64 64" fill="none" xmlns="http://www.w3.org/2000/svg">
<path fill-rule="evenodd" clip-rule="evenodd" d="M33.2894 5.64971C41.8185 4.74611 52.2771 3.75669 57.2441 10.3948C62.1204 16.9119 55.4804 25.1215 53.7045 32.9335C51.8772 40.9715 54.0985 50.7912 46.9905 55.4989C39.1048 60.7218 28.1994 59.5638 19.5651 55.5446C11.0088 51.5616 4.03314 44.0496 3.07302 35.0553C2.2066 26.9388 9.21748 20.6892 15.2208 14.847C20.2402 9.96222 26.1424 6.4069 33.2894 5.64971Z" fill="#D1E3F4"/>
<g clip-path="url(#clip0_2448_2303)">
<path d="M34.3958 23.6654C34.3958 24.816 33.4818 25.7487 32.3542 25.7487C31.2266 25.7487 30.3125 24.816 30.3125 23.6654C30.3125 22.5147 31.2266 21.582 32.3542 21.582C33.4818 21.582 34.3958 22.5147 34.3958 23.6654Z" fill="#2554C3"/>
<path d="M38.4433 25.9749C39.6312 25.974 40.5932 24.9906 40.5922 23.7786C40.5913 22.5667 39.6276 21.5849 38.4399 21.5859C37.2521 21.5869 36.29 22.5702 36.291 23.7822C36.2919 24.9943 37.2556 25.9759 38.4433 25.9749Z" fill="#2554C3"/>
<path fill-rule="evenodd" clip-rule="evenodd" d="M29.7631 29.7445C29.292 29.7445 27.8785 29.2734 27.8785 27.1538C27.8785 26.3151 27.6204 25.919 27.3084 25.44C26.8318 24.7084 26.2295 23.7839 26.2295 20.7948C26.2295 10.7351 44.6045 10.7351 44.6045 20.7948C44.6045 23.7839 44.0022 24.7084 43.5256 25.44C43.2136 25.919 42.9554 26.3151 42.9554 27.1538C42.9554 29.2734 41.1101 29.7445 41.0709 29.7445C41.0316 29.7445 40.4427 31.1575 40.4427 32.0996C40.4427 33.0417 37.7728 33.0417 35.417 33.0417C33.0612 33.0417 30.3913 33.0417 30.3913 32.0996C30.3913 31.1575 30.2343 29.7445 29.7631 29.7445ZM29.9937 27.657C29.9962 27.6628 29.9986 27.6681 30.0009 27.6728C31.1033 27.783 31.665 28.6414 31.8404 28.9601C32.0701 29.3776 32.1857 29.8225 32.251 30.1354C32.3004 30.3729 32.3379 30.6209 32.3654 30.8672C33.17 30.9553 34.2473 30.9583 35.417 30.9583C36.6253 30.9583 37.7349 30.9551 38.5473 30.8581C38.6256 30.4944 38.7221 30.1669 38.803 29.9166C38.8957 29.6295 38.9921 29.3713 39.0744 29.1716C39.1141 29.0753 39.1596 28.9708 39.2069 28.8743C39.2272 28.8331 39.2687 28.7501 39.3253 28.6576C39.3484 28.6198 39.414 28.5138 39.5142 28.3942C39.5612 28.3382 39.6685 28.215 39.8307 28.0888C39.9057 28.0304 40.1698 27.8263 40.5781 27.7226L40.5846 27.7198C40.6312 27.6996 40.6932 27.6658 40.7482 27.6206C40.7989 27.5791 40.8314 27.5383 40.8533 27.495C40.8714 27.4594 40.9138 27.3625 40.9138 27.1538C40.9138 25.6081 41.5851 24.6224 41.9021 24.1568C41.9545 24.0798 41.9973 24.0171 42.0257 23.9683C42.2029 23.6647 42.5628 22.9989 42.5628 20.7948C42.5628 19.0224 41.791 17.7397 40.5456 16.8306C39.2396 15.8773 37.3832 15.3333 35.417 15.3333C33.4508 15.3333 31.5944 15.8773 30.2884 16.8306C29.043 17.7397 28.2712 19.0224 28.2712 20.7948C28.2712 22.9989 28.6311 23.6647 28.8083 23.9683C28.8367 24.0171 28.8795 24.0798 28.9318 24.1568C29.2489 24.6224 29.9202 25.6081 29.9202 27.1538C29.9202 27.445 29.9681 27.5945 29.9912 27.6508C29.992 27.6529 29.9928 27.655 29.9937 27.657Z" fill="#2554C3"/>
<path d="M22.1458 50.75C21.582 50.75 21.125 50.2836 21.125 49.7083V13.25H23.1667V43.4583H26.2826C32.9704 43.4583 38.8936 42.0332 43.4766 38.7371C47.7156 35.6883 50.9044 30.9697 52.4626 24.0442L50.2856 25.5674C49.8206 25.8928 49.1853 25.7719 48.8665 25.2974C48.5475 24.8229 48.6661 24.1746 49.1311 23.8493L53.5972 20.7243C53.8377 20.5559 54.1372 20.5006 54.4202 20.5723C54.7033 20.644 54.9428 20.8356 55.0783 21.0992L57.758 26.3075C58.0201 26.8169 57.8278 27.4466 57.3287 27.714C56.8295 27.9814 56.2124 27.7852 55.9503 27.2758L54.4752 24.4087C52.829 31.8158 49.3826 37.0382 44.6528 40.44C39.614 44.064 33.2306 45.5417 26.2826 45.5417H23.1667V48.6667H57.875V50.75H22.1458Z" fill="#2554C3"/>
</g>
<defs>
<clipPath id="clip0_2448_2303">
<rect width="37" height="38" fill="white" transform="translate(21 13)"/>
</clipPath>
</defs>
</svg>
