<svg width="64" height="64" viewBox="0 0 64 64" fill="none" xmlns="http://www.w3.org/2000/svg">
<path fill-rule="evenodd" clip-rule="evenodd" d="M32.178 3.08358C40.9416 2.30817 49.4971 7.00193 54.734 14.0862C59.766 20.8933 59.6061 29.7011 58.0032 38.0188C56.3076 46.8177 53.8484 56.5522 45.7984 60.4548C37.7381 64.3622 28.6697 60.0917 20.6334 56.1352C12.7073 52.2329 3.64857 47.7003 2.17052 38.9754C0.739539 30.5284 8.62797 24.2473 14.1187 17.6798C19.3441 11.4297 24.0729 3.80072 32.178 3.08358Z" fill="#D1E3F4"/>
<g clip-path="url(#clip0_2448_2316)">
<path d="M45.228 11.5292C48.4336 8.32361 53.6309 8.32362 56.8363 11.5291C60.0419 14.7348 60.0419 19.932 56.8364 23.1375L35.3875 44.5864C32.182 47.7919 26.9848 47.7919 23.7792 44.5863C20.5736 41.3809 20.5736 36.1836 23.7792 32.978L45.228 11.5292Z" stroke="#2554C3" stroke-width="2.25"/>
<path d="M39.0278 19.2222L49.5 29.5" stroke="#2554C3" stroke-width="2.2"/>
<path d="M31.0278 27.2222L41.5 37.5" stroke="#2554C3" stroke-width="2.2"/>
<circle cx="50.25" cy="16" r="1" fill="#2554C3"/>
<circle cx="48.25" cy="20" r="1" fill="#2554C3"/>
<circle cx="30.25" cy="34" r="1" fill="#2554C3"/>
<circle cx="33.25" cy="38" r="1" fill="#2554C3"/>
<circle cx="29.25" cy="39" r="1" fill="#2554C3"/>
<circle cx="53.25" cy="19" r="1" fill="#2554C3"/>
</g>
<defs>
<clipPath id="clip0_2448_2316">
<rect width="41" height="41" fill="white" transform="translate(20 8)"/>
</clipPath>
</defs>
</svg>
