<svg width="64" height="64" viewBox="0 0 64 64" fill="none" xmlns="http://www.w3.org/2000/svg">
<path fill-rule="evenodd" clip-rule="evenodd" d="M29.3043 5.35603C37.2143 6.61825 39.8467 14.9247 45.0383 20.5025C50.6138 26.4928 60.6793 30.4716 59.9638 38.2962C59.1995 46.6554 50.1274 51.9579 41.8288 55.6023C33.5217 59.2506 23.4597 62.2108 15.6366 57.7632C8.2806 53.5812 9.90294 44.0553 7.97713 36.3571C6.05342 28.6672 0.107075 20.7505 4.70535 14.0665C9.61855 6.92471 20.1869 3.90116 29.3043 5.35603Z" fill="#D1E3F4"/>
<g clip-path="url(#clip0_2448_2347)">
<path d="M51.3189 21.7746C51.9189 21.9128 52.5173 21.5376 52.6552 20.9365C52.7932 20.3355 52.4185 19.7362 51.8185 19.5981L44.443 17.8998C43.8429 17.7615 43.2447 18.1367 43.1067 18.7378C42.9688 19.3388 43.3434 19.9381 43.9434 20.0762L51.3189 21.7746Z" fill="#2554C3"/>
<path fill-rule="evenodd" clip-rule="evenodd" d="M47.8817 28.769C52.8075 28.769 56.8006 24.7694 56.8006 19.8357C56.8006 14.9019 52.8075 10.9023 47.8817 10.9023C42.956 10.9023 38.9629 14.9019 38.9629 19.8357C38.9629 24.7694 42.956 28.769 47.8817 28.769ZM47.8817 26.5357C51.576 26.5357 54.5708 23.536 54.5708 19.8357C54.5708 16.1354 51.576 13.1357 47.8817 13.1357C44.1874 13.1357 41.1926 16.1354 41.1926 19.8357C41.1926 23.536 44.1874 26.5357 47.8817 26.5357Z" fill="#2554C3"/>
<path fill-rule="evenodd" clip-rule="evenodd" d="M28.6812 14.5271C27.9593 12.8166 25.5452 12.6441 24.5755 14.2337L16.9915 26.6649C16.1166 28.0989 17.0948 29.9297 18.801 30.0517L32.0303 30.9971C33.7365 31.1191 34.9777 29.447 34.3266 27.9039L28.6812 14.5271ZM26.4876 15.3846C26.4859 15.3866 26.4826 15.3908 26.4781 15.3982L18.9059 27.8102L18.9076 27.8114C18.9098 27.8128 18.9132 27.8147 18.9192 27.8168C18.9248 27.8188 18.9374 27.8223 18.9597 27.8239L32.1889 28.7694C32.2112 28.7711 32.2248 28.7693 32.2317 28.7679C32.2391 28.7666 32.2442 28.7647 32.2484 28.7627C32.2537 28.7602 32.2591 28.7567 32.2639 28.7523L26.6275 15.3967C26.6254 15.3917 26.6236 15.3884 26.6225 15.3862C26.6159 15.3824 26.5958 15.373 26.5626 15.3705C26.5258 15.3679 26.5012 15.3761 26.4931 15.38L26.4905 15.3816L26.4892 15.3827L26.4876 15.3846Z" fill="#2554C3"/>
<path fill-rule="evenodd" clip-rule="evenodd" d="M49.4257 44.8051C52.7738 43.2413 54.2225 39.2549 52.6611 35.9012C51.0999 32.5477 47.12 31.0968 43.7718 32.6606L31.647 38.3236C28.2988 39.8875 26.8503 43.8738 28.4115 47.2275C29.9729 50.5811 33.9527 52.0321 37.3009 50.4682L49.4257 44.8051ZM32.5893 40.3477C30.3571 41.3903 29.3915 44.0479 30.4323 46.2836C31.4732 48.5194 34.1265 49.4866 36.3586 48.4441L41.3376 46.1185L37.5687 38.0231L32.5893 40.3477ZM43.3583 45.1747L39.5891 37.0783L44.7141 34.6846C46.9463 33.6421 49.5995 34.6094 50.6403 36.8452C51.6812 39.0808 50.7155 41.7385 48.4833 42.781L43.3583 45.1747Z" fill="#2554C3"/>
</g>
<defs>
<clipPath id="clip0_2448_2347">
<rect width="41" height="42" fill="white" transform="translate(16 10)"/>
</clipPath>
</defs>
</svg>
