<svg width="64" height="64" viewBox="0 0 64 64" fill="none" xmlns="http://www.w3.org/2000/svg">
<path fill-rule="evenodd" clip-rule="evenodd" d="M32.2894 5.64971C40.8185 4.74611 51.2771 3.75669 56.2441 10.3948C61.1204 16.9119 54.4804 25.1215 52.7045 32.9335C50.8772 40.9715 53.0985 50.7912 45.9905 55.4989C38.1048 60.7218 27.1994 59.5638 18.5651 55.5446C10.0088 51.5616 3.03314 44.0496 2.07302 35.0553C1.2066 26.9388 8.21748 20.6892 14.2208 14.847C19.2402 9.96222 25.1424 6.4069 32.2894 5.64971Z" fill="#D1E3F4"/>
<g clip-path="url(#clip0_2448_2374)">
<path d="M53.511 38.9375C53.511 40.0075 52.7109 40.875 51.7237 40.875C50.7367 40.875 49.9365 40.0075 49.9365 38.9375C49.9365 37.8675 50.7367 37 51.7237 37C52.7109 37 53.511 37.8675 53.511 38.9375Z" fill="#2554C3"/>
<path d="M33.2549 49.9154H38.0208V47.332H33.2549V49.9154Z" fill="#2554C3"/>
<path d="M38.0208 55.0833H33.2549V52.5H38.0208V55.0833Z" fill="#2554C3"/>
<path fill-rule="evenodd" clip-rule="evenodd" d="M44.8402 34.6062C45.4234 34.6062 45.5202 34.4886 45.7058 34.2634C45.8134 34.1329 45.9508 33.9661 46.2298 33.7653C47.0021 34.3121 47.9134 34.5987 48.8435 34.5873L51.7976 33.4532C52.6301 32.7292 53.2015 31.7255 53.4164 30.6103C53.6313 29.4949 53.4765 28.3355 52.978 27.3262C52.4795 26.3168 51.6675 25.5188 50.6778 25.0655C50.4519 23.9857 49.8827 23.0198 49.0648 22.3282L46.1811 21.2636H45.8564C45.215 20.2763 44.2522 19.5719 43.1507 19.2847L38.1596 18.918C37.132 19.008 36.163 19.4602 35.4085 20.2018C35.0519 20.1131 34.687 20.0672 34.3208 20.0648C33.4339 20.0668 32.5665 20.3394 31.8233 20.8499C31.0801 21.3605 30.4928 22.0871 30.1325 22.9419L27.7835 24.6974C27.1989 25.533 26.8842 26.5445 26.8857 27.583C26.88 28.0171 26.9347 28.45 27.0481 28.8674C26.4318 29.711 26.1005 30.7478 26.1065 31.8129C26.1051 33.0483 26.5524 34.2373 27.3566 35.1354C27.4215 36.0198 27.7144 36.8686 28.2037 37.59C28.693 38.3114 29.36 38.878 30.1325 39.2284C31.0226 39.817 31.7764 40.6088 32.3383 41.5454C32.9001 42.4818 33.132 43.5393 33.2554 44.64H38.1596V39.5024C38.1585 38.5902 38.3998 37.6958 38.856 36.921C38.9253 36.8033 38.9899 36.6891 39.0524 36.5787C39.4019 35.9615 39.6856 35.4602 40.3435 35.1182C41.0702 34.8248 41.7249 34.3623 42.259 33.7653C43.0197 34.3131 43.9192 34.6062 44.8402 34.6062ZM46.6316 30.9569L47.5329 31.5952C47.8171 31.7964 48.1444 31.9272 48.4883 31.9758L50.5513 31.1838C50.8233 30.8656 51.0054 30.4817 51.0838 30.0747C51.1836 29.5565 51.113 29.0156 50.8772 28.5383C50.6407 28.0595 50.2474 27.6655 49.7504 27.4378L48.6244 26.922L48.3539 25.6296C48.2747 25.251 48.1004 24.8945 47.8437 24.5992L45.7864 23.8396H44.62L43.9081 22.7438C43.6362 22.3251 43.2325 22.0021 42.7537 21.8374L38.2061 21.5034C37.7516 21.5745 37.3345 21.7886 37.009 22.1084L36.0877 23.014L34.8755 22.7124C34.6925 22.6669 34.5049 22.6429 34.3162 22.6409C33.8789 22.6438 33.4562 22.7793 33.0988 23.0248C32.7396 23.2715 32.4653 23.6159 32.2999 24.0084L32.0265 24.6568L29.5126 26.5356C29.351 26.8577 29.2682 27.2133 29.2688 27.5715V27.5922L29.2685 27.613C29.2662 27.7871 29.2881 27.9612 29.334 28.1301L29.6829 29.4143L28.9163 30.4638C28.6327 30.8519 28.4868 31.3187 28.4896 31.7896V31.7992V31.8089C28.4889 32.3615 28.6884 32.9065 29.0665 33.3287L29.664 33.9961L29.7321 34.9231C29.7615 35.3238 29.8943 35.7145 30.1236 36.0524C30.3532 36.3911 30.6724 36.6656 31.052 36.8378L31.2191 36.9135L31.3736 37.0158C31.7279 37.2501 32.0664 37.5087 32.3874 37.7899C32.8013 38.1415 33.3177 38.6573 33.9862 39.5824C34.6862 40.5512 35.0691 41.6343 35.173 42.0547H35.7827V40.9245C35.7827 40.8117 35.7805 40.6766 35.778 40.5254C35.7655 39.783 35.7462 38.6426 35.9549 37.7458C36.2062 36.666 36.723 35.6115 37.3699 34.6075C38.0168 33.6034 38.9942 32.9021 39.3618 32.7507C39.7296 32.5993 40.1019 32.4429 40.4649 32.0493C40.7553 31.7345 41.5602 30.8283 41.9264 30.4146C42.3406 30.7157 43.2472 31.3743 43.56 31.6003C43.8728 31.8264 44.2861 31.9535 44.4536 31.9889C44.4986 31.9484 44.6398 31.8264 44.8446 31.6608C45.0493 31.4953 45.8546 30.9157 46.2315 30.6467L46.6316 30.9569Z" fill="#2554C3"/>
<path fill-rule="evenodd" clip-rule="evenodd" d="M60.32 38.7642C60.32 38.7642 63.414 41.7816 63.006 44.2025C62.598 46.6234 58.569 47.2901 58.569 47.2901C58.569 57.0716 49.9526 56.4489 45.6522 55.529C44.2221 55.223 43.2691 54.8842 43.2691 54.8842V56.7223C43.2691 56.7223 43.1797 57.0303 42.9033 57.4638C42.2469 58.4933 40.5367 60.2309 36.4692 60.2309C33.7476 60.4646 29.0892 58.5333 27.8544 55.81V47.4811C23.5025 43.955 20.1494 39.2048 20.1494 33.0471C20.1494 27.9293 22.1196 23.0209 25.6265 19.4021C29.1333 15.7831 33.8897 13.75 38.8492 13.75C42.6365 13.7456 46.3788 14.5958 49.8141 16.2411C52.5214 17.4176 54.8916 19.2898 56.699 21.6794C58.3496 24.1896 59.2644 27.1375 59.334 30.1702C59.349 30.867 59.34 31.5279 59.3312 32.1672C59.3005 34.4245 59.2735 36.4128 60.32 38.7642ZM58.3776 40.3448L58.1738 39.8869C56.857 36.9282 56.9039 34.1825 56.9438 31.8563C56.9534 31.2892 56.9628 30.747 56.9517 30.2327C56.8944 27.7531 56.1544 25.3311 54.8048 23.2497C53.2644 21.2368 51.2452 19.6462 48.9275 18.639L48.889 18.6222L48.8511 18.6041C45.7226 17.1057 42.3094 16.3293 38.8518 16.3334H38.8492C34.4848 16.3334 30.3215 18.1237 27.2695 21.2732C24.2215 24.4185 22.5324 28.6566 22.5324 33.0471C22.5324 38.0623 25.2387 42.1366 29.281 45.4119L30.2375 46.1867V55.0607C30.6357 55.573 31.4072 56.2111 32.5667 56.766C33.9884 57.4463 35.4301 57.7287 36.2812 57.6556L36.3751 57.6476H36.4692C38.8859 57.6476 40.0258 56.9275 40.5172 56.4866C40.6865 56.3346 40.8055 56.1921 40.8862 56.079V51.3181L44.0083 52.4283L44.0101 52.429L44.0118 52.4295L44.0297 52.4357C44.0496 52.4424 44.0832 52.4538 44.1296 52.4689C44.2222 52.4992 44.3653 52.5447 44.5518 52.5996C44.9253 52.7098 45.4675 52.8565 46.1204 52.996C47.4465 53.2791 49.1358 53.5118 50.7646 53.3971C52.4195 53.2806 53.7479 52.8254 54.6342 52.0079C55.4309 51.2731 56.186 49.9554 56.186 47.2901V45.0711L58.2011 44.7377L58.2138 44.7354C58.229 44.7326 58.257 44.7273 58.2963 44.7191C58.375 44.7029 58.4965 44.6759 58.6467 44.6366C58.9543 44.5563 59.3479 44.4335 59.7323 44.263C60.1316 44.0861 60.4211 43.901 60.5927 43.7421C60.6189 43.7178 60.6391 43.6974 60.6545 43.6806C60.645 43.6118 60.6195 43.4883 60.5495 43.3005C60.4186 42.9498 60.193 42.5402 59.9014 42.1136C59.6167 41.6972 59.3135 41.3288 59.0771 41.0615C58.9607 40.9299 58.8649 40.8279 58.8017 40.762C58.7702 40.7292 58.7471 40.7058 58.7339 40.6925L58.7262 40.6847L58.7248 40.6833L58.7235 40.6822L58.722 40.6806L58.3776 40.3448ZM60.6976 43.6265L60.6966 43.6285L60.6944 43.6319C60.6963 43.6283 60.6976 43.6265 60.6976 43.6265Z" fill="#2554C3"/>
</g>
<defs>
<clipPath id="clip0_2448_2374">
<rect width="44" height="48" fill="white" transform="translate(20 13)"/>
</clipPath>
</defs>
</svg>
