<svg width="64" height="64" viewBox="0 0 64 64" fill="none" xmlns="http://www.w3.org/2000/svg">
<path fill-rule="evenodd" clip-rule="evenodd" d="M29.3043 5.35603C37.2143 6.61825 39.8467 14.9247 45.0383 20.5025C50.6138 26.4928 60.6793 30.4716 59.9638 38.2962C59.1995 46.6554 50.1274 51.9579 41.8288 55.6023C33.5217 59.2506 23.4597 62.2108 15.6366 57.7632C8.2806 53.5812 9.90294 44.0553 7.97713 36.3571C6.05342 28.6672 0.107075 20.7505 4.70535 14.0665C9.61855 6.92471 20.1869 3.90116 29.3043 5.35603Z" fill="#E5E2FF"/>
<path fill-rule="evenodd" clip-rule="evenodd" d="M36.5 50.2077C46.5639 50.2077 54.7222 41.9471 54.7222 31.757C54.7222 21.5669 46.5639 13.3063 36.5 13.3063C26.4361 13.3063 18.2778 21.5669 18.2778 31.757C18.2778 41.9471 26.4361 50.2077 36.5 50.2077ZM36.5 52.514C47.8218 52.514 57 43.2207 57 31.757C57 20.2933 47.8218 11 36.5 11C25.1782 11 16 20.2933 16 31.757C16 43.2207 25.1782 52.514 36.5 52.514Z" fill="#635AC9"/>
<path fill-rule="evenodd" clip-rule="evenodd" d="M25.1113 40.4041C25.1113 37.5381 27.4058 35.2148 30.2363 35.2148H42.7641C45.5946 35.2148 47.8891 37.5381 47.8891 40.4041C47.8891 43.2701 45.5946 45.5933 42.7641 45.5933H30.2363C27.4058 45.5933 25.1113 43.2701 25.1113 40.4041ZM28.528 42.1338C28.528 41.4969 29.0379 40.9807 29.6669 40.9807H43.3336C43.9626 40.9807 44.4724 41.4969 44.4724 42.1338C44.4724 42.7707 43.9626 43.287 43.3336 43.287H29.6669C29.0379 43.287 28.528 42.7707 28.528 42.1338ZM29.6669 37.5212C29.0379 37.5212 28.528 38.0374 28.528 38.6743C28.528 39.3112 29.0379 39.8275 29.6669 39.8275H43.3336C43.9626 39.8275 44.4724 39.3112 44.4724 38.6743C44.4724 38.0374 43.9626 37.5212 43.3336 37.5212H29.6669Z" fill="#635AC9"/>
<path fill-rule="evenodd" clip-rule="evenodd" d="M43.9029 27.1423C43.5884 27.1423 43.3334 27.4005 43.3334 27.7189C43.3334 28.0372 43.5884 28.2954 43.9029 28.2954C44.2173 28.2954 44.4723 28.0372 44.4723 27.7189C44.4723 27.4005 44.2173 27.1423 43.9029 27.1423ZM41.0557 27.7189C41.0557 26.1267 42.3304 24.8359 43.9029 24.8359C45.4754 24.8359 46.7501 26.1267 46.7501 27.7189C46.7501 29.311 45.4754 30.6018 43.9029 30.6018C42.3304 30.6018 41.0557 29.311 41.0557 27.7189Z" fill="#635AC9"/>
<path fill-rule="evenodd" clip-rule="evenodd" d="M29.0972 27.1423C28.7828 27.1423 28.5278 27.4005 28.5278 27.7189C28.5278 28.0372 28.7828 28.2954 29.0972 28.2954C29.4117 28.2954 29.6667 28.0372 29.6667 27.7189C29.6667 27.4005 29.4117 27.1423 29.0972 27.1423ZM26.25 27.7189C26.25 26.1267 27.5248 24.8359 29.0972 24.8359C30.6697 24.8359 31.9444 26.1267 31.9444 27.7189C31.9444 29.311 30.6697 30.6018 29.0972 30.6018C27.5248 30.6018 26.25 29.311 26.25 27.7189Z" fill="#635AC9"/>
</svg>
