<svg width="64" height="64" viewBox="0 0 64 64" fill="none" xmlns="http://www.w3.org/2000/svg">
<g clip-path="url(#clip0_2448_713)">
<path fill-rule="evenodd" clip-rule="evenodd" d="M44.2442 8.67377C51.6484 11.4192 56.9668 17.5696 59.8237 24.9315C62.986 33.0804 65.0084 42.5372 60.2243 49.8528C55.3782 57.2631 45.7743 58.4773 37.0197 59.8017C26.9656 61.3227 15.3593 64.8572 8.09833 57.7385C0.677041 50.4625 1.8496 38.2248 4.86813 28.2798C7.36605 20.05 14.5822 14.8445 22.2811 11.011C29.215 7.5585 36.9815 5.98081 44.2442 8.67377Z" fill="#E5E2FF"/>
<path fill-rule="evenodd" clip-rule="evenodd" d="M32.1885 22.4957C32.1885 20.9232 33.4632 19.6484 35.0357 19.6484C36.6082 19.6484 37.8829 20.9232 37.8829 22.4957C37.8829 24.0681 36.6082 25.3429 35.0357 25.3429C33.4632 25.3429 32.1885 24.0681 32.1885 22.4957ZM35.0357 21.9262C34.7213 21.9262 34.4663 22.1812 34.4663 22.4957C34.4663 22.8101 34.7213 23.0651 35.0357 23.0651C35.3501 23.0651 35.6051 22.8101 35.6051 22.4957C35.6051 22.1812 35.3501 21.9262 35.0357 21.9262Z" fill="#635AC9"/>
<path d="M18.3027 24.4715C17.5247 23.9732 16.9548 23.1674 17.0903 22.3273C17.1175 22.1591 17.2185 22.0118 17.3658 21.9261C17.5131 21.8403 17.691 21.8249 17.8507 21.8843C19.9216 22.653 22.2311 22.1762 24.2765 20.2346C24.4175 20.1008 24.6171 20.048 24.8058 20.0949C24.9945 20.1418 25.1462 20.2817 25.2083 20.466C25.4722 21.2505 25.2358 22.3091 24.6613 23.1785C24.0668 24.0784 23.0583 24.8658 21.6394 25.0752C20.2744 25.2768 19.1156 24.9921 18.3027 24.4715Z" fill="#635AC9"/>
<path d="M19.1962 34.8904L19.1982 34.8891L19.23 34.8701C19.2592 34.8526 19.3066 34.8252 19.3706 34.7901C19.4988 34.72 19.6918 34.6203 19.9368 34.5118C20.4306 34.293 21.1135 34.0478 21.8861 33.9255C23.3971 33.6862 25.2119 33.9076 26.7594 35.7569C28.9521 38.3773 31.6596 38.7051 33.7359 38.3764C34.7568 38.2146 35.6339 37.8964 36.2515 37.6229C36.5623 37.4851 36.8129 37.3563 36.9894 37.2597C37.0778 37.2113 37.1479 37.1706 37.1983 37.1408L37.2232 37.126L37.2587 37.1043L37.2774 37.0927L37.2839 37.0886L37.2864 37.0871L37.2884 37.0859C37.6944 36.8278 37.8945 36.3424 37.7883 35.8732C37.6821 35.404 37.2925 35.0521 36.8148 34.9941L28.2004 33.9477C26.0656 31.646 23.5105 31.3621 21.5298 31.6757C20.5089 31.8374 19.6318 32.1556 19.0142 32.4292C18.7034 32.5669 18.4528 32.6958 18.2763 32.7924C18.1879 32.8408 18.1178 32.8813 18.0674 32.9113L18.0318 32.9326L18.007 32.9477L17.9883 32.9593L17.9818 32.9633L17.9793 32.9649L17.9774 32.9662C17.4465 33.3035 17.2897 34.0073 17.627 34.5383C17.9638 35.0681 18.6656 35.2254 19.1962 34.8904Z" fill="#635AC9"/>
<path fill-rule="evenodd" clip-rule="evenodd" d="M27.6328 46.9844C38.9546 46.9844 48.1328 37.8062 48.1328 26.4844C48.1328 15.1626 38.9546 5.98438 27.6328 5.98438C16.311 5.98438 7.13281 15.1626 7.13281 26.4844C7.13281 37.8062 16.311 46.9844 27.6328 46.9844ZM27.6328 44.7066C37.6967 44.7066 45.855 36.5483 45.855 26.4844C45.855 16.4205 37.6967 8.26215 27.6328 8.26215C17.5689 8.26215 9.41059 16.4205 9.41059 26.4844C9.41059 36.5483 17.5689 44.7066 27.6328 44.7066Z" fill="#635AC9"/>
</g>
<defs>
<clipPath id="clip0_2448_713">
<rect width="64" height="64" fill="white"/>
</clipPath>
</defs>
</svg>
