<svg width="64" height="64" viewBox="0 0 64 64" fill="none" xmlns="http://www.w3.org/2000/svg">
<g clip-path="url(#clip0_2448_732)">
<path fill-rule="evenodd" clip-rule="evenodd" d="M43.8626 4.05759C51.383 6.40608 56.8002 13.0489 59.8448 20.5744C62.7303 27.7064 62.1186 35.684 59.6874 43.1715C57.233 50.7302 53.4973 58.5953 46.4656 61.7781C39.6873 64.8464 32.5853 60.9212 25.7177 58.5478C18.9674 56.2149 11.5306 54.6278 7.73812 48.3941C3.60971 41.6082 2.65662 32.8193 5.35643 25.0796C8.02388 17.4327 14.6765 12.4175 21.6077 8.6335C28.6219 4.80419 36.4424 1.74038 43.8626 4.05759Z" fill="#E5E2FF"/>
<g clip-path="url(#clip1_2448_732)">
<path d="M9.12546 56.7197C8.57724 56.7197 8.13281 56.2753 8.13281 55.727V20.9844H10.1181V49.7711H13.148C19.6512 49.7711 25.4108 48.4131 29.8672 45.2721C33.9892 42.3668 37.09 37.8702 38.6052 31.2706L36.4883 32.7221C36.0361 33.0322 35.4183 32.917 35.1083 32.4648C34.7982 32.0127 34.9134 31.3949 35.3656 31.0849L39.7084 28.1069C39.9423 27.9465 40.2335 27.8938 40.5087 27.9621C40.784 28.0304 41.0168 28.213 41.1487 28.4642L43.7543 33.4274C44.0092 33.9128 43.8223 34.5129 43.3368 34.7677C42.8514 35.0225 42.2514 34.8356 41.9966 34.3502L40.5622 31.618C38.9615 38.6765 35.6102 43.6532 31.0109 46.8948C26.1113 50.3483 19.9041 51.7564 13.148 51.7564H10.1181V54.7344H43.8681V56.7197H9.12546Z" fill="#635AC9"/>
<path fill-rule="evenodd" clip-rule="evenodd" d="M20.895 20.9844C20.2307 20.9844 19.5934 21.2483 19.1236 21.7181C18.6537 22.188 18.3898 22.8252 18.3898 23.4896V26.2785H15.6009C14.9366 26.2785 14.2993 26.5424 13.8295 27.0122C13.3596 27.482 13.0957 28.1193 13.0957 28.7837V31.0527C13.0957 31.7171 13.3596 32.3544 13.8295 32.8242C14.2993 33.294 14.9366 33.5579 15.6009 33.5579H18.3898V36.3468C18.3898 37.0112 18.6537 37.6484 19.1236 38.1183C19.5934 38.5881 20.2307 38.852 20.895 38.852H23.164C23.8284 38.852 24.4657 38.5881 24.9355 38.1183C25.4053 37.6484 25.6693 37.0112 25.6693 36.3468V33.5579H28.4581C29.1225 33.5579 29.7598 33.294 30.2296 32.8242C30.6994 32.3544 30.9634 31.7171 30.9634 31.0527V28.7837C30.9634 28.1193 30.6994 27.482 30.2296 27.0122C29.7598 26.5424 29.1225 26.2785 28.4581 26.2785H25.6693V23.4896C25.6693 22.8252 25.4053 22.188 24.9355 21.7181C24.4657 21.2483 23.8284 20.9844 23.164 20.9844H20.895ZM20.5275 23.122C20.6249 23.0245 20.7572 22.9697 20.895 22.9697H23.164C23.3019 22.9697 23.4341 23.0245 23.5316 23.122C23.6292 23.2195 23.684 23.3517 23.684 23.4896V27.2711C23.684 27.8193 24.1284 28.2638 24.6766 28.2638H28.4581C28.596 28.2638 28.7282 28.3185 28.8258 28.4161C28.9233 28.5136 28.9781 28.6458 28.9781 28.7837V31.0527C28.9781 31.1906 28.9233 31.3228 28.8258 31.4203C28.7282 31.5178 28.596 31.5726 28.4581 31.5726H24.6766C24.1284 31.5726 23.684 32.0171 23.684 32.5653V36.3468C23.684 36.4847 23.6292 36.6169 23.5316 36.7145C23.4341 36.8119 23.3019 36.8667 23.164 36.8667H20.895C20.7572 36.8667 20.6249 36.8119 20.5275 36.7145C20.4299 36.6169 20.3751 36.4847 20.3751 36.3468V32.5653C20.3751 32.0171 19.9307 31.5726 19.3824 31.5726H15.6009C15.4631 31.5726 15.3308 31.5178 15.2333 31.4203C15.1358 31.3228 15.081 31.1906 15.081 31.0527V28.7837C15.081 28.6458 15.1358 28.5136 15.2333 28.4161C15.3308 28.3185 15.4631 28.2638 15.6009 28.2638H19.3824C19.9307 28.2638 20.3751 27.8193 20.3751 27.2711V23.4896C20.3751 23.3517 20.4299 23.2195 20.5275 23.122Z" fill="#635AC9"/>
</g>
</g>
<defs>
<clipPath id="clip0_2448_732">
<rect width="64" height="64" fill="white"/>
</clipPath>
<clipPath id="clip1_2448_732">
<rect width="36" height="36" fill="white" transform="translate(8 20.8516)"/>
</clipPath>
</defs>
</svg>
