<svg width="64" height="64" viewBox="0 0 64 64" fill="none" xmlns="http://www.w3.org/2000/svg">
<g clip-path="url(#clip0_2448_2240)">
<path fill-rule="evenodd" clip-rule="evenodd" d="M60.3323 42.2707C58.3945 50.3879 49.5202 54.1251 41.7373 56.9909C34.854 59.5255 27.6041 59.6638 20.8722 56.8006C13.3612 53.6061 5.97156 48.8092 3.84163 40.8732C1.57067 32.4117 4.4338 23.3243 10.0907 16.6295C15.6933 9.99899 24.1096 5.8196 32.6784 6.74597C40.5747 7.59965 45.4394 14.6926 50.3339 20.9802C55.3908 27.4764 62.2547 34.2177 60.3323 42.2707Z" fill="#D1E3F4"/>
<path fill-rule="evenodd" clip-rule="evenodd" d="M44.8432 27.5213C46.1572 27.5213 47.4407 27.1641 48.5259 26.4963C49.6277 27.1628 50.9281 27.5122 52.255 27.4984L56.47 26.1159C57.6577 25.2334 58.473 24.01 58.7797 22.6506C59.0863 21.291 58.8654 19.8779 58.1541 18.6475C57.4428 17.4172 56.2842 16.4443 54.8723 15.8918C54.5499 14.5757 53.7379 13.3984 52.5709 12.5554L48.4564 11.2576H47.9932C47.0781 10.0541 45.7041 9.19564 44.1326 8.8454L35.3116 8.39844C33.8453 8.50825 32.4626 9.05945 31.3862 9.96336C30.8775 9.85527 30.3569 9.79925 29.8343 9.79636C28.5689 9.7987 27.3313 10.1311 26.271 10.7534C25.2106 11.3757 24.3727 12.2613 23.8586 13.3034L20.5069 15.4432C19.6729 16.4616 19.2239 17.6947 19.2261 18.9604C19.2179 19.4898 19.2959 20.0173 19.4578 20.5261C18.5784 21.5545 18.1056 22.8183 18.1144 24.1166C18.1123 25.6224 18.7505 27.0717 19.8978 28.1664C19.9904 29.2444 20.4084 30.2791 21.1065 31.1585C21.8046 32.0378 22.7563 32.7285 23.8586 33.1554C25.1286 33.873 26.204 34.8382 27.0056 35.9797C27.8073 37.1213 28.3148 38.4103 28.4909 39.752H37.1446V33.4894C37.143 32.3775 37.4872 31.2875 38.1382 30.3428C38.7891 29.3983 39.7207 28.637 40.8274 28.1454C41.4497 27.9309 41.6028 27.642 41.7904 27.288C41.9154 27.0522 42.0558 26.7873 42.3604 26.4963C42.6252 26.6592 42.8303 26.8037 43.0081 26.9289C43.5596 27.3171 43.8496 27.5213 44.8432 27.5213ZM49.8839 24.656C50.4881 24.9828 51.1849 25.1797 51.9131 25.2183L55.3758 24.0826C56.008 23.5324 56.4096 22.8501 56.5685 22.1453C56.747 21.354 56.6239 20.5227 56.1918 19.7753C55.7555 19.0207 55.0141 18.3747 54.0464 17.9961L52.9506 17.5673L52.6707 16.4245C52.5067 15.755 52.1132 15.1082 51.5013 14.5881L48.1075 13.5176H46.8693L46.189 12.6229C45.6497 11.9138 44.818 11.3544 43.8085 11.0919L35.3523 10.6634C34.387 10.7608 33.5095 11.1336 32.8437 11.6926L31.9968 12.4037L30.915 12.1739C30.5606 12.0986 30.1966 12.059 29.8302 12.0564C28.9574 12.0595 28.1193 12.2902 27.4182 12.7016C26.7163 13.1136 26.1979 13.6782 25.8912 14.2997L25.6114 14.8669L22.0691 17.1285C21.682 17.6958 21.4917 18.3267 21.4928 18.9499L21.4928 18.9695L21.4925 18.9892C21.4881 19.2713 21.5296 19.555 21.6178 19.8325L22 21.0341L21.1805 21.9925C20.6393 22.6255 20.3761 23.3663 20.381 24.0946L20.381 24.1038L20.381 24.1131C20.3799 24.9622 20.7376 25.8281 21.4625 26.5198L22.0828 27.1116L22.1562 27.9658C22.2092 28.5826 22.4496 29.1982 22.8817 29.7425C23.3159 30.2894 23.9302 30.7457 24.6774 31.0352L24.8305 31.0946L24.9736 31.1754C25.1393 31.269 25.3025 31.3662 25.4631 31.467L25.4561 31.4722C28.5373 33.3521 29.8447 36.0879 30.2885 37.4869H30.9821V29.2208L28.485 27.0012L26.7901 28.6962C26.3476 29.1388 25.63 29.1388 25.1874 28.6962C24.7448 28.2536 24.7448 27.536 25.1874 27.0934L27.2181 25.0626L26.6088 21.7115L23.8481 20.3312C23.2883 20.0513 23.0614 19.3705 23.3413 18.8106C23.6212 18.2508 24.302 18.0238 24.8619 18.3038L27.5556 19.6507L30.8552 17.551L29.829 14.8141C29.6091 14.2281 29.9061 13.5748 30.4922 13.355C31.0782 13.1352 31.7315 13.4321 31.9512 14.0182L33.0541 16.9591H34.2741L34.8569 15.7934L33.9329 13.6373C33.6863 13.062 33.9528 12.3957 34.5281 12.1491C35.1034 11.9026 35.7697 12.1691 36.0163 12.7444L36.812 14.6011L39.9717 15.1755L39.9848 15.165L42.0269 13.5312C42.5157 13.1402 43.2289 13.2194 43.6199 13.7082C44.0109 14.1969 43.9317 14.9101 43.4429 15.3011L42.0778 16.3933L43.5909 18.3388L44.172 17.1769C44.3638 16.7929 44.7563 16.5504 45.1856 16.5504H47.6362C48.2622 16.5504 48.7696 17.0578 48.7696 17.6837C48.7696 18.3097 48.2622 18.8171 47.6362 18.8171H45.886L45.5822 19.4248L47.4737 19.8451C47.5641 19.8653 47.6518 19.8963 47.7347 19.9378L49.3684 20.7547C49.9283 21.0345 50.1552 21.7153 49.8754 22.2752C49.5954 22.8351 48.9146 23.062 48.3548 22.782L46.8458 22.0276L43.306 21.2409C43.0486 21.1837 42.8191 21.0385 42.6573 20.8304L40.064 17.4962L36.9209 16.9247C36.8753 16.9622 36.8264 16.9965 36.7744 17.0271L36.1078 18.3599V19.001H37.4252C37.6011 19.001 37.7746 19.042 37.9321 19.1207L41.1996 20.7545C41.7594 21.0344 41.9863 21.7151 41.7064 22.275C41.4265 22.8348 40.7457 23.0617 40.1859 22.7818L37.1576 21.2677H36.1078V22.9937C36.1078 23.6196 35.6005 24.1271 34.9745 24.1271C34.3486 24.1271 33.8412 23.6196 33.8412 22.9937V20.1431V20.1343V20.1257V19.2257H32.4455L28.8739 21.4985L29.4845 24.857L32.8684 27.8648C33.1103 28.0799 33.2488 28.3882 33.2488 28.7118V37.4869H34.8781V33.4454C34.8781 30.3834 36.5885 28.504 37.5227 27.6142C38.2699 26.9024 39.3924 26.3023 39.8602 26.0912C39.9531 25.8832 40.2701 25.3431 40.7943 24.8473C41.3185 24.3515 41.8627 23.835 42.0693 23.6387C43.4722 24.4405 44.5617 25.2457 44.5617 25.2457C44.5617 25.2457 46.0137 25.166 46.6735 24.9004C47.2011 24.688 48.1211 24.0976 48.5151 23.829L49.8839 24.656Z" fill="#2554C3"/>
<path d="M28.3145 44.6651H37.3811V42.3984H28.3145V44.6651Z" fill="#2554C3"/>
<path d="M37.3811 49.2003H28.3145V46.9336H37.3811V49.2003Z" fill="#2554C3"/>
</g>
<defs>
<clipPath id="clip0_2448_2240">
<rect width="64" height="64" fill="white"/>
</clipPath>
</defs>
</svg>
