<svg width="51" height="60" viewBox="0 0 51 60" fill="none" xmlns="http://www.w3.org/2000/svg">
<path fill-rule="evenodd" clip-rule="evenodd" d="M25.2689 6.0239C14.5897 6.0239 6.0239 14.5154 6.0239 24.8784C6.0239 31.0612 8.23778 33.9871 13.8129 41.0463L13.8218 41.0576C16.1835 44.0481 19.0677 47.7 22.4119 52.5163C23.7634 54.4627 26.7744 54.4627 28.1259 52.5163C31.4701 47.7 34.3543 44.048 36.7161 41.0575L36.7249 41.0463C42.3 33.9871 44.5139 31.0612 44.5139 24.8784C44.5139 14.5154 35.9481 6.0239 25.2689 6.0239ZM0 24.8784C0 11.0884 11.3638 0 25.2689 0C39.1741 0 50.5378 11.0884 50.5378 24.8784C50.5378 33.2786 47.0308 37.7181 41.6824 44.4886C41.6061 44.5852 41.5294 44.6822 41.4523 44.7798C39.0954 47.7642 36.3081 51.2942 33.074 55.952C29.3263 61.3493 21.2115 61.3493 17.4639 55.952C14.2297 51.2942 11.4424 47.7642 9.08547 44.7798C9.00842 44.6822 8.93174 44.5852 8.85544 44.4886C3.50703 37.7181 0 33.2786 0 24.8784ZM25.269 23.3348C24.2009 23.3348 23.335 24.2007 23.335 25.2688C23.335 26.337 24.2009 27.2029 25.269 27.2029C26.3372 27.2029 27.2031 26.337 27.2031 25.2688C27.2031 24.2007 26.3372 23.3348 25.269 23.3348ZM17.3111 25.2688C17.3111 20.8738 20.874 17.3109 25.269 17.3109C29.6641 17.3109 33.227 20.8738 33.227 25.2688C33.227 29.6639 29.6641 33.2268 25.269 33.2268C20.874 33.2268 17.3111 29.6639 17.3111 25.2688Z" fill="#006171"/>
</svg>
