<svg width="45" height="60" viewBox="0 0 45 60" fill="none" xmlns="http://www.w3.org/2000/svg">
<path fill-rule="evenodd" clip-rule="evenodd" d="M15 54C10.0294 54 6 49.9706 6 45L6 15C6 10.0294 10.0294 6 15 6L30 6C34.9706 6 39 10.0294 39 15V45C39 49.9706 34.9706 54 30 54H15ZM2.92069e-06 45C2.92069e-06 53.2843 6.71573 60 15 60H30C38.2843 60 45 53.2843 45 45V15C45 6.71573 38.2843 0 30 0H15C6.71573 0 -3.62117e-07 6.71573 0 15L2.92069e-06 45ZM22.5 51C24.1569 51 25.5 49.6569 25.5 48C25.5 46.3431 24.1569 45 22.5 45C20.8431 45 19.5 46.3431 19.5 48C19.5 49.6569 20.8431 51 22.5 51Z" fill="#006171"/>
<path d="M29.2515 15L17.2459 15C16.0032 15 15 13.9926 15 12.75C15 11.5074 16.0032 10.5 17.2459 10.5L29.2515 10.5C30.4942 10.5 31.5 11.5074 31.5 12.75C31.5 13.9926 30.4942 15 29.2515 15Z" fill="#006171"/>
</svg>
