<?xml version="1.0" encoding="UTF-8"?>
<svg width="9.45048334px" height="16px" viewBox="0 0 9.45048334 16" version="1.1" xmlns="http://www.w3.org/2000/svg" xmlns:xlink="http://www.w3.org/1999/xlink">
    <title>icon/arrow-long-right</title>
    <g id="Quizes" stroke="none" stroke-width="1" fill="none" fill-rule="evenodd">
        <g id="Quiz_SomeoneElse_EmailSubmissionForm-[mobile]" transform="translate(-33.2748, -823.0586)" fill="#D1EA8D" fill-rule="nonzero">
            <g id="button/link/cta/small-copy" transform="translate(30, 818)">
                <g id="icon/arrow-long-right" transform="translate(3.2748, 5.0586)">
                    <path d="M8.66062326,15.7442581 L9.18836739,15.2201563 C9.35318173,15.0552118 9.44397922,14.8357629 9.44397922,14.6012244 C9.44397922,14.366816 9.35318173,14.1471069 9.18836739,13.9821625 L3.20952203,8.00357726 L9.19500159,2.01809771 C9.35981593,1.85341344 9.45048334,1.63370434 9.45048334,1.39929593 C9.45048334,1.16488752 9.35981593,0.945048334 9.19500159,0.780233986 L8.67050952,0.256002081 C8.32943357,-0.0853340271 7.77385182,-0.0853340271 7.43277588,0.256002081 L0.280717729,7.382434 C0.136618997,7.52653274 0.0297685347,7.71256067 0.00530746185,7.91524575 L8.8817842e-16,8.00578866 C8.8817842e-16,8.24032716 0.116163546,8.4597761 0.280717729,8.62446036 L7.4133936,15.7442581 C7.57807787,15.9092025 7.80416101,15.9997398 8.03856942,16 C8.27310791,16 8.49606907,15.9092025 8.66062326,15.7442581 Z" id="Path"></path>
                </g>
            </g>
        </g>
    </g>
</svg>