<?xml version="1.0" encoding="UTF-8"?>
<svg width="24px" height="24px" viewBox="0 0 24 24" version="1.1" xmlns="http://www.w3.org/2000/svg" xmlns:xlink="http://www.w3.org/1999/xlink">
    <title>icon/arrow-right</title>
    <g id="icon/arrow-right" stroke="none" stroke-width="1" fill="none" fill-rule="evenodd">
        <path d="M16.5477273,3.63358799 L23.3863636,10.7297734 C23.7954545,11.1217532 24,11.6556567 24,12.2436263 C24,12.831596 23.7954545,13.3587412 23.3863636,13.7574792 L16.5477273,20.8806977 C15.7363636,21.7254817 14.4136364,21.7254817 13.6022727,20.8806977 C12.7909091,20.0359137 12.7909091,18.6707428 13.6022727,17.8259589 L16.8886364,14.4197898 L2.09318182,14.4197898 C0.934090909,14.4197898 0,13.453357 0,12.2571429 C0,11.0609287 0.934090909,10.0944959 2.08636364,10.0944959 L16.8818182,10.0944959 L13.5954545,6.68832686 C12.7840909,5.84354288 12.7840909,4.47837197 13.5954545,3.63358799 C14.4136364,2.788804 15.7295455,2.788804 16.5477273,3.63358799 Z" id="Path" fill="#006171" fill-rule="nonzero"></path>
    </g>
</svg>