<svg xmlns="http://www.w3.org/2000/svg" width="20" height="20" viewBox="0 0 20 20" fill="none"><path fill-rule="evenodd" clip-rule="evenodd" d="M10 20C15.5228 20 20 15.5228 20 10C20 4.47715 15.5228 0 10 0C4.47715 0 0 4.47715 0 10C0 15.5228 4.47715 20 10 20Z" fill="#E2ED49"/><path d="M7.00011 7.93945L7.53044 7.40912L7.00011 6.87879L6.46978 7.40912L7.00011 7.93945ZM7.53044 8.46978L7.00011 9.00011L7.53044 8.46978ZM5.93945 9.00011L5.40912 8.46978L4.87879 9.00011L5.40912 9.53044L5.93945 9.00011ZM9.46978 12.5304L10.0001 12.0001H10.0001L9.46978 12.5304ZM10.0001 13.0608L9.46978 13.5911L10.0001 14.1214L10.5304 13.5911L10.0001 13.0608ZM10.5304 12.5304L10.0001 12.0001L10.0001 12.0001L10.5304 12.5304ZM11.0608 12.0001L11.5911 12.5304H11.5911L11.0608 12.0001ZM13.5304 9.53044L13.0001 9.00011V9.00011L13.5304 9.53044ZM14.0608 9.00011L14.5911 9.53044L15.1214 9.00011L14.5911 8.46978L14.0608 9.00011ZM13.0001 7.93945L13.5304 7.40912L13.0001 6.87879L12.4698 7.40912L13.0001 7.93945ZM12.4698 8.46978L11.9395 7.93945V7.93945L12.4698 8.46978ZM10.0001 10.9395L9.46978 11.4698L10.0001 12.0001L10.5304 11.4698L10.0001 10.9395ZM6.46978 8.46978L7.00011 9.00011L8.06077 7.93945L7.53044 7.40912L6.46978 8.46978ZM6.46978 9.53044L7.53044 8.46978L6.46978 7.40912L5.40912 8.46978L6.46978 9.53044ZM7.00011 9.00011L6.46978 8.46978L5.40912 9.53044L5.93945 10.0608L7.00011 9.00011ZM9.46978 11.4698L7.00011 9.00011L5.93945 10.0608L8.40912 12.5304L9.46978 11.4698ZM10.0001 12.0001L9.46978 11.4698L8.40912 12.5304L8.93945 13.0608L10.0001 12.0001ZM10.5304 12.5304L10.0001 12.0001L8.93945 13.0608L9.46978 13.5911L10.5304 12.5304ZM10.0001 12.0001L9.46978 12.5304L10.5304 13.5911L11.0608 13.0608L10.0001 12.0001ZM10.5304 11.4698L10.0001 12.0001L11.0608 13.0608L11.5911 12.5304L10.5304 11.4698ZM13.0001 9.00011L10.5304 11.4698L11.5911 12.5304L14.0608 10.0608L13.0001 9.00011ZM13.5304 8.46978L13.0001 9.00011L14.0608 10.0608L14.5911 9.53044L13.5304 8.46978ZM12.4698 8.46978L13.5304 9.53044L14.5911 8.46978L13.5304 7.40912L12.4698 8.46978ZM13.0001 9.00011L13.5304 8.46978L12.4698 7.40912L11.9395 7.93945L13.0001 9.00011ZM10.5304 11.4698L13.0001 9.00011L11.9395 7.93945L9.46978 10.4091L10.5304 11.4698ZM7.00011 9.00011L9.46978 11.4698L10.5304 10.4091L8.06077 7.93945L7.00011 9.00011Z" fill="#006171"/></svg>
