<svg xmlns="http://www.w3.org/2000/svg" width="24" height="24" viewBox="0 0 24 24"><path fill="#212121" d="M23.6163871,6.18479012 L22.8302344,5.39317393 C22.5828177,5.14595241 22.2536443,5.00975618 21.9018366,5.00975618 C21.550224,5.00975618 21.2206603,5.14595241 20.9732437,5.39317393 L12.0053659,14.361442 L3.02714656,5.38322263 C2.78012016,5.13600111 2.45055651,5 2.09894389,5 C1.74733128,5 1.4175725,5.13600111 1.17035098,5.38322263 L0.384003122,6.16996073 C-0.128001041,6.68157465 -0.128001041,7.51494728 0.384003122,8.02656119 L11.073651,18.7546484 C11.3206774,19.0016748 11.6498508,19.175725 12.0045854,19.175725 L12.008683,19.175725 C12.3604907,19.175725 12.6896641,19.0014797 12.9366905,18.7546484 L23.6163871,8.0556346 C23.8638038,7.8086082 23.9996098,7.46948349 24,7.11787088 C24,6.76606314 23.8638038,6.4316214 23.6163871,6.18479012 Z"/></svg>