<svg xmlns="http://www.w3.org/2000/svg" width="72" height="24" viewBox="0 0 72 24"><path fill="#E2ED48" d="M1.94940909,22.6536265 C2.43539585,22.9731205 3.00487484,23.0653831 3.53273066,22.9562754 C4.06058649,22.8471678 4.54681914,22.5366899 4.86631321,22.0507031 C11.7222941,11.621978 23.3441658,5.21232624 36.0588365,5.21232624 C48.7402472,5.21232624 60.3356542,11.5882624 67.1997086,21.9723503 C67.5204224,22.457533 68.0074334,22.7667885 68.5355616,22.8745699 C69.0636898,22.9823513 69.6329353,22.8886586 70.118118,22.5679448 C70.6033007,22.247231 70.9125562,21.76022 71.0203376,21.2320918 C71.128119,20.7039635 71.0344263,20.1347181 70.7137125,19.6495354 C63.0765558,8.09588181 50.1700678,1 36.0588365,1 C21.9105828,1 8.97466988,8.13338836 1.34648576,19.7367223 C1.02699169,20.2227091 0.934729142,20.7921881 1.04383681,21.3200439 C1.15294447,21.8478997 1.46342234,22.3341324 1.94940909,22.6536265 Z" transform="matrix(1 0 0 -1 0 24)"/></svg>