<svg xmlns="http://www.w3.org/2000/svg" width="72" height="23" viewBox="0 0 72 23"><path fill="#A6C7D3" d="M36.0587243,5.68434189e-14 C50.1699556,5.68434189e-14 63.0764436,7.09588181 70.7136003,18.6495354 C71.0343141,19.1347181 71.1280068,19.7039635 71.0202254,20.2320918 C70.912444,20.76022 70.6031884,21.247231 70.1180057,21.5679448 C69.632823,21.8886586 69.0635776,21.9823513 68.5354494,21.8745699 C68.0073212,21.7667885 67.5203102,21.457533 67.1995963,20.9723503 C60.335542,10.5882624 48.740135,4.21232624 36.0587243,4.21232624 C23.3440535,4.21232624 11.7221818,10.621978 4.86620098,21.0507031 C4.54670691,21.5366899 4.06047426,21.8471678 3.53261844,21.9562754 C3.00476262,22.0653831 2.43528362,21.9731205 1.94929687,21.6536265 C1.46331011,21.3341324 1.15283224,20.8478997 1.04372458,20.3200439 C0.934616916,19.7921881 1.02687946,19.2227091 1.34637353,18.7367223 C8.97455766,7.13338836 21.9104706,5.68434189e-14 36.0587243,5.68434189e-14 Z"/></svg>
