<svg xmlns="http://www.w3.org/2000/svg" width="492" height="145" viewBox="0 0 492 145"><path fill="#E2ED48" d="M246.319724,2.84217094e-14 C345.919269,2.84217094e-14 437.013793,50.0861866 490.917694,131.633159 C493.354077,135.318972 492.341215,140.281992 488.655402,142.718376 C484.969589,145.154759 480.006568,144.141897 477.570185,140.456084 C426.598082,63.3443989 340.490199,16 246.319724,16 C151.90227,16 65.5978599,63.5947594 14.6857123,141.037915 C12.2585949,144.729836 7.29813409,145.755162 3.60621297,143.328045 C-0.0857081441,140.900928 -1.11103413,135.940467 1.31608329,132.248546 C55.1566571,50.3509209 146.458863,2.84217094e-14 246.319724,2.84217094e-14 Z" transform="matrix(1 0 0 -1 0 144.644)"/></svg>