<?xml version="1.0" encoding="UTF-8"?>
<svg width="24px" height="24px" viewBox="0 0 24 24" version="1.1" xmlns="http://www.w3.org/2000/svg" xmlns:xlink="http://www.w3.org/1999/xlink">
    <title>icon/download</title>
    <g id="icon/download" stroke="none" stroke-width="1" fill="none" fill-rule="evenodd">
        <g id="4600834_bottom_down_download_save_icon" transform="translate(3, -0)" fill="#006171" fill-rule="nonzero">
            <path d="M17.2176512,4.9411826 C17.2176512,4.41326342 17.4316327,3.93532231 17.7775941,3.58936098 C18.1235554,3.24339964 18.6014965,3.02941811 19.1294157,3.02941811 C19.6573349,3.02941811 20.135276,3.24339964 20.4812373,3.58936095 C20.8271986,3.93532227 21.0411802,4.4132634 21.0411802,4.9411826 L21.0411802,19.0588274 C21.0411802,19.5867466 20.8271986,20.0646877 20.4812373,20.410649 C20.135276,20.7566104 19.6573349,20.9705919 19.1294157,20.9705919 C18.6014965,20.9705919 18.1235554,20.7566103 17.777594,20.410649 C17.4316327,20.0646877 17.2176512,19.5867466 17.2176512,19.0588274 L17.2176512,4.9411826 Z M-2.95882489,11.995634 C-2.95760589,11.4677167 -2.74253158,10.9902663 -2.39578018,10.645097 C-2.04902874,10.2999275 -1.57060027,10.0870391 -1.04268296,10.0882455 L9.11119061,10.1160184 L5.36297657,6.34291763 C4.97589814,5.95583919 4.78235892,5.44851089 4.78235892,4.94118259 C4.78235892,4.43385429 4.97589814,3.92652599 5.36297657,3.53944756 C5.75005501,3.15236911 6.2573833,2.95882989 6.76471159,2.95882989 C7.27203988,2.95882989 7.77936817,3.15236911 8.1664466,3.53944755 L15.225269,10.5982699 C15.6123475,10.9853484 15.8058868,11.4926767 15.8058868,12.000005 C15.8058868,12.5073333 15.6123475,13.0146616 15.225269,13.40174 L8.16644665,20.4605624 C7.77936819,20.8476409 7.27203989,21.0411802 6.76471159,21.0411802 C6.25738329,21.0411802 5.75005499,20.8476409 5.36297658,20.4605624 C4.97589814,20.073484 4.78235892,19.5661557 4.78235892,19.0588274 C4.78235892,18.5514991 4.97589814,18.0441708 5.36297658,17.6570924 L9.08058157,13.9394874 L-1.05142007,13.9117645 C-1.57933737,13.9105582 -2.0567879,13.6954855 -2.40195824,13.3487349 C-2.74712855,13.0019844 -2.96001858,12.5235561 -2.95882489,11.995634 Z" id="Shape" transform="translate(9.0412, 12) rotate(90) translate(-9.0412, -12)"></path>
        </g>
    </g>
</svg>