<svg xmlns="http://www.w3.org/2000/svg" width="32" height="32" viewBox="0 0 32 32"><path fill="#07424C" d="M16,0 C7.16153846,0 0,7.16153846 0,16 C0,24.8384615 7.16153846,32 16,32 C24.8384615,32 32,24.8384615 32,16 C32,7.16153846 24.8384615,0 16,0 Z M15.6538462,8 C16.5076923,8 17.1923077,8.69230769 17.1923077,9.53846154 C17.1923077,10.3846154 16.5,11.0769231 15.6538462,11.0769231 C14.8076923,11.0769231 14.1153846,10.3846154 14.1153846,9.53846154 C14.1153846,8.69230769 14.8,8 15.6538462,8 Z M18.4615385,23.3846154 L13.5384615,23.3846154 L13.5384615,22.7692308 L14.7692308,22.7692308 L14.7692308,13.5384615 L13.5384615,13.5384615 L13.5384615,12.9230769 L17.2307692,12.9230769 L17.2307692,22.7692308 L18.4615385,22.7692308 L18.4615385,23.3846154 Z"/></svg>