<?xml version="1.0" encoding="UTF-8"?>
<svg width="18px" height="18px" viewBox="0 0 18 18" version="1.1" xmlns="http://www.w3.org/2000/svg" xmlns:xlink="http://www.w3.org/1999/xlink">
    <title>icon/menu</title>
    <g id="Design-Mockups" stroke="none" stroke-width="1" fill="none" fill-rule="evenodd">
        <g id="Global-Header-Dropdown-[mobile]" transform="translate(-345, -49)" fill="#D1EA8D" fill-rule="nonzero">
            <g id="menu-button" transform="translate(343, 49)">
                <g id="icon/menu" transform="translate(2, 0)">
                    <path d="M17.4974373,15.0695981 L11.4278392,9 L17.4974373,2.93040194 C18.1675209,2.26031832 18.1675209,1.17264634 17.4974373,0.502562719 C16.8273537,-0.167520906 15.7396817,-0.167520906 15.0695981,0.502562719 L9,6.57216078 L2.93040194,0.502562719 C2.26031832,-0.167520906 1.17264634,-0.167520906 0.502562719,0.502562719 C-0.167520906,1.17264634 -0.167520906,2.26031832 0.502562719,2.93040194 L6.57216078,9 L0.502562719,15.0695981 C-0.167520906,15.7396817 -0.167520906,16.8273537 0.502562719,17.4974373 C1.17264634,18.1675209 2.26031832,18.1675209 2.93040194,17.4974373 L9,11.4278392 L15.0695981,17.4974373 C15.7396817,18.1675209 16.8273537,18.1675209 17.4974373,17.4974373 C18.1675209,16.8273537 18.1675209,15.7396817 17.4974373,15.0695981 Z" id="Path"></path>
                </g>
            </g>
        </g>
    </g>
</svg>