<?xml version="1.0" encoding="UTF-8"?>
<svg width="24px" height="24px" viewBox="0 0 24 24" version="1.1" xmlns="http://www.w3.org/2000/svg" xmlns:xlink="http://www.w3.org/1999/xlink">
    <title>icon/menu</title>
    <g id="icon/menu" stroke="none" stroke-width="1" fill="none" fill-rule="evenodd">
        <path d="M15.4285714,19 C16.3753457,19 17.1428571,19.7675114 17.1428571,20.7142857 C17.1428571,21.5934331 16.4810743,22.318012 15.6284931,22.4170377 L15.4285714,22.4285714 L1.71428571,22.4285714 C0.767511429,22.4285714 0,21.66106 0,20.7142857 C0,19.8351383 0.661782857,19.1105594 1.514364,19.0115337 L1.71428571,19 L15.4285714,19 Z M22.2857143,10.5714286 C23.2324886,10.5714286 24,11.33894 24,12.2857143 C24,13.1648617 23.3382171,13.8894406 22.485636,13.9884663 L22.2857143,14 L1.71428571,14 C0.767511429,14 0,13.2324886 0,12.2857143 C0,11.4065669 0.661782857,10.681988 1.514364,10.5829623 L1.71428571,10.5714286 L22.2857143,10.5714286 Z M22.2857143,19 C23.2324886,19 24,19.7675114 24,20.7142857 C24,21.5934331 23.3382171,22.318012 22.485636,22.4170377 L22.2857143,22.4285714 L1.71428571,22.4285714 C0.767511429,22.4285714 0,21.66106 0,20.7142857 C0,19.8351383 0.661782857,19.1105594 1.514364,19.0115337 L1.71428571,19 L22.2857143,19 Z M22.2857143,2 C23.2324886,2 24,2.76751143 24,3.71428571 C24,4.59343314 23.3382171,5.318012 22.485636,5.41703771 L22.2857143,5.42857143 L1.71428571,5.42857143 C0.767511429,5.42857143 0,4.66106 0,3.71428571 C0,2.83513829 0.661782857,2.11055943 1.514364,2.01153371 L1.71428571,2 L22.2857143,2 Z" id="hamburger" fill="#000000" fill-rule="nonzero"></path>
    </g>
</svg>