<?xml version="1.0" encoding="UTF-8"?>
<svg width="21px" height="24px" viewBox="0 0 21 24" version="1.1" xmlns="http://www.w3.org/2000/svg" xmlns:xlink="http://www.w3.org/1999/xlink">
    <title>icon/arrow-right</title>
    <g id="Design-Mockups" stroke="none" stroke-width="1" fill="none" fill-rule="evenodd">
        <g id="Talk-To-Your-Doctor-[mobile]" transform="translate(-184, -1815)" fill="#07424C" fill-rule="nonzero">
            <g id="Group-2" transform="translate(15, 1586)">
                <g id="Group" transform="translate(15, 40)">
                    <g id="button/link/cta" transform="translate(0, 176)">
                        <g id="button/icon/large" transform="translate(144, 5)">
                            <g id="9040508_filetype_pdf_icon" transform="translate(10, 8)">
                                <path d="M21,6.75 L21,21 C21,22.6568542 19.6568542,24 18,24 L16.5,24 L16.5,22.5 L18,22.5 C18.8284271,22.5 19.5,21.8284271 19.5,21 L19.5,6.75 L16.5,6.75 C15.2573593,6.75 14.25,5.74264069 14.25,4.5 L14.25,1.5 L6,1.5 C5.17157288,1.5 4.5,2.17157288 4.5,3 L4.5,16.5 L3,16.5 L3,3 C3,1.34314575 4.34314575,0 6,0 L14.25,0 L21,6.75 Z M2.4,17.775 L0,17.775 L0,23.7735 L1.1865,23.7735 L1.1865,21.7605 L2.391,21.7605 C2.8215,21.7605 3.1875,21.675 3.489,21.501 C3.7935,21.3255 4.026,21.0885 4.1835,20.79 C4.34697992,20.4767694 4.42997188,20.1277908 4.425,19.7745 C4.425,19.3995 4.3455,19.0605 4.188,18.759 C4.03134092,18.4592894 3.79183072,18.2109277 3.498,18.0435 C3.198,17.8635 2.8335,17.775 2.4,17.775 L2.4,17.775 Z M3.2175,19.7745 C3.22290747,19.9721315 3.17909327,20.1680068 3.09,20.3445 C3.01007121,20.4981664 2.88565316,20.6241527 2.733,20.706 C2.55838197,20.7923887 2.36523789,20.8346228 2.1705,20.829 L1.182,20.829 L1.182,18.72 L2.172,18.72 C2.499,18.72 2.7555,18.81 2.94,18.9915 C3.1245,19.1745 3.2175,19.4355 3.2175,19.7745 Z M5.043,17.775 L5.043,23.7735 L7.233,23.7735 C7.8345,23.7735 8.334,23.6535 8.73,23.418 C9.1307339,23.1782443 9.44366219,22.8158786 9.6225,22.3845 C9.8175,21.9345 9.9165,21.3915 9.9165,20.7585 C9.9165,20.1285 9.819,19.5915 9.6225,19.146 C9.44577202,18.7195771 9.13584305,18.3617644 8.739,18.126 C8.343,17.892 7.8405,17.775 7.2315,17.775 L5.043,17.775 Z M6.2295,18.7425 L7.074,18.7425 C7.446,18.7425 7.749,18.8175 7.9875,18.9705 C8.2350576,19.1324036 8.42183356,19.3719412 8.5185,19.6515 C8.637,19.953 8.6955,20.3295 8.6955,20.781 C8.70015047,21.0801707 8.66586277,21.3786754 8.5935,21.669 C8.54006035,21.8979684 8.439976,22.1134561 8.2995,22.302 C8.16898953,22.4702129 7.99607557,22.6006749 7.7985,22.68 C7.56699695,22.7666168 7.32111819,22.8083602 7.074,22.803 L6.2295,22.803 L6.2295,18.7425 L6.2295,18.7425 Z M11.844,21.387 L11.844,23.7735 L10.659,23.7735 L10.659,17.775 L14.481,17.775 L14.481,18.7545 L11.844,18.7545 L11.844,20.43 L14.253,20.43 L14.253,21.387 L11.844,21.387 L11.844,21.387 Z" id="Shape"></path>
                            </g>
                        </g>
                    </g>
                </g>
            </g>
        </g>
    </g>
</svg>