<?xml version="1.0" encoding="UTF-8"?>
<svg width="24px" height="24px" viewBox="0 0 24 24" version="1.1" xmlns="http://www.w3.org/2000/svg" xmlns:xlink="http://www.w3.org/1999/xlink">
    <title>icon/plus copy</title>
    <g id="icon/plus-copy" stroke="none" stroke-width="1" fill="none" fill-rule="evenodd">
        <path d="M23.3299164,20.0927974 L15.237119,12 L23.3299164,3.90720259 C24.2233612,3.01375776 24.2233612,1.56352846 23.3299164,0.670083626 C22.4364715,-0.223361209 20.9862422,-0.223361209 20.0927974,0.670083626 L12,8.76288104 L3.90720259,0.670083626 C3.01375776,-0.223361209 1.56352846,-0.223361209 0.670083626,0.670083626 C-0.223361209,1.56352846 -0.223361209,3.01375776 0.670083626,3.90720259 L8.76288104,12 L0.670083626,20.0927974 C-0.223361209,20.9862422 -0.223361209,22.4364715 0.670083626,23.3299164 C1.56352846,24.2233612 3.01375776,24.2233612 3.90720259,23.3299164 L12,15.237119 L20.0927974,23.3299164 C20.9862422,24.2233612 22.4364715,24.2233612 23.3299164,23.3299164 C24.2233612,22.4364715 24.2233612,20.9862422 23.3299164,20.0927974 Z" id="Path" fill="#FFFFFF" fill-rule="nonzero"></path>
    </g>
</svg>