<?xml version="1.0" encoding="UTF-8"?>
<svg width="25px" height="24px" viewBox="0 0 25 24" version="1.1" xmlns="http://www.w3.org/2000/svg" xmlns:xlink="http://www.w3.org/1999/xlink">
    <title>icon/quote</title>
    <g id="icon/quote" stroke="none" stroke-width="1" fill="none" fill-rule="evenodd">
        <g id="Group" transform="translate(0, 2)" fill="#006171" fill-rule="nonzero">
            <path d="M11.0754667,5.53706667 C11.0754667,2.47893333 8.59573333,0 5.5376,0 C2.47946667,0 0,2.47893333 0,5.53706667 C0,8.5312 2.37786667,10.9645333 5.34666667,11.0653333 C4.98746667,13.4936 3.2464,16.452 0.602133333,19.0962667 C5.4184,19.0965333 11.0754667,12.2304 11.0754667,5.53706667 Z" id="Path"></path>
            <path d="M18.5378667,0 C15.4797333,0 13,2.47893333 13,5.53706667 C13,8.5312 15.3778667,10.9645333 18.3466667,11.0653333 C17.9874667,13.4936 16.2464,16.452 13.6021333,19.0962667 C18.4186667,19.0965333 24.0757333,12.2304 24.0757333,5.53706667 C24.0757333,2.47893333 21.5962667,0 18.5378667,0 Z" id="Path"></path>
        </g>
    </g>
</svg>