<svg width="16" height="18" viewBox="0 0 16 18" fill="none" xmlns="http://www.w3.org/2000/svg">
<g id="Union">
<path fill-rule="evenodd" clip-rule="evenodd" d="M14.7423 6.91323C14.3722 6.50329 13.7398 6.47098 13.3299 6.84107L9 10.75V1C9 0.447715 8.55228 6.58593e-09 8 0C7.44772 -6.58593e-09 7 0.447715 7 1L7 10.75L2.6701 6.84107C2.26016 6.47098 1.62782 6.50329 1.25773 6.91323C0.887644 7.32317 0.919953 7.95551 1.3299 8.3256L7.3299 13.7423C7.71055 14.0859 8.28945 14.0859 8.6701 13.7423L14.6701 8.3256C15.08 7.95551 15.1124 7.32317 14.7423 6.91323Z" fill="#006171"/>
<path fill-rule="evenodd" clip-rule="evenodd" d="M0 17C4.82823e-08 16.4477 0.447715 16 1 16L15 16C15.5523 16 16 16.4477 16 17C16 17.5523 15.5523 18 15 18L1 18C0.447715 18 -4.82823e-08 17.5523 0 17Z" fill="#006171"/>
</g>
</svg>
