<svg width="471" height="388" viewBox="0 0 471 388" fill="none" xmlns="http://www.w3.org/2000/svg">
<mask id="mask0_104_185" style="mask-type:alpha" maskUnits="userSpaceOnUse" x="0" y="0" width="471" height="388">
<rect x="0.774902" width="470" height="388" fill="#D9D9D9"/>
</mask>
<g mask="url(#mask0_104_185)">
<path fill-rule="evenodd" clip-rule="evenodd" d="M10.1377 279.937C13.8666 198.588 84.3559 156.963 137.574 110.625C187.987 66.7299 239.193 18.0501 298.651 28.7223C367.445 41.0703 437.347 86.0812 461.766 168.815C485.728 250.002 446.98 335.512 411.664 411.626C378.032 484.108 338.201 564.392 273.363 574.859C210.912 584.94 168.244 510.673 121.63 458.446C74.5183 405.661 6.41977 361.045 10.1377 279.937Z" fill="#FBE9DC"/>
<path d="M63.4935 328.953H55.2974V490.557H63.4935V328.953Z" fill="#6D72A0"/>
<path d="M166.529 328.953H158.333V490.557H166.529V328.953Z" fill="#6D72A0"/>
<path d="M426.947 329.634C426.947 321.044 419.879 314.077 411.142 314.059L386.973 314.007L322.171 313.786L139.517 313.611L149.348 345.378L322.061 344.947L386.862 345.169L411.072 345.221C419.833 345.238 426.947 338.26 426.947 329.646V329.634Z" fill="white"/>
<path d="M157.783 313.467H48.9646C41.577 313.467 35.5854 320.602 35.5854 329.408C35.5854 338.214 41.577 345.35 48.9646 345.35H157.783C164.799 345.35 170.482 338.214 170.482 329.408C170.482 320.602 164.799 313.467 157.783 313.467Z" fill="#F9C29D"/>
<path d="M302.971 142.039C303.006 142.12 302.971 142.074 302.954 142.027C302.959 142.027 302.965 142.033 302.971 142.039Z" fill="white"/>
<path d="M255.685 291.416C256.127 291.596 256.622 291.748 257.081 291.899C256.203 291.596 255.685 291.416 255.685 291.416Z" fill="#FFB288"/>
<path d="M254.636 291.326C255.073 291.501 255.555 291.646 256.009 291.798C255.142 291.501 254.636 291.326 254.636 291.326Z" fill="#FFB288"/>
<path d="M372.769 225.975C369.797 205.447 362.863 157.68 362.037 149.957L338.972 162.54C344.644 196.472 352.142 223.752 362.037 235.776C362.327 236.137 362.799 234.566 365.399 234.647C367.47 234.711 369.401 233.873 370.838 232.284C372.397 230.561 373.101 228.262 372.769 225.969V225.975Z" fill="#FF9985"/>
<path d="M256.34 272.588C256.823 272.78 257.364 272.949 257.87 273.112C256.904 272.78 256.34 272.588 256.34 272.588Z" fill="#FFB288"/>
<path d="M255.194 272.484C255.671 272.671 256.2 272.834 256.701 272.991C255.753 272.671 255.194 272.484 255.194 272.484Z" fill="#FFB288"/>
<path d="M386.973 276.703C409.66 281.551 437.174 297.79 435.697 323.329C433.672 346.563 423.05 372.329 415.32 394.551C408.101 415.288 398.188 436.922 386.351 457.386C384.897 459.9 382.209 461.431 379.335 461.431H355.422C352.787 461.431 351.152 458.544 352.374 456.175C385.315 392.333 389.963 350.015 392.069 332.519C392.598 328.136 389.579 324.225 385.269 323.678C374.176 322.27 353.461 319.651 331.392 316.176C307.92 312.48 303.109 288.501 301.899 264.97C301.894 264.836 353.456 269.538 386.979 276.709L386.973 276.703Z" fill="#66D3D8"/>
<path d="M353.944 286.365C376.631 291.103 400.887 302.411 399.41 327.357C397.386 350.05 386.764 375.205 379.027 396.909C371.808 417.163 361.896 438.285 350.058 458.271C348.604 460.727 345.917 462.223 343.043 462.223H319.129C316.494 462.223 314.86 459.406 316.081 457.09C349.023 394.738 353.671 353.414 355.776 336.326C356.306 332.048 353.287 328.23 348.976 327.694C337.883 326.321 317.169 323.76 295.099 320.367C271.628 316.752 256.311 298.646 255.096 275.673C255.09 275.539 320.421 279.369 353.944 286.371V286.365Z" fill="#66D3D8"/>
<path d="M351.213 459.696L349.544 458.439C361.195 438.534 371.212 417.063 378.513 396.349C379.868 392.502 381.31 388.538 382.782 384.511C389.559 365.956 397.238 344.921 398.988 326.058L398.889 325.808L398.901 325.633C400.175 299.867 374.819 289.042 353.319 284.496C322.611 278.006 266.331 274.363 260.014 273.967L260.125 271.697C266.454 272.093 322.855 275.742 353.685 282.261C375.912 286.958 402.112 298.278 400.914 325.528C400.984 325.79 401.007 326.047 400.978 326.303C399.198 345.492 391.455 366.683 384.632 385.384C383.166 389.405 381.723 393.357 380.368 397.193C373.021 418.053 362.935 439.663 351.207 459.696H351.213Z" fill="#55AEB7"/>
<path d="M351.446 460.837L348.532 458.643L348.881 458.05C360.509 438.179 370.503 416.755 377.786 396.093C379.141 392.246 380.59 388.283 382.061 384.249C388.809 365.77 396.435 344.881 398.209 326.175L398.11 325.931L398.122 325.75C399.384 300.386 374.365 289.746 353.162 285.259C322.472 278.769 266.274 275.137 259.968 274.747L259.206 274.701L259.392 270.883L260.178 270.935C266.518 271.331 323.007 274.992 353.855 281.511C376.326 286.26 402.851 297.743 401.7 325.459C401.769 325.768 401.787 326.076 401.758 326.379C399.972 345.661 392.212 366.905 385.371 385.646C383.899 389.685 382.457 393.631 381.107 397.455C373.743 418.356 363.639 440.013 351.888 460.092L351.452 460.843L351.446 460.837ZM350.562 458.236L350.987 458.556C362.505 438.773 372.405 417.483 379.647 396.931C380.997 393.102 382.439 389.15 383.9 385.14C390.723 366.451 398.442 345.312 400.216 326.227C400.228 326.064 400.216 325.896 400.17 325.727L400.141 325.61V325.494C401.321 298.785 375.447 287.651 353.535 283.018C323.804 276.732 270.09 273.106 260.864 272.518L260.829 273.24C269.979 273.822 323.676 277.431 353.482 283.734C375.279 288.344 400.984 299.361 399.681 325.669C399.681 325.686 399.78 325.948 399.78 325.948L399.762 326.128C398.006 345.079 390.316 366.148 383.527 384.738C382.038 388.806 380.601 392.764 379.246 396.611C372.01 417.157 362.097 438.453 350.568 458.242L350.562 458.236Z" fill="#55AEB7"/>
<path d="M273.793 156.339C273.962 138.488 291.256 121.761 308.701 119.258C329.026 116.348 339.956 116.139 351.712 126.01C364.533 136.766 366.086 153.673 357.605 168.038C325.57 222.3 353.958 230.105 347.175 264.007C346.331 268.227 342.719 271.323 338.38 271.544C313.617 272.802 295.659 283.255 262.328 278.913C259.483 278.54 256.325 278.674 254.207 276.707C252.09 274.74 251.177 266.039 250.909 262.884C264.527 215.292 273.572 179.311 273.787 156.327L273.793 156.339Z" fill="#55AEB7"/>
<path d="M328.351 142.062C322.679 138.372 316.967 134.746 311.202 131.189C307.491 128.896 306.025 124.875 307.985 122.389C310.708 118.938 314.663 116.424 319.997 116.336C325.925 116.243 337.274 119.019 337.094 125.014C336.878 132.289 337.117 128.856 335.878 140.409C335.564 143.348 331.637 144.203 328.345 142.062H328.351Z" fill="#FF9985"/>
<path d="M373.993 77.2117C373.266 78.9811 372.149 80.6573 371.957 82.5488C371.794 84.1669 372.335 85.7616 372.3 87.3855C372.271 89.0035 371.34 90.8718 369.682 91.0813C368.891 91.1803 368.106 90.8776 367.321 90.9765C365.105 91.2559 364.564 94.0554 363.54 95.9878C362.394 98.1587 359.968 99.6487 357.478 99.7127C355.687 99.7592 353.651 99.2063 352.266 100.335C351.179 101.226 350.894 102.931 349.596 103.502C347.694 104.334 345.903 101.948 343.832 101.889C342.372 101.849 341.173 102.955 339.876 103.636C337.462 104.904 334.315 104.637 332.215 102.989C331.098 102.111 330.226 100.859 328.87 100.376C327.114 99.7534 324.973 100.586 323.344 99.7069C319.964 97.8735 322.379 94.0321 322.146 90.5807C321.855 86.2389 317.056 82.3568 318.877 78.335C319.301 77.3921 320.087 76.5133 320.005 75.5006C319.918 74.4704 318.947 73.7021 318.743 72.6836C318.371 70.7804 320.715 69.2555 321.401 67.5094C321.425 67.329 321.605 66.3162 321.57 66.1707C323.333 54.7631 330.4 45.7418 339.783 44.5021C347.56 43.4777 355.064 48.0466 359.927 55.706C360.032 55.706 360.125 55.6769 360.23 55.6827C362.789 55.77 364.831 57.0679 366.553 58.8547C369.712 62.1373 367.897 66.1475 370.125 69.2613C370.98 70.4544 372.696 70.7629 373.696 71.8396C374.999 73.2307 374.726 75.4424 373.999 77.2117H373.993Z" fill="#000543"/>
<path d="M331.891 88.6911C336.289 85.7926 344.909 83.2317 348.306 80.7581C350.598 79.0877 352.925 77.3068 354.694 75.13C355.589 74.0183 356.764 72.1966 357.404 69.1002C357.393 69.1352 355.839 65.7594 357.108 68.2447C354.1 62.3662 353.652 56.773 354.915 51.8317C354.408 48.9448 353.379 45.6855 350.226 41.786C343.211 33.1138 338.953 33.8297 334.13 31.5773C329.395 29.3598 329.587 29.9011 323.398 28.5508C317.982 27.3693 312.136 28.7719 307.663 32.0487C307.663 32.0487 305.086 34.1964 304.19 35.2964C303.225 36.4779 302.37 37.7409 301.48 38.9806C300.049 39.679 294.778 42.6648 293.888 46.4421C292.137 53.8629 294.127 57.1921 294.127 57.1921C297.943 56.8545 301.77 52.0004 304.964 52.8851C306.389 53.4148 307.006 53.6883 307.814 54.2703C312.154 57.4133 315.743 59.98 316.865 65.6489C317.79 70.2992 315.754 75.7586 318.843 79.4777C321.606 82.8011 327.202 82.9757 330.233 86.0895C330.978 86.8519 331.484 87.7424 331.891 88.6795V88.6911Z" fill="#000543"/>
<path d="M338.408 82.3632C336.418 80.8383 334.679 78.9642 333.353 76.8224C330.98 72.9927 329.88 68.4704 327.6 64.5825C324.837 59.8681 317.275 51.5452 303.692 49.997C302.372 49.8457 300.37 49.6944 300.039 48.088C299.94 47.5991 300.126 46.9065 300.423 46.1498C301.005 44.6831 302.04 42.9895 302.418 42.1106C302.563 41.7672 302.726 41.4064 303.023 41.1794C303.291 40.9757 303.634 40.9174 303.96 40.8651C306.816 40.3936 309.672 39.9164 312.522 39.4449C316.449 38.7931 320.393 38.1412 324.366 38.1121C327.67 38.0888 331.166 38.5777 333.743 40.6672C337.908 44.0429 338.286 50.2123 340.397 55.1886C340.88 56.3294 341.479 57.412 342.125 58.4712L343.963 56.9638C344.271 58.4829 344.44 60.1533 344.498 61.9459C345.598 63.4301 346.732 64.8851 347.808 66.3751L341.91 78.6267C341.119 81.2574 340.159 84.0336 338.949 87.0311C337.617 90.3253 335.93 93.0317 333.946 95.0339C333.865 95.0571 334.348 84.4644 334.348 84.4644C335.918 84.4178 337.355 83.6379 338.414 82.3691L338.408 82.3632Z" fill="#000543"/>
<path d="M293.717 60.4041L292.955 77.2013C292.437 88.6788 301.384 98.4742 312.843 98.9689C313.751 99.0097 314.641 98.9689 315.525 98.8933L314.39 123.92C314.292 126.08 315.571 127.907 317.235 127.977L329.323 128.501C330.986 128.571 332.423 126.865 332.522 124.706L333.866 95.0577L334.343 84.4649C335.913 84.4184 337.35 83.6385 338.409 82.3696C336.419 80.8447 334.68 78.9707 333.354 76.8288C330.981 72.9991 329.881 68.4768 327.601 64.5889C324.838 59.8745 317.276 51.5516 303.693 50.0034C302.373 49.8521 300.371 49.7007 300.04 48.0944C299.941 47.6055 300.127 46.9129 300.424 46.1562C296.55 49.7531 293.979 54.7469 293.723 60.41L293.717 60.4041ZM314.03 67.109L312.837 65.7878L315.408 65.9101C316.246 65.9508 316.868 67.0334 316.804 68.3196C316.74 69.6117 316.008 70.6244 315.176 70.5895C314.338 70.5488 313.716 69.472 313.78 68.1799C313.797 67.7842 313.896 67.4292 314.024 67.109H314.03ZM312.035 60.7766C312.069 60.0317 312.709 59.4554 313.448 59.4904L318.515 59.7348C319.253 59.7697 319.829 60.41 319.794 61.1491C319.76 61.8941 319.12 62.4703 318.381 62.4354L313.314 62.191C312.576 62.156 312 61.5158 312.035 60.7766ZM301.564 84.1041L309.714 83.8538C309.458 85.2739 309.231 86.6883 306.113 86.9618C306.113 86.9618 300.901 87.4565 301.564 84.1041ZM301.011 75.1584L301.197 74.7161C301.273 75.7521 301.814 76.7008 302.722 77.0442L304.944 77.8939C305.711 78.1849 306.439 77.8066 306.892 77.1489L306.927 77.4108C307.131 78.9765 305.839 80.2627 304.56 79.7739L302.332 78.9241C301 78.4177 300.377 76.6484 301.006 75.1642L301.011 75.1584ZM295.84 66.236L294.648 64.9148L297.219 65.037C298.056 65.0778 298.679 66.1545 298.615 67.4524C298.551 68.7445 297.818 69.7572 296.986 69.7165C296.148 69.6758 295.526 68.599 295.59 67.3011C295.607 66.9053 295.706 66.5503 295.834 66.2302L295.84 66.236ZM293.81 59.9036C293.845 59.1586 294.351 58.5766 294.921 58.5999L298.853 58.7919C299.429 58.821 299.865 59.4496 299.83 60.1946C299.796 60.9396 299.295 61.5274 298.719 61.4983L294.787 61.3121C294.211 61.283 293.775 60.6544 293.81 59.9094V59.9036Z" fill="#FF9985"/>
<path d="M312.033 60.7702C312.067 60.0252 312.707 59.449 313.446 59.4839L318.513 59.7284C319.251 59.7633 319.827 60.4035 319.792 61.1427C319.757 61.8877 319.118 62.4639 318.379 62.429L313.312 62.1845C312.573 62.1496 311.998 61.5094 312.033 60.7702Z" fill="#000543"/>
<path d="M294.919 58.5918L298.852 58.7839C299.428 58.813 299.864 59.4415 299.829 60.1865C299.794 60.9315 299.294 61.5194 298.718 61.4903L294.786 61.304C294.21 61.2749 293.773 60.6463 293.808 59.9013C293.843 59.1564 294.349 58.5743 294.919 58.5976V58.5918Z" fill="#000543"/>
<path d="M301.198 74.7109C301.273 75.7469 301.814 76.6956 302.722 77.039L304.944 77.8888C305.712 78.1798 306.439 77.8015 306.893 77.1438L306.927 77.4057C307.131 78.9713 305.84 80.2576 304.56 79.7687L302.332 78.9189C301 78.4126 300.378 76.6432 301.006 75.1591L301.192 74.7168L301.198 74.7109Z" fill="#FA694F"/>
<path d="M315.408 65.9093C316.245 65.9501 316.868 67.0326 316.804 68.3189C316.74 69.611 316.007 70.6237 315.175 70.5888C314.337 70.5481 313.715 69.4713 313.779 68.1792C313.796 67.7834 313.895 67.4284 314.023 67.1083L312.831 65.7871L315.402 65.9093H315.408Z" fill="#000543"/>
<path d="M297.225 65.0363C298.063 65.077 298.685 66.1537 298.621 67.4516C298.557 68.7437 297.824 69.7565 296.992 69.7157C296.155 69.675 295.532 68.5982 295.596 67.3003C295.614 66.9045 295.712 66.5495 295.84 66.2294L294.648 64.9082L297.219 65.0304L297.225 65.0363Z" fill="#000543"/>
<path d="M306.113 86.9556C306.113 86.9556 300.901 87.4504 301.564 84.0979L309.713 83.8477C309.457 85.2678 309.23 86.6821 306.113 86.9556Z" fill="white"/>
<path d="M109.427 291.934C109.934 292.131 110.504 292.306 111.033 292.475C110.021 292.137 109.427 291.934 109.427 291.934Z" fill="#FFB288"/>
<path d="M108.223 291.828C108.724 292.02 109.282 292.189 109.806 292.352C108.811 292.026 108.223 291.828 108.223 291.828Z" fill="#FFB288"/>
<path d="M166.741 132.941C166.776 133.032 166.741 132.981 166.719 132.924C166.724 132.924 166.73 132.935 166.741 132.941Z" fill="white"/>
<path d="M113.778 292.422C114.273 292.62 114.825 292.794 115.343 292.963C114.354 292.62 113.778 292.422 113.778 292.422Z" fill="#FFB288"/>
<path d="M112.609 292.316C113.098 292.508 113.639 292.677 114.151 292.84C113.179 292.508 112.609 292.316 112.609 292.316Z" fill="#FFB288"/>
<path d="M266.357 301.108L274.414 292.995C273.745 291.918 273.343 290.335 272.482 289.153C270.284 286.144 245.875 242.341 239.442 230.672L228.738 213.456C224.573 207.117 215.493 205.721 210.107 211.058C210.078 211.087 210.048 211.116 210.019 211.145C208.926 212.245 208.478 213.002 208.46 213.036L207.821 214.125C203.603 229.531 256.648 291.848 266.363 301.102L266.357 301.108Z" fill="#FF9985"/>
<path d="M230.509 158.52L196.334 157.955C198.05 167.745 205.985 218.165 224.326 240.387C224.873 241.05 227.194 243.029 230.853 243.122C237.147 243.28 241.876 237.32 240.939 231.086C238.112 212.269 230.562 161.75 230.509 158.514V158.52Z" fill="#FF9985"/>
<path d="M246.055 207.34C242.728 188.832 236.55 159.12 234.095 142.363C231.414 143.609 223.258 150.034 220.583 151.303C218.07 152.496 215.527 153.719 213.108 155.156C213.212 155.267 209.408 158.113 209.047 158.439C202.305 164.434 195.534 162.717 188.025 160.255C189.392 169.136 195.511 192.795 201.7 212.939C203.108 217.526 207.07 220.447 211.357 220.11L238.906 217.939C243.641 217.566 247.009 212.59 246.067 207.334L246.055 207.34Z" fill="#E8B08A"/>
<path d="M292.499 308.512C291.428 280.616 265.217 271.886 241.757 270.081C207.477 267.451 142.274 267.585 107.942 264.302C93.6965 262.94 117.453 277.147 117.616 288.345C121.612 289.777 125.492 291.482 129.419 293.269C131.647 294.282 133.851 295.341 136.056 296.406C136.911 296.82 145.09 300.556 140.07 298.385C146.335 301.097 151.39 304.007 154.868 310.223C155.281 310.963 155.653 311.754 155.997 312.575C184.424 313.879 226.301 314.123 245.043 314.251C244.462 317.924 247.475 322.632 246.608 328.4C245.782 333.871 243.985 339.54 245.753 344.796C246.457 346.873 247.696 348.771 248.156 350.913C248.72 353.52 248.08 356.226 247.353 358.793C243.595 372.005 237.278 384.839 237.26 398.551C237.254 404.726 238.54 410.896 237.982 417.042C236.58 432.553 223.666 446.807 227.36 461.957C227.621 463.028 228.418 464.273 229.378 464.366C229.343 464.459 249.517 464.459 249.517 464.459C252.524 464.459 255.2 462.603 256.282 459.774C265.973 434.479 278.544 406.717 283.069 381.347C287.159 358.444 293.389 331.787 292.493 308.506L292.499 308.512Z" fill="#000543"/>
<path d="M197.693 282.804C163.977 275.843 129.273 274.458 95.5635 267.09C95.802 268.312 96.0404 269.534 96.1102 270.803C96.1161 270.931 96.1219 271.065 96.1335 271.193C97.2678 292.414 112.497 310.27 133.554 315.596C136.794 317.342 140.256 318.704 143.688 319.676C150.493 321.602 157.858 322.12 163.937 325.682C166.002 326.893 167.875 328.435 170.079 329.39C174.029 331.101 178.543 330.74 182.83 331.235C187.117 331.729 191.847 333.627 193.184 337.66C194.365 341.222 192.463 344.994 190.648 348.288C187.333 354.312 184.075 360.534 183.051 367.308C181.772 375.765 184.046 384.664 181.405 392.812C177.682 404.296 164.984 411.775 162.814 423.636C162.273 426.581 162.442 429.608 162.104 432.582C161.139 441.033 156.299 448.227 154.048 456.358C152.925 460.42 155.932 464.459 160.121 464.459H177.671C181.044 464.459 184.145 462.702 185.919 459.809C199.153 438.199 214.928 414.947 222.921 392.766C230.466 371.825 240.739 347.653 243.304 325.688C246.375 299.369 221.158 287.647 197.693 282.799V282.804Z" fill="#000543"/>
<path d="M186.318 460.602C186.132 460.602 185.934 460.55 185.765 460.445C185.271 460.136 185.119 459.484 185.422 458.99C187.528 455.562 189.697 452.093 191.879 448.595C203.298 430.319 215.106 411.427 221.656 393.233C223.029 389.438 224.483 385.533 225.967 381.558C232.493 364.074 239.898 344.25 241.981 326.393C245.04 300.179 219.318 289.237 197.201 284.668C182.665 281.665 168.035 279.715 154.289 277.987C153.713 277.917 153.306 277.387 153.382 276.805C153.457 276.229 153.923 275.792 154.557 275.886C168.343 277.626 183.019 279.576 197.626 282.596C230.108 289.301 246.605 304.946 244.069 326.644C241.957 344.756 234.506 364.702 227.933 382.303C226.449 386.272 224.995 390.166 223.634 393.955C216.997 412.364 205.13 431.355 193.659 449.718C191.477 453.21 189.314 456.673 187.208 460.096C187.004 460.416 186.661 460.596 186.312 460.596L186.318 460.602Z" fill="#2D398C"/>
<path d="M111.956 185.941C111.718 190.341 111.787 194.869 110.223 198.972C108.617 203.186 105.424 206.573 103.58 210.682C99.5776 219.581 102.422 230.401 98.9028 239.516C97.2333 243.846 94.2318 247.489 92.1086 251.604C86.0414 263.361 89.1419 280.35 100.724 286.31C116.656 234.295 132.589 182.285 148.528 130.27C149.22 128.018 149.813 125.271 148.26 123.53C146.288 121.325 142.594 122.704 140.588 124.886C124.754 142.132 113.271 161.641 111.956 185.941Z" fill="#F9C29D"/>
<path d="M201.597 261.846C202.83 245.736 204.877 234.707 211.241 219.446C218.6 201.787 223.451 186.311 231.118 169.101C237.906 153.852 235.603 134.68 224.696 122.05C197.321 99.5843 196.181 109.025 177.66 108.117C176.613 108.064 175.577 108.041 174.542 108.018C154.432 107.593 128.773 133.231 122.049 150.593C104.9 194.844 127.011 186.049 95.0929 276.915C93.8656 280.413 97.856 283.265 100.352 286.058C100.427 286.093 100.485 286.117 100.555 286.151H180.539C186.368 286.151 191.94 284.592 196.902 281.81C201.37 279.301 200.27 275.041 201.602 269.931C202.242 267.474 201.37 264.902 201.602 261.846H201.597Z" fill="#F9C29D"/>
<path d="M199.629 107.215H186.628C180.206 107.215 174.953 112.471 174.953 118.896C174.953 125.322 180.206 130.577 186.628 130.577H199.629C206.051 130.577 211.304 125.322 211.304 118.896C211.304 112.471 206.051 107.215 199.629 107.215Z" fill="#FF9985"/>
<path d="M135.307 148.496C133.085 154.514 124.714 176.136 120.055 198.567C118.385 206.605 117.199 214.736 116.931 222.302C116.763 227.046 116.955 231.568 117.629 235.695C117.769 236.562 118.799 239.507 121.986 241.474C127.466 244.856 134.702 242.021 137.081 236.038C137.971 233.791 139.065 231.044 140.275 228.012C142.788 221.697 145.848 214.026 148.971 206.221C156.446 187.556 164.194 168.372 165.195 166.591L135.307 148.496Z" fill="#FF9985"/>
<path d="M160.834 197.619C169.804 181.014 179.204 161.347 181.816 153.804C174.056 154.747 167.128 155.154 161.328 148.828C161.014 148.485 157.669 145.388 157.786 145.307C155.599 143.66 153.266 142.181 150.957 140.738C150.683 140.569 150.311 140.4 149.863 140.237C142.225 137.473 133.814 141.762 131.103 149.422C126.938 161.208 122.098 174.326 117.835 185.612C116.153 190.058 118.759 194.959 123.384 196.047L150.264 202.386C154.464 203.375 158.792 201.419 160.84 197.619H160.834Z" fill="#F9C29D"/>
<path d="M121.607 196.751C119.473 196.064 117.681 194.574 116.622 192.584C115.459 190.395 115.296 187.811 116.174 185.489C121.421 171.631 126.79 156.929 130.903 145.155C131.043 144.753 131.479 144.625 131.88 144.683C132.282 144.823 132.491 145.259 132.351 145.661C128.233 157.447 122.858 172.161 117.611 186.03C116.89 187.933 117.024 190.058 117.983 191.856C118.943 193.66 120.624 194.976 122.625 195.436L149.506 201.768C153.345 202.676 157.335 200.895 159.203 197.438C165.188 186.362 169.359 176.584 172.71 168.732C174.391 164.786 175.845 161.381 177.241 158.471C177.422 158.087 177.881 157.918 178.265 158.111C178.649 158.297 178.806 158.751 178.626 159.135C177.247 162.01 175.799 165.403 174.123 169.332C170.761 177.218 166.573 187.025 160.552 198.165C158.353 202.234 153.665 204.329 149.151 203.264L122.271 196.931C122.049 196.879 121.828 196.815 121.613 196.745L121.607 196.751Z" fill="#FBE9DC"/>
<path d="M151.506 204.319C150.663 204.319 149.813 204.226 148.97 204.022L122.089 197.69C121.845 197.631 121.612 197.562 121.38 197.492C119.024 196.735 117.093 195.123 115.941 192.946C114.673 190.56 114.492 187.743 115.452 185.217C120.728 171.266 126.092 156.576 130.169 144.9C130.419 144.196 131.147 143.8 131.99 143.917C132.938 144.231 133.363 145.116 133.089 145.919C128.977 157.693 123.602 172.412 118.338 186.311C117.698 188.005 117.82 189.896 118.669 191.497C119.53 193.115 121.037 194.279 122.799 194.681L149.685 201.013C153.181 201.845 156.823 200.216 158.527 197.067C164.484 186.038 168.649 176.295 171.988 168.46C173.605 164.66 175.123 161.104 176.554 158.13C176.729 157.763 177.049 157.472 177.438 157.332C177.834 157.198 178.253 157.227 178.619 157.408C178.98 157.583 179.259 157.897 179.399 158.287C179.532 158.677 179.509 159.096 179.329 159.462C177.991 162.245 176.595 165.515 174.978 169.31L174.838 169.63C171.482 177.505 167.299 187.312 161.238 198.528C159.283 202.142 155.508 204.307 151.512 204.307L151.506 204.319Z" fill="#FBE9DC"/>
<path d="M196.512 48.2196L200.189 45.6354L200.485 28.879C209.74 27.8023 217.82 25.0551 229.198 29.3854C232.735 30.7299 237.679 36.3871 239.459 39.7279C241.774 44.0698 242.792 49.1799 242.001 54.453L239.162 73.2873C237.22 86.1558 225.423 95.1422 212.939 93.2565C200.456 91.3707 191.829 79.2996 193.772 66.4311L196.518 48.2138L196.512 48.2196Z" fill="#FF9985"/>
<path d="M188.788 35.9599C186.403 38.2182 184.064 41.0817 184.297 44.3585C184.396 45.703 184.931 47.0067 184.873 48.3512C184.78 50.5687 183.157 52.3613 181.807 54.119C180.452 55.8767 179.248 58.1757 180.103 60.2186C180.917 62.1742 183.285 63.053 184.297 64.9097C185.792 67.6627 184.006 71.8881 186.513 73.7681C187.549 74.548 189.049 74.6004 189.957 75.5258C191.225 76.8295 190.702 79.1518 191.859 80.5545C192.755 81.637 194.43 81.7942 195.727 81.2529C197.025 80.7116 198.002 79.6232 198.845 78.4999C200.445 76.3639 201.765 73.7972 201.48 71.1432C201.143 68.0235 198.729 65.6023 197.234 62.8494C194.861 58.4667 195.012 52.5999 198.281 48.8401C199.357 47.6004 200.707 46.6342 201.841 45.4469C202.975 44.2595 203.918 42.7463 203.865 41.105C203.819 39.6208 202.975 38.2996 202.382 36.9377C201.789 35.5758 201.486 33.8704 202.4 32.7006C202.83 32.1477 203.481 31.7985 203.889 31.2281C205.023 29.6683 203.796 27.9629 202.225 27.4624C200.683 26.9735 199.793 27.6195 198.531 28.4227C195.07 30.6228 191.766 33.1313 188.788 35.9541V35.9599Z" fill="white"/>
<path d="M195.651 53.9344C192.347 53.4338 189.183 56.2624 188.578 60.2435C187.978 64.2245 190.166 67.8621 193.475 68.3568C196.78 68.8574 199.944 66.0288 200.549 62.0477C201.148 58.0609 198.955 54.4291 195.651 53.9344Z" fill="#FF9985"/>
<path d="M206.595 121.218L180.36 117.47L191.779 72.2234C192.389 69.8139 194.803 68.3239 197.142 68.9176L214.174 73.2245C216.513 73.8182 217.932 76.2743 217.327 78.6839L206.589 121.224L206.595 121.218Z" fill="#FF9985"/>
<path d="M195.897 49.345L192.622 67.085C191.54 72.9343 192.063 79.6159 195.449 84.5049C197.13 86.9319 201.347 91.2913 203.639 93.148C207.985 96.6634 219.799 97.0824 224.761 97.5306C226.413 97.6819 228.245 97.2163 229.979 96.3491C233.998 94.3411 236.616 90.296 237.279 85.8494L239.1 73.6618C239.1 73.6618 223.033 73.5105 213.522 69.8496C205.757 66.8638 205.227 65.0945 203.907 56.8763L201.278 40.5215L195.891 49.345H195.897Z" fill="white"/>
<path d="M217.896 75.7539C217.838 77.2613 218.443 79.1995 221.95 80.2588C221.95 80.2588 227.116 81.6323 227.174 78.0587L217.896 75.7597V75.7539Z" fill="#FF9985"/>
<path d="M222.201 50.3222L217.053 49.5714C216.303 49.4608 215.593 49.9846 215.488 50.7412C215.378 51.492 215.907 52.2021 216.658 52.3069L221.806 53.0577C222.556 53.1683 223.266 52.6386 223.37 51.8878C223.481 51.137 222.957 50.4269 222.201 50.3222Z" fill="white"/>
<path d="M242.493 53.2812L237.344 52.5304C236.594 52.4198 235.884 52.9436 235.78 53.7002C235.669 54.451 236.199 55.1611 236.949 55.2659L242.097 56.0167C242.847 56.1273 243.557 55.5976 243.662 54.8468C243.772 54.096 243.243 53.386 242.493 53.2812Z" fill="white"/>
<path d="M238.063 59.091C237.865 60.4354 237.004 61.419 236.132 61.291C235.259 61.163 234.713 59.9698 234.91 58.6312C235.108 57.2867 235.969 56.3031 236.842 56.4311C237.714 56.5592 238.261 57.7523 238.063 59.091Z" fill="#000543"/>
<path d="M218.704 56.6418C218.506 57.9862 217.645 58.9699 216.773 58.8418C215.9 58.7138 215.353 57.5206 215.545 56.182C215.743 54.8375 216.604 53.8539 217.476 53.9819C218.349 54.11 218.896 55.3031 218.704 56.6418Z" fill="#000543"/>
<path d="M234.787 49.9822L226.801 48.8181C226.405 48.7599 226.132 48.3933 226.19 47.9975C226.254 47.5552 226.626 47.2816 227.016 47.3398L235.003 48.5038C235.398 48.562 235.672 48.9287 235.613 49.3245C235.549 49.7668 235.183 50.0404 234.787 49.9822Z" fill="#FA694F"/>
<path d="M237.46 46.6879L222.155 44.4529C221.759 44.3947 221.486 44.028 221.544 43.6323C221.608 43.1899 221.975 42.9164 222.37 42.9746L237.675 45.2095C238.07 45.2677 238.344 45.6344 238.286 46.0302C238.222 46.4725 237.855 46.7461 237.46 46.6879Z" fill="#FA694F"/>
<path d="M230.368 67.3793L230.263 66.8555C229.879 67.9206 228.943 68.7529 227.715 68.8344L224.725 69.0381C223.696 69.1079 222.905 68.4793 222.532 67.6529L222.416 67.9148C221.718 69.4979 222.951 71.2498 224.673 71.1334L227.663 70.9296C229.455 70.8074 230.723 69.137 230.368 67.3793Z" fill="#FA694F"/>
<path d="M241.581 143.018L196.825 267.041C195.033 272.012 197.639 277.494 202.624 279.235L275.774 305.504L324.274 164.004L253.011 137.571C248.352 135.947 243.256 138.374 241.581 143.012V143.018Z" fill="white"/>
<path d="M327.093 164.913L276.072 306.344L352.571 284.996C356.946 283.773 360.459 280.508 362.006 276.236L407.6 149.868C408.851 146.41 405.669 142.982 402.132 143.972L327.099 164.913H327.093Z" fill="white"/>
<path d="M389.01 194.619C388.527 193.734 388.515 192.797 388.567 191.895C388.707 189.572 389.213 187.285 390.08 185.097C390.871 183.089 392.36 180.924 395.327 180.592C398.195 180.272 400.806 182.46 402.115 184.782C405.169 190.189 402.005 198.373 394.885 197.785C391.22 197.482 389.632 195.754 389.004 194.619H389.01Z" fill="#FF9985"/>
<path d="M395.256 183.828L381.371 182.879C380.429 182.815 379.708 181.989 379.76 181.052C379.812 180.109 380.627 179.393 381.569 179.457L395.454 180.406C396.397 180.47 397.118 181.296 397.066 182.233C397.013 183.176 396.199 183.892 395.256 183.828Z" fill="#FF9985"/>
<path d="M393.61 188.371L379.725 187.422C378.783 187.358 378.061 186.532 378.114 185.595C378.166 184.652 378.98 183.936 379.923 184L393.808 184.949C394.75 185.013 395.472 185.839 395.419 186.776C395.367 187.719 394.553 188.435 393.61 188.371Z" fill="#FF9985"/>
<path d="M395.239 193.211L381.354 192.262C380.411 192.198 379.69 191.372 379.742 190.435C379.795 189.492 380.609 188.776 381.552 188.84L395.437 189.789C396.379 189.853 397.1 190.679 397.048 191.616C396.996 192.559 396.181 193.275 395.239 193.211Z" fill="#FF9985"/>
<path d="M393.94 194.14L384.796 193.518C383.853 193.454 383.039 194.17 382.987 195.112C382.934 196.055 383.656 196.876 384.598 196.94L393.94 197.58V194.14Z" fill="#FF9985"/>
<path d="M211.4 256.269C196.805 250.298 165.335 236.876 155.464 232.616L136.041 225.416C128.711 222.908 120.503 227.465 119.491 235.154C119.491 235.194 119.48 235.235 119.474 235.282C119.282 236.853 119.392 237.749 119.398 237.784L119.567 239.065C125.256 252.824 181.792 265.948 204.146 269.604L211.406 256.269H211.4Z" fill="#FF9985"/>
<path d="M218.622 249.396C219.361 250.211 219.291 251.386 218.459 252.009L210.978 257.62C210.152 258.243 208.867 258.086 208.128 257.265C207.389 256.45 207.459 255.274 208.291 254.652L215.772 249.041C216.598 248.418 217.883 248.575 218.622 249.396Z" fill="#FF9985"/>
<path d="M217.941 271.285C219.523 270.93 221.071 270.412 221.891 269.493C222.525 268.777 222.664 267.886 222.734 267.007C222.909 264.749 222.693 262.433 222.088 260.11C221.536 257.98 220.274 255.518 217.191 254.412C214.212 253.347 211.054 253.656 208.61 254.657C203.974 256.56 202.346 257.282 200.374 260.675C197.907 264.924 199.228 268.87 206.807 270.197C210.705 270.878 214.497 272.065 217.935 271.285H217.941Z" fill="#FF9985"/>
<path d="M216.81 257.514L231.562 260.296C232.563 260.482 233.441 259.888 233.517 258.975C233.592 258.061 232.836 257.159 231.836 256.967L217.084 254.185C216.083 253.998 215.205 254.592 215.129 255.506C215.054 256.42 215.81 257.322 216.81 257.514Z" fill="#FF9985"/>
<path d="M217.917 262.297L232.669 265.079C233.669 265.265 234.548 264.672 234.623 263.758C234.699 262.844 233.943 261.942 232.942 261.75L218.19 258.968C217.19 258.782 216.311 259.375 216.236 260.289C216.16 261.203 216.916 262.105 217.917 262.297Z" fill="#FF9985"/>
<path d="M215.464 266.916L230.216 269.698C231.217 269.884 232.095 269.291 232.171 268.377C232.246 267.463 231.49 266.561 230.489 266.369L215.738 263.587C214.737 263.401 213.859 263.994 213.783 264.908C213.707 265.822 214.464 266.724 215.464 266.916Z" fill="#FF9985"/>
<path d="M211.456 270.106L226.208 272.888C227.208 273.074 228.087 272.48 228.162 271.566C228.238 270.653 227.482 269.751 226.481 269.558L211.729 266.776C210.729 266.59 209.85 267.184 209.775 268.098C209.699 269.011 210.455 269.913 211.456 270.106Z" fill="#FF9985"/>
</g>
</svg>
