<svg width="520" height="457" viewBox="0 0 520 457" fill="none" xmlns="http://www.w3.org/2000/svg">
<mask id="mask0_103_2" style="mask-type:alpha" maskUnits="userSpaceOnUse" x="0" y="0" width="520" height="457">
<rect width="520" height="457" fill="#D9D9D9"/>
</mask>
<g mask="url(#mask0_103_2)">
<path fill-rule="evenodd" clip-rule="evenodd" d="M502.228 279.518C479.061 171.094 398.439 125.703 334.009 71.4582C272.976 20.0724 222.599 -7.09725 165.528 15.9452C99.4961 42.6056 36.0624 108.068 31.3359 222.489C26.6979 334.769 77.4689 418.224 131.059 514.989C182.092 607.137 140.643 638.526 208.158 643.01C273.186 647.328 398.796 611.864 433.064 535.046C467.698 457.406 525.326 387.623 502.228 279.518Z" fill="#FBE9DC"/>
<path d="M322.173 36.9956C321.675 36.9956 321.195 36.7173 320.961 36.2397L319.769 33.8134C319.438 33.1424 319.716 32.3337 320.384 32.0055C321.051 31.6773 321.863 31.9528 322.191 32.6238L323.383 35.05C323.714 35.721 323.436 36.5297 322.768 36.8579C322.577 36.9517 322.372 36.9956 322.173 36.9956Z" fill="#F75B37"/>
<path d="M296.591 172.965L293.103 172.885C292.356 172.868 291.767 172.25 291.782 171.502C291.799 170.755 292.432 170.157 293.164 170.184L296.591 170.263C297.089 170.263 297.572 170.175 298.032 169.999C298.729 169.733 299.511 170.084 299.775 170.782C300.041 171.479 299.69 172.261 298.993 172.525C298.226 172.818 297.414 172.967 296.588 172.967L296.591 172.965ZM287.707 172.762C287.675 172.762 282.251 172.639 282.251 172.639C281.504 172.622 280.915 172.003 280.93 171.256C280.947 170.509 281.603 169.914 282.312 169.935L287.737 170.058C288.484 170.075 289.072 170.694 289.058 171.441C289.04 172.176 288.44 172.762 287.707 172.762ZM276.855 172.513C276.823 172.513 271.399 172.387 271.399 172.387C270.652 172.37 270.063 171.751 270.078 171.004C270.095 170.257 270.713 169.662 271.46 169.683L276.885 169.806C277.632 169.823 278.22 170.442 278.206 171.189C278.188 171.924 277.588 172.51 276.855 172.51V172.513ZM266.003 172.264C265.971 172.264 263.479 172.206 263.479 172.206C262.228 172.176 261.024 171.792 259.996 171.098C259.378 170.679 259.214 169.841 259.633 169.22C260.049 168.601 260.892 168.44 261.507 168.856C262.105 169.261 262.808 169.483 263.537 169.501L266.03 169.56C266.777 169.577 267.365 170.195 267.351 170.943C267.333 171.678 266.733 172.264 266 172.264H266.003ZM301.887 168.648C301.796 168.648 301.705 168.64 301.614 168.619C300.882 168.47 300.411 167.755 300.563 167.025C300.619 166.758 300.645 166.483 300.645 166.207V166.105L300.516 161.918C300.493 161.17 301.078 160.549 301.825 160.526C302.549 160.502 303.193 161.091 303.217 161.836L303.343 165.999C303.343 166.052 303.348 166.131 303.348 166.207C303.348 166.665 303.302 167.125 303.211 167.57C303.079 168.209 302.517 168.651 301.89 168.651L301.887 168.648ZM258.505 166.668C258.467 166.668 258.429 166.668 258.394 166.665C257.65 166.603 257.096 165.95 257.158 165.208C257.175 164.98 257.208 164.751 257.251 164.52L258.151 159.729C258.288 158.996 258.997 158.513 259.726 158.65C260.459 158.788 260.942 159.494 260.804 160.227L259.905 165.018C259.879 165.156 259.861 165.293 259.85 165.428C259.791 166.134 259.199 166.67 258.505 166.67V166.668ZM301.705 157.801C300.979 157.801 300.378 157.223 300.355 156.491L300.191 151.064C300.167 150.317 300.753 149.696 301.5 149.672C302.224 149.652 302.868 150.238 302.891 150.982L303.055 156.409C303.079 157.156 302.49 157.777 301.746 157.801C301.732 157.801 301.72 157.801 301.705 157.801ZM260.479 155.99C260.397 155.99 260.312 155.981 260.227 155.966C259.495 155.829 259.012 155.123 259.149 154.39L260.151 149.054C260.289 148.322 261.001 147.835 261.727 147.976C262.459 148.113 262.943 148.82 262.805 149.552L261.803 154.888C261.68 155.539 261.115 155.99 260.476 155.99H260.479ZM301.401 146.944C300.624 146.93 300.033 146.311 300.047 145.564C300.088 143.595 300.454 141.661 301.137 139.815C301.395 139.115 302.177 138.757 302.871 139.015C303.571 139.273 303.928 140.052 303.671 140.753C303.094 142.318 302.783 143.956 302.748 145.623C302.733 146.358 302.13 146.944 301.398 146.944H301.401ZM262.48 145.318C262.398 145.318 262.313 145.309 262.228 145.295C261.496 145.157 261.012 144.451 261.15 143.718L262.152 138.382C262.289 137.65 262.998 137.163 263.728 137.304C264.46 137.442 264.943 138.148 264.805 138.88L263.804 144.216C263.681 144.867 263.115 145.318 262.477 145.318H262.48ZM305.088 136.946C304.787 136.946 304.485 136.847 304.233 136.642C303.656 136.17 303.571 135.317 304.043 134.74C305.112 133.43 306.368 132.282 307.768 131.326L308.383 130.907C309.001 130.488 309.842 130.647 310.261 131.265C310.68 131.883 310.522 132.721 309.904 133.143L309.288 133.562C308.102 134.371 307.039 135.347 306.131 136.454C305.864 136.779 305.478 136.949 305.085 136.949L305.088 136.946ZM264.483 134.646C264.401 134.646 264.316 134.637 264.231 134.623C263.499 134.485 263.016 133.779 263.153 133.046L263.813 129.53C263.936 128.874 264.1 128.217 264.302 127.579C264.524 126.867 265.277 126.468 265.995 126.697C266.706 126.919 267.102 127.678 266.876 128.39C266.706 128.927 266.569 129.477 266.466 130.028L265.807 133.545C265.684 134.195 265.119 134.646 264.48 134.646H264.483ZM313.632 130.318C313.202 130.318 312.777 130.11 312.513 129.726C312.094 129.108 312.253 128.27 312.871 127.848L317.358 124.792C317.973 124.373 318.814 124.531 319.235 125.149C319.654 125.768 319.496 126.606 318.878 127.028L314.391 130.084C314.159 130.242 313.893 130.318 313.632 130.318ZM268.077 124.54C267.79 124.54 267.503 124.449 267.257 124.262C266.665 123.807 266.551 122.961 267.005 122.366C268.206 120.795 269.659 119.459 271.325 118.392C271.955 117.991 272.79 118.173 273.191 118.803C273.592 119.433 273.408 120.268 272.781 120.669C271.381 121.566 270.16 122.688 269.152 124.007C268.886 124.355 268.484 124.537 268.077 124.537V124.54ZM277.025 118.77C276.445 118.77 275.906 118.392 275.734 117.806C275.52 117.091 275.924 116.338 276.642 116.124L281.841 114.569C282.549 114.355 283.308 114.759 283.522 115.477C283.736 116.192 283.331 116.945 282.614 117.159L277.415 118.715C277.286 118.753 277.154 118.77 277.028 118.77H277.025ZM287.423 115.656C286.84 115.656 286.304 115.278 286.129 114.692C285.915 113.977 286.322 113.224 287.037 113.01L289.254 112.347C290.124 112.087 290.944 111.7 291.697 111.199C292.315 110.783 293.155 110.95 293.571 111.571C293.984 112.192 293.82 113.03 293.199 113.446C292.224 114.1 291.155 114.601 290.027 114.938L287.81 115.6C287.681 115.638 287.549 115.659 287.423 115.659V115.656ZM295.991 109.64C295.789 109.64 295.584 109.593 295.39 109.499C294.722 109.168 294.45 108.357 294.784 107.688C295.405 106.437 295.724 105.095 295.733 103.697V103.024C295.739 102.279 296.345 101.679 297.086 101.679C297.839 101.681 298.439 102.291 298.436 103.038V103.712C298.422 105.502 297.997 107.293 297.2 108.893C296.966 109.367 296.486 109.643 295.991 109.643V109.64ZM297.115 98.9506C296.363 98.9476 295.759 98.3381 295.765 97.5909L295.797 92.1613C295.8 91.417 296.407 90.8163 297.148 90.8163C297.9 90.8222 298.504 91.4287 298.498 92.1759L298.466 97.6056C298.463 98.3499 297.856 98.9506 297.115 98.9506ZM297.18 88.0561C296.43 88.0561 295.83 87.4876 295.83 86.7404C295.841 84.7596 296.093 82.8637 296.579 81.0265C296.77 80.3057 297.511 79.8779 298.231 80.0654C298.952 80.2559 299.382 80.9972 299.192 81.718C298.764 83.3355 298.542 85.0028 298.533 86.673C298.527 87.4173 297.924 88.0531 297.183 88.0531L297.18 88.0561ZM299.924 77.7125C299.699 77.7125 299.47 77.6568 299.259 77.5366C298.609 77.1704 298.381 76.344 298.75 75.6935C299.699 74.0145 300.862 72.4645 302.203 71.0843C302.724 70.551 303.58 70.5393 304.113 71.058C304.649 71.5795 304.661 72.4352 304.139 72.9685C302.959 74.1845 301.934 75.547 301.099 77.0239C300.85 77.4634 300.393 77.7095 299.921 77.7095L299.924 77.7125ZM307.352 69.9269C306.942 69.9269 306.535 69.7394 306.269 69.3848C305.82 68.7871 305.943 67.9402 306.541 67.4919L310.885 64.2394C311.482 63.794 312.329 63.9141 312.777 64.5119C313.225 65.1097 313.102 65.9565 312.504 66.4048L308.158 69.6573C307.915 69.839 307.631 69.9269 307.349 69.9269H307.352ZM316.043 63.4219C315.633 63.4219 315.226 63.2343 314.959 62.8798C314.511 62.282 314.634 61.4352 315.231 60.9869L319.578 57.7343C320.176 57.2889 321.022 57.4091 321.47 58.0068C321.918 58.6046 321.795 59.4514 321.198 59.8998L316.851 63.1523C316.608 63.334 316.324 63.4219 316.043 63.4219ZM324.657 56.826C324.317 56.826 323.977 56.697 323.714 56.4421C323.181 55.9205 323.169 55.0649 323.69 54.5316C324.786 53.4094 325.544 52.0058 325.887 50.4674C326.048 49.7407 326.763 49.2778 327.498 49.4419C328.227 49.603 328.684 50.3268 328.523 51.0535C328.072 53.0812 327.07 54.936 325.624 56.4187C325.36 56.6883 325.008 56.826 324.657 56.826ZM326.895 46.7607C326.338 46.7607 325.817 46.412 325.621 45.8553C325.506 45.53 325.372 45.2077 325.219 44.9001L323.354 41.1025C323.023 40.4315 323.301 39.6228 323.969 39.2946C324.639 38.9664 325.448 39.2418 325.776 39.9128L327.642 43.7104C327.841 44.1148 328.017 44.5367 328.166 44.9616C328.412 45.6648 328.043 46.4384 327.34 46.6845C327.194 46.7373 327.041 46.7607 326.892 46.7607H326.895Z" fill="#F75B37"/>
<path d="M276.328 150.526C275.974 150.526 275.619 150.385 275.353 150.11C274.837 149.571 274.855 148.715 275.394 148.199L334.627 91.4267C336.016 90.0963 337.917 89.3872 339.832 89.4927C341.754 89.5953 343.564 90.4948 344.803 91.9658L353.572 102.368C354.586 103.572 355.819 104.533 357.233 105.222L373.285 113.057C375.396 114.089 376.881 116.002 377.356 118.305C377.83 120.609 377.221 122.953 375.689 124.734L375.578 124.866C374.931 125.619 374.646 126.574 374.775 127.556C374.904 128.538 375.423 129.387 376.24 129.947L385.238 136.115C385.853 136.537 386.011 137.378 385.589 137.993C385.168 138.612 384.324 138.767 383.712 138.345L374.714 132.177C373.276 131.192 372.321 129.634 372.095 127.905C371.87 126.176 372.391 124.427 373.528 123.105L373.639 122.973C374.623 121.827 375.013 120.327 374.708 118.85C374.403 117.374 373.451 116.146 372.098 115.487L356.047 107.651C354.293 106.793 352.764 105.603 351.507 104.109L342.738 93.7064C341.967 92.7921 340.884 92.253 339.689 92.1885C338.505 92.1299 337.363 92.546 336.499 93.3752L277.265 150.148C277.005 150.4 276.665 150.523 276.331 150.523L276.328 150.526Z" fill="#F9C29D"/>
<path d="M364.925 50.5839C364.418 50.5839 363.932 50.2968 363.704 49.8103L362.55 47.3666C362.231 46.6926 362.52 45.8868 363.194 45.5674C363.868 45.248 364.673 45.5381 364.993 46.2121L366.147 48.6558C366.466 49.3298 366.176 50.1356 365.502 50.455C365.315 50.5429 365.119 50.5839 364.925 50.5839Z" fill="#55AEB7"/>
<path d="M376.348 100.001C376.058 100.001 375.771 99.9839 375.481 99.9546L374.178 99.8257C373.009 99.7085 371.849 99.4594 370.736 99.0873C370.03 98.8499 369.647 98.0851 369.884 97.376C370.121 96.6698 370.889 96.2889 371.595 96.5233C372.517 96.831 373.475 97.039 374.447 97.1357L375.754 97.2676C375.959 97.2881 376.161 97.2998 376.357 97.2998C377.104 97.3057 377.704 97.9152 377.699 98.6624C377.693 99.4037 377.089 100.004 376.348 100.004V100.001ZM381.199 98.2551C380.812 98.2551 380.431 98.091 380.165 97.7745C379.684 97.2031 379.758 96.3504 380.329 95.8699C381.448 94.9293 382.206 93.6254 382.467 92.1984C382.602 91.4629 383.302 90.9765 384.037 91.1113C384.772 91.2431 385.258 91.9493 385.124 92.6818C384.752 94.7242 383.668 96.5907 382.069 97.9386C381.817 98.1525 381.506 98.2551 381.199 98.2551ZM366.583 96.623C366.281 96.623 365.977 96.5233 365.725 96.3153C364.94 95.6706 364.216 94.9469 363.569 94.1645L361.99 92.254C361.516 91.6797 361.595 90.827 362.172 90.3523C362.746 89.8776 363.598 89.9568 364.073 90.534L365.652 92.4445C366.188 93.0921 366.791 93.6928 367.441 94.2261C368.018 94.7008 368.1 95.5505 367.629 96.1278C367.362 96.453 366.975 96.623 366.583 96.623ZM382.924 88.6997C382.417 88.6997 381.931 88.4125 381.703 87.9261L379.453 83.1616C379.134 82.4877 379.424 81.6819 380.097 81.3625C380.771 81.046 381.577 81.3332 381.896 82.0071L384.145 86.7716C384.465 87.4456 384.175 88.2514 383.501 88.5708C383.314 88.6587 383.117 88.6997 382.924 88.6997ZM359.679 88.685C359.29 88.685 358.903 88.518 358.637 88.1957L355.28 84.1344C354.805 83.5601 354.884 82.7074 355.461 82.2327C356.038 81.758 356.888 81.8372 357.365 82.4144L360.722 86.4757C361.197 87.05 361.117 87.9027 360.54 88.3774C360.289 88.5854 359.984 88.688 359.679 88.688V88.685ZM322.422 80.6475C321.93 80.6475 321.456 80.3779 321.215 79.9062C320.879 79.241 321.145 78.4264 321.81 78.0894L326.508 75.7072C327.173 75.3702 327.987 75.6369 328.324 76.302C328.661 76.9672 328.394 77.7818 327.73 78.1187L323.031 80.501C322.835 80.6006 322.627 80.6475 322.422 80.6475ZM352.969 80.5625C352.579 80.5625 352.193 80.3955 351.926 80.0732L348.572 76.0119C348.098 75.4376 348.177 74.5849 348.754 74.1102C349.328 73.6355 350.18 73.7146 350.655 74.2919L354.009 78.3532C354.483 78.9275 354.404 79.7802 353.827 80.2549C353.575 80.4629 353.271 80.5655 352.969 80.5655V80.5625ZM378.425 79.1707C377.918 79.1707 377.432 78.8835 377.204 78.3971L374.954 73.6326C374.635 72.9587 374.925 72.1528 375.598 71.8335C376.272 71.5141 377.078 71.8042 377.397 72.4781L379.646 77.2426C379.966 77.9165 379.676 78.7224 379.002 79.0418C378.815 79.1297 378.618 79.1707 378.425 79.1707ZM331.818 75.8801C331.326 75.8801 330.852 75.6076 330.612 75.1387C330.275 74.4736 330.541 73.659 331.206 73.322L335.904 70.9397C336.569 70.6028 337.384 70.8694 337.72 71.5346C338.057 72.1997 337.791 73.0143 337.126 73.3513L332.428 75.7336C332.231 75.8332 332.023 75.8801 331.818 75.8801ZM346.2 72.4898C345.887 72.4898 345.573 72.3814 345.318 72.1616C344.302 71.2855 342.89 70.931 341.578 71.2328C340.852 71.3998 340.125 70.9456 339.958 70.2189C339.791 69.4922 340.245 68.7655 340.972 68.5985C343.113 68.1062 345.424 68.6806 347.084 70.1164C347.65 70.6057 347.711 71.4584 347.222 72.0239C346.956 72.3345 346.578 72.4927 346.2 72.4927V72.4898ZM373.926 69.6387C373.419 69.6387 372.933 69.3516 372.705 68.8652L370.455 64.1007C370.136 63.4267 370.426 62.6209 371.1 62.3015C371.773 61.985 372.579 62.2693 372.898 62.9462L375.147 67.7107C375.467 68.3846 375.177 69.1904 374.503 69.5098C374.316 69.5977 374.119 69.6387 373.926 69.6387ZM369.427 60.1097C368.92 60.1097 368.434 59.8226 368.206 59.3361L365.956 54.5716C365.637 53.8977 365.927 53.0919 366.601 52.7725C367.277 52.4531 368.08 52.7432 368.399 53.4171L370.648 58.1816C370.968 58.8556 370.678 59.6614 370.004 59.9808C369.817 60.0687 369.62 60.1097 369.427 60.1097Z" fill="#55AEB7"/>
<path d="M315.287 84.2657C314.795 84.2657 314.321 83.9932 314.08 83.5244C313.744 82.8592 314.01 82.0446 314.675 81.7076L317.086 80.4857C317.75 80.1488 318.565 80.4154 318.902 81.0806C319.238 81.7457 318.972 82.5603 318.307 82.8973L315.896 84.1192C315.7 84.2188 315.492 84.2657 315.287 84.2657Z" fill="#55AEB7"/>
<path d="M251.994 57.3296C251.625 57.3296 251.259 57.1801 250.993 56.8871L249.177 54.8858C248.676 54.332 248.717 53.4793 249.27 52.9753C249.821 52.4742 250.679 52.5153 251.18 53.0691L252.996 55.0704C253.497 55.6242 253.456 56.4769 252.902 56.9809C252.645 57.2153 252.319 57.3325 251.994 57.3325V57.3296Z" fill="#F75B37"/>
<path d="M252.75 188.38C252.035 188.38 251.44 187.82 251.402 187.102C251.361 186.358 251.932 185.719 252.679 185.678L258.08 185.385C258.813 185.35 259.463 185.918 259.504 186.663C259.545 187.41 258.974 188.046 258.227 188.087L252.826 188.38C252.802 188.38 252.776 188.38 252.752 188.38H252.75ZM263.549 187.797C262.834 187.797 262.24 187.24 262.202 186.519C262.161 185.775 262.732 185.136 263.479 185.095L268.877 184.802C269.618 184.743 270.259 185.332 270.3 186.08C270.341 186.824 269.77 187.463 269.023 187.504L263.625 187.797C263.602 187.797 263.575 187.797 263.552 187.797H263.549ZM274.348 187.214C273.633 187.214 273.039 186.657 273.001 185.936C272.96 185.192 273.531 184.553 274.278 184.512L279.676 184.219C280.411 184.178 281.056 184.749 281.1 185.497C281.141 186.241 280.569 186.88 279.822 186.921L274.424 187.214C274.401 187.214 274.375 187.214 274.351 187.214H274.348ZM247.595 187.167C247.337 187.167 247.076 187.093 246.845 186.938C245.055 185.74 243.766 183.935 243.219 181.854C243.028 181.133 243.459 180.392 244.179 180.202C244.903 180.008 245.641 180.442 245.831 181.163C246.212 182.604 247.105 183.859 248.347 184.691C248.968 185.107 249.132 185.945 248.719 186.566C248.459 186.956 248.031 187.167 247.595 187.167ZM285.147 186.631C284.433 186.631 283.838 186.074 283.8 185.353C283.759 184.609 284.33 183.97 285.077 183.929L290.478 183.636C291.222 183.601 291.858 184.166 291.902 184.913C291.943 185.658 291.372 186.296 290.625 186.337L285.224 186.631C285.2 186.631 285.174 186.631 285.15 186.631H285.147ZM295.947 186.047C295.232 186.047 294.637 185.491 294.599 184.77C294.558 184.026 295.13 183.387 295.876 183.346L301.278 183.053C302.016 183.006 302.66 183.583 302.701 184.33C302.742 185.075 302.171 185.713 301.424 185.754L296.023 186.047C295.999 186.047 295.973 186.047 295.95 186.047H295.947ZM306.711 185.145C306.096 185.145 305.542 184.723 305.396 184.102C305.226 183.375 305.677 182.648 306.403 182.478C308.044 182.095 309.631 181.497 311.122 180.703C311.778 180.351 312.598 180.6 312.95 181.259C313.301 181.919 313.052 182.736 312.393 183.088C310.697 183.993 308.887 184.673 307.018 185.11C306.916 185.133 306.81 185.145 306.711 185.145ZM316.145 180.111C315.785 180.111 315.422 179.967 315.155 179.68C314.646 179.135 314.678 178.279 315.223 177.77C316.459 176.618 317.539 175.311 318.433 173.887C318.831 173.254 319.666 173.067 320.296 173.462C320.928 173.858 321.119 174.693 320.72 175.326C319.698 176.952 318.468 178.441 317.059 179.75C316.798 179.994 316.47 180.114 316.139 180.114L316.145 180.111ZM243.456 177.556C242.823 177.556 242.261 177.11 242.132 176.466L241.08 171.159C240.934 170.426 241.411 169.714 242.144 169.571C242.879 169.427 243.588 169.902 243.731 170.635L244.783 175.941C244.929 176.674 244.452 177.386 243.719 177.529C243.632 177.547 243.541 177.556 243.456 177.556ZM321.833 171.056C321.702 171.056 321.567 171.036 321.432 170.995C320.72 170.772 320.322 170.016 320.542 169.304C320.612 169.076 320.679 168.847 320.741 168.616L321.953 164.135C322.15 163.415 322.891 162.99 323.611 163.183C324.332 163.379 324.757 164.121 324.563 164.842L323.348 169.331C323.274 169.597 323.201 169.852 323.122 170.107C322.943 170.687 322.407 171.059 321.83 171.059L321.833 171.056ZM241.353 166.942C240.72 166.942 240.158 166.497 240.029 165.852L238.977 160.546C238.831 159.813 239.308 159.101 240.041 158.958C240.776 158.814 241.485 159.289 241.628 160.021L242.68 165.328C242.826 166.06 242.349 166.773 241.616 166.916C241.528 166.934 241.438 166.942 241.353 166.942ZM324.677 160.616C324.56 160.616 324.44 160.602 324.323 160.569C323.603 160.373 323.178 159.632 323.371 158.911L324.786 153.689C324.982 152.968 325.72 152.543 326.444 152.74C327.164 152.936 327.589 153.677 327.396 154.398L325.981 159.62C325.817 160.221 325.272 160.619 324.677 160.619V160.616ZM239.25 156.329C238.617 156.329 238.055 155.884 237.926 155.239L236.874 149.933C236.728 149.2 237.205 148.488 237.938 148.345C238.67 148.198 239.382 148.676 239.525 149.408L240.577 154.715C240.723 155.447 240.246 156.159 239.513 156.303C239.425 156.321 239.335 156.329 239.25 156.329ZM327.976 150.363C327.697 150.363 327.419 150.278 327.179 150.103C326.575 149.663 326.444 148.816 326.886 148.213C328.151 146.481 329.994 145.256 332.076 144.764C332.808 144.591 333.529 145.042 333.702 145.769C333.875 146.496 333.424 147.222 332.697 147.395C331.238 147.738 329.95 148.596 329.065 149.807C328.802 150.17 328.389 150.36 327.973 150.36L327.976 150.363ZM375.566 149.525C375.543 149.525 375.516 149.525 375.49 149.525L370.092 149.224C369.348 149.183 368.777 148.544 368.818 147.799C368.859 147.055 369.471 146.49 370.241 146.525L375.639 146.827C376.383 146.868 376.955 147.506 376.914 148.251C376.873 148.972 376.278 149.528 375.566 149.528V149.525ZM364.77 148.925C364.746 148.925 364.72 148.925 364.694 148.925L359.296 148.623C358.552 148.582 357.98 147.943 358.021 147.199C358.062 146.455 358.678 145.886 359.445 145.924L364.843 146.226C365.587 146.267 366.158 146.906 366.117 147.65C366.076 148.371 365.482 148.928 364.77 148.928V148.925ZM353.971 148.324C353.947 148.324 353.921 148.324 353.894 148.324L348.496 148.022C347.752 147.981 347.181 147.342 347.222 146.598C347.263 145.854 347.881 145.28 348.646 145.323L354.044 145.625C354.788 145.666 355.359 146.305 355.318 147.049C355.277 147.77 354.682 148.327 353.971 148.327V148.324ZM343.171 147.723C343.148 147.723 343.121 147.723 343.095 147.723L337.697 147.421C336.953 147.38 336.382 146.742 336.423 145.997C336.464 145.253 337.088 144.676 337.846 144.723L343.245 145.025C343.988 145.066 344.56 145.704 344.519 146.449C344.478 147.169 343.883 147.726 343.171 147.726V147.723ZM237.144 145.716C236.511 145.716 235.949 145.271 235.82 144.626L234.768 139.319C234.622 138.587 235.099 137.875 235.832 137.731C236.564 137.588 237.276 138.062 237.419 138.795L238.471 144.102C238.617 144.834 238.14 145.546 237.407 145.69C237.319 145.707 237.229 145.716 237.144 145.716ZM235.132 135.088C234.431 135.088 233.84 134.546 233.787 133.837C233.761 133.474 233.746 133.11 233.746 132.75C233.746 131.115 234.021 129.506 234.563 127.965C234.809 127.262 235.583 126.89 236.286 127.136C236.991 127.382 237.361 128.155 237.114 128.859C236.675 130.113 236.453 131.423 236.453 132.75C236.453 133.043 236.464 133.339 236.485 133.635C236.54 134.379 235.981 135.027 235.237 135.082C235.202 135.082 235.17 135.085 235.134 135.085L235.132 135.088ZM238.614 125.167C238.283 125.167 237.952 125.046 237.694 124.803C237.15 124.293 237.117 123.438 237.627 122.893C238.307 122.163 239.065 121.504 239.882 120.927L242.085 119.377C242.694 118.946 243.538 119.092 243.968 119.705C244.399 120.314 244.252 121.158 243.64 121.589L241.438 123.139C240.776 123.605 240.158 124.144 239.604 124.736C239.338 125.02 238.977 125.167 238.614 125.167ZM247.281 118.72C246.856 118.72 246.438 118.521 246.177 118.146C245.746 117.536 245.893 116.692 246.505 116.262L250.928 113.147C251.537 112.716 252.38 112.863 252.811 113.475C253.242 114.085 253.095 114.928 252.483 115.359L248.06 118.474C247.823 118.641 247.553 118.72 247.284 118.72H247.281ZM256.124 112.493C255.699 112.493 255.28 112.294 255.017 111.919C254.586 111.31 254.733 110.466 255.345 110.035L259.767 106.92C260.377 106.489 261.22 106.636 261.651 107.248C262.081 107.858 261.935 108.702 261.323 109.133L256.9 112.247C256.663 112.414 256.393 112.493 256.124 112.493ZM264.966 106.267C264.542 106.267 264.123 106.068 263.859 105.692C263.429 105.083 263.575 104.239 264.187 103.808L268.61 100.694C269.219 100.263 270.063 100.409 270.494 101.022C270.924 101.631 270.778 102.475 270.165 102.906L265.743 106.021C265.505 106.188 265.236 106.267 264.966 106.267ZM273.809 100.04C273.387 100.04 272.974 99.8438 272.711 99.4775C272.274 98.871 272.415 98.0271 273.021 97.5905C274.336 96.647 275.367 95.4456 276.088 94.0156C276.425 93.3475 277.239 93.0838 277.904 93.4179C278.569 93.7548 278.838 94.5665 278.501 95.2346C277.596 97.0308 276.243 98.6073 274.597 99.7881C274.36 99.9581 274.085 100.04 273.812 100.04H273.809ZM278.501 90.7573C277.76 90.7573 277.16 90.1624 277.151 89.4211C277.134 87.83 276.726 86.2535 275.977 84.8588C275.622 84.2024 275.868 83.3819 276.524 83.0274C277.18 82.6728 278.001 82.919 278.355 83.5753C279.313 85.351 279.831 87.3611 279.852 89.3888C279.861 90.136 279.263 90.7485 278.516 90.7573H278.501ZM273.792 81.363C273.423 81.363 273.059 81.2136 272.79 80.9206L269.158 76.915C268.657 76.3612 268.698 75.5085 269.252 75.0045C269.805 74.5034 270.658 74.5444 271.161 75.0983L274.793 79.1038C275.294 79.6576 275.253 80.5103 274.7 81.0143C274.442 81.2487 274.117 81.366 273.792 81.366V81.363ZM266.525 73.3518C266.156 73.3518 265.79 73.2024 265.523 72.9094L261.891 68.9038C261.39 68.35 261.431 67.4973 261.985 66.9933C262.535 66.4923 263.394 66.5333 263.894 67.0871L267.526 71.0927C268.027 71.6465 267.986 72.4992 267.433 73.0032C267.175 73.2376 266.85 73.3548 266.525 73.3548V73.3518ZM259.258 65.3378C258.889 65.3378 258.523 65.1883 258.256 64.8953L254.624 60.8897C254.123 60.3359 254.164 59.4832 254.718 58.9792C255.271 58.4781 256.124 58.5192 256.628 59.073L260.26 63.0786C260.76 63.6324 260.719 64.4851 260.166 64.9891C259.908 65.2235 259.583 65.3407 259.258 65.3407V65.3378Z" fill="#F75B37"/>
<path d="M383.724 149.988C383.7 149.988 383.674 149.988 383.648 149.988L380.95 149.838C380.206 149.797 379.635 149.159 379.676 148.414C379.717 147.693 380.311 147.137 381.023 147.137C381.047 147.137 381.073 147.137 381.099 147.137L383.797 147.286C384.541 147.327 385.112 147.966 385.071 148.71C385.03 149.431 384.436 149.988 383.724 149.988Z" fill="#F75B37"/>
<path d="M215.284 112.704C214.239 112.704 213.193 112.622 212.15 112.461C212.118 112.455 212.083 112.449 212.05 112.441L190.739 107.439C190.013 107.269 189.561 106.542 189.731 105.812C189.901 105.086 190.628 104.635 191.354 104.804L212.616 109.795C216.661 110.419 220.826 109.601 224.341 107.494L247 93.8924C248.798 92.8141 249.782 90.9182 249.633 88.8261C249.484 86.7339 248.239 84.9992 246.306 84.1846L220.554 73.3575C219.865 73.0675 219.543 72.2763 219.83 71.5877C220.12 70.8991 220.911 70.5739 221.599 70.8639L247.351 81.691C250.201 82.8895 252.105 85.5472 252.328 88.6298C252.547 91.7123 251.039 94.6162 248.388 96.2073L225.729 109.809C222.563 111.711 218.94 112.701 215.281 112.701L215.284 112.704Z" fill="#F9C29D"/>
<path d="M176.876 127.285C176.194 127.285 175.605 126.767 175.535 126.072L175.257 123.382C175.181 122.641 175.719 121.976 176.461 121.9C177.204 121.824 177.866 122.363 177.943 123.104L178.221 125.794C178.297 126.535 177.758 127.2 177.017 127.277C176.97 127.283 176.923 127.283 176.876 127.283V127.285Z" fill="#F75B37"/>
<path d="M210.853 163.36C210.217 163.36 209.652 162.911 209.529 162.264C209.388 161.531 209.866 160.822 210.598 160.679C212.124 160.383 213.51 159.647 214.608 158.545C215.135 158.018 215.988 158.015 216.518 158.545C217.045 159.073 217.048 159.928 216.518 160.456C215.039 161.939 213.167 162.935 211.111 163.333C211.023 163.351 210.938 163.36 210.853 163.36ZM205.516 162.906C205.411 162.906 205.302 162.894 205.194 162.867L199.934 161.584C199.21 161.408 198.765 160.676 198.941 159.952C199.116 159.228 199.849 158.783 200.572 158.959L205.832 160.242C206.556 160.418 207.001 161.15 206.826 161.874C206.676 162.492 206.123 162.906 205.513 162.906H205.516ZM194.998 160.339C194.893 160.339 194.784 160.327 194.676 160.301L189.416 159.017C188.692 158.841 188.247 158.109 188.423 157.385C188.598 156.661 189.327 156.216 190.054 156.392L195.315 157.675C196.038 157.851 196.483 158.583 196.307 159.307C196.158 159.926 195.604 160.339 194.995 160.339H194.998ZM184.542 157.57C184.345 157.57 184.143 157.526 183.956 157.435C182.087 156.529 180.52 155.117 179.433 153.341C179.044 152.705 179.243 151.873 179.879 151.481C180.514 151.091 181.346 151.287 181.739 151.926C182.556 153.259 183.73 154.32 185.133 155C185.804 155.325 186.088 156.134 185.763 156.805C185.529 157.288 185.048 157.57 184.545 157.57H184.542ZM218.41 156.277C218.199 156.277 217.985 156.228 217.786 156.125C217.124 155.779 216.866 154.965 217.212 154.302L219.71 149.497C220.053 148.835 220.873 148.577 221.532 148.923C222.194 149.268 222.452 150.083 222.106 150.745L219.608 155.551C219.368 156.014 218.896 156.277 218.41 156.277ZM179.105 148.835C178.423 148.835 177.834 148.316 177.764 147.622L177.207 142.233C177.131 141.492 177.67 140.826 178.411 140.75C179.155 140.671 179.817 141.213 179.893 141.955L180.45 147.34C180.526 148.082 179.987 148.747 179.246 148.823C179.199 148.829 179.152 148.829 179.105 148.829V148.835ZM222.13 146.335C221.497 146.335 220.932 145.887 220.806 145.242C220.53 143.839 219.64 142.667 218.363 142.031C217.695 141.697 217.426 140.885 217.757 140.217C218.091 139.549 218.899 139.276 219.57 139.61C221.602 140.624 223.017 142.488 223.457 144.721C223.6 145.453 223.123 146.162 222.39 146.306C222.303 146.324 222.215 146.332 222.13 146.332V146.335ZM214.084 139.836C213.887 139.836 213.688 139.792 213.501 139.704L208.618 137.366C207.944 137.044 207.66 136.238 207.983 135.564C208.305 134.89 209.11 134.606 209.784 134.928L214.667 137.266C215.34 137.589 215.624 138.394 215.302 139.068C215.071 139.555 214.587 139.836 214.084 139.836ZM177.992 138.06C177.31 138.06 176.721 137.542 176.651 136.847L176.094 131.459C176.018 130.717 176.557 130.052 177.298 129.976C178.042 129.9 178.704 130.439 178.78 131.18L179.337 136.569C179.413 137.31 178.874 137.975 178.133 138.052C178.086 138.057 178.039 138.057 177.992 138.057V138.06ZM204.318 135.159C204.122 135.159 203.923 135.115 203.735 135.028L198.853 132.689C198.179 132.367 197.895 131.561 198.217 130.887C198.539 130.213 199.345 129.929 200.019 130.251L204.901 132.59C205.575 132.912 205.859 133.718 205.537 134.392C205.305 134.878 204.822 135.159 204.318 135.159Z" fill="#F75B37"/>
<path d="M194.509 130.465C194.313 130.465 194.113 130.421 193.926 130.333L191.489 129.166C190.815 128.844 190.531 128.038 190.853 127.364C191.176 126.69 191.981 126.406 192.655 126.729L195.092 127.895C195.765 128.217 196.05 129.023 195.727 129.697C195.496 130.183 195.013 130.465 194.509 130.465Z" fill="#F75B37"/>
<path d="M254.006 225.597C253.326 225.597 252.741 225.084 252.664 224.39L250.875 207.811C250.79 206.982 250.38 206.246 249.724 205.739C249.068 205.232 248.253 205.021 247.436 205.147L225.354 208.517C223.447 208.807 221.508 208.268 220.026 207.037C218.544 205.807 217.66 203.996 217.595 202.068L216.851 179.145C216.778 176.9 215.114 175.028 212.894 174.691L176.071 169.123C174.946 168.954 173.827 169.25 172.934 169.959C172.04 170.668 171.495 171.687 171.405 172.824L169.105 201.573C169.047 202.317 168.385 202.876 167.653 202.812C166.909 202.753 166.352 202.1 166.414 201.356L168.713 172.608C168.862 170.741 169.788 169.003 171.255 167.837C172.723 166.674 174.624 166.164 176.478 166.448L213.301 172.016C216.81 172.546 219.441 175.505 219.555 179.054L220.299 201.977C220.337 203.131 220.867 204.216 221.754 204.954C222.642 205.692 223.805 206.015 224.947 205.842L247.029 202.472C248.587 202.232 250.131 202.633 251.376 203.597C252.623 204.561 253.397 205.956 253.561 207.524L255.35 224.097C255.429 224.838 254.893 225.506 254.152 225.586C254.103 225.591 254.053 225.594 254.006 225.594V225.597Z" fill="#F9C29D"/>
<path d="M206.6 233.22C206.583 233.22 206.565 233.22 206.547 233.22C205.803 233.191 205.221 232.564 205.25 231.816L206.503 198.945C206.626 195.699 204.685 192.707 201.671 191.5L189.369 186.577C188.645 186.287 187.878 186.436 187.313 186.97C186.747 187.506 186.56 188.265 186.812 189.003L195.013 213.186C195.253 213.892 194.875 214.66 194.166 214.9C193.461 215.141 192.693 214.763 192.453 214.054L184.252 189.871C183.663 188.133 184.123 186.269 185.456 185.009C186.785 183.746 188.672 183.386 190.373 184.069L202.675 188.991C206.749 190.621 209.374 194.664 209.207 199.051L207.953 231.922C207.924 232.651 207.326 233.223 206.603 233.223L206.6 233.22Z" fill="#F9C29D"/>
<path d="M146.285 193.702C145.884 193.702 145.486 193.685 145.09 193.653C144.346 193.591 143.793 192.938 143.854 192.196C143.916 191.452 144.578 190.901 145.31 190.96C145.782 190.998 146.256 191.009 146.734 190.992L150.55 190.851C151.279 190.828 151.921 191.405 151.95 192.152C151.977 192.899 151.397 193.527 150.65 193.553L146.827 193.694C146.646 193.699 146.464 193.702 146.283 193.702H146.285ZM140.047 192.149C139.833 192.149 139.616 192.1 139.414 191.991C137.645 191.053 136.113 189.785 134.859 188.223C134.391 187.64 134.484 186.79 135.067 186.321C135.647 185.852 136.5 185.946 136.965 186.529C137.988 187.804 139.238 188.838 140.682 189.603C141.341 189.955 141.593 190.772 141.242 191.431C140.999 191.889 140.53 192.149 140.047 192.149ZM132.956 184.206C132.507 184.206 132.068 183.983 131.813 183.576L128.925 179.004C128.527 178.374 128.714 177.539 129.347 177.141C129.977 176.742 130.811 176.93 131.21 177.563L134.098 182.134C134.496 182.764 134.309 183.599 133.676 183.998C133.453 184.138 133.202 184.206 132.956 184.206ZM127.18 175.066C126.731 175.066 126.292 174.844 126.037 174.436L123.149 169.865C122.751 169.235 122.938 168.4 123.568 167.999C124.201 167.6 125.033 167.791 125.434 168.418L128.322 172.989C128.72 173.619 128.533 174.454 127.903 174.852C127.677 174.993 127.428 175.06 127.182 175.06L127.18 175.066ZM121.403 165.927C120.955 165.927 120.516 165.704 120.261 165.297L117.373 160.726C116.975 160.096 117.162 159.261 117.792 158.859C118.425 158.461 119.257 158.648 119.658 159.278L122.546 163.849C122.944 164.479 122.757 165.315 122.127 165.716C121.901 165.857 121.652 165.924 121.406 165.924L121.403 165.927ZM115.627 156.788C115.179 156.788 114.74 156.565 114.485 156.158L111.597 151.587C111.199 150.957 111.386 150.121 112.016 149.723C112.649 149.324 113.48 149.512 113.879 150.142L116.767 154.713C117.165 155.343 116.978 156.178 116.348 156.577C116.122 156.72 115.873 156.788 115.627 156.788Z" fill="#F75B37"/>
<path d="M138.48 168.862C138.315 168.862 138.151 168.853 137.987 168.833C136.643 168.68 135.474 167.927 134.786 166.764L125.437 151.023C125.056 150.381 125.267 149.552 125.908 149.171C126.55 148.79 127.379 149.001 127.759 149.643L137.109 165.384C137.364 165.815 137.797 166.093 138.292 166.149C138.787 166.207 139.273 166.028 139.619 165.668L143.928 161.144C146.115 158.847 146.953 155.518 146.118 152.456L131.218 96.4655C131.028 95.7447 131.456 95.0033 132.176 94.8129C132.894 94.6224 133.638 95.0502 133.828 95.771L148.725 151.753C149.806 155.711 148.719 160.027 145.881 163.007L141.573 167.532C140.752 168.393 139.648 168.862 138.48 168.862Z" fill="#F9C29D"/>
<path d="M159.952 145.424C159.375 145.424 158.842 145.055 158.663 144.475L157.052 139.315C156.83 138.603 157.225 137.844 157.94 137.621C158.655 137.398 159.41 137.797 159.633 138.509L161.244 143.669C161.466 144.381 161.071 145.14 160.356 145.363C160.222 145.404 160.087 145.424 159.952 145.424ZM156.73 135.104C156.153 135.104 155.62 134.735 155.441 134.155L153.831 128.994C153.608 128.282 154.003 127.523 154.718 127.301C155.433 127.078 156.188 127.477 156.411 128.189L158.022 133.349C158.245 134.061 157.849 134.82 157.134 135.042C157 135.083 156.865 135.104 156.73 135.104ZM153.508 124.784C152.931 124.784 152.398 124.415 152.22 123.834L150.609 118.674C150.386 117.962 150.781 117.203 151.496 116.981C152.211 116.758 152.966 117.156 153.189 117.868L154.8 123.029C155.023 123.741 154.627 124.5 153.913 124.722C153.778 124.763 153.643 124.784 153.508 124.784ZM150.286 114.464C149.712 114.464 149.176 114.094 148.998 113.514L147.387 108.354C147.164 107.642 147.559 106.883 148.274 106.66C148.989 106.438 149.745 106.836 149.967 107.548L151.578 112.708C151.801 113.42 151.405 114.179 150.691 114.402C150.556 114.443 150.421 114.464 150.286 114.464ZM147.062 104.143C146.485 104.143 145.951 103.771 145.773 103.194L144.967 100.615C144.663 99.6368 144.487 98.6229 144.455 97.6003C144.428 96.8531 145.014 96.2289 145.758 96.2055C146.534 96.1791 147.129 96.7652 147.155 97.5124C147.182 98.2918 147.313 99.0654 147.548 99.8126L148.353 102.391C148.576 103.103 148.18 103.862 147.466 104.085C147.331 104.126 147.196 104.146 147.062 104.146V104.143ZM166.932 101.143C166.548 101.143 166.168 100.982 165.901 100.665C165.418 100.097 165.488 99.2441 166.056 98.7606L170.174 95.259C170.743 94.7756 171.595 94.8459 172.078 95.4143C172.562 95.9828 172.491 96.8355 171.923 97.319L167.805 100.821C167.553 101.037 167.24 101.143 166.932 101.143ZM175.168 94.1426C174.785 94.1426 174.404 93.9815 174.137 93.665C173.654 93.0965 173.724 92.2439 174.293 91.7604L178.411 88.2588C178.979 87.7753 179.834 87.8456 180.315 88.4141C180.798 88.9825 180.728 89.8352 180.159 90.3187L176.041 93.8174C175.789 94.0342 175.476 94.1397 175.168 94.1397V94.1426ZM147.044 93.7119C146.824 93.7119 146.599 93.6591 146.391 93.5419C145.738 93.1815 145.5 92.3611 145.861 91.7047C146.268 90.9634 146.763 90.266 147.325 89.6301L149.428 87.2684C149.923 86.7116 150.776 86.6618 151.335 87.157C151.891 87.6522 151.941 88.5079 151.446 89.0646L149.343 91.4263C148.913 91.9098 148.538 92.4431 148.224 93.0086C147.978 93.457 147.516 93.709 147.041 93.709L147.044 93.7119ZM183.405 87.1394C183.021 87.1394 182.64 86.9783 182.374 86.6618C181.891 86.0934 181.961 85.2407 182.529 84.7572L186.647 81.2556C187.218 80.7721 188.071 80.8424 188.551 81.4109C189.034 81.9794 188.964 82.832 188.396 83.3155L184.278 86.8171C184.023 87.034 183.712 87.1394 183.405 87.1394ZM154.03 85.481C153.71 85.481 153.391 85.3696 153.133 85.1381C152.577 84.6429 152.527 83.7873 153.022 83.2306L156.616 79.1927C157.111 78.636 157.963 78.5862 158.523 79.0814C159.079 79.5766 159.129 80.4322 158.634 80.989L155.04 85.0268C154.774 85.3256 154.405 85.481 154.03 85.481ZM190.294 79.222C190.27 79.222 190.244 79.222 190.218 79.222C189.474 79.181 188.903 78.5452 188.944 77.798C188.949 77.7247 188.949 77.6544 188.949 77.5811C188.949 76.286 188.305 75.1051 187.227 74.4224C186.597 74.0239 186.41 73.1888 186.808 72.5558C187.207 71.9229 188.044 71.7383 188.671 72.1368C190.537 73.3177 191.65 75.3542 191.65 77.5782C191.65 77.6983 191.647 77.8214 191.641 77.9415C191.6 78.6624 191.006 79.2191 190.294 79.2191V79.222ZM161.217 77.4024C160.898 77.4024 160.579 77.291 160.321 77.0596C159.765 76.5644 159.715 75.7087 160.21 75.152L163.804 71.1142C164.299 70.5574 165.154 70.5076 165.711 71.0028C166.267 71.498 166.317 72.3537 165.822 72.9104L162.228 76.9482C161.961 77.2471 161.592 77.4024 161.217 77.4024ZM183.162 72.128C182.954 72.128 182.74 72.0782 182.541 71.9757L177.743 69.4879C177.081 69.1451 176.823 68.3275 177.166 67.6653C177.509 67.0031 178.326 66.7452 178.988 67.0881L183.786 69.5758C184.448 69.9187 184.705 70.7362 184.363 71.3984C184.122 71.8614 183.651 72.128 183.162 72.128ZM168.429 69.3473C168.066 69.3473 167.702 69.2008 167.436 68.9136C166.929 68.3656 166.964 67.51 167.512 67.0031C169.129 65.5116 171.308 64.7615 173.502 64.9373C174.246 64.9959 174.802 65.6493 174.741 66.3936C174.682 67.1379 174.023 67.7034 173.288 67.6331C171.829 67.5188 170.409 68.0111 169.348 68.9927C169.088 69.233 168.76 69.3502 168.432 69.3502L168.429 69.3473Z" fill="#55AEB7"/>
<path d="M210.66 55.4779C209.216 55.4779 207.775 55.3461 206.36 55.0824L182.38 50.4409C181.648 50.3003 181.168 49.5912 181.311 48.8557C181.452 48.1231 182.158 47.6426 182.896 47.7861L206.867 52.4247C209.978 53.0048 213.246 52.8613 216.301 51.9998L238.626 45.7174C243.36 44.3871 247.223 41.0438 249.221 36.5459L252.366 29.4665C252.595 28.9508 252.519 28.3824 252.158 27.9487C251.798 27.515 251.256 27.3304 250.706 27.4593L210.133 36.9971C210.083 37.0264 210.08 37.0821 210.092 37.0997L221.017 41.2752C221.714 41.5419 222.063 42.3242 221.796 43.0216C221.53 43.719 220.748 44.0706 220.05 43.8011L209.16 39.6402C208.018 39.2036 207.306 38.0901 207.388 36.8711C207.47 35.6522 208.326 34.6442 209.515 34.3629L250.088 24.8251C251.631 24.4617 253.225 24.995 254.238 26.2199C255.251 27.4447 255.48 29.109 254.835 30.5595L251.69 37.6389C249.364 42.8722 244.868 46.7635 239.359 48.3136L217.034 54.5959C214.966 55.179 212.813 55.4721 210.663 55.4721L210.66 55.4779Z" fill="#F9C29D"/>
<path d="M279.644 27.3876C278.952 27.3876 278.255 27.3348 277.573 27.2323C276.835 27.1209 276.328 26.4323 276.439 25.6939C276.551 24.9555 277.242 24.4457 277.977 24.5599C279.362 24.768 280.789 24.7152 282.145 24.4017L282.827 24.2435C283.557 24.0735 284.28 24.5306 284.447 25.2573C284.614 25.984 284.16 26.7107 283.434 26.8777L282.754 27.036C281.738 27.2704 280.689 27.3905 279.644 27.3905V27.3876ZM272.769 25.3247C272.514 25.3247 272.254 25.2515 272.025 25.102C271.7 24.8852 271.381 24.6566 271.07 24.4105L267.664 21.7206C267.078 21.2576 266.979 20.4078 267.441 19.8218C267.904 19.2358 268.754 19.1361 269.339 19.5991L272.746 22.289C272.995 22.4853 273.253 22.6729 273.516 22.8458C274.14 23.2589 274.31 24.097 273.897 24.7182C273.636 25.1108 273.209 25.3247 272.769 25.3247ZM264.257 18.6614C263.965 18.6614 263.669 18.5677 263.42 18.3713L259.179 15.0221C258.593 14.5592 258.493 13.7094 258.956 13.1234C259.419 12.5373 260.265 12.4377 260.854 12.9007L265.095 16.2499C265.681 16.7128 265.781 17.5626 265.318 18.1487C265.051 18.4856 264.656 18.6614 264.257 18.6614Z" fill="#F75B37"/>
<path d="M208.764 234C205.765 234 202.766 233.534 199.869 232.608L178.153 225.664C172.512 223.859 167.547 220.184 164.176 215.311L153.869 200.417C153.672 200.136 153.297 200.039 152.99 200.191L147.624 202.875C142.888 205.243 137.355 205.026 132.824 202.292L123.632 196.751C117.604 193.118 113.674 187.023 112.848 180.032L110.153 157.211C109.617 152.672 110.496 148.157 112.69 144.151L119.813 131.144C121.131 128.738 122.124 126.169 122.765 123.502L128 101.754C129.189 96.8167 131.491 92.1079 134.657 88.1375L155.535 61.9737C159.03 57.596 163.666 54.2995 168.947 52.4388L176.466 49.7899C180.323 48.4303 183.554 45.7199 185.563 42.1538L189.503 35.1594C192.863 29.1965 197.877 24.4378 204.01 21.4021L217.71 14.6187C222.8 12.0988 228.512 10.8505 234.174 10.9999L257.263 11.6241C258.944 11.668 260.614 11.4981 262.245 11.1201L264.108 10.6864C270.154 9.2799 276.53 10.0505 282.069 12.8547L313.011 28.5313C318.292 31.2066 324.3 31.6637 329.923 29.8206L330.12 29.7561C336.391 27.6991 343.271 28.8536 348.529 32.8475L361.355 42.5934C363.742 44.4072 366.416 45.7433 369.298 46.5609L380.587 49.7665C385.437 51.1437 389.274 55.0204 390.604 59.8874L402.601 103.814C403.729 107.943 403.052 112.379 400.744 115.983L388.419 135.235C387.306 136.972 386.72 138.979 386.72 141.042V143.624C386.72 147.796 385.127 151.752 382.236 154.761L364.506 173.207C363.674 174.074 362.922 175.027 362.271 176.035L358.765 181.485C353.115 190.264 343.605 200.971 330.377 202.134C330.333 202.137 330.289 202.14 330.246 202.143L283.753 203.494C276.117 203.716 269.096 207.69 264.972 214.124L260.968 220.375C257.506 225.778 251.61 229.092 245.199 229.244L233.576 229.517C230.187 229.596 226.81 230.097 223.539 231.002L216.562 232.936C214.002 233.645 211.377 234 208.758 234H208.764ZM153.28 195.617C154.944 195.617 156.575 196.414 157.571 197.85L167.878 212.744C170.687 216.803 174.823 219.868 179.524 221.371L201.243 228.315C205.835 229.783 210.721 229.88 215.369 228.594L222.346 226.66C225.973 225.655 229.719 225.101 233.48 225.013L245.102 224.741C250.017 224.626 254.533 222.086 257.187 217.945L261.191 211.695C266.118 204.006 274.506 199.26 283.63 198.993L330.055 197.645C342.035 196.558 350.813 185.534 354.987 179.053L358.493 173.603C359.301 172.349 360.236 171.168 361.267 170.089L378.996 151.644C381.076 149.478 382.224 146.633 382.224 143.63V141.048C382.224 138.121 383.059 135.273 384.635 132.808L396.96 113.557C398.582 111.022 399.057 107.908 398.266 105.004L386.269 61.0771C385.352 57.7249 382.707 55.0526 379.365 54.1032L368.077 50.8976C364.65 49.9247 361.475 48.3395 358.639 46.1829L345.813 36.437C341.736 33.3398 336.396 32.4402 331.531 34.0372L331.335 34.1016C324.566 36.3227 317.34 35.7719 310.984 32.5516L280.042 16.875C275.447 14.5484 270.157 13.9096 265.139 15.0758L263.276 15.5095C261.27 15.9754 259.211 16.1835 257.152 16.1278L234.062 15.5036C229.127 15.3601 224.154 16.4589 219.719 18.6565L206.02 25.44C200.701 28.0713 196.351 32.197 193.44 37.3688L189.5 44.3632C186.958 48.8786 182.863 52.3158 177.974 54.0358L170.456 56.6847C165.971 58.2641 162.035 61.0654 159.068 64.7808L138.19 90.9446C135.43 94.4023 133.424 98.5045 132.39 102.803L127.156 124.551C126.421 127.604 125.284 130.549 123.776 133.304L116.652 146.311C114.91 149.49 114.216 153.077 114.64 156.678L117.335 179.495C117.997 185.095 121.143 189.974 125.973 192.886L135.164 198.427C138.368 200.358 142.278 200.514 145.626 198.841L150.992 196.156C151.727 195.787 152.515 195.614 153.297 195.614L153.28 195.617Z" fill="#F9C29D"/>
<path d="M154.118 199.951C154.044 199.951 153.971 199.949 153.898 199.94C152.659 199.82 151.754 198.718 151.874 197.481L156.584 148.916C157.055 144.067 159.009 139.575 162.24 135.929L186.89 108.095C187.968 106.879 188.847 105.505 189.506 104.02L203.747 71.7873C206.137 66.3781 210.785 62.4019 216.497 60.8752L244.601 53.3768C247.674 52.5564 250.436 50.8862 252.586 48.542L262.673 37.5479C265.23 34.7613 268.719 33.1086 272.494 32.8947L317.001 30.3748C318.248 30.3044 319.306 31.2538 319.376 32.4962C319.446 33.7386 318.497 34.8023 317.255 34.8726L272.749 37.3926C270.151 37.5391 267.752 38.676 265.992 40.5953L255.904 51.5894C253.174 54.5665 249.668 56.688 245.764 57.7311L217.66 65.2295C213.272 66.3987 209.704 69.4549 207.868 73.6099L193.627 105.842C192.781 107.756 191.65 109.52 190.265 111.084L165.614 138.921C163.019 141.851 161.449 145.458 161.071 149.356L156.361 197.921C156.25 199.084 155.269 199.957 154.123 199.957L154.118 199.951Z" fill="#F9C29D"/>
<path d="M323.374 300.822C318.657 315.515 313.943 330.211 309.226 344.904C307.344 350.767 305.441 356.911 306.468 362.985C307.32 368.026 310.161 372.702 310.118 377.816C310.063 384.249 305.472 389.848 304.831 396.247C303.614 408.373 316.493 417.888 317.103 430.06C317.434 436.662 314.112 443.668 316.922 449.638C319.337 454.764 326.025 459.173 323.692 464.337C318.58 469.5 309.248 466.462 305 460.55C300.752 454.639 299.878 447.016 298.058 439.946C293.586 422.585 282.819 407.211 279.702 389.55C274.308 358.993 292.476 330.009 303.063 300.871C305.346 294.583 307.335 288.085 310.976 282.49C314.617 276.891 320.287 272.193 326.892 271.632C349.913 269.676 325.663 293.703 323.377 300.825L323.374 300.822Z" fill="white"/>
<path d="M391.036 236.832C368.239 224.111 308.29 221.921 288.205 218.868C246.078 212.456 219.671 273.491 261.446 279.85C281.175 282.852 300.707 284.704 325.23 287.479C335.365 288.626 356.136 287.467 363.544 280.543C374.97 269.867 384.606 274.797 392.655 264.293C398.726 256.367 395.523 239.343 391.033 236.835L391.036 236.832Z" fill="white"/>
<path d="M268.62 144.633C268.795 143.02 270.848 141.907 273.181 142.161L294.246 144.446C296.578 144.7 298.344 146.224 298.169 147.837C297.994 149.449 295.941 150.562 293.608 150.308L272.543 148.024C270.211 147.769 268.445 146.245 268.62 144.633Z" fill="#FF9985"/>
<path d="M275.004 139.465C273.64 137.325 272.463 135.016 272.478 132.949C272.488 131.349 273.211 130.043 273.992 128.832C276.009 125.71 278.507 122.929 281.428 120.553C284.11 118.373 288.054 117.413 292.468 119.241C296.734 121.01 299.162 124.916 301.025 128.718C303.973 134.74 306.94 131.793 305.757 138.288C304.28 146.419 302.312 152.812 290.797 149.672C285.137 148.13 277.974 144.119 275.007 139.462L275.004 139.465Z" fill="#FF9985"/>
<path d="M279.629 136.449L262.582 122.194C261.427 121.228 259.692 121.385 258.726 122.541C257.761 123.697 257.917 125.432 259.073 126.398L276.12 140.652C277.275 141.618 279.01 141.462 279.975 140.309C280.941 139.153 280.784 137.418 279.629 136.452V136.449Z" fill="#FF9985"/>
<path d="M282.683 129.341L265.635 115.087C264.48 114.121 262.745 114.277 261.78 115.433C260.814 116.589 260.971 118.325 262.126 119.29L279.173 133.545C280.329 134.511 282.063 134.354 283.029 133.198C283.994 132.042 283.838 130.307 282.686 129.341H282.683Z" fill="#FF9985"/>
<path d="M289.952 125.357L272.905 111.103C271.749 110.137 270.014 110.293 269.049 111.446C268.083 112.602 268.24 114.337 269.395 115.303L286.442 129.558C287.598 130.524 289.332 130.367 290.298 129.214C291.263 128.058 291.107 126.323 289.952 125.357Z" fill="#FF9985"/>
<path d="M277.787 109.755C278.752 108.599 280.487 108.443 281.643 109.409L294.825 120.429L293.476 126.438L278.133 113.613C276.978 112.647 276.821 110.911 277.787 109.755Z" fill="#FF9985"/>
<path d="M290.622 148.072C291.815 149.737 323.625 203.843 340.381 230.331C340.761 236.564 347.513 247.017 353.11 253.928C358.231 260.25 369.952 264.522 376.89 263.593C389.653 261.882 393.226 253.186 393.729 250.377C397.125 231.364 344.55 183.931 305.49 133.895L290.619 148.072H290.622Z" fill="#FF9985"/>
<path d="M276.702 112.363C280.113 114.087 283.405 116.929 283.852 120.725C284.18 123.484 282.951 126.4 283.938 128.997C284.621 130.794 286.243 132.066 287.147 133.762C289.099 137.426 287.242 141.992 284.676 145.254C282.111 148.516 278.786 151.325 277.275 155.188C275.347 149.596 275.414 143.537 274.332 137.72C273.496 133.207 271.963 128.844 270.081 124.659C268.966 122.175 267.709 119.728 265.974 117.631C264.488 115.837 262.64 114.289 261.647 112.179C260.154 109.012 262.431 105.323 265.953 106.964C267.568 107.718 268.95 108.935 270.605 109.687C272.625 110.606 274.719 111.355 276.702 112.354V112.363Z" fill="white"/>
<path d="M127.635 464.261H312.777C312.553 461.529 311.842 458.831 310.598 456.298C299.965 434.663 289.992 411.591 290.424 386.249C291.258 337.141 317.956 299.002 321.932 265.415C324.834 240.861 298.712 221.41 275.078 217.589C275.026 217.58 246.875 214.529 217.783 215.866C193.76 216.97 170.522 223.85 151.075 237.157C149.993 237.899 145.66 240.417 144.587 241.208C144.381 241.361 132.168 312.407 132.477 312.137C127.163 357.881 125.517 417.465 127.638 464.258L127.635 464.261Z" fill="white"/>
<path d="M215.376 134.199L219.986 129.866L217.059 106.45C229.747 103.102 240.465 97.6685 257.181 101.434C262.379 102.605 270.394 109.501 273.545 113.803C277.64 119.392 280.076 126.309 280.015 133.821L279.806 160.638C279.662 178.961 265.003 193.838 247.23 193.697C229.456 193.559 215.03 178.452 215.174 160.132L215.376 134.199Z" fill="#FF9985"/>
<path d="M202.175 118.657C199.3 122.278 196.609 126.736 197.59 131.256C197.992 133.111 198.997 134.819 199.187 136.704C199.503 139.81 197.596 142.637 196.061 145.354C194.526 148.071 193.303 151.517 194.899 154.2C196.422 156.76 199.901 157.514 201.679 159.903C204.315 163.444 202.66 169.69 206.527 171.812C208.13 172.692 210.23 172.465 211.677 173.581C213.706 175.142 213.436 178.49 215.327 180.213C216.789 181.544 219.158 181.43 220.856 180.418C222.554 179.407 223.703 177.69 224.656 175.957C226.465 172.664 227.792 168.819 226.863 165.18C225.772 160.902 221.923 158.008 219.293 154.466C215.109 148.834 214.15 140.623 217.963 134.733C219.219 132.795 220.908 131.173 222.25 129.297C223.596 127.417 224.607 125.117 224.206 122.839C223.844 120.779 222.407 119.108 221.313 117.326C220.218 115.545 219.452 113.227 220.491 111.415C220.982 110.559 221.815 109.937 222.278 109.066C223.547 106.662 221.497 104.531 219.21 104.148C216.967 103.771 215.854 104.856 214.254 106.224C209.871 109.983 205.761 114.137 202.172 118.66L202.175 118.657Z" fill="white"/>
<path d="M215.315 142.332C210.61 142.295 206.757 146.864 206.715 152.533C206.669 158.206 210.448 162.833 215.155 162.869C219.86 162.906 223.713 158.338 223.759 152.668C223.801 146.996 220.022 142.369 215.318 142.332H215.315Z" fill="#FF9985"/>
<path d="M250.588 233.148L213.423 236.463C213.423 236.438 214.505 170.774 214.505 170.774C214.563 167.275 217.392 164.457 220.794 164.513L245.531 164.92C248.93 164.976 251.667 167.885 251.609 171.387L250.591 233.148H250.588Z" fill="#FF9985"/>
<path d="M214.742 135.883L213.712 161.261C213.372 169.632 215.425 178.837 221.123 184.978C223.946 188.023 230.698 193.266 234.262 195.394C241.023 199.432 257.574 197.654 264.58 197.295C266.916 197.175 269.374 196.16 271.614 194.609C276.818 191.006 279.659 184.849 279.699 178.518L279.81 161.169C279.81 161.169 257.387 164.156 243.402 160.952C231.982 158.336 230.891 155.978 227.412 144.787L220.491 122.518L214.742 135.886V135.883Z" fill="white"/>
<path d="M251.607 132.004L244.279 131.982C243.209 131.979 242.329 132.853 242.326 133.923C242.326 134.993 243.197 135.873 244.266 135.876L251.594 135.898C252.664 135.901 253.544 135.027 253.547 133.957C253.55 132.887 252.676 132.007 251.607 132.004Z" fill="white"/>
<path d="M280.481 132.086L273.152 132.064C272.083 132.061 271.203 132.935 271.2 134.005C271.197 135.075 272.07 135.955 273.14 135.958L280.468 135.98C281.538 135.983 282.418 135.109 282.421 134.039C282.421 132.969 281.55 132.089 280.481 132.086Z" fill="white"/>
<path d="M275.467 141.071C275.461 142.982 274.45 142.341 273.209 142.338C271.967 142.335 270.968 142.966 270.971 141.056C270.977 139.146 271.989 137.6 273.23 137.604C274.471 137.607 275.47 139.158 275.467 141.068V141.071Z" fill="#000543"/>
<path d="M247.99 141.516C247.984 143.426 246.972 142.763 245.734 142.76C244.493 142.757 243.491 143.413 243.497 141.503C243.503 139.593 244.514 138.048 245.756 138.051C246.997 138.054 247.999 139.605 247.993 141.516H247.99Z" fill="#000543"/>
<path d="M269.085 129.026L257.717 128.992C257.156 128.992 256.7 128.532 256.703 127.971C256.703 127.346 257.166 126.889 257.723 126.889L269.091 126.922C269.652 126.922 270.109 127.382 270.106 127.943C270.106 128.569 269.643 129.026 269.085 129.026Z" fill="#FA694F"/>
<path d="M272.154 123.912L250.381 123.848C249.82 123.848 249.363 123.388 249.366 122.826C249.366 122.201 249.826 121.744 250.387 121.744L272.16 121.809C272.721 121.809 273.178 122.268 273.175 122.83C273.175 123.455 272.715 123.912 272.154 123.912Z" fill="#FA694F"/>
<path d="M266.389 154.153L266.134 153.441C265.812 155.005 264.669 156.351 262.977 156.71L258.849 157.59C257.427 157.893 256.198 157.179 255.514 156.094L255.407 156.483C254.751 158.826 256.817 161.027 259.195 160.521L263.324 159.641C265.794 159.114 267.235 156.532 266.389 154.153Z" fill="#FA694F"/>
<path d="M232.46 246.985C248.266 246.985 261.08 241.096 261.08 233.832C261.08 226.567 248.266 220.678 232.46 220.678C216.654 220.678 203.84 226.567 203.84 233.832C203.84 241.096 216.654 246.985 232.46 246.985Z" fill="#FF9985"/>
<path d="M258.512 167.123H250.746C249.903 167.123 249.219 167.807 249.219 168.65V169.926C249.219 170.769 249.903 171.452 250.746 171.452H258.512C259.355 171.452 260.039 170.769 260.039 169.926V168.65C260.039 167.807 259.355 167.123 258.512 167.123Z" fill="#FF9985"/>
<path d="M153.956 381.047C170.613 360.942 183.691 302.373 190.358 283.172C204.34 242.902 142.306 219.271 128.443 259.204C121.897 278.061 123.374 283.473 116.178 307.088C113.202 316.851 110.557 337.489 116.009 346.041C124.419 359.225 117.817 367.807 126.675 377.637C133.356 385.054 150.673 385.008 153.956 381.047Z" fill="white"/>
<path d="M167.407 361.165C167.29 361.165 167.174 361.153 167.057 361.128C166.178 360.935 165.62 360.064 165.813 359.184L179.164 298.205C179.357 297.325 180.227 296.761 181.107 296.96C181.987 297.153 182.544 298.024 182.351 298.904L169.001 359.883C168.832 360.647 168.158 361.165 167.407 361.165Z" fill="#FBE9DC"/>
<path d="M286.072 395.657C286.608 397.187 285.232 399.075 283.016 399.848L263.017 406.845C260.801 407.621 258.552 407.002 258.015 405.472C257.479 403.941 258.855 402.053 261.071 401.28L281.07 394.28C283.286 393.504 285.535 394.124 286.072 395.654V395.657Z" fill="#FF9985"/>
<path d="M282.528 403.065C284.68 404.411 286.733 405.99 287.61 407.861C288.287 409.308 288.198 410.801 288.011 412.23C287.533 415.915 286.473 419.5 284.857 422.903C283.374 426.024 280.223 428.591 275.454 428.836C270.845 429.075 266.974 426.592 263.654 423.958C258.404 419.788 256.991 423.725 255.269 417.353C253.108 409.375 252.136 402.759 263.881 400.64C269.655 399.597 277.845 400.137 282.525 403.065H282.528Z" fill="#FF9985"/>
<path d="M279.65 407.777L301.169 413.311C302.628 413.685 304.126 412.799 304.5 411.34C304.874 409.88 303.988 408.381 302.529 408.007L281.011 402.472C279.552 402.098 278.053 402.984 277.679 404.441C277.305 405.9 278.191 407.4 279.65 407.774V407.777Z" fill="#FF9985"/>
<path d="M279.948 415.507L301.467 421.042C302.925 421.416 304.424 420.53 304.798 419.07C305.172 417.611 304.286 416.111 302.83 415.737L281.312 410.203C279.853 409.829 278.354 410.715 277.98 412.171C277.606 413.631 278.492 415.13 279.948 415.504V415.507Z" fill="#FF9985"/>
<path d="M275.095 422.231L296.614 427.765C298.073 428.139 299.572 427.253 299.946 425.797C300.32 424.337 299.434 422.838 297.975 422.464L276.456 416.929C274.997 416.555 273.499 417.441 273.125 418.898C272.751 420.357 273.637 421.857 275.095 422.231Z" fill="#FF9985"/>
<path d="M292.783 431.081C292.409 432.541 290.907 433.427 289.452 433.053L272.815 428.772L271.451 422.766L290.815 427.745C292.274 428.119 293.16 429.622 292.786 431.078L292.783 431.081Z" fill="#FF9985"/>
<path d="M265.607 402.462C263.688 401.745 207.165 374.496 178.508 361.811C174.726 356.841 163.303 351.917 154.807 349.292C147.035 346.888 134.922 349.865 129.672 354.501C120.021 363.025 121.887 372.242 123.03 374.855C130.782 392.543 200.852 402.686 261.135 422.521L265.604 402.462H265.607Z" fill="#FF9985"/>
</g>
</svg>
