<svg width="64" height="64" viewBox="0 0 64 64" fill="none" xmlns="http://www.w3.org/2000/svg">
<path fill-rule="evenodd" clip-rule="evenodd" d="M34.7485 5.67377C43.1253 4.7367 53.3971 3.71064 58.2754 10.5946C63.0647 17.353 56.5432 25.8668 54.799 33.9681C53.0044 42.3038 55.186 52.4872 48.205 57.3693C40.4601 62.7856 29.7494 61.5847 21.2693 57.4166C12.8658 53.2861 6.01469 45.4959 5.07172 36.1685C4.22077 27.7513 11.1064 21.2703 17.0026 15.2117C21.9323 10.146 27.7291 6.459 34.7485 5.67377Z" fill="#E5E2FF"/>
<path fill-rule="evenodd" clip-rule="evenodd" d="M33.2607 38.4515C33.2607 36.5711 34.7897 35.0469 36.6759 35.0469C38.562 35.0469 40.0911 36.5711 40.0911 38.4515V52.259C40.0911 52.8858 39.5814 53.3938 38.9527 53.3938C38.324 53.3938 37.8143 52.8858 37.8143 52.259V38.4515C37.8143 37.8247 37.3047 37.3166 36.6759 37.3166C36.0472 37.3166 35.5375 37.8247 35.5375 38.4515V38.7036C35.5375 39.3304 35.0279 39.8385 34.3991 39.8385C33.7704 39.8385 33.2607 39.3304 33.2607 38.7036V38.4515Z" fill="#635AC9"/>
<path fill-rule="evenodd" clip-rule="evenodd" d="M30.3838 19.3479C26.9573 19.3479 24.5 21.3697 22.9415 24.133C21.4106 26.8472 20.7377 30.2745 20.7377 33.2862C20.7377 34.1504 21.0248 35.0457 21.3493 35.809C21.6858 36.6008 22.1236 37.3891 22.5444 38.0744C22.6415 38.2325 22.7386 38.3866 22.8343 38.5355C22.952 38.7184 23.0145 38.931 23.0145 39.1482V50.1406C23.0145 50.6113 23.4489 51.1242 24.1529 51.1242C24.8569 51.1242 25.2913 50.6113 25.2913 50.1406V39.7094C25.2913 36.3388 26.3997 32.9605 27.3306 30.1235L27.3562 30.0456C27.5208 29.5435 27.6799 29.0588 27.8292 28.5874C28.0669 27.8367 28.3159 27.1253 28.5694 26.4595C28.7471 25.9926 29.2101 25.6965 29.7098 25.7299C30.2097 25.7634 30.6289 26.1185 30.7424 26.6049L31.5584 30.098C31.6437 30.4637 31.8622 30.733 32.115 30.8721L37.38 32.0445C37.4505 32.0602 37.5193 32.0826 37.5855 32.1113C38.0283 32.3031 38.6264 32.1109 38.8673 31.4588C39.105 30.8152 38.8222 30.1643 38.3773 29.9049L34.1669 29.174C33.7168 29.0959 33.3571 28.7571 33.2534 28.3134L31.3661 20.2333C31.2301 19.651 30.7831 19.3479 30.3838 19.3479ZM20.957 23.0206C22.7801 19.7881 25.8863 17.0781 30.3838 17.0781C31.9594 17.0781 33.2352 18.2274 33.5836 19.7185L35.3 27.0669L38.9292 27.6967C39.0181 27.7122 39.1049 27.7382 39.1876 27.7739C40.9005 28.5159 41.6341 30.5369 41.0038 32.2431C40.3733 33.9501 38.5265 34.9186 36.7888 34.2386L31.4914 33.0589C31.421 33.0431 31.3522 33.0209 31.286 32.9922C30.4067 32.6113 29.7555 31.8656 29.4463 30.9764C28.5112 33.8298 27.5681 36.8091 27.5681 39.7094V50.1406C27.5681 52.0098 25.9637 53.3939 24.1529 53.3939C22.3419 53.3939 20.7377 52.0098 20.7377 50.1406V39.4774C20.6928 39.4056 20.6477 39.333 20.6025 39.2593C20.1485 38.52 19.6492 37.6268 19.2529 36.6947C18.8858 35.831 18.4609 34.603 18.4609 33.2862C18.4609 29.9911 19.1883 26.1564 20.957 23.0206Z" fill="#635AC9"/>
<path fill-rule="evenodd" clip-rule="evenodd" d="M8.34926 14.8954C8.64433 14.3419 9.33363 14.1318 9.88882 14.426L16.2383 17.7908C16.6267 17.9966 16.8615 18.4071 16.8412 18.8451C16.821 19.2831 16.5493 19.6703 16.1436 19.8397L14.1971 20.6521L17.7558 22.6102C18.3062 22.913 18.5061 23.6035 18.2024 24.1522C17.8986 24.7009 17.2061 24.9002 16.6557 24.5974L11.0358 21.5052C10.6535 21.2949 10.4256 20.8851 10.4491 20.4504C10.4727 20.0158 10.7435 19.6329 11.1463 19.4648L13.0484 18.6709L8.8201 16.4302C8.2649 16.1359 8.05414 15.4489 8.34926 14.8954Z" fill="#635AC9"/>
<path fill-rule="evenodd" clip-rule="evenodd" d="M8.02421 26.1348C8.15032 25.4987 8.73389 25.0824 9.32757 25.205L13.5016 26.0665C13.9016 26.1491 14.2214 26.4628 14.3316 26.8807C14.4418 27.2988 14.3241 27.752 14.0263 28.0569L13.1184 28.9867L15.3247 29.5589C15.9118 29.7111 16.2631 30.3449 16.1092 30.9746C15.9554 31.6042 15.3547 31.9911 14.7676 31.8389L10.6408 30.7686C10.2541 30.6683 9.953 30.3508 9.85441 29.9396C9.75572 29.5282 9.87525 29.0879 10.1663 28.7898L10.9905 27.9458L8.87084 27.5083C8.27717 27.3858 7.8981 26.7708 8.02421 26.1348Z" fill="#635AC9"/>
<path fill-rule="evenodd" clip-rule="evenodd" d="M34.3993 14.8092C35.6567 14.8092 36.6761 13.793 36.6761 12.5395C36.6761 11.2859 35.6567 10.2697 34.3993 10.2697C33.1418 10.2697 32.1225 11.2859 32.1225 12.5395C32.1225 13.793 33.1418 14.8092 34.3993 14.8092ZM34.3993 17.0789C36.9141 17.0789 38.9528 15.0465 38.9528 12.5395C38.9528 10.0324 36.9141 8 34.3993 8C31.8843 8 29.8457 10.0324 29.8457 12.5395C29.8457 15.0465 31.8843 17.0789 34.3993 17.0789Z" fill="#635AC9"/>
</svg>
