<svg width="64" height="64" viewBox="0 0 64 64" fill="none" xmlns="http://www.w3.org/2000/svg">
<g clip-path="url(#clip0_2448_2259)">
<path fill-rule="evenodd" clip-rule="evenodd" d="M60.8682 41.6264C58.9091 49.8331 49.9368 53.6115 42.068 56.509C35.1088 59.0715 27.7789 59.2114 20.9727 56.3166C13.3788 53.0868 5.90763 48.237 3.75421 40.2134C1.45818 31.6585 4.3529 22.4708 10.0723 15.7022C15.7367 8.99852 24.2458 4.77301 32.9091 5.70961C40.8926 6.57271 45.811 13.7439 50.7595 20.1009C55.8722 26.6687 62.8118 33.4845 60.8682 41.6264Z" fill="#D1E3F4"/>
<g clip-path="url(#clip1_2448_2259)">
<path fill-rule="evenodd" clip-rule="evenodd" d="M40.3169 43.2855C40.0837 40.6547 39.61 38.2886 38.5562 36.507L42.3152 32.7481C46.1511 32.4768 49.1789 29.2789 49.1789 25.3739C49.1789 21.2909 45.8689 17.981 41.786 17.981C41.732 17.981 41.6783 17.9816 41.6246 17.9828C40.6969 14.4854 35.8816 11.8203 30.0806 11.8203C24.9499 11.8203 20.5901 13.9052 19.0093 16.8068C14.4794 17.2429 10.9824 20.0848 10.9824 23.5257C10.9824 27.2684 15.1198 30.3025 20.2235 30.3025C22.679 30.3025 24.9109 29.6001 26.5659 28.4544C26.6327 28.5773 26.7039 28.7071 26.7797 28.8427C27.3438 29.8537 28.1595 31.2092 29.1602 32.5721C30.1559 33.9278 31.3654 35.3329 32.7259 36.4099C33.8802 37.3237 35.2258 38.0662 36.7012 38.2635C37.3017 39.5269 37.6642 41.2688 37.8622 43.5031C38.0886 46.0554 38.0896 49.0759 38.0896 52.481V53.7132H40.5539V52.4385C40.5539 49.083 40.5539 45.9578 40.3169 43.2855ZM36.8797 25.8474C36.8118 25.1314 36.4347 24.4808 35.8471 24.0662C35.2595 23.6516 34.5199 23.5143 33.8227 23.6905C32.6818 23.9789 31.4183 24.1417 30.0806 24.1417C29.6151 24.1417 29.1581 24.122 28.7117 24.0841C27.8235 24.0084 26.9636 24.4185 26.4632 25.1563C25.5146 26.5551 23.2414 27.8382 20.2235 27.8382C18.1406 27.8382 16.3535 27.2156 15.1463 26.3304C13.9377 25.444 13.4467 24.4234 13.4467 23.5257C13.4467 21.9289 15.3109 19.6385 19.2454 19.2597C20.0597 19.1814 20.782 18.704 21.1734 17.9857C22.1459 16.2006 25.4103 14.2846 30.0806 14.2846C32.6219 14.2846 34.8655 14.8715 36.5098 15.7587C38.1904 16.6655 39.0115 17.7429 39.2427 18.6146C39.5343 19.7139 40.5403 20.4708 41.6773 20.4464C41.7135 20.4457 41.7498 20.4453 41.786 20.4453C44.5079 20.4453 46.7146 22.652 46.7146 25.3739C46.7146 28.0958 44.5079 30.3025 41.786 30.3025C40.6381 30.3025 39.5814 29.9096 38.7435 29.2514L38.3287 28.8865C37.5255 28.0962 36.992 27.0328 36.8797 25.8474ZM35.5245 29.3061C35.3153 28.9736 35.1317 28.6232 34.9767 28.2577C34.6884 27.5778 34.499 26.8458 34.4264 26.0798C33.6527 26.2752 32.8384 26.4201 31.9935 26.5078C31.3711 26.5724 30.7321 26.606 30.0806 26.606C29.5455 26.606 29.0188 26.5834 28.5028 26.5395C28.4726 26.584 28.4418 26.6282 28.4102 26.6721C28.543 26.9293 28.7183 27.2596 28.9317 27.642C29.4633 28.5947 30.2242 29.8575 31.1464 31.1133C31.1918 31.1751 31.2375 31.2368 31.2835 31.2982L31.2833 31.1183C32.645 31.1171 34.0736 30.3823 35.2596 29.507C35.3504 29.44 35.4389 29.3729 35.5245 29.3061ZM33.0198 33.3523C33.4205 33.7638 33.8336 34.1439 34.2555 34.4778C34.8628 34.9586 35.4559 35.3186 36.0292 35.549L39.2558 32.3224C38.4938 32.0448 37.7903 31.6455 37.1688 31.148C37.027 31.2608 36.8781 31.3752 36.723 31.4897C35.7672 32.1953 34.4775 32.9747 33.0198 33.3523Z" fill="#2554C3"/>
<path fill-rule="evenodd" clip-rule="evenodd" d="M19.6099 35.8474C19.6114 37.5486 18.2334 38.9289 16.5322 38.9302C14.8309 38.9317 13.4507 37.5537 13.4492 35.8525C13.4479 34.1513 14.8259 32.771 16.5271 32.7695C18.2283 32.7682 19.6086 34.1462 19.6099 35.8474ZM17.1456 35.8494C17.146 36.1897 16.8704 36.4657 16.5302 36.466C16.1899 36.4663 15.9139 36.1907 15.9135 35.8505C15.9133 35.5102 16.1889 35.2342 16.5291 35.2338C16.8694 35.2336 17.1454 35.5092 17.1456 35.8494Z" fill="#2554C3"/>
<path fill-rule="evenodd" clip-rule="evenodd" d="M10.9849 40.7771C10.9864 42.4783 9.60834 43.8586 7.90709 43.8599C6.20586 43.8614 4.82561 42.4834 4.82422 40.7822C4.82283 39.0809 6.20082 37.7007 7.90205 37.6992C9.60328 37.6979 10.9835 39.0759 10.9849 40.7771ZM8.52065 40.7791C8.52092 41.1194 8.24533 41.3954 7.90508 41.3956C7.56483 41.396 7.28878 41.1204 7.28851 40.7802C7.28822 40.4399 7.56383 40.1639 7.90407 40.1635C8.24432 40.1633 8.52037 40.4389 8.52065 40.7791Z" fill="#2554C3"/>
<path fill-rule="evenodd" clip-rule="evenodd" d="M28.8535 43.8599C30.5547 43.8586 31.9327 42.4783 31.9312 40.7771C31.9299 39.0758 30.5496 37.6979 28.8484 37.6992C27.1472 37.7006 25.7692 39.0808 25.7705 40.7822C25.772 42.4834 27.1522 43.8613 28.8535 43.8599ZM28.8515 41.3956C29.1917 41.3954 29.4673 41.1193 29.4669 40.7791C29.4667 40.4388 29.1907 40.1633 28.8504 40.1635C28.5102 40.1638 28.2345 40.4399 28.2348 40.7801C28.2352 41.1204 28.5112 41.3959 28.8515 41.3956Z" fill="#2554C3"/>
<path d="M17.3749 45.0887V46.0887H18.3749H20.8391C21.6479 46.0887 22.3034 46.7443 22.3034 47.553C22.3034 48.3618 21.6479 49.0173 20.8391 49.0173H15.9106C15.1018 49.0173 14.4463 48.3618 14.4463 47.553V42.6244C14.4463 41.8157 15.1018 41.1602 15.9106 41.1602C16.7193 41.1602 17.3749 41.8157 17.3749 42.6244V45.0887Z" stroke="#2554C3" stroke-width="2"/>
<path d="M8.74986 51.2506V52.2506H9.74986H12.2141C13.0229 52.2506 13.6784 52.9061 13.6784 53.7148C13.6784 54.5236 13.0229 55.1791 12.2141 55.1791H7.28557C6.47686 55.1791 5.82129 54.5236 5.82129 53.7148V47.5541C5.82129 46.7454 6.47686 46.0898 7.28557 46.0898C8.09429 46.0898 8.74986 46.7454 8.74986 47.5541V51.2506Z" stroke="#2554C3" stroke-width="2"/>
<path d="M26.9999 52.2506H27.9999V51.2506V47.5541C27.9999 46.7454 28.6554 46.0898 29.4641 46.0898C30.2729 46.0898 30.9284 46.7454 30.9284 47.5541V53.7148C30.9284 54.5236 30.2729 55.1791 29.4641 55.1791H24.5356C23.7268 55.1791 23.0713 54.5236 23.0713 53.7148C23.0713 52.9061 23.7268 52.2506 24.5356 52.2506H26.9999Z" stroke="#2554C3" stroke-width="2"/>
</g>
</g>
<defs>
<clipPath id="clip0_2448_2259">
<rect width="64" height="64" fill="white"/>
</clipPath>
<clipPath id="clip1_2448_2259">
<rect width="46" height="46" fill="white" transform="translate(4 11)"/>
</clipPath>
</defs>
</svg>
