<svg width="64" height="64" viewBox="0 0 64 64" fill="none" xmlns="http://www.w3.org/2000/svg">
<g clip-path="url(#clip0_2448_2278)">
<path fill-rule="evenodd" clip-rule="evenodd" d="M43.8121 8.11689C50.8327 10.7201 55.8755 16.5518 58.5844 23.5323C61.5829 31.259 63.5005 40.2258 58.9643 47.1623C54.3692 54.1887 45.263 55.34 36.962 56.5958C27.4288 58.038 16.4238 61.3894 9.53905 54.6395C2.50227 47.7405 3.61407 36.1369 6.47621 26.7071C8.84471 18.9037 15.687 13.9679 22.987 10.333C29.5617 7.05942 36.9257 5.56347 43.8121 8.11689Z" fill="#D1E3F4"/>
<path d="M27.4707 28.5781V32.6572H23.3916V34.2888H27.4707V38.3679H29.1023V34.2888H33.1814V32.6572H29.1023V28.5781H27.4707Z" fill="#2554C3"/>
<path fill-rule="evenodd" clip-rule="evenodd" d="M12.7861 12.1001C12.7861 10.388 14.174 9 15.8862 9H40.687C42.3992 9 43.7871 10.388 43.7871 12.1001V20.367C43.7871 22.0792 42.3992 23.4671 40.687 23.4671V47.2345C40.687 48.9467 39.2991 50.3346 37.5869 50.3346H18.9863C17.2741 50.3346 15.8862 48.9467 15.8862 47.2345V23.4671C14.174 23.4671 12.7861 22.0792 12.7861 20.367V12.1001ZM17.953 23.4671H38.6203V47.2345C38.6203 47.8053 38.1576 48.2679 37.5869 48.2679H18.9863C18.4156 48.2679 17.953 47.8053 17.953 47.2345V23.4671ZM40.687 21.4004H36.5535V11.0667H40.687C41.2577 11.0667 41.7204 11.5294 41.7204 12.1001V20.367C41.7204 20.9378 41.2577 21.4004 40.687 21.4004ZM34.4868 11.0667H29.32V21.4004H34.4868V11.0667ZM15.8862 11.0667H20.0197V21.4004H15.8862C15.3155 21.4004 14.8529 20.9378 14.8529 20.367V12.1001C14.8529 11.5294 15.3155 11.0667 15.8862 11.0667ZM22.0864 21.4004V11.0667H27.2533V21.4004H22.0864Z" fill="#2554C3"/>
</g>
<defs>
<clipPath id="clip0_2448_2278">
<rect width="64" height="64" fill="white"/>
</clipPath>
</defs>
</svg>
