<svg width="64" height="64" viewBox="0 0 64 64" fill="none" xmlns="http://www.w3.org/2000/svg">
<path fill-rule="evenodd" clip-rule="evenodd" d="M32.178 3.08358C40.9416 2.30817 49.4971 7.00193 54.734 14.0862C59.766 20.8933 59.6061 29.7011 58.0032 38.0188C56.3076 46.8177 53.8484 56.5522 45.7984 60.4548C37.7381 64.3622 28.6697 60.0917 20.6334 56.1352C12.7073 52.2329 3.64857 47.7003 2.17052 38.9754C0.739539 30.5284 8.62797 24.2473 14.1187 17.6798C19.3441 11.4297 24.0729 3.80072 32.178 3.08358Z" fill="#D1E3F4"/>
<path fill-rule="evenodd" clip-rule="evenodd" d="M40.25 27.0001C40.25 25.9856 39.8724 25.0594 39.25 24.3542V18H26.25V24.3542C25.6276 25.0593 25.25 25.9856 25.25 27.0001V37.0001H15.5626L10.867 33.7494C9.5606 32.845 7.77256 33.1384 6.82377 34.4129C5.92502 35.6202 6.08071 37.3085 7.17948 38.3313L6.40079 38.4611C5.15967 38.6679 4.25 39.7418 4.25 41C4.25 41.7995 4.61726 42.5245 5.20346 43C4.61726 43.4755 4.25 44.2005 4.25 45C4.25 45.801 4.61866 46.5273 5.2068 47.0027C4.61971 47.4691 4.25 48.1883 4.25 48.9835C4.25 50.2571 5.19811 51.3379 6.47197 51.4878C8.11327 51.681 10.954 52 11.938 52V51.9881C12.0409 51.996 12.145 52.0001 12.25 52.0001H36.25C38.4591 52.0001 40.25 50.2092 40.25 48.0001V27.0001ZM8.6378 49.7203C8.4201 49.264 8.2863 48.76 8.2564 48.2283L6.70027 48.4609C6.44149 48.4996 6.25 48.7219 6.25 48.9835C6.25 49.2521 6.44804 49.4712 6.7057 49.5015C7.27641 49.5687 7.95531 49.6465 8.6378 49.7203ZM6.72959 44.4339L8.24998 44.1805V45.8195L6.72959 45.5661C6.45284 45.52 6.25 45.2806 6.25 45C6.25 44.7194 6.45284 44.48 6.72959 44.4339ZM6.72959 41.5661L8.24998 41.8195V41.0001C8.24998 40.714 8.28 40.435 8.3371 40.1659L6.72959 40.4339C6.45284 40.48 6.25 40.7194 6.25 41C6.25 41.2806 6.45284 41.52 6.72959 41.5661ZM9.7286 35.3938L12.0556 37.0047C11.1621 37.0474 10.3454 37.3834 9.6996 37.9184L8.5512 36.8757C8.18986 36.5476 8.13656 35.9987 8.428 35.6072C8.7332 35.1972 9.3084 35.1029 9.7286 35.3938ZM19.3042 50.0001L12.9267 39.0001H12.25C11.1454 39.0001 10.25 39.8955 10.25 41.0001V48.0001C10.25 49.1046 11.1454 50.0001 12.25 50.0001H19.3042ZM15.2386 39.0001L21.6161 50.0001H26.3042L19.9267 39.0001H15.2386ZM36.7681 49.9323C36.6029 49.9765 36.4292 50.0001 36.25 50.0001H28.6161L22.2386 39.0001H25.8358L36.7681 49.9323ZM38.1823 48.518L27.25 37.5858V34.7853L38.1918 38.4326C38.2111 38.439 38.2305 38.4448 38.25 38.45V48.0001C38.25 48.1792 38.2264 48.3528 38.1823 48.518ZM38.25 27.6861L27.25 30.8738V32.6771L38.25 36.3438V27.6861ZM37.7988 25.7345L27.25 28.7915V27.0001C27.25 25.8955 28.1454 25.0001 29.25 25.0001H36.25C36.8744 25.0001 37.432 25.2862 37.7988 25.7345ZM37.25 20H28.25V23H37.25V20Z" fill="#2554C3"/>
</svg>
