<svg width="64" height="64" viewBox="0 0 64 64" fill="none" xmlns="http://www.w3.org/2000/svg">
<g clip-path="url(#clip0_2448_2337)">
<path fill-rule="evenodd" clip-rule="evenodd" d="M43.8626 4.05759C51.383 6.40608 56.8002 13.0489 59.8448 20.5744C62.7303 27.7064 62.1186 35.684 59.6874 43.1715C57.233 50.7302 53.4973 58.5953 46.4656 61.7781C39.6873 64.8464 32.5853 60.9212 25.7177 58.5478C18.9674 56.2149 11.5306 54.6278 7.73812 48.3941C3.60971 41.6082 2.65662 32.8193 5.35643 25.0796C8.02388 17.4327 14.6765 12.4175 21.6077 8.6335C28.6219 4.80419 36.4424 1.74038 43.8626 4.05759Z" fill="#D1E3F4"/>
<g clip-path="url(#clip1_2448_2337)">
<path d="M21.3594 27.5938C22.5675 27.5938 23.5469 28.5731 23.5469 29.7812C23.5469 30.9894 22.5675 31.9688 21.3594 31.9688C20.1512 31.9688 19.1719 30.9894 19.1719 29.7812C19.1719 28.5731 20.1512 27.5938 21.3594 27.5938Z" fill="#2554C3"/>
<path d="M26.8281 21.0312C26.8281 19.8231 25.8488 18.8438 24.6406 18.8438C23.4325 18.8438 22.4531 19.8231 22.4531 21.0312C22.4531 22.2394 23.4325 23.2188 24.6406 23.2188C25.8488 23.2188 26.8281 22.2394 26.8281 21.0312Z" fill="#2554C3"/>
<path d="M31.2031 26.5C32.4113 26.5 33.3906 27.4793 33.3906 28.6875C33.3906 29.8957 32.4113 30.875 31.2031 30.875C29.995 30.875 29.0156 29.8957 29.0156 28.6875C29.0156 27.4793 29.995 26.5 31.2031 26.5Z" fill="#2554C3"/>
<path fill-rule="evenodd" clip-rule="evenodd" d="M22.4531 5.71875C22.4531 5.11469 22.9428 4.625 23.5469 4.625H27.9219C28.526 4.625 29.0156 5.11469 29.0156 5.71875C29.0156 6.32281 28.526 6.8125 27.9219 6.8125H26.8281V10.1296C30.5356 10.3737 33.9068 11.8492 36.5361 14.1512L38.8821 11.8054L38.1087 11.0319C37.6815 10.6048 37.6815 9.91225 38.1087 9.48511C38.5358 9.05798 39.2283 9.05798 39.6555 9.48511L42.7491 12.5788C43.1762 13.0059 43.1762 13.6983 42.7491 14.1255C42.322 14.5526 41.6294 14.5526 41.2023 14.1255L40.4289 13.3521L38.083 15.698C40.385 18.3275 41.8607 21.6988 42.1048 25.4065H45.4219V24.3127C45.4219 23.7087 45.9115 23.219 46.5156 23.219C47.1197 23.219 47.6094 23.7087 47.6094 24.3127V28.6877C47.6094 29.2918 47.1197 29.7815 46.5156 29.7815C45.9115 29.7815 45.4219 29.2918 45.4219 28.6877V27.594H42.1048C41.8606 31.3015 40.385 34.6725 38.083 37.302L40.4289 39.6479L41.2023 38.8745C41.6295 38.4473 42.322 38.4473 42.7491 38.8745C43.1763 39.3016 43.1763 39.9941 42.7491 40.4212L39.6555 43.5148C39.2284 43.9419 38.5358 43.9419 38.1087 43.5148C37.6816 43.0877 37.6816 42.3951 38.1087 41.968L38.8821 41.1946L36.5363 38.8488C33.9068 41.1507 30.5356 42.6264 26.8281 42.8704V46.1875H27.9219C28.526 46.1875 29.0156 46.6772 29.0156 47.2812C29.0156 47.8853 28.526 48.375 27.9219 48.375H23.5469C22.9428 48.375 22.4531 47.8853 22.4531 47.2812C22.4531 46.6772 22.9428 46.1875 23.5469 46.1875H24.6406V42.8704C20.933 42.6264 17.5619 41.1507 14.9324 38.8487L12.5865 41.1944L13.3599 41.9678C13.7871 42.3949 13.7871 43.0875 13.3599 43.5146C12.9328 43.9418 12.2402 43.9418 11.8131 43.5146L8.71955 40.421C8.29242 39.9939 8.29242 39.3014 8.71955 38.8742C9.14669 38.4471 9.83921 38.4471 10.2664 38.8742L11.0397 39.6476L13.3856 37.3018C11.0837 34.6724 9.6081 31.3015 9.36402 27.594H6.04688V28.6877C6.04688 29.2918 5.55718 29.7815 4.95312 29.7815C4.34907 29.7815 3.85938 29.2918 3.85938 28.6877V24.3127C3.85938 23.7087 4.34907 23.219 4.95312 23.219C5.55718 23.219 6.04688 23.7087 6.04688 24.3127V25.4065H9.36399C9.60796 21.6989 11.0836 18.3276 13.3856 15.6981L11.0398 13.3523L10.2664 14.1258C9.83928 14.5529 9.14675 14.5529 8.71962 14.1258C8.29249 13.6985 8.29249 13.0061 8.71962 12.5789L11.8132 9.48531C12.2403 9.05818 12.9329 9.05818 13.36 9.48531C13.7871 9.91245 13.7871 10.605 13.36 11.0321L12.5866 11.8055L14.9324 14.1513C17.5619 11.8493 20.933 10.3737 24.6406 10.1296V6.8125H23.5469C22.9428 6.8125 22.4531 6.32281 22.4531 5.71875ZM36.5322 17.2487C38.4427 19.4765 39.6756 22.3022 39.9117 25.4065H38.8594C38.2553 25.4065 37.7656 25.8962 37.7656 26.5002C37.7656 27.1043 38.2553 27.594 38.8594 27.594H39.9117C39.6754 30.6981 38.4425 33.5236 36.5323 35.7512L35.7886 35.0074C35.3615 34.5803 34.6689 34.5803 34.2418 35.0074C33.8146 35.4346 33.8146 36.1271 34.2418 36.5543L34.9855 37.298C32.7579 39.2083 29.9323 40.4412 26.8281 40.6773V39.625C26.8281 39.0209 26.3385 38.5312 25.7344 38.5312C25.1303 38.5312 24.6406 39.0209 24.6406 39.625V40.6773C21.5363 40.4412 18.7108 39.2083 16.4831 37.2978L17.227 36.5541C17.6541 36.1269 17.6541 35.4344 17.227 35.0073C16.7997 34.5801 16.1073 34.5801 15.6802 35.0073L14.9363 35.751C13.0261 33.5235 11.7933 30.698 11.5571 27.594H12.6094C13.2135 27.594 13.7031 27.1043 13.7031 26.5002C13.7031 25.8962 13.2135 25.4065 12.6094 25.4065H11.5571C11.7931 22.3022 13.026 19.4766 14.9363 17.2488L15.6802 17.9927C16.1073 18.4198 16.7999 18.4198 17.227 17.9927C17.6541 17.5656 17.6541 16.873 17.227 16.4459L16.4832 15.7021C18.7109 13.7917 21.5365 12.5588 24.6406 12.3227V13.375C24.6406 13.9791 25.1303 14.4688 25.7344 14.4688C26.3385 14.4688 26.8281 13.9791 26.8281 13.375V12.3227C29.9323 12.5588 32.7578 13.7917 34.9854 15.702L34.2417 16.4457C33.8146 16.8728 33.8146 17.5654 34.2417 17.9925C34.6688 18.4196 35.3613 18.4196 35.7885 17.9925L36.5322 17.2487Z" fill="#2554C3"/>
</g>
</g>
<defs>
<clipPath id="clip0_2448_2337">
<rect width="64" height="64" fill="white"/>
</clipPath>
<clipPath id="clip1_2448_2337">
<rect width="45" height="45" fill="white" transform="translate(3 4)"/>
</clipPath>
</defs>
</svg>
