<svg width="64" height="64" viewBox="0 0 64 64" fill="none" xmlns="http://www.w3.org/2000/svg">
<path fill-rule="evenodd" clip-rule="evenodd" d="M32.7074 3.08358C41.6248 2.30817 50.3304 7.00193 55.6591 14.0862C60.7795 20.8933 60.6167 29.7011 58.9857 38.0188C57.2603 46.8177 54.758 56.5522 46.5668 60.4548C38.3651 64.3622 29.1376 60.0917 20.9603 56.1352C12.8951 52.2329 3.67749 47.7003 2.17351 38.9754C0.717425 30.5284 8.74425 24.2473 14.3314 17.6798C19.6484 11.4297 24.4602 3.80072 32.7074 3.08358Z" fill="#D1E3F4"/>
<path fill-rule="evenodd" clip-rule="evenodd" d="M23.3855 16.9997C23.3855 15.8176 24.3437 14.8594 25.5258 14.8594H36.2276C37.4097 14.8594 38.3679 15.8176 38.3679 16.9997H46.9293V19.1401H44.789V55.526H46.9293C47.5204 55.526 47.9995 56.0052 47.9995 56.5962C47.9995 57.1873 47.5204 57.6664 46.9293 57.6664H14.8241C14.233 57.6664 13.7539 57.1873 13.7539 56.5962C13.7539 56.0052 14.233 55.526 14.8241 55.526H16.9644V19.1401H15.8943V16.9997H23.3855ZM23.3855 22.3506H19.1048V55.526H23.3855V51.2453H22.3153V49.105H39.4381V51.2453H38.3679V55.526H42.6486V22.3506H38.3679V27.7015C38.3679 28.8836 37.4097 29.8418 36.2276 29.8418H25.5258C24.3437 29.8418 23.3855 28.8836 23.3855 27.7015V22.3506ZM23.3855 20.2103H19.1048V19.1401H23.3855V20.2103ZM25.5258 16.9997H36.2276V27.7015H25.5258V16.9997ZM29.8065 55.526H25.5258V51.2453H29.8065V55.526ZM36.2276 55.526V51.2453H31.9469V55.526H36.2276ZM42.6486 20.2103V19.1401H38.3679V20.2103H42.6486Z" fill="#2554C3"/>
<path d="M26.1113 32.5586H21.1113V34.5586H26.1113V32.5586Z" fill="#2554C3"/>
<path d="M21.1113 37.5586H26.1113V39.5586H21.1113V37.5586Z" fill="#2554C3"/>
<path d="M26.1113 42.5586H21.1113V44.5586H26.1113V42.5586Z" fill="#2554C3"/>
<path d="M28.1113 32.5586H33.1113V34.5586H28.1113V32.5586Z" fill="#2554C3"/>
<path d="M33.1113 37.5586H28.1113V39.5586H33.1113V37.5586Z" fill="#2554C3"/>
<path d="M28.1113 42.5586H33.1113V44.5586H28.1113V42.5586Z" fill="#2554C3"/>
<path d="M40.1113 32.5586H35.1113V34.5586H40.1113V32.5586Z" fill="#2554C3"/>
<path d="M35.1113 37.5586H40.1113V39.5586H35.1113V37.5586Z" fill="#2554C3"/>
<path d="M40.1113 42.5586H35.1113V44.5586H40.1113V42.5586Z" fill="#2554C3"/>
<path d="M31.7305 26.25V23.5312H34.4492V21.7188H31.7305V19H29.918V21.7188H27.1992V23.5312H29.918V26.25H31.7305Z" fill="#2554C3"/>
</svg>
