<svg width="64" height="64" viewBox="0 0 64 64" fill="none" xmlns="http://www.w3.org/2000/svg">
<path fill-rule="evenodd" clip-rule="evenodd" d="M30.8226 4.15039C38.9609 4.78755 45.4169 9.64664 50.9023 15.4404C57.0396 21.9227 64.8309 29.2399 62.6141 37.7293C60.4174 46.142 49.6074 48.1575 41.4023 51.8223C33.4091 55.3926 25.2472 61.3119 17.1098 58.0541C8.69097 54.6837 5.69221 45.2379 3.66811 36.7155C1.6464 28.2032 0.469026 18.7583 6.15681 11.9372C11.8409 5.12051 21.7449 3.43968 30.8226 4.15039Z" fill="#E5E2FF"/>
<g clip-path="url(#clip0_2448_694)">
<path fill-rule="evenodd" clip-rule="evenodd" d="M27.5039 35.0458C27.1868 35.0458 26.9297 35.3036 26.9297 35.6217C26.9297 35.9397 27.1868 36.1975 27.5039 36.1975C27.821 36.1975 28.0781 35.9397 28.0781 35.6217C28.0781 35.3036 27.821 35.0458 27.5039 35.0458ZM24.6328 35.6217C24.6328 34.0314 25.9183 32.7422 27.5039 32.7422C29.0896 32.7422 30.375 34.0314 30.375 35.6217C30.375 37.2119 29.0896 38.5011 27.5039 38.5011C25.9183 38.5011 24.6328 37.2119 24.6328 35.6217Z" fill="#635AC9"/>
<path fill-rule="evenodd" clip-rule="evenodd" d="M42.4336 35.0458C42.1165 35.0458 41.8594 35.3036 41.8594 35.6217C41.8594 35.9397 42.1165 36.1975 42.4336 36.1975C42.7507 36.1975 43.0078 35.9397 43.0078 35.6217C43.0078 35.3036 42.7507 35.0458 42.4336 35.0458ZM39.5625 35.6217C39.5625 34.0314 40.8479 32.7422 42.4336 32.7422C44.0192 32.7422 45.3047 34.0314 45.3047 35.6217C45.3047 37.2119 44.0192 38.5011 42.4336 38.5011C40.8479 38.5011 39.5625 37.2119 39.5625 35.6217Z" fill="#635AC9"/>
<path fill-rule="evenodd" clip-rule="evenodd" d="M34.9688 56.9302C45.117 56.9302 53.3438 48.6795 53.3438 38.5017C53.3438 28.3238 45.117 20.0731 34.9688 20.0731C24.8205 20.0731 16.5938 28.3238 16.5938 38.5017C16.5938 48.6795 24.8205 56.9302 34.9688 56.9302ZM34.9688 59.2338C46.3855 59.2338 55.6406 49.9517 55.6406 38.5017C55.6406 27.0517 46.3855 17.7695 34.9688 17.7695C23.552 17.7695 14.2969 27.0517 14.2969 38.5017C14.2969 49.9517 23.552 59.2338 34.9688 59.2338Z" fill="#635AC9"/>
<path fill-rule="evenodd" clip-rule="evenodd" d="M31.8906 50.6113L31.84 50.6524C31.347 51.0528 30.6238 50.9764 30.2247 50.482C29.8255 49.9877 29.9016 49.2624 30.3946 48.8622C30.4455 48.8207 30.4965 48.7792 30.5476 48.7377C31.9067 47.6323 33.3168 46.4856 35.4564 45.9053C37.6636 45.3067 40.5191 45.3359 44.8083 46.2771C45.4278 46.413 45.8203 47.027 45.6846 47.6484C45.5491 48.2699 44.9369 48.6634 44.3173 48.5275C40.1922 47.6222 37.7536 47.6686 36.056 48.1289C34.391 48.5806 33.3156 49.454 31.8906 50.6113Z" fill="#635AC9"/>
</g>
<defs>
<clipPath id="clip0_2448_694">
<rect width="42" height="43" fill="white" transform="translate(14 17)"/>
</clipPath>
</defs>
</svg>
