<svg width="64" height="64" viewBox="0 0 64 64" fill="none" xmlns="http://www.w3.org/2000/svg">
<path fill-rule="evenodd" clip-rule="evenodd" d="M33.2894 5.64971C41.8185 4.74611 52.2771 3.75669 57.2441 10.3948C62.1204 16.9119 55.4804 25.1215 53.7045 32.9335C51.8772 40.9715 54.0985 50.7912 46.9905 55.4989C39.1048 60.7218 28.1994 59.5638 19.5651 55.5446C11.0088 51.5616 4.03314 44.0496 3.07302 35.0553C2.2066 26.9388 9.21748 20.6892 15.2208 14.847C20.2402 9.96222 26.1424 6.4069 33.2894 5.64971Z" fill="#E5E2FF"/>
<g clip-path="url(#clip0_2448_723)">
<path fill-rule="evenodd" clip-rule="evenodd" d="M38.9997 24.1356C37.9346 24.1356 37.0712 24.999 37.0712 26.0642C37.0712 27.1293 37.9346 27.9927 38.9997 27.9927C40.0649 27.9927 40.9283 27.1293 40.9283 26.0642C40.9283 24.999 40.0649 24.1356 38.9997 24.1356ZM35.1426 26.0642C35.1426 23.934 36.8695 22.207 38.9997 22.207C41.1299 22.207 42.8569 23.934 42.8569 26.0642C42.8569 28.1944 41.1299 29.9213 38.9997 29.9213C36.8695 29.9213 35.1426 28.1944 35.1426 26.0642Z" fill="#635AC9"/>
<path fill-rule="evenodd" clip-rule="evenodd" d="M34.2439 33.7314C35.5129 32.5228 37.2246 31.8516 39 31.8516C40.7754 31.8516 42.4871 32.5228 43.7561 33.7314C45.0268 34.9416 45.75 36.5933 45.75 38.3261V41.6322C45.75 42.1647 45.3183 42.5965 44.7857 42.5965H43.2816L42.2641 48.4107C42.1834 48.8721 41.7827 49.2087 41.3143 49.2087H36.6857C36.2173 49.2087 35.8166 48.8721 35.7359 48.4107L34.7184 42.5965H33.2143C32.6817 42.5965 32.25 42.1647 32.25 41.6322V38.3261C32.25 36.5933 32.9732 34.9416 34.2439 33.7314ZM39 33.7801C37.7065 33.7801 36.4749 34.2699 35.5739 35.128C34.6745 35.9846 34.1786 37.136 34.1786 38.3261V40.6679H35.5286C35.997 40.6679 36.3977 41.0046 36.4784 41.466L37.4959 47.2801H40.5041L41.5216 41.466C41.6023 41.0046 42.003 40.6679 42.4714 40.6679H43.8214V38.3261C43.8214 37.136 43.3255 35.9846 42.4261 35.128C41.5251 34.2699 40.2935 33.7801 39 33.7801Z" fill="#635AC9"/>
<path fill-rule="evenodd" clip-rule="evenodd" d="M38.4191 14.6905C38.7628 14.4313 39.2366 14.4313 39.5803 14.6905L55.4238 26.6391C55.45 26.6588 55.4753 26.6799 55.4993 26.7023C56.0082 27.1747 56.3147 27.8254 56.3552 28.5184C56.3563 28.5372 56.3569 28.556 56.3569 28.5747V46.821V46.824C56.3549 47.4562 56.1029 48.0621 55.6557 48.5092C55.2086 48.9564 54.6027 49.2085 53.9705 49.2104H53.9675H24.032H24.029C23.3967 49.2085 22.7908 48.9564 22.3437 48.5092C21.8966 48.0621 21.6445 47.4562 21.6426 46.824V46.821V28.5732C21.6426 28.5544 21.6431 28.5357 21.6442 28.517C21.6847 27.8239 21.9913 27.1733 22.5001 26.7009C22.5242 26.6785 22.5494 26.6574 22.5756 26.6376L38.4191 14.6905ZM23.7841 28.1417C23.6619 28.2675 23.5865 28.4319 23.5711 28.607V46.8191C23.5718 46.9416 23.6208 47.059 23.7074 47.1456C23.7941 47.2322 23.9114 47.2812 24.034 47.2818C24.0337 47.2818 24.0343 47.2818 24.034 47.2818H53.9646C53.9643 47.2818 53.9649 47.2818 53.9646 47.2818C54.0871 47.2812 54.2053 47.2322 54.292 47.1456C54.3787 47.0589 54.4277 46.9415 54.4283 46.819C54.4283 46.8187 54.4283 46.8192 54.4283 46.819V28.6084C54.4129 28.4333 54.3376 28.269 54.2153 28.1431L38.9997 16.6681L23.7841 28.1417Z" fill="#635AC9"/>
</g>
<defs>
<clipPath id="clip0_2448_723">
<rect width="36" height="36" fill="white" transform="translate(21 14)"/>
</clipPath>
</defs>
</svg>
