<svg width="64" height="64" viewBox="0 0 64 64" fill="none" xmlns="http://www.w3.org/2000/svg">
<path fill-rule="evenodd" clip-rule="evenodd" d="M34.7485 5.67377C43.1253 4.7367 53.3971 3.71064 58.2754 10.5946C63.0647 17.353 56.5432 25.8668 54.799 33.9681C53.0044 42.3038 55.186 52.4872 48.205 57.3693C40.4601 62.7856 29.7494 61.5847 21.2693 57.4166C12.8658 53.2861 6.01469 45.4959 5.07172 36.1685C4.22077 27.7513 11.1064 21.2703 17.0026 15.2117C21.9323 10.146 27.7291 6.459 34.7485 5.67377Z" fill="#D1E3F4"/>
<g clip-path="url(#clip0_2448_2249)">
<path fill-rule="evenodd" clip-rule="evenodd" d="M24.6042 16.1263C24.6042 17.7946 25.9567 19.1471 27.625 19.1471C29.2933 19.1471 30.6458 17.7946 30.6458 16.1263V12.5013C30.6458 9.90405 29.835 7.66011 28.3343 6.03436C26.845 4.42091 24.8264 3.58984 22.7917 3.58984C20.757 3.58984 18.7383 4.42091 17.249 6.03436C15.7483 7.66011 14.9375 9.90405 14.9375 12.5013C14.9375 14.1696 16.29 15.5221 17.9583 15.5221C19.6267 15.5221 20.9792 14.1696 20.9792 12.5013C20.9792 11.1714 21.3767 10.4701 21.6885 10.1324C22.0117 9.78221 22.4097 9.63151 22.7917 9.63151C23.1736 9.63151 23.5716 9.78221 23.8949 10.1324C24.2066 10.4701 24.6042 11.1714 24.6042 12.5013V16.1263ZM27.0208 16.1263C27.0208 16.4599 27.2914 16.7305 27.625 16.7305C27.9586 16.7305 28.2292 16.4599 28.2292 16.1263V12.5013C28.2292 10.411 27.5837 8.78411 26.5585 7.67354C25.5357 6.56544 24.1653 6.00651 22.7917 6.00651C21.418 6.00651 20.0477 6.56544 19.0248 7.67354C17.9997 8.78411 17.3542 10.411 17.3542 12.5013C17.3542 12.8349 17.6247 13.1055 17.9583 13.1055C18.292 13.1055 18.5625 12.8349 18.5625 12.5013C18.5625 10.6645 19.1253 9.3461 19.9127 8.49313C20.7023 7.63769 21.7486 7.21484 22.7917 7.21484C23.8347 7.21484 24.881 7.63769 25.6706 8.49313C26.458 9.3461 27.0208 10.6645 27.0208 12.5013V16.1263Z" fill="#2554C3"/>
<path d="M26.248 44.9277C26.3452 44.345 26.8493 43.918 27.4399 43.918H27.8094C28.4 43.918 28.9042 44.345 29.0013 44.9277L29.8068 49.761C29.9296 50.4975 29.3616 51.168 28.6149 51.168H26.6344C25.8877 51.168 25.3198 50.4975 25.4425 49.761L26.248 44.9277Z" fill="#2554C3"/>
<path fill-rule="evenodd" clip-rule="evenodd" d="M27.6253 17.7748C27.1611 17.7748 26.7377 17.6074 26.417 17.332V42.707C26.7377 42.4317 27.1611 42.2643 27.6253 42.2643C28.0896 42.2643 28.513 42.4317 28.8337 42.707V17.332C28.513 17.6074 28.0896 17.7748 27.6253 17.7748Z" fill="#2554C3"/>
<path fill-rule="evenodd" clip-rule="evenodd" d="M24 49.9583C24 49.291 24.541 48.75 25.2083 48.75H30.0417C30.709 48.75 31.25 49.291 31.25 49.9583C31.25 50.6257 30.709 51.1667 30.0417 51.1667H25.2083C24.541 51.1667 24 50.6257 24 49.9583Z" fill="#2554C3"/>
</g>
<defs>
<clipPath id="clip0_2448_2249">
<rect width="18" height="49" fill="white" transform="translate(14 3)"/>
</clipPath>
</defs>
</svg>
