<?xml version="1.0" encoding="UTF-8"?>
<svg width="158.604651px" height="50px" viewBox="0 0 158.604651 50" version="1.1" xmlns="http://www.w3.org/2000/svg" xmlns:xlink="http://www.w3.org/1999/xlink">
    <title>logo/nuedexta-full</title>
    <g id="Symbols" stroke="none" stroke-width="1" fill="none" fill-rule="evenodd">
        <g id="global/header/desktop" transform="translate(-62, -20)" fill="#006171" fill-rule="nonzero">
            <g id="logo/nuedexta-full" transform="translate(62, 20)">
                <path d="M156.445183,42.2757475 C157.192691,42.2757475 157.674419,42.7740864 158.006645,43.3388704 L158.006645,42.3754153 L158.604651,42.3754153 L158.604651,46.7774086 C158.604651,47.6079734 158.421927,48.2225914 158.089701,48.654485 C157.740864,49.1362126 157.209302,49.3687708 156.561462,49.3687708 C155.913621,49.3521595 155.299003,49.10299 154.750831,48.6212625 L155.016611,48.0066445 C155.465116,48.4551495 155.980066,48.6877076 156.561462,48.6877076 C157.44186,48.6877076 158.006645,48.0398671 158.006645,46.7940199 L158.006645,46.1627907 C157.657807,46.7774086 157.17608,47.2923588 156.445183,47.2923588 C155.481728,47.2923588 154.568106,46.3289037 154.568106,44.8006645 L154.568106,44.7840532 C154.568106,43.2225914 155.498339,42.2757475 156.445183,42.2757475 Z M139.883721,38.2059801 C141.677741,38.2059801 142.807309,40.3820598 142.807309,42.9900332 L142.807309,43.0232558 C142.807309,45.6312292 141.644518,47.8405316 139.850498,47.8405316 C138.056478,47.8405316 136.92691,45.6644518 136.92691,43.0564784 L136.92691,43.0232558 C136.92691,40.4152824 138.089701,38.2059801 139.883721,38.2059801 Z M134.883721,38.3222591 L134.883721,47.6910299 L134.10299,47.6910299 L134.10299,39.4019934 L134.086379,39.4019934 L132.774086,39.9501661 L132.591362,39.10299 L134.302326,38.3222591 L134.883721,38.3222591 Z M152.30897,42.2425249 C153.222591,42.2425249 153.787375,43.0730897 153.787375,44.3853821 L153.787375,47.6744186 L153.189369,47.6744186 L153.189369,44.5681063 C153.189369,43.538206 152.807309,42.9568106 152.159468,42.9568106 C151.561462,42.9568106 151.063123,43.5548173 151.063123,44.6013289 L151.063123,47.6744186 L150.465116,47.6744186 L150.465116,44.551495 C150.465116,43.5548173 150.066445,42.9734219 149.435216,42.9734219 C148.803987,42.9734219 148.322259,43.6710963 148.322259,44.6511628 L148.322259,47.6910299 L147.724252,47.6910299 L147.724252,42.358804 L148.322259,42.358804 L148.322259,43.255814 C148.58804,42.7242525 148.936877,42.2425249 149.61794,42.2425249 C150.265781,42.2425249 150.681063,42.7076412 150.89701,43.3056478 C151.179402,42.7242525 151.611296,42.2425249 152.30897,42.2425249 Z M139.86711,39.1694352 C138.554817,39.1694352 137.740864,40.9468439 137.740864,42.9900332 L137.740864,43.0232558 C137.740864,45.0498339 138.571429,46.8770764 139.883721,46.8770764 C141.196013,46.8770764 141.993355,45.0996678 141.993355,43.0564784 L141.993355,43.0232558 C141.993355,40.9966777 141.162791,39.1694352 139.86711,39.1694352 Z M156.578073,42.9568106 C155.813953,42.9568106 155.199336,43.654485 155.199336,44.7508306 L155.199336,44.7674419 C155.199336,45.8305648 155.847176,46.5780731 156.578073,46.5780731 C157.325581,46.5780731 158.039867,45.8471761 158.039867,44.7674419 L158.039867,44.7508306 C158.039867,43.654485 157.325581,42.9568106 156.578073,42.9568106 Z M158.604651,35.8471761 L158.604651,36.179402 L132.55814,36.179402 L132.55814,35.8471761 L158.604651,35.8471761 Z M156.428571,26.6943522 C157.17608,26.6943522 157.657807,27.192691 157.990033,27.7574751 L157.990033,26.7940199 L158.58804,26.7940199 L158.58804,31.1960133 C158.58804,32.0265781 158.405316,32.641196 158.07309,33.0730897 C157.724252,33.5548173 157.192691,33.7873754 156.54485,33.7873754 C155.89701,33.7873754 155.265781,33.538206 154.734219,33.0398671 L155,32.4252492 C155.448505,32.8737542 155.963455,33.1063123 156.54485,33.1063123 C157.425249,33.1063123 157.990033,32.4584718 157.990033,31.2126246 L157.990033,30.5813953 C157.641196,31.1960133 157.159468,31.7109635 156.428571,31.7109635 C155.465116,31.7109635 154.551495,30.7475083 154.551495,29.2192691 L154.551495,29.2026578 C154.551495,27.641196 155.481728,26.6943522 156.428571,26.6943522 Z M141.096346,22.641196 C142.890365,22.641196 144.019934,24.8172757 144.019934,27.4252492 L144.019934,27.4584718 C144.019934,30.0664452 142.857143,32.2757475 141.063123,32.2757475 C139.269103,32.2757475 138.139535,30.0996678 138.139535,27.4916944 L138.139535,27.4584718 C138.139535,24.8504983 139.302326,22.641196 141.096346,22.641196 Z M135.166113,22.6910299 C136.428571,22.6910299 137.325581,23.8039867 137.325581,25.3156146 L137.325581,25.3488372 C137.325581,26.7109635 136.79402,27.5415282 135.564784,28.9700997 L133.72093,31.1627907 L137.425249,31.1627907 L137.425249,32.1262458 L132.55814,32.1262458 L132.55814,31.3122924 L132.541528,31.3122924 L135.066445,28.3388704 C136.129568,27.0598007 136.528239,26.345515 136.528239,25.4152824 C136.528239,24.3189369 135.880399,23.6378738 135.116279,23.6378738 C134.318937,23.6378738 133.803987,24.2026578 133.239203,25.2325581 L132.657807,24.6677741 C133.289037,23.4219269 133.936877,22.6910299 135.166113,22.6910299 Z M152.292359,26.6777409 C153.20598,26.6777409 153.770764,27.5083056 153.770764,28.820598 L153.770764,32.1096346 L153.172757,32.1096346 L153.172757,29.0033223 C153.172757,27.9734219 152.790698,27.3920266 152.142857,27.3920266 C151.54485,27.3920266 151.046512,27.9900332 151.046512,29.0365449 L151.046512,32.1096346 L150.448505,32.1096346 L150.448505,28.986711 C150.448505,27.9900332 150.049834,27.4086379 149.418605,27.4086379 C148.787375,27.4086379 148.305648,28.1063123 148.305648,29.0863787 L148.305648,32.1262458 L147.707641,32.1262458 L147.707641,26.7940199 L148.305648,26.7940199 L148.305648,27.6910299 C148.571429,27.1594684 148.920266,26.6777409 149.601329,26.6777409 C150.249169,26.6777409 150.664452,27.1428571 150.880399,27.7408638 C151.162791,27.1594684 151.594684,26.6777409 152.292359,26.6777409 Z M141.079734,23.6046512 C139.767442,23.6046512 138.953488,25.3820598 138.953488,27.4252492 L138.953488,27.4584718 C138.953488,29.4850498 139.784053,31.3122924 141.096346,31.3122924 C142.408638,31.3122924 143.20598,29.5182724 143.20598,27.4916944 L143.20598,27.4584718 C143.20598,25.4318937 142.375415,23.6046512 141.079734,23.6046512 Z M156.54485,27.3920266 C155.780731,27.3920266 155.166113,28.089701 155.166113,29.1860465 L155.166113,29.2026578 C155.166113,30.2657807 155.813953,31.013289 156.54485,31.013289 C157.30897,30.9966777 158.006645,30.2657807 158.006645,29.2026578 L158.006645,29.1860465 C158.006645,28.089701 157.292359,27.3920266 156.54485,27.3920266 Z M2.6910299,22.9069767 L3.00664452,23.6378738 C1.5282392,25.0332226 0.764119601,26.7774086 0.764119601,29.0863787 C0.764119601,31.3953488 1.5448505,33.1395349 3.00664452,34.5348837 L2.6910299,35.2657807 C0.980066445,33.820598 0.0166112957,31.744186 0.0166112957,29.0863787 C0.0166112957,26.4285714 0.980066445,24.3521595 2.6910299,22.9069767 Z M7.6910299,22.6910299 L7.6910299,33.2392027 L6.94352159,33.2392027 L6.94352159,31.744186 C6.5448505,32.641196 5.94684385,33.4053156 5.03322259,33.4053156 C3.8372093,33.3887043 2.64119601,31.9767442 2.64119601,29.5182724 L2.64119601,29.4850498 C2.64119601,27.0431894 3.8372093,25.5980066 5.03322259,25.5980066 C5.96345515,25.5980066 6.56146179,26.345515 6.94352159,27.192691 L6.94352159,22.6910299 L7.6910299,22.6910299 Z M5.16611296,26.5946844 C4.20265781,26.5946844 3.40531561,27.6578073 3.40531561,29.4684385 L3.40531561,29.5016611 C3.40531561,31.2624585 4.2358804,32.3920266 5.16611296,32.3920266 C6.09634551,32.3920266 6.97674419,31.2292359 6.97674419,29.5016611 L6.97674419,29.4684385 C6.97674419,27.7408638 6.09634551,26.5946844 5.16611296,26.5946844 Z M8.48837209,29.5182724 L8.48837209,29.4850498 C8.48837209,27.3255814 9.50166113,25.5980066 10.89701,25.5980066 C12.3754153,25.5980066 13.2225914,27.358804 13.2225914,29.551495 C13.2225914,29.7009967 13.2225914,29.7840532 13.2059801,29.9169435 L9.25249169,29.9169435 C9.35215947,31.5282392 10.1162791,32.4418605 11.013289,32.4418605 C11.6943522,32.4418605 12.192691,32.0265781 12.5913621,31.3787375 L13.0564784,31.9933555 C12.5581395,32.8239203 11.9435216,33.3887043 10.9966777,33.3887043 C9.6179402,33.4053156 8.48837209,31.8272425 8.48837209,29.5182724 Z M12.4750831,29.0863787 C12.3920266,27.7242525 11.8770764,26.5448505 10.8803987,26.5448505 C10.0166113,26.5448505 9.35215947,27.6245847 9.25249169,29.0863787 L12.4750831,29.0863787 Z M15.6644518,28.6877076 L17.1594684,25.7641196 L17.9900332,25.7641196 L16.0963455,29.4186047 L18.0730897,33.2392027 L17.2093023,33.2392027 L15.6644518,30.166113 L14.10299,33.2392027 L13.2724252,33.2392027 L15.2325581,29.4352159 L13.3554817,25.7641196 L14.2026578,25.7641196 L15.6644518,28.6877076 Z M19.0697674,31.2624585 L19.0697674,26.7607973 L18.372093,26.7607973 L18.372093,25.7807309 L19.0697674,25.7807309 L19.0697674,23.5215947 L19.8172757,23.5215947 L19.8172757,25.7807309 L21.4119601,25.7807309 L21.4119601,26.7607973 L19.8172757,26.7607973 L19.8172757,31.1295681 C19.8172757,32.0431894 20.1495017,32.3754153 20.6644518,32.3754153 C20.9136213,32.3754153 21.1295681,32.3089701 21.3953488,32.1096346 L21.3953488,33.0564784 C21.1295681,33.255814 20.8471761,33.372093 20.4983389,33.372093 C19.6843854,33.372093 19.0697674,32.7740864 19.0697674,31.2624585 Z M22.0099668,25.7641196 L22.7574751,25.7641196 L22.7574751,27.7076412 C23.1229236,26.461794 23.8538206,25.5647841 24.8006645,25.6312292 L24.8006645,26.8272425 L24.7508306,26.8272425 C23.654485,26.8272425 22.7740864,27.9900332 22.7740864,30.2491694 L22.7740864,33.2225914 L22.0265781,33.2225914 L22.0265781,25.7641196 L22.0099668,25.7641196 Z M24.8504983,29.5348837 L24.8504983,29.5016611 C24.8504983,27.3920266 25.9468439,25.5980066 27.4584718,25.5980066 C28.9534884,25.5980066 30.0664452,27.358804 30.0664452,29.4684385 L30.0664452,29.5016611 C30.0664452,31.6112957 28.9534884,33.4053156 27.4418605,33.4053156 C25.9468439,33.4053156 24.8504983,31.6445183 24.8504983,29.5348837 Z M29.3023256,29.5348837 L29.3023256,29.5016611 C29.3023256,27.8903654 28.5049834,26.5780731 27.4418605,26.5780731 C26.3621262,26.5780731 25.6146179,27.8903654 25.6146179,29.4684385 L25.6146179,29.5016611 C25.6146179,31.1129568 26.4119601,32.4086379 27.4584718,32.4086379 C28.5548173,32.4086379 29.3023256,31.1129568 29.3023256,29.5348837 Z M30.8471761,25.7641196 L31.5946844,25.7641196 L31.5946844,27.0265781 C31.9269103,26.2956811 32.3754153,25.6146179 33.2059801,25.6146179 C34.0199336,25.6146179 34.5348837,26.2624585 34.8172757,27.1096346 C35.1827243,26.2790698 35.7142857,25.6146179 36.5780731,25.6146179 C37.7242525,25.6146179 38.4385382,26.7774086 38.4385382,28.6212625 L38.4385382,33.2392027 L37.6910299,33.2392027 L37.6910299,28.8704319 C37.6910299,27.4252492 37.2093023,26.6112957 36.3953488,26.6112957 C35.6478405,26.6112957 35.0166113,27.4418605 35.0166113,28.9202658 L35.0166113,33.2225914 L34.269103,33.2225914 L34.269103,28.8372093 C34.269103,27.4418605 33.7707641,26.6112957 32.9734219,26.6112957 C32.1760797,26.6112957 31.5780731,27.5913621 31.5780731,28.9700997 L31.5780731,33.2392027 L30.8305648,33.2392027 L30.8305648,25.7641196 L30.8471761,25.7641196 Z M39.2192691,29.5182724 L39.2192691,29.4850498 C39.2192691,27.3255814 40.2325581,25.5980066 41.627907,25.5980066 C43.1063123,25.5980066 43.9534884,27.358804 43.9534884,29.551495 C43.9534884,29.7009967 43.9534884,29.7840532 43.9368771,29.9169435 L39.9667774,29.9169435 C40.0664452,31.5282392 40.8305648,32.4418605 41.7275748,32.4418605 C42.4086379,32.4418605 42.9069767,32.0265781 43.3056478,31.3787375 L43.7707641,31.9933555 C43.2724252,32.8239203 42.6578073,33.3887043 41.7109635,33.3887043 C40.3322259,33.4053156 39.2192691,31.8272425 39.2192691,29.5182724 Z M43.1893688,29.0863787 C43.1063123,27.7242525 42.5913621,26.5448505 41.5946844,26.5448505 C40.730897,26.5448505 40.0664452,27.6245847 39.9667774,29.0863787 L43.1893688,29.0863787 Z M44.833887,31.2624585 L44.833887,26.7607973 L44.1362126,26.7607973 L44.1362126,25.7807309 L44.833887,25.7807309 L44.833887,23.5215947 L45.5813953,23.5215947 L45.5813953,25.7807309 L47.1760797,25.7807309 L47.1760797,26.7607973 L45.5813953,26.7607973 L45.5813953,31.1295681 C45.5813953,32.0431894 45.9136213,32.3754153 46.4285714,32.3754153 C46.6777409,32.3754153 46.8936877,32.3089701 47.1594684,32.1096346 L47.1594684,33.0564784 C46.8936877,33.255814 46.6112957,33.372093 46.2624585,33.372093 C45.448505,33.372093 44.833887,32.7740864 44.833887,31.2624585 Z M47.7574751,22.6910299 L48.5049834,22.6910299 L48.5049834,27.076412 C48.8372093,26.2624585 49.3521595,25.6146179 50.2159468,25.6146179 C51.4285714,25.6146179 52.1262458,26.8272425 52.1262458,28.6046512 L52.1262458,33.2392027 L51.3787375,33.2392027 L51.3787375,28.8704319 C51.3787375,27.4750831 50.8803987,26.6112957 50,26.6112957 C49.1362126,26.6112957 48.5049834,27.5581395 48.5049834,28.9534884 L48.5049834,33.2392027 L47.7574751,33.2392027 L47.7574751,22.6910299 Z M52.8571429,29.5348837 L52.8571429,29.5016611 C52.8571429,27.3920266 53.9534884,25.5980066 55.4651163,25.5980066 C56.9601329,25.5980066 58.0730897,27.358804 58.0730897,29.4684385 L58.0730897,29.5016611 C58.0730897,31.6112957 56.9601329,33.4053156 55.448505,33.4053156 C53.9534884,33.4053156 52.8571429,31.6445183 52.8571429,29.5348837 Z M57.3089701,29.5348837 L57.3089701,29.5016611 C57.3089701,27.8903654 56.5116279,26.5780731 55.448505,26.5780731 C54.3687708,26.5780731 53.6212625,27.8903654 53.6212625,29.4684385 L53.6212625,29.5016611 C53.6212625,31.1129568 54.4186047,32.4086379 55.4651163,32.4086379 C56.5614618,32.4086379 57.3089701,31.1129568 57.3089701,29.5348837 Z M58.8538206,25.7641196 L59.6013289,25.7641196 L59.6013289,27.7076412 C59.9667774,26.461794 60.6976744,25.5647841 61.6445183,25.6312292 L61.6445183,26.8272425 L61.5946844,26.8272425 C60.4983389,26.8272425 59.6179402,27.9900332 59.6179402,30.2491694 L59.6179402,33.2225914 L58.8704319,33.2225914 L58.8704319,25.7641196 L58.8538206,25.7641196 Z M62.1594684,25.7641196 L62.9069767,25.7641196 L62.9069767,27.2591362 C63.3056478,26.3621262 63.9036545,25.5980066 64.8172757,25.5980066 C66.013289,25.5980066 67.2093023,27.0099668 67.2093023,29.4684385 L67.2093023,29.5016611 C67.2093023,31.9435216 66.0299003,33.3887043 64.8172757,33.3887043 C63.8870432,33.3887043 63.2890365,32.641196 62.9069767,31.7940199 L62.9069767,35.5315615 L62.1594684,35.5315615 L62.1594684,25.7641196 Z M66.4451827,29.5182724 L66.4451827,29.4850498 C66.4451827,27.7242525 65.6312292,26.5946844 64.6843854,26.5946844 C63.7541528,26.5946844 62.8737542,27.7574751 62.8737542,29.4684385 L62.8737542,29.5016611 C62.8737542,31.2292359 63.7541528,32.3920266 64.6843854,32.3920266 C65.6478405,32.3920266 66.4451827,31.3289037 66.4451827,29.5182724 Z M68.0232558,22.6910299 L68.7707641,22.6910299 L68.7707641,27.076412 C69.10299,26.2624585 69.6179402,25.6146179 70.4817276,25.6146179 C71.6943522,25.6146179 72.3920266,26.8272425 72.3920266,28.6046512 L72.3920266,33.2392027 L71.6445183,33.2392027 L71.6445183,28.8704319 C71.6445183,27.4750831 71.1461794,26.6112957 70.2657807,26.6112957 C69.4019934,26.6112957 68.7707641,27.5581395 68.7707641,28.9534884 L68.7707641,33.2392027 L68.0232558,33.2392027 L68.0232558,22.6910299 Z M73.0398671,31.0631229 L73.0398671,31.0299003 C73.0398671,29.4518272 73.9036545,28.6212625 75.1827243,28.6212625 C75.8139535,28.6212625 76.2790698,28.7541528 76.7275748,28.9368771 L76.7275748,28.6710963 C76.7275748,27.3255814 76.179402,26.627907 75.2325581,26.627907 C74.6345515,26.627907 74.1694352,26.8604651 73.7043189,27.1760797 L73.4883721,26.2624585 C74.0365449,25.8803987 74.5847176,25.6478405 75.3156146,25.6478405 C76.0299003,25.6478405 76.5614618,25.9302326 76.9269103,26.4784053 C77.2591362,26.9767442 77.4418605,27.7076412 77.4418605,28.654485 L77.4418605,33.2225914 L76.7275748,33.2225914 L76.7275748,32.0930233 C76.3787375,32.7740864 75.7973422,33.372093 74.9169435,33.372093 C73.986711,33.3887043 73.0398671,32.5913621 73.0398671,31.0631229 Z M76.7275748,30.4817276 L76.7275748,29.7508306 C76.3621262,29.5847176 75.8637874,29.4352159 75.2491694,29.4352159 C74.3023256,29.4352159 73.7873754,30.0498339 73.7873754,30.9800664 L73.7873754,31.013289 C73.7873754,31.9601329 74.3687708,32.5083056 75.0498339,32.5083056 C75.9800664,32.5083056 76.7275748,31.6777409 76.7275748,30.4817276 Z M78.4717608,25.7641196 L79.2192691,25.7641196 L79.2192691,27.0598007 C79.551495,26.2458472 80.0664452,25.5980066 80.9302326,25.5980066 C82.1428571,25.5980066 82.8405316,26.8106312 82.8405316,28.5880399 L82.8405316,33.2225914 L82.0930233,33.2225914 L82.0930233,28.8538206 C82.0930233,27.4584718 81.5946844,26.5946844 80.7142857,26.5946844 C79.8504983,26.5946844 79.2192691,27.5415282 79.2192691,28.9368771 L79.2192691,33.2225914 L78.4717608,33.2225914 L78.4717608,25.7641196 Z M86.6611296,23.1229236 L87.4252492,23.1229236 L87.4252492,27.6245847 L91.3289037,27.6245847 L91.3289037,23.1229236 L92.0930233,23.1229236 L92.0930233,33.2392027 L91.3289037,33.2392027 L91.3289037,28.6877076 L87.4252492,28.6877076 L87.4252492,33.2392027 L86.6611296,33.2392027 L86.6611296,23.1229236 Z M93.538206,23.1229236 L96.4285714,23.1229236 C97.2093023,23.1229236 97.807309,23.4551495 98.2059801,24.0199336 C98.4883721,24.4518272 98.6378738,24.9833887 98.6378738,25.6312292 L98.6378738,25.6644518 C98.6378738,26.9767442 98.089701,27.6578073 97.5581395,28.0066445 C98.3554817,28.372093 99.0033223,29.0697674 99.0033223,30.448505 L99.0033223,30.4817276 C99.0033223,32.2093023 98.0232558,33.2392027 96.5448505,33.2392027 L93.538206,33.2392027 L93.538206,23.1229236 L93.538206,23.1229236 Z M97.8571429,25.7973422 C97.8571429,24.8006645 97.3255814,24.1528239 96.3621262,24.1528239 L94.3023256,24.1528239 L94.3023256,27.641196 L96.3122924,27.641196 C97.2259136,27.641196 97.8737542,27.0265781 97.8737542,25.8305648 L97.8737542,25.7973422 L97.8571429,25.7973422 Z M96.4451827,28.6378738 L94.3023256,28.6378738 L94.3023256,32.2093023 L96.5780731,32.2093023 C97.6079734,32.2093023 98.2392027,31.5282392 98.2392027,30.3986711 L98.2392027,30.3654485 C98.2392027,29.269103 97.6245847,28.6378738 96.4451827,28.6378738 Z M99.9335548,25.7641196 L100.681063,25.7641196 L100.681063,27.7076412 C101.046512,26.461794 101.777409,25.5647841 102.724252,25.6312292 L102.724252,26.8272425 L102.657807,26.8272425 C101.561462,26.8272425 100.681063,27.9900332 100.681063,30.2491694 L100.681063,33.2225914 L99.9335548,33.2225914 L99.9335548,25.7641196 Z M105.564784,31.0631229 L105.564784,31.0299003 C105.564784,29.4518272 106.428571,28.6212625 107.707641,28.6212625 C108.33887,28.6212625 108.803987,28.7541528 109.252492,28.9368771 L109.252492,28.6710963 C109.252492,27.3255814 108.704319,26.627907 107.757475,26.627907 C107.159468,26.627907 106.694352,26.8604651 106.229236,27.1760797 L106.013289,26.2624585 C106.561462,25.8803987 107.109635,25.6478405 107.840532,25.6478405 C108.554817,25.6478405 109.086379,25.9302326 109.451827,26.4784053 C109.784053,26.9767442 109.966777,27.7076412 109.966777,28.654485 L109.966777,33.2225914 L109.252492,33.2225914 L109.252492,32.0930233 C108.903654,32.7740864 108.322259,33.372093 107.44186,33.372093 C106.511628,33.3887043 105.564784,32.5913621 105.564784,31.0631229 Z M109.252492,30.4817276 L109.252492,29.7508306 C108.887043,29.5847176 108.388704,29.4352159 107.774086,29.4352159 C106.827243,29.4352159 106.312292,30.0498339 106.312292,30.9800664 L106.312292,31.013289 C106.312292,31.9601329 106.893688,32.5083056 107.574751,32.5083056 C108.504983,32.5083056 109.252492,31.6777409 109.252492,30.4817276 Z M110.996678,25.7641196 L111.744186,25.7641196 L111.744186,27.0598007 C112.076412,26.2458472 112.591362,25.5980066 113.45515,25.5980066 C114.667774,25.5980066 115.365449,26.8106312 115.365449,28.5880399 L115.365449,33.2225914 L114.61794,33.2225914 L114.61794,28.8538206 C114.61794,27.4584718 114.119601,26.5946844 113.239203,26.5946844 C112.375415,26.5946844 111.744186,27.5415282 111.744186,28.9368771 L111.744186,33.2225914 L110.996678,33.2225914 L110.996678,25.7641196 Z M116.129568,29.5182724 L116.129568,29.4850498 C116.129568,27.0431894 117.325581,25.5980066 118.521595,25.5980066 C119.451827,25.5980066 120.049834,26.345515 120.431894,27.192691 L120.431894,22.6910299 L121.179402,22.6910299 L121.179402,33.2392027 L120.431894,33.2392027 L120.431894,31.744186 C120.033223,32.641196 119.435216,33.4053156 118.521595,33.4053156 C117.325581,33.3887043 116.129568,31.9767442 116.129568,29.5182724 Z M120.465116,29.5016611 L120.465116,29.4684385 C120.465116,27.7408638 119.584718,26.5946844 118.654485,26.5946844 C117.69103,26.5946844 116.893688,27.6578073 116.893688,29.4684385 L116.893688,29.5016611 C116.893688,31.2624585 117.724252,32.3920266 118.654485,32.3920266 C119.584718,32.3920266 120.465116,31.2292359 120.465116,29.5016611 Z M4.30232558,46.179402 C3.90365449,47.076412 3.30564784,47.8405316 2.39202658,47.8405316 C1.19601329,47.8405316 0,46.4285714 0,43.9700997 L0,43.9368771 C0,41.4950166 1.19601329,40.0498339 2.39202658,40.0498339 C3.32225914,40.0498339 3.92026578,40.7973422 4.30232558,41.6445183 L4.30232558,40.2159468 L5.04983389,40.2159468 L5.04983389,50 L4.30232558,50 L4.30232558,46.179402 Z M4.33554817,43.9534884 L4.33554817,43.9202658 C4.33554817,42.192691 3.4551495,41.0465116 2.52491694,41.0465116 C1.56146179,41.0465116 0.764119601,42.1096346 0.764119601,43.9202658 L0.764119601,43.9534884 C0.764119601,45.7142857 1.59468439,46.8438538 2.52491694,46.8438538 C3.4551495,46.8438538 4.33554817,45.6810631 4.33554817,43.9534884 Z M6.51162791,44.8504983 L6.51162791,40.2159468 L7.25913621,40.2159468 L7.25913621,44.5847176 C7.25913621,45.9800664 7.75747508,46.8438538 8.63787375,46.8438538 C9.48504983,46.8438538 10.1328904,45.89701 10.1328904,44.5016611 L10.1328904,40.2159468 L10.8637874,40.2159468 L10.8637874,47.6910299 L10.1328904,47.6910299 L10.1328904,46.3953488 C9.80066445,47.2093023 9.28571429,47.8571429 8.42192691,47.8571429 C7.20930233,47.8405316 6.51162791,46.627907 6.51162791,44.8504983 Z M12.358804,37.358804 L13.358804,37.358804 L13.358804,38.5880399 L12.358804,38.5880399 L12.358804,37.358804 Z M12.4176275,40.2159468 L13.2999805,40.2159468 L13.2999805,47.6910299 L12.4176275,47.6910299 L12.4176275,40.2159468 Z M14.6677741,40.2159468 L15.4152824,40.2159468 L15.4152824,41.5116279 C15.7475083,40.6976744 16.2624585,40.0498339 17.1262458,40.0498339 C18.3388704,40.0498339 19.0365449,41.2624585 19.0365449,43.0398671 L19.0365449,47.6744186 L18.2890365,47.6744186 L18.2890365,43.3056478 C18.2890365,41.910299 17.7906977,41.0465116 16.910299,41.0465116 C16.0465116,41.0465116 15.4152824,41.9933555 15.4152824,43.3887043 L15.4152824,47.6744186 L14.6677741,47.6744186 L14.6677741,40.2159468 Z M20.4651163,37.358804 L21.4651163,37.358804 L21.4651163,38.5880399 L20.4651163,38.5880399 L20.4651163,37.358804 L20.4651163,37.358804 Z M20.5239398,40.2159468 L21.4062927,40.2159468 L21.4062927,47.6910299 L20.5239398,47.6910299 L20.5239398,40.2159468 Z M22.4750831,43.9700997 L22.4750831,43.9368771 C22.4750831,41.4950166 23.6710963,40.0498339 24.8671096,40.0498339 C25.7973422,40.0498339 26.3953488,40.7973422 26.7774086,41.6445183 L26.7774086,37.1428571 L27.5249169,37.1428571 L27.5249169,47.6910299 L26.7774086,47.6910299 L26.7774086,46.1960133 C26.3787375,47.0930233 25.7807309,47.8571429 24.8671096,47.8571429 C23.6710963,47.8405316 22.4750831,46.4285714 22.4750831,43.9700997 Z M26.8106312,43.9534884 L26.8106312,43.9202658 C26.8106312,42.192691 25.9302326,41.0465116 25,41.0465116 C24.0365449,41.0465116 23.2392027,42.1096346 23.2392027,43.9202658 L23.2392027,43.9534884 C23.2392027,45.7142857 24.0697674,46.8438538 25,46.8438538 C25.9302326,46.8438538 26.8106312,45.6810631 26.8106312,43.9534884 Z M29.0199336,37.358804 L30.0199336,37.358804 L30.0199336,38.5880399 L29.0199336,38.5880399 L29.0199336,37.358804 Z M29.0787571,40.2159468 L29.96111,40.2159468 L29.96111,47.6910299 L29.0787571,47.6910299 L29.0787571,40.2159468 Z M31.3289037,40.2159468 L32.076412,40.2159468 L32.076412,41.5116279 C32.4086379,40.6976744 32.923588,40.0498339 33.7873754,40.0498339 C35,40.0498339 35.6976744,41.2624585 35.6976744,43.0398671 L35.6976744,47.6744186 L34.9501661,47.6744186 L34.9501661,43.3056478 C34.9501661,41.910299 34.4518272,41.0465116 33.5714286,41.0465116 C32.7076412,41.0465116 32.076412,41.9933555 32.076412,43.3887043 L32.076412,47.6744186 L31.3289037,47.6744186 L31.3289037,40.2159468 Z M36.8604651,43.9700997 L36.8604651,43.9368771 C36.8604651,41.7774086 37.8737542,40.0498339 39.269103,40.0498339 C40.7475083,40.0498339 41.5946844,41.8106312 41.5946844,44.0033223 C41.5946844,44.1528239 41.5946844,44.2358804 41.5780731,44.3687708 L37.6079734,44.3687708 C37.7076412,45.9800664 38.4717608,46.8936877 39.3687708,46.8936877 C40.0498339,46.8936877 40.5481728,46.4784053 40.9468439,45.8305648 L41.4119601,46.4451827 C40.9136213,47.2757475 40.2990033,47.8405316 39.3521595,47.8405316 C37.9734219,47.8571429 36.8604651,46.2790698 36.8604651,43.9700997 Z M40.8305648,43.538206 C40.7475083,42.1760797 40.2325581,40.9966777 39.2358804,40.9966777 C38.372093,40.9966777 37.7076412,42.076412 37.6079734,43.538206 L40.8305648,43.538206 Z M45.282392,46.7275748 L45.6644518,45.9302326 C46.2126246,46.5448505 46.8106312,46.8770764 47.3920266,46.8770764 C47.9900332,46.8770764 48.4219269,46.4119601 48.4219269,45.6976744 L48.4219269,45.6644518 C48.4219269,44.9169435 47.8239203,44.6179402 47.1760797,44.3521595 C46.3953488,44.0199336 45.5149502,43.6212625 45.5149502,42.2425249 L45.5149502,42.2093023 C45.5149502,40.9302326 46.2292359,40.0664452 47.2259136,40.0664452 C47.8405316,40.0664452 48.5215947,40.3820598 49.0199336,40.89701 L48.6877076,41.7275748 C48.2225914,41.2790698 47.6910299,40.9966777 47.2093023,40.9966777 C46.6112957,40.9966777 46.2458472,41.461794 46.2458472,42.076412 L46.2458472,42.1096346 C46.2458472,42.8239203 46.8604651,43.089701 47.5415282,43.3887043 C48.3222591,43.7375415 49.1528239,44.1860465 49.1528239,45.5315615 L49.1528239,45.5647841 C49.1528239,46.9767442 48.372093,47.807309 47.3754153,47.807309 C46.6445183,47.8239203 45.8471761,47.4086379 45.282392,46.7275748 Z M50.2159468,44.8504983 L50.2159468,40.2159468 L50.9634551,40.2159468 L50.9634551,44.5847176 C50.9634551,45.9800664 51.461794,46.8438538 52.3421927,46.8438538 C53.1893688,46.8438538 53.8372093,45.89701 53.8372093,44.5016611 L53.8372093,40.2159468 L54.5681063,40.2159468 L54.5681063,47.6910299 L53.8372093,47.6910299 L53.8372093,46.3953488 C53.5049834,47.2093023 52.9900332,47.8571429 52.1262458,47.8571429 C50.9136213,47.8405316 50.2159468,46.627907 50.2159468,44.8504983 Z M56.1129568,37.1428571 L56.8604651,37.1428571 L56.8604651,47.6910299 L56.1129568,47.6910299 L56.1129568,37.1428571 Z M58.6046512,41.1960133 L57.923588,41.1960133 L57.923588,40.2325581 L58.6046512,40.2325581 L58.6046512,39.5847176 C58.6046512,38.7375415 58.7541528,38.089701 59.0365449,37.6578073 C59.2857143,37.2757475 59.6511628,37.076412 60.1162791,37.076412 C60.4651163,37.076412 60.6976744,37.1262458 60.9468439,37.2591362 L60.9468439,38.2225914 C60.6810631,38.1063123 60.4651163,38.0398671 60.2159468,38.0398671 C59.6345515,38.0398671 59.3521595,38.5548173 59.3521595,39.6345515 L59.3521595,40.2491694 L60.9468439,40.2491694 L60.9468439,41.1960133 L59.3687708,41.1960133 L59.3687708,47.6910299 L58.6212625,47.6910299 L58.6212625,41.1960133 L58.6046512,41.1960133 Z M61.345515,45.5149502 L61.345515,45.4817276 C61.345515,43.9036545 62.2093023,43.0730897 63.4883721,43.0730897 C64.1196013,43.0730897 64.5847176,43.2059801 65.0332226,43.3887043 L65.0332226,43.1229236 C65.0332226,41.7774086 64.4850498,41.0797342 63.538206,41.0797342 C62.9401993,41.0797342 62.4750831,41.3122924 62.0099668,41.627907 L61.7940199,40.7142857 C62.3421927,40.3322259 62.8903654,40.0996678 63.6212625,40.0996678 C64.3355482,40.0996678 64.8671096,40.3820598 65.2325581,40.9302326 C65.5647841,41.4285714 65.7475083,42.1594684 65.7475083,43.1063123 L65.7475083,47.6744186 L65.0332226,47.6744186 L65.0332226,46.5448505 C64.6843854,47.2259136 64.10299,47.8239203 63.2225914,47.8239203 C62.2923588,47.8405316 61.345515,47.0431894 61.345515,45.5149502 Z M65.0332226,44.9335548 L65.0332226,44.2026578 C64.6677741,44.0365449 64.1694352,43.8870432 63.5548173,43.8870432 C62.6079734,43.8870432 62.0930233,44.5016611 62.0930233,45.4318937 L62.0930233,45.4651163 C62.0930233,46.4119601 62.6744186,46.9601329 63.3554817,46.9601329 C64.2857143,46.9601329 65.0332226,46.1295681 65.0332226,44.9335548 Z M67.3255814,45.7142857 L67.3255814,41.2126246 L66.627907,41.2126246 L66.627907,40.2325581 L67.3255814,40.2325581 L67.3255814,37.9734219 L68.0730897,37.9734219 L68.0730897,40.2325581 L69.6677741,40.2325581 L69.6677741,41.2126246 L68.0730897,41.2126246 L68.0730897,45.5813953 C68.0730897,46.4950166 68.4053156,46.8272425 68.9202658,46.8272425 C69.1694352,46.8272425 69.3853821,46.7607973 69.6511628,46.5614618 L69.6511628,47.5083056 C69.3853821,47.7076412 69.10299,47.8239203 68.7541528,47.8239203 C67.9401993,47.8239203 67.3255814,47.2259136 67.3255814,45.7142857 Z M70.2325581,43.9700997 L70.2325581,43.9368771 C70.2325581,41.7774086 71.2458472,40.0498339 72.641196,40.0498339 C74.1196013,40.0498339 74.9667774,41.8106312 74.9667774,44.0033223 C74.9667774,44.1528239 74.9667774,44.2358804 74.9501661,44.3687708 L70.9800664,44.3687708 C71.0797342,45.9800664 71.8438538,46.8936877 72.7408638,46.8936877 C73.4219269,46.8936877 73.9202658,46.4784053 74.3189369,45.8305648 L74.7840532,46.4451827 C74.2857143,47.2757475 73.6710963,47.8405316 72.7242525,47.8405316 C71.345515,47.8571429 70.2325581,46.2790698 70.2325581,43.9700997 Z M74.2026578,43.538206 C74.1196013,42.1760797 73.6046512,40.9966777 72.6079734,40.9966777 C71.744186,40.9966777 71.0797342,42.076412 70.9800664,43.538206 L74.2026578,43.538206 Z M75.0166113,48.986711 C76.4950166,47.5913621 77.2591362,45.8471761 77.2591362,43.538206 C77.2591362,41.2292359 76.4784053,39.4850498 75.0166113,38.089701 L75.3322259,37.358804 C77.0598007,38.8039867 78.0066445,40.8803987 78.0066445,43.538206 C78.0066445,46.1960133 77.0431894,48.2724252 75.3322259,49.717608 L75.0166113,48.986711 Z M82.0598007,43.986711 L82.0598007,43.9534884 C82.0598007,41.8438538 83.1561462,40.0498339 84.6179402,40.0498339 C85.5647841,40.0498339 86.1627907,40.6478405 86.627907,41.3787375 L86.1295681,42.1594684 C85.730897,41.5448505 85.282392,41.0299003 84.6013289,41.0299003 C83.5880399,41.0299003 82.807309,42.3089701 82.807309,43.9202658 L82.807309,43.9534884 C82.807309,45.5647841 83.6046512,46.8604651 84.6511628,46.8604651 C85.282392,46.8604651 85.7807309,46.3787375 86.179402,45.7475083 L86.6611296,46.4119601 C86.1627907,47.2425249 85.5647841,47.8571429 84.6179402,47.8571429 C83.1727575,47.8571429 82.0598007,46.0797342 82.0598007,43.986711 Z M87.4418605,45.5149502 L87.4418605,45.4817276 C87.4418605,43.9036545 88.3056478,43.0730897 89.5847176,43.0730897 C90.2159468,43.0730897 90.6810631,43.2059801 91.1295681,43.3887043 L91.1295681,43.1229236 C91.1295681,41.7774086 90.5813953,41.0797342 89.6345515,41.0797342 C89.0365449,41.0797342 88.5714286,41.3122924 88.1063123,41.627907 L87.8903654,40.7142857 C88.4385382,40.3322259 88.986711,40.0996678 89.717608,40.0996678 C90.4318937,40.0996678 90.9634551,40.3820598 91.3289037,40.9302326 C91.6611296,41.4285714 91.8438538,42.1594684 91.8438538,43.1063123 L91.8438538,47.6744186 L91.1295681,47.6744186 L91.1295681,46.5448505 C90.7807309,47.2259136 90.1993355,47.8239203 89.3189369,47.8239203 C88.372093,47.8405316 87.4418605,47.0431894 87.4418605,45.5149502 Z M91.1295681,44.9335548 L91.1295681,44.2026578 C90.7641196,44.0365449 90.2657807,43.8870432 89.6511628,43.8870432 C88.7043189,43.8870432 88.1893688,44.5016611 88.1893688,45.4318937 L88.1893688,45.4651163 C88.1893688,46.4119601 88.7707641,46.9601329 89.4518272,46.9601329 C90.3820598,46.9601329 91.1295681,46.1295681 91.1295681,44.9335548 Z M93.2890365,40.2159468 L94.0365449,40.2159468 L94.0365449,41.7109635 C94.4352159,40.8139535 95.0332226,40.0498339 95.9468439,40.0498339 C97.1428571,40.0498339 98.3388704,41.461794 98.3388704,43.9202658 L98.3388704,43.9534884 C98.3388704,46.3953488 97.1594684,47.8405316 95.9468439,47.8405316 C95.0166113,47.8405316 94.4186047,47.0930233 94.0365449,46.2458472 L94.0365449,49.9833887 L93.2890365,49.9833887 L93.2890365,40.2159468 Z M97.5747508,43.9700997 L97.5747508,43.9368771 C97.5747508,42.1760797 96.7607973,41.0465116 95.8139535,41.0465116 C94.8837209,41.0465116 94.0033223,42.2093023 94.0033223,43.9202658 L94.0033223,43.9534884 C94.0033223,45.6810631 94.8837209,46.8438538 95.8139535,46.8438538 C96.7774086,46.8438538 97.5747508,45.7807309 97.5747508,43.9700997 Z M99.0697674,46.7275748 L99.4518272,45.9302326 C100,46.5448505 100.598007,46.8770764 101.179402,46.8770764 C101.777409,46.8770764 102.209302,46.4119601 102.209302,45.6976744 L102.209302,45.6644518 C102.209302,44.9169435 101.611296,44.6179402 100.963455,44.3521595 C100.182724,44.0199336 99.3023256,43.6212625 99.3023256,42.2425249 L99.3023256,42.2093023 C99.3023256,40.9302326 100.016611,40.0664452 101.013289,40.0664452 C101.627907,40.0664452 102.30897,40.3820598 102.807309,40.89701 L102.475083,41.7275748 C102.009967,41.2790698 101.478405,40.9966777 100.996678,40.9966777 C100.398671,40.9966777 100.033223,41.461794 100.033223,42.076412 L100.033223,42.1096346 C100.033223,42.8239203 100.647841,43.089701 101.328904,43.3887043 C102.109635,43.7375415 102.940199,44.1860465 102.940199,45.5315615 L102.940199,45.5647841 C102.940199,46.9767442 102.159468,47.807309 101.162791,47.807309 C100.431894,47.8239203 99.6345515,47.4086379 99.0697674,46.7275748 Z M104.003322,44.8504983 L104.003322,40.2159468 L104.750831,40.2159468 L104.750831,44.5847176 C104.750831,45.9800664 105.249169,46.8438538 106.129568,46.8438538 C106.976744,46.8438538 107.624585,45.89701 107.624585,44.5016611 L107.624585,40.2159468 L108.355482,40.2159468 L108.355482,47.6910299 L107.624585,47.6910299 L107.624585,46.3953488 C107.292359,47.2093023 106.777409,47.8571429 105.913621,47.8571429 C104.700997,47.8405316 104.003322,46.627907 104.003322,44.8504983 Z M109.900332,37.1428571 L110.647841,37.1428571 L110.647841,47.6910299 L109.900332,47.6910299 L109.900332,37.1428571 Z M111.877076,43.9700997 L111.877076,43.9368771 C111.877076,41.7774086 112.890365,40.0498339 114.285714,40.0498339 C115.76412,40.0498339 116.611296,41.8106312 116.611296,44.0033223 C116.611296,44.1528239 116.611296,44.2358804 116.594684,44.3687708 L112.624585,44.3687708 C112.724252,45.9800664 113.488372,46.8936877 114.385382,46.8936877 C115.066445,46.8936877 115.564784,46.4784053 115.963455,45.8305648 L116.428571,46.4451827 C115.930233,47.2757475 115.315615,47.8405316 114.368771,47.8405316 C113.006645,47.8571429 111.877076,46.2790698 111.877076,43.9700997 Z M115.847176,43.538206 C115.76412,42.1760797 115.249169,40.9966777 114.252492,40.9966777 C113.388704,40.9966777 112.724252,42.076412 112.624585,43.538206 L115.847176,43.538206 Z M117.325581,46.7275748 L117.707641,45.9302326 C118.255814,46.5448505 118.853821,46.8770764 119.435216,46.8770764 C120.033223,46.8770764 120.465116,46.4119601 120.465116,45.6976744 L120.465116,45.6644518 C120.465116,44.9169435 119.86711,44.6179402 119.219269,44.3521595 C118.438538,44.0199336 117.55814,43.6212625 117.55814,42.2425249 L117.55814,42.2093023 C117.55814,40.9302326 118.272425,40.0664452 119.269103,40.0664452 C119.883721,40.0664452 120.564784,40.3820598 121.063123,40.89701 L120.730897,41.7275748 C120.265781,41.2790698 119.734219,40.9966777 119.252492,40.9966777 C118.654485,40.9966777 118.289037,41.461794 118.289037,42.076412 L118.289037,42.1096346 C118.289037,42.8239203 118.903654,43.089701 119.584718,43.3887043 C120.365449,43.7375415 121.196013,44.1860465 121.196013,45.5315615 L121.196013,45.5647841 C121.196013,46.9767442 120.415282,47.807309 119.418605,47.807309 C118.671096,47.8239203 117.873754,47.4086379 117.325581,46.7275748 Z" id="dosage-info"></path>
                <g id="logo/nuedexta" transform="translate(0, 0)">
                    <path d="M0,0.132890365 L4.76744186,0.132890365 L12.3421927,8.23920266 L12.3421927,0.132890365 L17.3920266,0.132890365 L17.3920266,15.4817276 L12.9401993,15.4817276 L5.04983389,7.05980066 L5.04983389,15.4817276 L0,15.4817276 L0,0.132890365 Z M21.9435216,8.75415282 L21.9435216,0.132890365 L27.0930233,0.132890365 L27.0930233,8.65448505 C27.0930233,10.8637874 28.4385382,11.9269103 30.4817276,11.9269103 C32.5581395,11.9269103 33.9036545,10.9136213 33.9036545,8.77076412 L33.9036545,0.132890365 L39.0531561,0.132890365 L39.0531561,8.63787375 C39.0531561,13.5714286 35.6644518,15.7641196 30.4152824,15.7641196 C25.2325581,15.7641196 21.9435216,13.5548173 21.9435216,8.75415282 Z M43.5880399,0.132890365 L58.4053156,0.132890365 L58.4053156,3.72093023 L48.6378738,3.72093023 L48.6378738,6.07973422 L57.4750831,6.07973422 L57.4750831,9.43521595 L48.6378738,9.43521595 L48.6378738,11.8770764 L58.538206,11.8770764 L58.538206,15.4983389 L43.5880399,15.4983389 L43.5880399,0.132890365 L43.5880399,0.132890365 Z M62.7408638,0.132890365 L69.8671096,0.132890365 C76.4119601,0.132890365 80.2325581,3.28903654 80.2325581,7.72425249 L80.2325581,7.77408638 C80.2325581,12.2093023 76.3621262,15.4983389 69.7674419,15.4983389 L62.7408638,15.4983389 L62.7408638,0.132890365 L62.7408638,0.132890365 Z M67.8405316,3.88704319 L67.8405316,11.7109635 L69.9169435,11.7109635 C72.9900332,11.7109635 75.0166113,10.3156146 75.0166113,7.82392027 L75.0166113,7.77408638 C75.0166113,5.31561462 72.9900332,3.87043189 69.9169435,3.87043189 L67.8405316,3.87043189 L67.8405316,3.88704319 Z M84.0531561,0.132890365 L98.8704319,0.132890365 L98.8704319,3.72093023 L89.10299,3.72093023 L89.10299,6.07973422 L97.9401993,6.07973422 L97.9401993,9.43521595 L89.10299,9.43521595 L89.10299,11.8770764 L99.0033223,11.8770764 L99.0033223,15.4983389 L84.0531561,15.4983389 L84.0531561,0.132890365 L84.0531561,0.132890365 Z M120.016611,0.132890365 L113.9701,7.60797342 L120.282392,15.4817276 L114.418605,15.4817276 L110.89701,10.8305648 L107.342193,15.4817276 L101.611296,15.4817276 L107.923588,7.6744186 L101.860465,0.132890365 L107.724252,0.132890365 L110.963455,4.45182724 L114.285714,0.132890365 L120.016611,0.132890365 Z M150.76412,0.0332225914 L158.604651,15.4983389 L153.139535,15.4983389 L151.827243,12.7242525 L144.684385,12.7242525 L143.372093,15.4817276 L138.039867,15.4817276 L145.847176,0.0332225914 L150.76412,0.0332225914 Z M138.704319,0.132890365 L138.704319,3.8538206 L133.172757,3.8538206 L133.172757,15.4817276 L128.07309,15.4817276 L128.07309,3.87043189 L122.574751,3.87043189 L122.574751,0.132890365 L138.704319,0.132890365 Z M148.255814,5.08305648 L146.179402,9.41860465 L150.315615,9.41860465 L148.255814,5.08305648 Z M156.445183,0 C157.657807,0 158.604651,0.980066445 158.604651,2.15946844 L158.604651,2.17607973 C158.604651,3.35548173 157.641196,4.35215947 156.445183,4.35215947 C155.285281,4.35215947 154.368551,3.45546351 154.291028,2.34533146 L154.285714,2.19269103 C154.285714,0.996677741 155.249169,0 156.445183,0 Z M156.461794,0.23255814 C155.38206,0.23255814 154.551495,1.11295681 154.551495,2.17607973 L154.551495,2.19269103 C154.551495,3.25581395 155.365449,4.11960133 156.461794,4.11960133 C157.490112,4.11960133 158.292427,3.32105378 158.366506,2.32663608 L158.372093,2.17607973 C158.372093,1.11295681 157.541528,0.23255814 156.461794,0.23255814 Z M156.594684,0.980066445 C157.192691,0.980066445 157.591362,1.24584718 157.591362,1.76079734 C157.591362,2.12624585 157.425249,2.35880399 157.126246,2.47508306 L157.657807,3.25581395 L156.843854,3.25581395 L156.395349,2.59136213 L156.179402,2.59136213 L156.179402,3.25581395 L155.481728,3.25581395 L155.481728,0.980066445 L156.594684,0.980066445 Z M156.561462,1.57807309 L156.196013,1.57807309 L156.196013,2.07641196 L156.561462,2.07641196 C156.777409,2.07641196 156.877076,1.97674419 156.877076,1.82724252 C156.877076,1.66112957 156.760797,1.57807309 156.561462,1.57807309 Z"></path>
                </g>
            </g>
        </g>
    </g>
</svg>