<svg width="80" height="80" viewBox="0 0 80 80" fill="none" xmlns="http://www.w3.org/2000/svg">
<g clip-path="url(#clip0_1342_37125)">
<path fill-rule="evenodd" clip-rule="evenodd" d="M74.1151 51.9547C71.7496 61.8636 60.9165 66.4257 51.4157 69.924C43.0131 73.018 34.1629 73.187 25.9451 69.6918C16.7762 65.7921 7.7555 59.9364 5.15544 50.2487C2.3832 39.9195 5.87831 28.8262 12.7839 20.6537C19.6231 12.5597 29.897 7.45782 40.3572 8.58867C49.9965 9.63078 55.9349 18.2893 61.9098 25.9647C68.0829 33.8948 76.4619 42.1242 74.1151 51.9547Z" fill="#D1E3F4"/>
<path d="M36 56.5016C71.5089 53.9673 69.3081 23.6896 70.0001 14.001L63 21" stroke="#2554C3" stroke-width="3" stroke-linecap="round" stroke-linejoin="round"/>
<path d="M70 14L76.5 21.5" stroke="#2554C3" stroke-width="3" stroke-linecap="round"/>
<path d="M28.4186 30.3125C28.4186 29.9753 28.2864 29.752 28.0221 29.6426C27.7669 29.5332 27.4205 29.4785 26.983 29.4785H26.901V27.9883H33.3678V29.4785H33.1217C32.8483 29.4785 32.6022 29.5059 32.3834 29.5605C32.1738 29.6061 31.9596 29.6973 31.7409 29.834C31.5312 29.9616 31.3125 30.1439 31.0846 30.3809C30.8567 30.6087 30.5924 30.9049 30.2916 31.2695L27.4069 34.7969L31.5221 40.0332C31.9505 40.571 32.3424 40.9538 32.6979 41.1816C33.0625 41.4004 33.4179 41.5098 33.7643 41.5098H34.1334V43H25.2194V41.5098H25.3698C26.4909 41.5098 27.0514 41.2044 27.0514 40.5938C27.0514 40.4844 27.0377 40.375 27.0104 40.2656C26.983 40.1562 26.9329 40.0286 26.86 39.8828C26.7871 39.737 26.6777 39.5684 26.5319 39.377C26.3952 39.1764 26.2129 38.9395 25.985 38.666L24.3854 36.7246L22.4303 39.1582C22.2571 39.3861 22.1159 39.6185 22.0065 39.8555C21.8971 40.0924 21.8424 40.3294 21.8424 40.5664C21.8424 40.8763 21.9746 41.1133 22.2389 41.2773C22.5032 41.4323 22.9498 41.5098 23.5788 41.5098H23.6608V43H16.5514V41.5098H16.7975C17.1347 41.5098 17.431 41.4824 17.6862 41.4277C17.9414 41.3639 18.1784 41.2637 18.3971 41.127C18.625 40.9902 18.8528 40.8079 19.0807 40.5801C19.3086 40.3522 19.5638 40.0651 19.8463 39.7188L23.3737 35.4668L19.8463 30.9551C19.4544 30.4629 19.0625 30.0938 18.6705 29.8477C18.2786 29.6016 17.8685 29.4785 17.4401 29.4785H17.0709V27.9883H25.8756V29.4785H25.7799C25.4609 29.4785 25.1966 29.5013 24.987 29.5469C24.7864 29.5833 24.6269 29.638 24.5084 29.7109C24.3899 29.7839 24.3079 29.8704 24.2623 29.9707C24.2168 30.071 24.194 30.1758 24.194 30.2852C24.194 30.4857 24.2441 30.6816 24.3444 30.873C24.4446 31.0553 24.6087 31.2878 24.8366 31.5703L26.3952 33.4844L27.7213 31.8848C27.9401 31.6022 28.1087 31.3333 28.2272 31.0781C28.3548 30.8229 28.4186 30.5677 28.4186 30.3125ZM52.1791 22.9082C52.1791 23.4707 52.1146 24.0156 51.9857 24.543C51.8685 25.0703 51.6634 25.6152 51.3705 26.1777C51.0892 26.7402 50.7142 27.3379 50.2455 27.9707C49.7767 28.5918 49.1966 29.2832 48.5052 30.0449C47.8138 30.7949 47.0052 31.627 46.0795 32.541C45.1654 33.4551 44.1048 34.4805 42.8978 35.6172L39.2943 39.0449H47.6791C48.4173 39.0449 49.0443 38.834 49.5599 38.4121C50.0873 37.9785 50.4564 37.3574 50.6673 36.5488L50.9662 35.4414H53.0931L52.8998 43H35.8841V39.291L41.2103 33.8594C42.3236 32.7227 43.2377 31.6973 43.9525 30.7832C44.6673 29.8691 45.2298 28.9961 45.64 28.1641C46.0502 27.332 46.3373 26.5117 46.5013 25.7031C46.6654 24.8828 46.7474 24.0098 46.7474 23.084C46.7474 21.7129 46.4955 20.7109 45.9916 20.0781C45.4994 19.4453 44.8138 19.1289 43.9349 19.1289C42.7162 19.1289 41.8607 19.6562 41.3685 20.7109C40.8763 21.7539 40.6302 23.3008 40.6302 25.3516C39.9505 25.3516 39.3236 25.2871 38.7494 25.1582C38.1869 25.0293 37.7005 24.8242 37.2904 24.543C36.892 24.2617 36.5814 23.8984 36.3588 23.4531C36.1361 22.9961 36.0248 22.4453 36.0248 21.8008C36.0248 21.1445 36.1888 20.5234 36.517 19.9375C36.8568 19.3516 37.3548 18.8359 38.0111 18.3906C38.6673 17.9453 39.4877 17.5938 40.472 17.3359C41.4681 17.0664 42.6224 16.9316 43.9349 16.9316C45.2826 16.9316 46.4662 17.0723 47.4857 17.3535C48.517 17.623 49.3783 18.0156 50.0697 18.5312C50.7728 19.0469 51.3002 19.6738 51.6517 20.4121C52.0033 21.1504 52.1791 21.9824 52.1791 22.9082Z" fill="#2554C3"/>
</g>
<defs>
<clipPath id="clip0_1342_37125">
<rect width="80" height="80" fill="white"/>
</clipPath>
</defs>
</svg>
