<svg width="100" height="100" viewBox="0 0 100 100" fill="none" xmlns="http://www.w3.org/2000/svg">
<circle cx="50" cy="50" r="50" fill="#0665A3"/>
<path d="M44.8492 46.6425C45.0056 46.4848 45.0056 46.2291 44.8492 46.0714C44.6928 45.9137 44.4392 45.9137 44.2828 46.0714L41.3619 49.0163L40.0431 47.6866C39.8867 47.5289 39.6331 47.5289 39.4767 47.6866C39.3203 47.8443 39.3203 48.1 39.4767 48.2577L41.3619 50.1585L44.8492 46.6425Z" fill="white" stroke="white" stroke-width="1.5" stroke-linecap="round" stroke-linejoin="round"/>
<path d="M49.5742 48.3516H62.1903" stroke="white" stroke-width="2.5" stroke-linecap="round"/>
<path d="M44.8492 56.455C45.0056 56.2973 45.0056 56.0416 44.8492 55.8839C44.6928 55.7262 44.4392 55.7262 44.2828 55.8839L41.3619 58.8288L40.0431 57.4991C39.8867 57.3414 39.6331 57.3414 39.4767 57.4991C39.3203 57.6568 39.3203 57.9125 39.4767 58.0702L41.3619 59.971L44.8492 56.455Z" fill="white" stroke="white" stroke-width="1.5" stroke-linecap="round" stroke-linejoin="round"/>
<path d="M49.5742 58.1641H62.1903" stroke="white" stroke-width="2.5" stroke-linecap="round"/>
<path fill-rule="evenodd" clip-rule="evenodd" d="M70.25 38.3683V71.4855C70.25 74.0984 68.1319 76.2165 65.519 76.2165H35.731C33.1181 76.2165 31 74.0984 31 71.4855V28.731C31 26.1182 33.1181 24 35.731 24H55.8817L70.25 38.3683ZM55.8817 39.9453C55.0107 39.9453 54.3047 39.2393 54.3047 38.3683V27.154H35.731C34.86 27.154 34.154 27.8601 34.154 28.731V71.4855C34.154 72.3565 34.86 73.0625 35.731 73.0625H65.519C66.39 73.0625 67.096 72.3565 67.096 71.4855V39.9453H55.8817ZM57.4587 30.0375L64.2126 36.7913H57.4587V30.0375Z" fill="white"/>
</svg>
