<svg width="81" height="80" viewBox="0 0 81 80" fill="none" xmlns="http://www.w3.org/2000/svg">
<g clip-path="url(#clip0_3701_1765)">
<path fill-rule="evenodd" clip-rule="evenodd" d="M77.7509 51.7043C75.2561 62.1548 63.8308 66.9663 53.8106 70.656C44.9486 73.9191 35.6146 74.0972 26.9476 70.411C17.2775 66.2981 7.76357 60.1223 5.02138 49.905C2.09759 39.0111 5.78377 27.3114 13.0669 18.6921C20.28 10.1556 31.1155 4.77483 42.1476 5.96751C52.3138 7.06659 58.5769 16.1985 64.8784 24.2935C71.3889 32.6571 80.226 41.3364 77.7509 51.7043Z" fill="#D1E3F4"/>
<path d="M42.9988 42.0535C44.3192 42.5987 45.3239 44.4275 47.5259 46.7048C52.0533 51.3869 55.1872 48.456 59.9758 46.8598C66.7664 44.5963 64.5029 37.2397 58.8441 39.5033C53.1853 41.7668 52.6192 41.7668 50.3557 38.3715C48.9519 36.2658 48.3049 35.3219 45.8282 33.8414C42.9988 32.1501 39.037 33.848 36.7735 36.6737C29.7101 45.4919 32.2472 63.8365 41.3017 64.9684C50.3562 66.1004 52.6193 59.8752 53.7511 57.0458C54.8829 54.2164 56.4573 54.7822 58.8441 57.6117C61.2308 60.4411 59.9752 58.8721 63.9364 63.8365C67.8977 68.8009 75.2542 64.4023 70.6524 58.8721C67.4484 55.0216 64.5023 51.9528 61.1072 47.9915" stroke="#2554C3" stroke-width="2.5" stroke-linecap="round"/>
<path d="M48.092 49.6914C47.1489 49.88 44.9231 50.71 43.5649 52.5208" stroke="#2554C3" stroke-width="2.5" stroke-linecap="round"/>
<circle cx="48.0919" cy="25.3565" r="7.35655" stroke="#2554C3" stroke-width="2.5"/>
<path d="M30.5494 32.7109C29.229 33.6541 26.0224 38.3698 27.1541 43.4628" stroke="#2554C3" stroke-width="2.5" stroke-linecap="round"/>
<path d="M28.5794 27.8855C27.15 28.2178 22.9909 30.9479 22.5426 35.3424" stroke="#2554C3" stroke-width="2.5" stroke-linecap="round"/>
</g>
<defs>
<clipPath id="clip0_3701_1765">
<rect width="80" height="80" fill="white" transform="translate(0.333496)"/>
</clipPath>
</defs>
</svg>
