<svg width="80" height="80" viewBox="0 0 80 80" fill="none" xmlns="http://www.w3.org/2000/svg">
<g clip-path="url(#clip0_3701_6051)">
<path fill-rule="evenodd" clip-rule="evenodd" d="M53.41 8.42783C62.0199 11.6203 68.2043 18.7722 71.5264 27.3329C75.2036 36.8087 77.5553 47.8055 71.9922 56.3122C66.357 64.9292 55.1893 66.3411 45.0091 67.8812C33.3179 69.6499 19.8215 73.7599 11.3783 65.482C2.74852 57.0213 4.11201 42.7909 7.62207 31.2265C10.5267 21.6566 18.918 15.6033 27.8705 11.1457C35.9335 7.13096 44.9646 5.29637 53.41 8.42783Z" fill="#D1E3F4"/>
<g clip-path="url(#clip1_3701_6051)">
<path fill-rule="evenodd" clip-rule="evenodd" d="M24.6153 58.7979C23.9165 58.7325 23.4021 58.1036 23.4664 57.3932L24.4863 46.1344L29.6269 48.8984L30.8095 41.6736C30.9248 40.9699 31.5794 40.4943 32.2717 40.6115C32.9641 40.7285 33.4319 41.3938 33.3167 42.0975L31.5553 52.8579L26.6677 50.2299L25.9974 57.6301C25.9331 58.3405 25.3143 58.8634 24.6153 58.7979Z" fill="#2554C3"/>
<path fill-rule="evenodd" clip-rule="evenodd" d="M6.81404 41.4323C6.47166 40.8096 6.69077 40.0226 7.30346 39.6746L17.3972 33.9414L18.0944 40.086L25.0116 36.8057C25.6476 36.5041 26.4038 36.7837 26.7006 37.4301C26.9974 38.0765 26.7222 38.8452 26.0863 39.1468L15.9735 43.9424L15.3091 38.0868L8.54336 41.9297C7.93068 42.2777 7.15643 42.055 6.81404 41.4323Z" fill="#2554C3"/>
<path fill-rule="evenodd" clip-rule="evenodd" d="M12.7237 15.3365C13.0878 14.7267 13.8695 14.5324 14.4695 14.9025L24.5938 21.148L19.5392 24.8981L25.98 29.5572C26.5519 29.971 26.6855 30.7775 26.2785 31.3586C25.8716 31.9398 25.0781 32.0756 24.5062 31.662L15.1924 24.9244L20.016 21.346L13.1507 17.1109C12.5507 16.7408 12.3595 15.9463 12.7237 15.3365Z" fill="#2554C3"/>
<path fill-rule="evenodd" clip-rule="evenodd" d="M40.556 9.89484C41.2471 10.0187 41.7087 10.6887 41.5868 11.3912L39.677 22.399L34.8444 19.2555L33.1087 26.2348C32.9366 26.9263 32.2455 27.3453 31.5651 27.1705C30.8847 26.9957 30.4725 26.2933 30.6445 25.6017L33.2445 15.1476L37.8361 18.1343L39.0838 10.9426C39.2056 10.24 39.8648 9.77096 40.556 9.89484Z" fill="#2554C3"/>
<path fill-rule="evenodd" clip-rule="evenodd" d="M56.5645 28.0098C56.902 28.6354 56.6768 29.4204 56.0613 29.7635L46.3839 35.1587L45.769 29.3354L39.2915 32.3441C38.6532 32.6406 37.8992 32.355 37.6074 31.7062C37.3158 31.0574 37.5968 30.291 38.2351 29.9945L47.9199 25.4961L48.5043 31.0302L54.839 27.4986C55.4544 27.1555 56.2269 27.3844 56.5645 28.0098Z" fill="#2554C3"/>
<path fill-rule="evenodd" clip-rule="evenodd" d="M49.9687 51.4212C49.6046 52.031 48.823 52.2253 48.223 51.8552L38.6685 45.9612L43.3918 42.4571L37.4794 38.1801C36.9075 37.7664 36.7739 36.9599 37.1808 36.3787C37.5879 35.7975 38.3813 35.6617 38.9532 36.0753L47.7386 42.4306L43.2463 45.7634L49.5417 49.6469C50.1417 50.0169 50.333 50.8113 49.9687 51.4212Z" fill="#2554C3"/>
</g>
</g>
<defs>
<clipPath id="clip0_3701_6051">
<rect width="80" height="80" fill="white"/>
</clipPath>
<clipPath id="clip1_3701_6051">
<rect width="51" height="50" fill="white" transform="translate(6 9)"/>
</clipPath>
</defs>
</svg>
