<svg width="81" height="80" viewBox="0 0 81 80" fill="none" xmlns="http://www.w3.org/2000/svg">
<path fill-rule="evenodd" clip-rule="evenodd" d="M40.03 3.14827C50.5096 2.08262 60.8043 6.87748 68.1341 13.7955C75.3485 20.6045 79.617 30.029 78.4866 39.4444C77.445 48.1198 69.3017 53.8167 62.5835 60.0275C55.7946 66.3036 49.6909 74.7958 40.03 74.9961C30.2758 75.1983 23.0851 67.4941 16.428 60.9845C10.0848 54.7819 3.44419 47.9262 3.67273 39.4444C3.89774 31.0932 11.3849 25.1037 17.5609 18.9381C24.1913 12.3189 30.2637 4.14138 40.03 3.14827Z" fill="#D1E3F4"/>
<path d="M18.9027 46.3789L14.667 49.7675L20.0323 52.8737L16.6437 59.6509L31.0452 56.5447" stroke="#2554C3" stroke-width="2.5" stroke-linecap="round" stroke-linejoin="round"/>
<path d="M27.9392 17.578L23.9858 10.8008" stroke="#2554C3" stroke-width="2.5" stroke-linecap="round"/>
<path d="M32.4572 15.3187L30.4805 6" stroke="#2554C3" stroke-width="2.5" stroke-linecap="round"/>
<path d="M37.54 14.4714V7.97656" stroke="#2554C3" stroke-width="2.5" stroke-linecap="round"/>
<path d="M45.729 57.9573L52.5062 60.4987L55.33 56.263L68.3197 60.4987L63.2368 51.7448L69.1668 49.4858L63.2368 45.25" stroke="#2554C3" stroke-width="2.5" stroke-linecap="round" stroke-linejoin="round"/>
<path d="M37.54 31.4141C39.3285 33.2966 43.0748 37.1747 43.7525 37.6265C44.5996 38.1913 45.7292 38.4736 46.8587 37.6265" stroke="#2554C3" stroke-width="2.5" stroke-linecap="round" stroke-linejoin="round"/>
<path d="M56.4597 47.2266H51.2312C50.7771 47.2266 50.3364 47.3811 49.9818 47.6648L46.8417 50.1769C46.4871 50.4606 46.0465 50.6152 45.5923 50.6152H35.8457" stroke="#2554C3" stroke-width="2.5" stroke-linecap="round" stroke-linejoin="round"/>
<path d="M30.1981 24.6367H26.5271C24.8116 24.6367 23.4209 26.0274 23.4209 27.7429V27.7429C23.4209 29.4585 24.8116 30.8492 26.5271 30.8492H30.1981" stroke="#2554C3" stroke-width="2.5" stroke-linecap="round" stroke-linejoin="round"/>
<path d="M30.1981 30.8516H25.1152C23.2437 30.8516 21.7266 32.3687 21.7266 34.2402V34.2402C21.7266 36.1116 23.2437 37.6288 25.1152 37.6288H30.1981" stroke="#2554C3" stroke-width="2.5" stroke-linecap="round" stroke-linejoin="round"/>
<path d="M29.9155 37.625H26.5269C24.4995 37.625 22.856 39.2686 22.856 41.296V41.296C22.856 43.3234 24.4995 44.967 26.5269 44.967H29.5865C31.7957 44.967 33.5865 43.1761 33.5865 40.967V39.1546" stroke="#2554C3" stroke-width="2.5" stroke-linecap="round" stroke-linejoin="round"/>
<path d="M32.457 44.9688H27.3741C25.8146 44.9688 24.5503 46.233 24.5503 47.7926C24.5503 49.3521 25.8146 50.6164 27.3741 50.6164H32.457C34.0166 50.6164 35.2809 49.3521 35.2809 47.7926C35.2809 46.233 34.0166 44.9688 32.457 44.9688Z" stroke="#2554C3" stroke-width="2.5" stroke-linejoin="round"/>
<path d="M59.5661 29.4358H52.6713C51.6581 29.4358 50.6832 29.052 49.943 28.3602C46.9151 25.5307 42.2873 21.1933 41.4936 20.3996C40.364 19.27 38.6697 18.7053 36.9754 19.5524C36.0454 20.0174 33.9988 21.1295 32.2583 22.0858C30.9852 22.7853 30.1982 24.1245 30.1982 25.5772V34.9412C30.1982 36.9585 31.7435 38.777 33.7099 38.3266C35.4389 37.9306 36.9754 36.9422 36.9754 34.8014C36.9754 32.7682 36.9754 29.7185 36.9754 27.4594" stroke="#2554C3" stroke-width="2.5" stroke-linecap="round" stroke-linejoin="round"/>
</svg>
