<svg width="80" height="80" viewBox="0 0 80 80" fill="none" xmlns="http://www.w3.org/2000/svg">
<path fill-rule="evenodd" clip-rule="evenodd" d="M37.6157 3.85448C26.469 2.88522 15.587 8.75241 8.92606 17.6077C2.52569 26.1166 2.72913 37.1264 4.7679 47.5235C6.92459 58.5221 10.0525 70.6903 20.2915 75.5684C30.5436 80.4528 42.078 75.1147 52.2997 70.169C62.3811 65.2911 73.9031 59.6253 75.7831 48.7193C77.6032 38.1605 67.5697 30.3091 60.5858 22.0998C53.9395 14.2872 47.9248 4.7509 37.6157 3.85448Z" fill="#D1E3F4"/>
<g clip-path="url(#clip0_1520_83882)">
<path fill-rule="evenodd" clip-rule="evenodd" d="M58.2575 27.7385C59.7001 28.1687 60.7379 28.3141 60.7379 28.3141V24.6016H63.2183C66.643 24.6016 69.4193 21.8313 69.4193 18.4141C69.4193 14.9968 66.643 12.2266 63.2183 12.2266H56.07C52.4836 12.2266 49.5762 15.1276 49.5762 18.7062C49.5762 24.2974 54.9689 26.7578 58.2575 27.7385ZM66.9389 18.4141C66.9389 20.4645 65.2732 22.1266 63.2183 22.1266H58.2575V25.14C57.6232 24.9231 56.9419 24.6511 56.269 24.3142C53.8106 23.0839 52.0566 21.3356 52.0566 18.7062C52.0566 16.4945 53.8535 14.7016 56.07 14.7016H63.2183C65.2732 14.7016 66.9389 16.3637 66.9389 18.4141Z" fill="#2554C3"/>
<path fill-rule="evenodd" clip-rule="evenodd" d="M35.7061 27.0659C32.3723 26.945 29.7324 24.2132 29.7324 20.8846C29.7324 17.4685 32.5077 14.6992 35.9313 14.6992H39.8607C43.1712 14.6992 45.855 17.3772 45.855 20.6804C45.855 25.6823 41.3526 27.9698 38.4138 28.9302C36.99 29.3954 35.9334 29.5492 35.9334 29.5492V27.0742L35.7061 27.0659ZM38.4138 24.6876L35.7962 24.5927C33.7964 24.52 32.2128 22.8813 32.2128 20.8846C32.2128 18.8354 33.8777 17.1742 35.9313 17.1742H39.8607C41.8014 17.1742 43.3746 18.744 43.3746 20.6804C43.3746 23.0496 41.8656 24.6038 39.7484 25.7041C39.301 25.9366 38.849 26.1351 38.4138 26.3033V24.6876Z" fill="#2554C3"/>
<path fill-rule="evenodd" clip-rule="evenodd" d="M52.0563 34.5008C52.0563 37.2357 49.8364 39.4508 47.0956 39.4508C44.3547 39.4508 42.1348 37.2357 42.1348 34.5008C42.1348 31.7659 44.3547 29.5508 47.0956 29.5508C49.8364 29.5508 52.0563 31.7659 52.0563 34.5008ZM49.5759 34.5008C49.5759 35.8687 48.4665 36.9758 47.0956 36.9758C45.7246 36.9758 44.6152 35.8687 44.6152 34.5008C44.6152 33.1328 45.7246 32.0258 47.0956 32.0258C48.4665 32.0258 49.5759 33.1328 49.5759 34.5008Z" fill="#2554C3"/>
<path fill-rule="evenodd" clip-rule="evenodd" d="M40.8942 36.9734C40.8942 39.7083 38.6743 41.9234 35.9334 41.9234C33.1926 41.9234 30.9727 39.7083 30.9727 36.9734C30.9727 34.2386 33.1926 32.0234 35.9334 32.0234C38.6743 32.0234 40.8942 34.2386 40.8942 36.9734ZM38.4138 36.9734C38.4138 38.3414 37.3044 39.4484 35.9334 39.4484C34.5625 39.4484 33.453 38.3414 33.453 36.9734C33.453 35.6055 34.5625 34.4984 35.9334 34.4984C37.3044 34.4984 38.4138 35.6055 38.4138 36.9734Z" fill="#2554C3"/>
<path fill-rule="evenodd" clip-rule="evenodd" d="M24.7715 50.0258C24.7715 46.2851 32.2079 44.4008 35.9332 44.4008C36.6588 44.4008 37.525 44.4723 38.4497 44.615C40.1146 43.3988 43.1612 41.9258 47.0951 41.9258C51.029 41.9258 54.0756 43.3988 55.7404 44.615C56.6651 44.4723 57.5313 44.4008 58.2568 44.4008C61.982 44.4008 69.4185 46.2851 69.4185 50.0258V56.7758H24.7715V50.0258ZM44.1834 49.3791C44.6146 49.7802 44.6146 49.9888 44.6146 50.0258V54.3008H27.2519V50.0258C27.2519 49.9888 27.2518 49.7802 27.683 49.3791C28.1339 48.9597 28.8763 48.5125 29.8858 48.1049C31.9099 47.2876 34.384 46.8758 35.9332 46.8758C37.4825 46.8758 39.9566 47.2876 41.9807 48.1049C42.9902 48.5125 43.7326 48.9597 44.1834 49.3791ZM52.2313 45.4597C50.8957 44.879 49.1493 44.4008 47.0951 44.4008C45.041 44.4008 43.2944 44.879 41.9589 45.4597C44.7066 46.3821 47.095 47.9059 47.095 50.0258C47.095 47.9059 49.4835 46.3821 52.2313 45.4597ZM66.9382 50.0258C66.9382 49.9888 66.9382 49.7802 66.5071 49.3791C66.0561 48.9597 65.3137 48.5125 64.3042 48.1049C62.2801 47.2876 59.806 46.8758 58.2568 46.8758C56.7075 46.8758 54.2335 47.2876 52.2093 48.1049C51.1998 48.5125 50.4574 48.9597 50.0066 49.3791C49.5754 49.7802 49.5754 49.9888 49.5754 50.0258V54.3008H66.9382V50.0258Z" fill="#2554C3"/>
<path fill-rule="evenodd" clip-rule="evenodd" d="M58.2577 41.9234C60.9985 41.9234 63.2184 39.7083 63.2184 36.9734C63.2184 34.2386 60.9985 32.0234 58.2577 32.0234C55.5168 32.0234 53.2969 34.2386 53.2969 36.9734C53.2969 39.7083 55.5168 41.9234 58.2577 41.9234ZM58.2577 39.4484C59.6286 39.4484 60.7381 38.3414 60.7381 36.9734C60.7381 35.6055 59.6286 34.4984 58.2577 34.4984C56.8867 34.4984 55.7773 35.6055 55.7773 36.9734C55.7773 38.3414 56.8867 39.4484 58.2577 39.4484Z" fill="#2554C3"/>
</g>
<defs>
<clipPath id="clip0_1520_83882">
<rect width="46" height="45" fill="white" transform="translate(24 12)"/>
</clipPath>
</defs>
</svg>
