<svg width="81" height="80" viewBox="0 0 81 80" fill="none" xmlns="http://www.w3.org/2000/svg">
<g clip-path="url(#clip0_1217_5643)">
<path fill-rule="evenodd" clip-rule="evenodd" d="M76.4577 53.3063C74.034 63.4589 62.9344 68.1333 53.1998 71.7177C44.5904 74.8879 35.5225 75.0609 27.1024 71.4797C17.708 67.4841 8.46527 61.4843 5.80124 51.5583C2.96079 40.9749 6.54189 29.6087 13.6174 21.2351C20.6249 12.9419 31.1516 7.71447 41.8692 8.87315C51.7457 9.94091 57.8302 18.8125 63.9521 26.6768C70.2771 34.802 78.8622 43.2339 76.4577 53.3063Z" fill="#D1E3F4"/>
<path fill-rule="evenodd" clip-rule="evenodd" d="M50.0494 29.2552H53.1169C53.7611 29.2552 54.2836 28.7329 54.2836 28.0885C54.2836 27.4442 53.7611 26.9219 53.1169 26.9219H50.0494C49.6418 26.922 49.1675 26.9885 48.7078 27.2128C47.0453 28.024 46.1043 29.4265 45.5879 30.7929C45.4134 31.2544 45.2838 31.7203 45.1887 32.1719H47.5894C47.6414 31.986 47.7015 31.8005 47.7705 31.6178C48.1461 30.6243 48.7564 29.7853 49.731 29.3098C49.7853 29.2833 49.8852 29.2552 50.0494 29.2552ZM43.2002 33.3385C42.5559 33.3385 42.0188 33.8704 42.1928 34.4909C42.8668 36.8935 45.6071 38.7627 49.0336 39.1128V40.9307C48.2227 40.9506 47.3802 41.0152 46.6657 41.2232C46.1075 41.3857 45.5158 41.6643 45.0632 42.1727C44.5893 42.7049 44.3668 43.3771 44.3668 44.1268C44.3668 44.8772 44.5887 45.5502 45.0619 46.0836C45.5143 46.5933 46.1058 46.8729 46.6647 47.0361C47.0381 47.1452 47.4464 47.215 47.8668 47.2597V44.9105C47.6672 44.8819 47.4844 44.8447 47.319 44.7964C47.0029 44.7041 46.8652 44.6003 46.8072 44.5348C46.77 44.4929 46.7001 44.399 46.7001 44.1268C46.7001 43.8574 46.7694 43.7653 46.8059 43.7243C46.8637 43.6593 47.0012 43.5557 47.318 43.4635C47.7659 43.3331 48.3421 43.2841 49.0336 43.2659V44.9946L49.0335 47.3298L49.0336 49.6719H45.5336V52.0052H54.8669V49.6719H51.3669V43.2123C52.6522 43.1115 53.6941 42.829 54.4779 42.3239C55.5811 41.613 56.0335 40.5546 56.0335 39.4312C56.0335 38.8207 55.8996 38.234 55.6009 37.7144C56.9131 36.8874 57.8504 35.764 58.2075 34.4909C58.3816 33.8704 57.8445 33.3385 57.2002 33.3385H43.2002ZM53.214 40.3626C52.8835 40.5756 52.3105 40.7779 51.3669 40.87V39.1128C52.0907 39.0389 52.7839 38.8971 53.4335 38.6968C53.6258 38.8801 53.7001 39.1027 53.7001 39.4312C53.7001 39.8634 53.5692 40.1336 53.214 40.3626Z" fill="#2554C3"/>
<path fill-rule="evenodd" clip-rule="evenodd" d="M59.5335 47.3333H71.2002V28.6667H59.5335V17H40.8669V28.6667H29.2002V47.3333H40.8669V59H59.5335V47.3333ZM57.2002 56.6667V45H68.8669V31H57.2002V19.3333H43.2002V31H31.5335V45H43.2002V56.6667H57.2002Z" fill="#2554C3"/>
</g>
<defs>
<clipPath id="clip0_1217_5643">
<rect width="80" height="80" fill="white" transform="translate(0.5)"/>
</clipPath>
</defs>
</svg>
