<svg width="80" height="80" viewBox="0 0 80 80" fill="none" xmlns="http://www.w3.org/2000/svg">
<path fill-rule="evenodd" clip-rule="evenodd" d="M40.8843 3.85448C52.031 2.88522 62.913 8.75241 69.5739 17.6077C75.9743 26.1166 75.7709 37.1264 73.7321 47.5235C71.5754 58.5221 68.4475 70.6903 58.2085 75.5684C47.9564 80.4528 36.422 75.1147 26.2003 70.169C16.1189 65.2911 4.59687 59.6253 2.71689 48.7193C0.896782 38.1605 10.9303 30.3091 17.9142 22.0998C24.5605 14.2872 30.5752 4.7509 40.8843 3.85448Z" fill="#D1E3F4"/>
<path fill-rule="evenodd" clip-rule="evenodd" d="M29.2328 21.2497C29.2328 19.7721 30.4306 18.5742 31.9083 18.5742H45.2855C46.7631 18.5742 47.9609 19.7721 47.9609 21.2497H58.6626V23.9251H55.9872V69.4075H58.6626C59.4015 69.4075 60.0004 70.0064 60.0004 70.7453C60.0004 71.4841 59.4015 72.083 58.6626 72.083H18.5311C17.7923 72.083 17.1934 71.4841 17.1934 70.7453C17.1934 70.0064 17.7923 69.4075 18.5311 69.4075H21.2065V23.9251H19.8688V21.2497H29.2328ZM29.2328 27.9383H23.882V69.4075H29.2328V64.0567H27.8951V61.3812H49.2986V64.0567H47.9609V69.4075H53.3118V27.9383H47.9609V34.6268C47.9609 36.1045 46.7631 37.3023 45.2855 37.3023H31.9083C30.4306 37.3023 29.2328 36.1045 29.2328 34.6268V27.9383ZM29.2328 25.2628H23.882V23.9251H29.2328V25.2628ZM31.9083 21.2497H45.2855V34.6268H31.9083V21.2497ZM37.2591 69.4075H31.9083V64.0567H37.2591V69.4075ZM45.2855 69.4075V64.0567H39.9346V69.4075H45.2855ZM53.3118 25.2628V23.9251H47.9609V25.2628H53.3118Z" fill="#2554C3"/>
<path d="M32.6406 40.6992H26.3906V43.1992H32.6406V40.6992Z" fill="#2554C3"/>
<path d="M26.3906 46.9492H32.6406V49.4492H26.3906V46.9492Z" fill="#2554C3"/>
<path d="M32.6406 53.1992H26.3906V55.6992H32.6406V53.1992Z" fill="#2554C3"/>
<path d="M35.1406 40.6992H41.3906V43.1992H35.1406V40.6992Z" fill="#2554C3"/>
<path d="M41.3906 46.9492H35.1406V49.4492H41.3906V46.9492Z" fill="#2554C3"/>
<path d="M35.1406 53.1992H41.3906V55.6992H35.1406V53.1992Z" fill="#2554C3"/>
<path d="M50.1406 40.6992H43.8906V43.1992H50.1406V40.6992Z" fill="#2554C3"/>
<path d="M43.8906 46.9492H50.1406V49.4492H43.8906V46.9492Z" fill="#2554C3"/>
<path d="M50.1406 53.1992H43.8906V55.6992H50.1406V53.1992Z" fill="#2554C3"/>
<path d="M39.6641 32.8125V29.4141H43.0625V27.1484H39.6641V23.75H37.3984V27.1484H34V29.4141H37.3984V32.8125H39.6641Z" fill="#2554C3"/>
</svg>
