<svg width="80" height="80" viewBox="0 0 80 80" fill="none" xmlns="http://www.w3.org/2000/svg">
<path fill-rule="evenodd" clip-rule="evenodd" d="M40.8843 3.85448C52.031 2.88522 62.913 8.75241 69.5739 17.6077C75.9743 26.1166 75.7709 37.1264 73.7321 47.5235C71.5754 58.5221 68.4475 70.6903 58.2085 75.5684C47.9564 80.4528 36.422 75.1147 26.2003 70.169C16.1189 65.2911 4.59687 59.6253 2.71689 48.7193C0.896782 38.1605 10.9303 30.3091 17.9142 22.0998C24.5605 14.2872 30.5752 4.7509 40.8843 3.85448Z" fill="#D1E3F4"/>
<g clip-path="url(#clip0_1217_5651)">
<path d="M37.2142 40.3555C41.6732 40.3093 44.1614 40.7599 48.895 42.6927L49.8138 40.4425C44.7982 38.3945 41.9899 37.8754 37.189 37.9251L37.2142 40.3555Z" fill="#2554C3"/>
<path d="M48.895 47.556C44.1614 45.6232 41.6732 45.1726 37.2142 45.2188L37.189 42.7883C41.9899 42.7386 44.7982 43.2578 49.8138 45.3058L48.895 47.556Z" fill="#2554C3"/>
<path d="M37.2142 50.0781C41.6732 50.032 44.1614 50.4826 48.895 52.4154L49.8138 50.1652C44.7982 48.1172 41.9899 47.598 37.189 47.6477L37.2142 50.0781Z" fill="#2554C3"/>
<path d="M68.786 50.0781C64.3271 50.032 61.8389 50.4826 57.1053 52.4154L56.1865 50.1652C61.2021 48.1172 64.0104 47.598 68.8112 47.6477L68.786 50.0781Z" fill="#2554C3"/>
<path d="M57.1053 47.556C61.8389 45.6232 64.3271 45.1726 68.786 45.2188L68.8112 42.7883C64.0104 42.7386 61.2021 43.2578 56.1865 45.3058L57.1053 47.556Z" fill="#2554C3"/>
<path d="M68.786 40.3555C64.3271 40.3093 61.8389 40.7599 57.1053 42.6927L56.1865 40.4425C61.2021 38.3945 64.0104 37.8754 68.8112 37.9251L68.786 40.3555Z" fill="#2554C3"/>
<path d="M40.2396 34.2786V30.6328H37.8091V34.2786H40.2396Z" fill="#2554C3"/>
<path d="M44.4931 31.8477V35.4935H42.0625V31.8477H44.4931Z" fill="#2554C3"/>
<path d="M48.7465 36.7083V33.0625H46.3159V36.7083H48.7465Z" fill="#2554C3"/>
<path d="M65.7603 34.2786V30.6328H68.1908V34.2786H65.7603Z" fill="#2554C3"/>
<path d="M61.5068 31.8477V35.4935H63.9374V31.8477H61.5068Z" fill="#2554C3"/>
<path d="M57.2534 36.7083V33.0625H59.684V36.7083H57.2534Z" fill="#2554C3"/>
<path fill-rule="evenodd" clip-rule="evenodd" d="M52.9999 28.492C53.1048 28.4697 53.2093 28.4475 53.3133 28.4257C59.3846 25.5006 64.6167 23.3985 71.8684 25.2553C72.9517 25.5326 73.6596 26.514 73.6596 27.5829V27.9247C74.5349 28.1003 75.441 28.3015 76.386 28.5292C76.9273 28.6596 77.3054 29.1461 77.3054 29.7028V60.7392C77.3054 61.5082 76.5973 62.0827 75.8419 61.9385C68.292 60.4982 63.2023 60.3973 56.2498 61.4516C55.6469 62.6338 54.418 63.4433 52.9999 63.4433C51.5818 63.4433 50.3529 62.6338 49.75 61.4516C42.7975 60.3973 37.7078 60.4982 30.1578 61.9385C29.4025 62.0827 28.6943 61.5082 28.6943 60.7392V29.7028C28.6943 29.1461 29.0725 28.6596 29.6138 28.5292C30.5589 28.3015 31.465 28.1003 32.3402 27.9247V27.5829C32.3402 26.514 33.0481 25.5326 34.1314 25.2553C41.3831 23.3985 46.6153 25.5006 52.6865 28.4257C52.7905 28.4475 52.8949 28.4697 52.9999 28.492ZM54.2152 30.688C60.2663 27.7659 64.8293 25.9731 71.2291 27.6005V55.0034C71.2291 55.0034 71.225 55.0095 71.2199 55.0135C71.2026 55.0275 71.1801 55.0337 71.1557 55.0292C65.2021 53.9368 60.6063 55.0733 55.6062 57.2482C55.2204 56.8538 54.746 56.5467 54.2152 56.3591V30.688ZM51.7846 30.6892V56.3591C51.2538 56.5467 50.7793 56.8538 50.3936 57.2482C45.3935 55.0733 40.7977 53.9368 34.8442 55.0292C34.8197 55.0337 34.7973 55.0275 34.7798 55.0135L34.7779 55.0119C34.7738 55.008 34.7707 55.0034 34.7707 55.0034V27.6005C41.1705 25.9731 45.7335 27.7671 51.7846 30.6892ZM74.8749 30.6712C74.4622 30.5771 74.0574 30.4886 73.6596 30.4055V55.0034C73.6596 56.5957 72.1886 57.6898 70.7169 57.4198C66.1283 56.5778 62.4528 57.1861 58.4761 58.6992C64.0336 58.0508 68.7188 58.2107 74.8749 59.2903V30.6712ZM47.5237 58.6992C43.5471 57.1861 39.8715 56.5778 35.2828 57.4198C33.8111 57.6898 32.3402 56.5957 32.3402 55.0034V30.4055C31.9424 30.4886 31.5376 30.5771 31.1249 30.6712V59.2903C37.281 58.2107 41.9663 58.0508 47.5237 58.6992Z" fill="#2554C3"/>
</g>
<defs>
<clipPath id="clip0_1217_5651">
<rect width="50" height="40" fill="white" transform="translate(28 24)"/>
</clipPath>
</defs>
</svg>
