<svg width="80" height="80" viewBox="0 0 80 80" fill="none" xmlns="http://www.w3.org/2000/svg">
<g clip-path="url(#clip0_3701_3545)">
<path fill-rule="evenodd" clip-rule="evenodd" d="M51.0633 9.41841C61.1846 12.4445 68.9564 20.0721 73.6928 28.5313C78.1816 36.5484 78.1519 45.2903 75.681 53.386C73.1866 61.5587 69.0363 69.9932 60.0952 73.0821C51.4762 76.0597 41.7522 71.3234 32.4872 68.3082C23.3804 65.3446 13.4429 63.1613 7.84829 56.0793C1.75805 48.3701 -0.349594 38.6435 2.45014 30.2861C5.21631 22.0289 13.4808 16.9016 22.2312 13.1454C31.0865 9.34416 41.0768 6.43264 51.0633 9.41841Z" fill="#D1E3F4"/>
<path d="M26.0922 5.49219C26.0922 6.27132 26.0922 8.12175 26.0922 9.29045C26.0922 10.7513 20.5409 19.5896 20.2487 20.8313C19.9565 22.0731 19.08 23.4609 21.1252 24.4104C22.1096 24.8675 23.3547 25.224 24.4027 25.4674C25.367 25.6913 26.0922 26.5307 26.0922 27.5206V28.1078C26.0922 29.2124 26.9872 30.1078 28.0918 30.1078C28.9965 30.1078 30.1138 30.1078 31.2783 30.1078C36.1722 30.1078 36.3183 37.4852 31.2783 37.4852C26.2383 37.4852 28.2104 40.2609 29.087 41.1374C29.9635 42.0139 30.2557 42.8174 30.2557 44.9357C30.2557 46.3965 33.2504 50.918 36.9757 49.3913C41.4313 47.5652 44.7183 45.52 48.5896 44.0591C52.4609 42.5983 55.8939 40.2609 55.6018 34.8557" stroke="#2554C3" stroke-width="2.5" stroke-linecap="round"/>
<path d="M44.1338 46.1055C45.1564 46.9576 47.4499 49.1003 48.4433 50.8533C49.6851 53.0446 49.6851 56.4046 49.6851 59.9837" stroke="#2554C3" stroke-width="2.5" stroke-linecap="round"/>
<path d="M18.5688 31.3471L11.4106 28.6445" stroke="#2554C3" stroke-width="2.5" stroke-linecap="round"/>
<path d="M18.1304 36.3164L8.99994 38.5077" stroke="#2554C3" stroke-width="2.5" stroke-linecap="round"/>
<path d="M20.8335 40.6992L15.5013 46.3966" stroke="#2554C3" stroke-width="2.5" stroke-linecap="round"/>
</g>
<defs>
<clipPath id="clip0_3701_3545">
<rect width="80" height="80" fill="white"/>
</clipPath>
</defs>
</svg>
