<?xml version="1.0" encoding="UTF-8"?>
<svg width="60px" height="33.6056148px" viewBox="0 0 60 33.6056148" version="1.1" xmlns="http://www.w3.org/2000/svg" xmlns:xlink="http://www.w3.org/1999/xlink">
    <title>icons/pill</title>
    <g id="Phase-1-Design" stroke="none" stroke-width="1" fill="none" fill-rule="evenodd">
        <g id="Starting-Treatment-[mobile]" transform="translate(-165, -1897.6972)" fill="#D1EA8D" fill-rule="nonzero">
            <g id="Group-15" transform="translate(15, 1576)">
                <g id="Group-14" transform="translate(14.6628, 160)">
                    <g id="icons/pill" transform="translate(135.3372, 161.6972)">
                        <path d="M30,-13.1971926 C39.2864928,-13.1971926 46.8028074,-5.68087798 46.8028074,3.60561485 L46.8028074,30 C46.8028074,39.2864928 39.2864928,46.8028074 30,46.8028074 C20.7135072,46.8028074 13.1971926,39.2864928 13.1971926,30 L13.1971926,3.60561485 C13.1971926,-5.68087798 20.7135072,-13.1971926 30,-13.1971926 Z M17.9981312,3.60561485 L17.9981312,30 C17.9981312,36.6350077 23.3649923,42.0018688 30,42.0018688 C36.6350077,42.0018688 42.0018688,36.6350077 42.0018688,30 L42.0018688,3.60561485 C42.0018688,-3.02939282 36.6350077,-8.396254 30,-8.396254 C23.3649923,-8.396254 17.9981312,-3.02939282 17.9981312,3.60561485 Z M21.5979288,16.8028074 L38.4020712,16.8028074 L38.4020712,30.0084869 C38.4020712,32.2490392 37.5279163,34.3622874 35.9408584,35.9493453 C34.3538005,37.5364032 32.2405523,38.4105581 30,38.4105581 C25.3661305,38.4105581 21.5979288,34.6423565 21.5979288,30.0084869 L21.5979288,16.8028074 Z M30.5806641,-5.06041543 C31.5748293,-5.07720246 32.3943681,-4.28488089 32.4111551,-3.29071567 C32.4279421,-2.29655046 31.6356205,-1.47701173 30.6414553,-1.4602247 C27.085656,-1.40018307 24.9042243,0.798912107 24.9174304,4.31174966 C24.9211684,5.30604957 24.1181593,6.11511913 23.1238594,6.1188701 C22.1295595,6.12259507 21.3204899,5.31958596 21.3166675,4.32528605 C21.2961009,-1.16788298 25.0649808,-4.96728006 30.5806641,-5.06041543 Z" id="Shape" transform="translate(30, 16.8028) rotate(90) translate(-30, -16.8028)"></path>
                    </g>
                </g>
            </g>
        </g>
    </g>
</svg>