<?xml version="1.0" encoding="UTF-8"?>
<svg width="217.605368px" height="38.8674877px" viewBox="0 0 217.605368 38.8674877" version="1.1" xmlns="http://www.w3.org/2000/svg" xmlns:xlink="http://www.w3.org/1999/xlink">
    <title>Group 12</title>
    <g id="Phase-1-Design" stroke="none" stroke-width="1" fill="none" fill-rule="evenodd">
        <g id="Starting-Treatment-[mobile]" transform="translate(-85.6973, -2243.4952)" fill="#D1EA8D" fill-rule="nonzero">
            <g id="Group-15" transform="translate(15, 1576)">
                <g id="Group-13" transform="translate(15, 484.5)">
                    <g id="Group-12" transform="translate(51, 172.429)">
                        <g id="icons/pill" transform="translate(4.6973, 10.5663)">
                            <path d="M30,-10.5662562 C40.7405458,-10.5662562 49.4337438,-3.04994158 49.4337438,6.23655125 L49.4337438,32.6309364 C49.4337438,41.9174292 40.7405458,49.4337438 30,49.4337438 C19.2594542,49.4337438 10.5662562,41.9174292 10.5662562,32.6309364 L10.5662562,6.23655125 C10.5662562,-3.04994158 19.2594542,-10.5662562 30,-10.5662562 Z M16.1189122,6.23655125 L16.1189122,32.6309364 C16.1189122,39.2659441 22.3261015,44.6328052 30,44.6328052 C37.6738985,44.6328052 43.8810878,39.2659441 43.8810878,32.6309364 L43.8810878,6.23655125 C43.8810878,-0.398456416 37.6738985,-5.76531759 30,-5.76531759 C22.3261015,-5.76531759 16.1189122,-0.398456416 16.1189122,6.23655125 Z M20.2823561,19.4337438 L39.7176439,19.4337438 L39.7176439,32.6394233 C39.7176439,34.8799757 38.7066163,36.9932239 36.8710613,38.5802817 C35.0355064,40.1673396 32.5913717,41.0414945 30,41.0414945 C24.6405722,41.0414945 20.2823561,37.2732929 20.2823561,32.6394233 L20.2823561,19.4337438 Z M30.6715829,-2.42947903 C31.8214117,-2.44626606 32.7692715,-1.65394449 32.788687,-0.659779271 C32.8081025,0.334385946 31.8917214,1.15392467 30.7418926,1.1707117 C26.6293363,1.23075334 24.106342,3.42984851 24.121616,6.94268607 C24.1259392,7.93698598 23.1971972,8.74605553 22.0472126,8.7498065 C20.897228,8.75353147 19.9614766,7.95052236 19.9570557,6.95622245 C19.9332689,1.46305342 24.2922693,-2.33634366 30.6715829,-2.42947903 Z" id="Shape" transform="translate(30, 19.4337) rotate(90) translate(-30, -19.4337)"></path>
                        </g>
                        <g id="icons/pill-copy" transform="translate(162.3027, 10.5663)">
                            <path d="M30,-10.5662562 C40.7405458,-10.5662562 49.4337438,-3.04994158 49.4337438,6.23655125 L49.4337438,32.6309364 C49.4337438,41.9174292 40.7405458,49.4337438 30,49.4337438 C19.2594542,49.4337438 10.5662562,41.9174292 10.5662562,32.6309364 L10.5662562,6.23655125 C10.5662562,-3.04994158 19.2594542,-10.5662562 30,-10.5662562 Z M16.1189122,6.23655125 L16.1189122,32.6309364 C16.1189122,39.2659441 22.3261015,44.6328052 30,44.6328052 C37.6738985,44.6328052 43.8810878,39.2659441 43.8810878,32.6309364 L43.8810878,6.23655125 C43.8810878,-0.398456416 37.6738985,-5.76531759 30,-5.76531759 C22.3261015,-5.76531759 16.1189122,-0.398456416 16.1189122,6.23655125 Z M20.2823561,19.4337438 L39.7176439,19.4337438 L39.7176439,32.6394233 C39.7176439,34.8799757 38.7066163,36.9932239 36.8710613,38.5802817 C35.0355064,40.1673396 32.5913717,41.0414945 30,41.0414945 C24.6405722,41.0414945 20.2823561,37.2732929 20.2823561,32.6394233 L20.2823561,19.4337438 Z M30.6715829,-2.42947903 C31.8214117,-2.44626606 32.7692715,-1.65394449 32.788687,-0.659779271 C32.8081025,0.334385946 31.8917214,1.15392467 30.7418926,1.1707117 C26.6293363,1.23075334 24.106342,3.42984851 24.121616,6.94268607 C24.1259392,7.93698598 23.1971972,8.74605553 22.0472126,8.7498065 C20.897228,8.75353147 19.9614766,7.95052236 19.9570557,6.95622245 C19.9332689,1.46305342 24.2922693,-2.33634366 30.6715829,-2.42947903 Z" id="Shape" transform="translate(30, 19.4337) rotate(90) translate(-30, -19.4337)"></path>
                        </g>
                        <g id="Group-6" transform="translate(86.8046, 19)">
                            <g id="icon/arrow-right" transform="translate(-0.5803, 9.5)">
                                <path d="M42.9447009,8.1690654e-16 L53.3907092,6 L42.9447009,12 L42.944,7 L-8.8817842e-16,7 L-8.8817842e-16,5 L42.944,5 L42.9447009,8.1690654e-16 Z" id="path"></path>
                            </g>
                            <g id="12-H" transform="translate(6.964, 0)">
                                <path d="M0.262307447,3.62924668 C1.01837009,3.3633678 1.82072228,2.99113737 3.11682966,2.31314623 L3.11682966,7.37813885 L0,7.37813885 L0,9 L8.3321189,9 L8.3321189,7.37813885 L5.47759669,7.37813885 L5.47759669,0 L3.73402366,0 C3.24026846,0.717872969 1.92873123,1.39586411 0.262307447,1.80797637 L0.262307447,3.62924668 Z" id="Path"></path>
                                <path d="M16.7568169,7.23190547 L11.8346948,7.23190547 C13.254241,6.48744461 13.8560051,6.15509601 14.4577693,5.7562777 C16.031614,4.71935007 16.6179483,3.9084195 16.6179483,2.79172821 C16.6179483,1.92762186 16.2167722,1.20974889 15.4298498,0.677991137 C14.7509364,0.199409158 13.9948738,0 12.8684947,0 C10.6774561,0 9.35048899,0.957163959 8.87216365,2.92466765 L11.0014829,3.33677991 C11.1557814,2.19350074 11.7266859,1.6351551 12.7450559,1.6351551 C13.5936977,1.6351551 14.1646021,2.11373708 14.1646021,2.8183161 C14.1646021,3.28360414 13.9022947,3.74889217 13.3931096,4.20088626 C12.7759156,4.73264402 11.5260978,5.6366322 10.7391755,6.11521418 L9.48935764,6.88626292 C9.39677854,6.9394387 9.19619049,7.07237814 8.87216365,7.2717873 L8.87216365,9 L16.5870886,9 L16.7568169,7.23190547 Z" id="Path"></path>
                                <polygon id="Path" points="30.2733653 0.132939439 27.9125983 0.132939439 27.9125983 3.58936484 24.6877597 3.58936484 24.6877597 0.132939439 22.3269927 0.132939439 22.3269927 9 24.6877597 9 24.6877597 5.34416544 27.9125983 5.34416544 27.9125983 9 30.2733653 9"></polygon>
                            </g>
                        </g>
                    </g>
                </g>
            </g>
        </g>
    </g>
</svg>