<svg width="25" height="24" viewBox="0 0 25 24" fill="none" xmlns="http://www.w3.org/2000/svg">
<g id="close">
<path id="Union" fill-rule="evenodd" clip-rule="evenodd" d="M6.15446 6.15397C6.51601 5.79242 7.1022 5.79243 7.46375 6.15397L11.9998 10.69L16.5359 6.15397C16.8974 5.79243 17.4836 5.79242 17.8452 6.15397C18.2067 6.51552 18.2067 7.10171 17.8452 7.46326L13.3091 11.9993L17.8452 16.5354C18.2067 16.897 18.2067 17.4831 17.8452 17.8447C17.4836 18.2062 16.8974 18.2062 16.5359 17.8447L11.9998 13.3086L7.46375 17.8447C7.1022 18.2062 6.51601 18.2062 6.15446 17.8447C5.79291 17.4831 5.79291 16.897 6.15446 16.5354L10.6905 11.9993L6.15446 7.46326C5.79291 7.10171 5.79291 6.51552 6.15446 6.15397Z" fill="#2554C3"/>
</g>
</svg>
