<svg width="100" height="100" viewBox="0 0 100 100" fill="none" xmlns="http://www.w3.org/2000/svg">
<circle cx="50" cy="50" r="50" fill="#0665A3"/>
<path d="M31.4944 40.6672C30.286 40.6672 29.2565 40.2436 28.4059 39.3965C27.5548 38.5493 27.1292 37.5266 27.1292 36.3284C27.1292 35.1297 27.5564 34.1087 28.4108 33.2652C29.2652 32.4217 30.2968 32 31.5056 32C32.714 32 33.7435 32.4236 34.5941 33.2708C35.4452 34.1179 35.8708 35.1406 35.8708 36.3388C35.8708 37.5375 35.4436 38.5586 34.5892 39.402C33.7348 40.2455 32.7032 40.6672 31.4944 40.6672ZM26.8058 72V58.6239H24V48.2111C24 46.9313 24.4597 45.8356 25.3791 44.924C26.298 44.0124 27.403 43.5565 28.6942 43.5565H34.3058C35.597 43.5565 36.702 44.0124 37.6209 44.924C38.5403 45.8356 39 46.9313 39 48.2111V58.6239H36.1942V72H26.8058Z" stroke="white" stroke-width="2.5" stroke-linecap="round" stroke-linejoin="round"/>
<path d="M50.4944 34.6672C49.286 34.6672 48.2565 34.2436 47.4059 33.3965C46.5548 32.5493 46.1292 31.5266 46.1292 30.3284C46.1292 29.1297 46.5564 28.1087 47.4108 27.2652C48.2652 26.4217 49.2968 26 50.5056 26C51.714 26 52.7435 26.4236 53.5941 27.2708C54.4452 28.1179 54.8708 29.1406 54.8708 30.3388C54.8708 31.5375 54.4436 32.5586 53.5892 33.402C52.7348 34.2455 51.7032 34.6672 50.4944 34.6672ZM45.8058 72V56.6239H43V42.2111C43 40.9313 43.4597 39.8356 44.3791 38.924C45.298 38.0124 46.403 37.5565 47.6942 37.5565H53.3058C54.597 37.5565 55.702 38.0124 56.6209 38.924C57.5403 39.8356 58 40.9313 58 42.2111V56.6239H55.1942V72H45.8058Z" stroke="white" stroke-width="2.5" stroke-linecap="round" stroke-linejoin="round"/>
<path d="M69.4944 38.6672C68.286 38.6672 67.2565 38.2436 66.4059 37.3965C65.5548 36.5493 65.1292 35.5266 65.1292 34.3284C65.1292 33.1297 65.5564 32.1087 66.4108 31.2652C67.2652 30.4217 68.2968 30 69.5056 30C70.714 30 71.7435 30.4236 72.5941 31.2708C73.4452 32.1179 73.8708 33.1406 73.8708 34.3388C73.8708 35.5375 73.4436 36.5586 72.5892 37.402C71.7348 38.2455 70.7032 38.6672 69.4944 38.6672ZM64.8058 72V58.6239H62V46.2111C62 44.9313 62.4597 43.8356 63.3791 42.924C64.298 42.0124 65.403 41.5565 66.6942 41.5565H72.3058C73.597 41.5565 74.702 42.0124 75.6209 42.924C76.5403 43.8356 77 44.9313 77 46.2111V58.6239H74.1942V72H64.8058Z" stroke="white" stroke-width="2.5" stroke-linecap="round" stroke-linejoin="round"/>
</svg>
