<svg width="100" height="100" viewBox="0 0 100 100" fill="none" xmlns="http://www.w3.org/2000/svg">
<circle cx="50" cy="50" r="50" fill="#0665A3"/>
<g clip-path="url(#clip0_1381_53988)">
<path fill-rule="evenodd" clip-rule="evenodd" d="M61.9805 40.4855C63.5799 40.9634 64.7305 41.125 64.7305 41.125V37H67.4805C71.2774 37 74.3555 33.9219 74.3555 30.125C74.3555 26.328 71.2774 23.25 67.4805 23.25H59.5551C55.5789 23.25 52.3555 26.4734 52.3555 30.4496C52.3555 36.662 58.3344 39.3958 61.9805 40.4855ZM71.6055 30.125C71.6055 32.4032 69.7587 34.25 67.4805 34.25H61.9805V37.5983C61.2772 37.3572 60.5219 37.055 59.7758 36.6807C57.0501 35.3137 55.1055 33.3711 55.1055 30.4496C55.1055 27.9922 57.0977 26 59.5551 26H67.4805C69.7587 26 71.6055 27.8468 71.6055 30.125Z" fill="white"/>
<path fill-rule="evenodd" clip-rule="evenodd" d="M36.9784 39.7408C33.2823 39.6064 30.3555 36.5711 30.3555 32.8727C30.3555 29.077 33.4324 26 37.2281 26H41.5847C45.255 26 48.2305 28.9755 48.2305 32.6458C48.2305 38.2034 43.2387 40.7451 39.9805 41.8122C38.402 42.3291 37.2305 42.5 37.2305 42.5V39.75L36.9784 39.7408ZM39.9805 37.0982L37.0784 36.9927C34.8612 36.912 33.1055 35.0912 33.1055 32.8727C33.1055 30.5958 34.9513 28.75 37.2281 28.75H41.5847C43.7363 28.75 45.4805 30.4942 45.4805 32.6458C45.4805 35.2782 43.8075 37.0051 41.4601 38.2276C40.9641 38.486 40.463 38.7065 39.9805 38.8934V37.0982Z" fill="white"/>
<path fill-rule="evenodd" clip-rule="evenodd" d="M55.1055 48C55.1055 51.0387 52.6442 53.5 49.6055 53.5C46.5667 53.5 44.1055 51.0387 44.1055 48C44.1055 44.9612 46.5667 42.5 49.6055 42.5C52.6442 42.5 55.1055 44.9612 55.1055 48ZM52.3555 48C52.3555 49.5199 51.1254 50.75 49.6055 50.75C48.0855 50.75 46.8555 49.5199 46.8555 48C46.8555 46.4801 48.0855 45.25 49.6055 45.25C51.1254 45.25 52.3555 46.4801 52.3555 48Z" fill="white"/>
<path fill-rule="evenodd" clip-rule="evenodd" d="M42.7305 50.75C42.7305 53.7887 40.2692 56.25 37.2305 56.25C34.1917 56.25 31.7305 53.7887 31.7305 50.75C31.7305 47.7112 34.1917 45.25 37.2305 45.25C40.2692 45.25 42.7305 47.7112 42.7305 50.75ZM39.9805 50.75C39.9805 52.2699 38.7504 53.5 37.2305 53.5C35.7105 53.5 34.4805 52.2699 34.4805 50.75C34.4805 49.2301 35.7105 48 37.2305 48C38.7504 48 39.9805 49.2301 39.9805 50.75Z" fill="white"/>
<path fill-rule="evenodd" clip-rule="evenodd" d="M24.8555 65.2501C24.8555 61.0937 33.1002 59 37.2305 59C38.0348 59 38.9953 59.0795 40.0205 59.238C41.8663 57.8867 45.2441 56.25 49.6056 56.25C53.9671 56.25 57.3448 57.8867 59.1906 59.238C60.2158 59.0795 61.1761 59 61.9805 59C66.1106 59 74.3555 61.0937 74.3555 65.2501V72.75H24.8555V65.2501ZM46.3774 64.5315C46.8555 64.9771 46.8555 65.209 46.8555 65.2501V70H27.6055V65.2501C27.6055 65.209 27.6054 64.9771 28.0835 64.5315C28.5833 64.0655 29.4064 63.5686 30.5257 63.1156C32.7698 62.2076 35.5128 61.75 37.2305 61.75C38.9481 61.75 41.6911 62.2076 43.9352 63.1156C45.0545 63.5686 45.8776 64.0655 46.3774 64.5315ZM55.3 60.1766C53.8193 59.5313 51.883 59 49.6056 59C47.3282 59 45.3918 59.5313 43.911 60.1766C46.9575 61.2015 49.6055 62.8946 49.6055 65.2501C49.6055 62.8946 52.2536 61.2015 55.3 60.1766ZM71.6055 65.2501C71.6055 65.209 71.6055 64.9771 71.1275 64.5315C70.6276 64.0655 69.8045 63.5686 68.6852 63.1156C66.4411 62.2076 63.6981 61.75 61.9805 61.75C60.2628 61.75 57.5198 62.2076 55.2757 63.1156C54.1564 63.5686 53.3334 64.0655 52.8336 64.5315C52.3555 64.9771 52.3555 65.209 52.3555 65.2501V70H71.6055V65.2501Z" fill="white"/>
<path fill-rule="evenodd" clip-rule="evenodd" d="M61.9805 56.25C65.0192 56.25 67.4805 53.7887 67.4805 50.75C67.4805 47.7112 65.0192 45.25 61.9805 45.25C58.9417 45.25 56.4805 47.7112 56.4805 50.75C56.4805 53.7887 58.9417 56.25 61.9805 56.25ZM61.9805 53.5C63.5004 53.5 64.7305 52.2699 64.7305 50.75C64.7305 49.2301 63.5004 48 61.9805 48C60.4605 48 59.2305 49.2301 59.2305 50.75C59.2305 52.2699 60.4605 53.5 61.9805 53.5Z" fill="white"/>
</g>
<defs>
<clipPath id="clip0_1381_53988">
<rect width="51" height="50" fill="white" transform="translate(24 23)"/>
</clipPath>
</defs>
</svg>
