<svg width="120" height="51" viewBox="0 0 120 51" fill="none" xmlns="http://www.w3.org/2000/svg">
<g id="Logo">
<path id="Union" fill-rule="evenodd" clip-rule="evenodd" d="M56.2567 23.0502C57.1643 23.3097 58.2988 23.4394 59.6603 23.4394C60.9231 23.4394 62.0577 23.2747 63.0639 22.9454C64.0801 22.616 64.9483 22.1569 65.6685 21.568C66.3887 20.9791 66.9411 20.2755 67.3259 19.457C67.7106 18.6286 67.903 17.7204 67.903 16.7323C67.903 15.9837 67.7945 15.305 67.5775 14.6962C67.3703 14.0773 67.0299 13.5134 66.5564 13.0044C66.0927 12.4854 65.4958 12.0013 64.7658 11.5522C64.0357 11.103 63.1527 10.6639 62.1168 10.2347C61.0908 9.8155 60.2522 9.42625 59.6011 9.06693C58.9598 8.69764 58.4518 8.33334 58.0769 7.97403C57.7118 7.60473 57.4603 7.23045 57.3222 6.85118C57.184 6.4719 57.115 6.06768 57.115 5.6385C57.115 5.17938 57.1939 4.77515 57.3517 4.42582C57.5096 4.06651 57.7217 3.76708 57.9881 3.52754C58.2643 3.288 58.585 3.10834 58.95 2.98857C59.315 2.8688 59.6998 2.80892 60.1043 2.80892C60.6863 2.80892 61.1796 2.94865 61.5841 3.22811C61.9985 3.50758 62.3339 3.8619 62.5904 4.29108C62.8469 4.71028 63.0294 5.1694 63.1379 5.66844C63.2563 6.15751 63.3155 6.61663 63.3155 7.0458C63.937 7.0458 64.4797 6.98093 64.9433 6.85118C65.4169 6.72143 65.8066 6.54177 66.1124 6.31221C66.4281 6.08265 66.66 5.81316 66.808 5.50376C66.9658 5.19435 67.0447 4.85999 67.0447 4.50068C67.0447 4.00163 66.9165 3.53752 66.66 3.10834C66.4035 2.66918 66.0088 2.28991 65.4761 1.97052C64.9532 1.65113 64.2873 1.40161 63.4783 1.22196C62.6693 1.03232 61.7074 0.9375 60.5926 0.9375C59.5271 0.9375 58.5406 1.08222 57.6329 1.37167C56.7253 1.66111 55.941 2.07532 55.28 2.61429C54.619 3.15326 54.101 3.80202 53.7261 4.56056C53.3512 5.31911 53.1638 6.16749 53.1638 7.10569C53.1638 7.85426 53.2575 8.54294 53.445 9.17173C53.6423 9.80053 53.9629 10.3844 54.4069 10.9234C54.8508 11.4623 55.4329 11.9664 56.1531 12.4355C56.8831 12.8946 57.776 13.3437 58.8316 13.7829C59.68 14.1422 60.42 14.4816 61.0514 14.801C61.6926 15.1104 62.2204 15.4397 62.6348 15.7891C63.059 16.1284 63.3747 16.5027 63.5819 16.9119C63.7891 17.3112 63.8927 17.7703 63.8927 18.2893C63.8927 18.7584 63.8088 19.1975 63.6411 19.6068C63.4734 20.006 63.2267 20.3553 62.9012 20.6548C62.5756 20.9542 62.181 21.1887 61.7173 21.3584C61.2536 21.5281 60.7258 21.6129 60.1339 21.6129C59.532 21.6129 58.9746 21.5031 58.4616 21.2835C57.9585 21.054 57.5244 20.7196 57.1594 20.2805C56.7943 19.8313 56.5082 19.2774 56.3011 18.6186C56.0939 17.9499 55.9903 17.1764 55.9903 16.2981C55.5463 16.2981 55.1172 16.348 54.7028 16.4478C54.2983 16.5476 53.9333 16.7123 53.6077 16.9419C53.292 17.1714 53.0355 17.4659 52.8382 17.8252C52.6508 18.1845 52.5571 18.6286 52.5571 19.1576C52.5571 19.6567 52.6705 20.1607 52.8974 20.6697C53.1342 21.1787 53.5239 21.6379 54.0665 22.0471C54.619 22.4563 55.349 22.7907 56.2567 23.0502ZM6.55464 15.9388L5.68153 18.5737C5.60261 18.8233 5.51875 19.1177 5.42996 19.457C5.35103 19.7864 5.31157 20.0759 5.31157 20.3254C5.31157 20.525 5.35103 20.6997 5.42996 20.8494C5.50888 20.9991 5.61247 21.1238 5.74073 21.2237C5.86898 21.3135 6.01203 21.3834 6.16988 21.4333C6.3376 21.4832 6.51025 21.5081 6.68783 21.5081H7.96049V23.14H0.0729267V21.5081H0.442888C0.709259 21.5081 0.950967 21.4782 1.16801 21.4183C1.39492 21.3584 1.6021 21.2486 1.78954 21.0889C1.98686 20.9192 2.16937 20.6897 2.33709 20.4002C2.51467 20.1108 2.69225 19.7365 2.86983 19.2774L9.44034 1.2519H13.5987L19.9324 19.3073C20.0804 19.7365 20.2333 20.0958 20.3912 20.3853C20.5589 20.6647 20.7365 20.8893 20.9239 21.059C21.1212 21.2187 21.3284 21.3335 21.5455 21.4033C21.7625 21.4732 21.9894 21.5081 22.2262 21.5081H22.7737V23.14H12.77V21.5081H13.9539C14.1018 21.5081 14.2548 21.4882 14.4126 21.4482C14.5705 21.3983 14.7086 21.3285 14.827 21.2386C14.9552 21.1388 15.0588 21.0141 15.1377 20.8643C15.2167 20.7146 15.2561 20.535 15.2561 20.3254C15.2561 20.0759 15.2265 19.8363 15.1673 19.6068C15.1081 19.3772 15.0489 19.1776 14.9897 19.0079L13.9243 15.9388H6.55464ZM11.7193 9.03699C11.6108 8.68766 11.4973 8.32336 11.3789 7.94409C11.2704 7.55483 11.157 7.16059 11.0386 6.76135C10.93 6.36211 10.8215 5.96787 10.713 5.57861C10.6143 5.17938 10.5256 4.8001 10.4466 4.44079C10.3578 4.7502 10.2542 5.08955 10.1359 5.45884C10.0175 5.82814 9.88922 6.20741 9.7511 6.59666C9.62285 6.98592 9.48966 7.37517 9.35155 7.76443L8.98158 8.88728L7.19097 14.0674H13.3175L11.7193 9.03699ZM32.4045 15.9388L31.5314 18.5737C31.4525 18.8233 31.3687 19.1177 31.2799 19.457C31.2009 19.7864 31.1615 20.0759 31.1615 20.3254C31.1615 20.525 31.2009 20.6997 31.2799 20.8494C31.3588 20.9991 31.4624 21.1238 31.5906 21.2237C31.7189 21.3135 31.8619 21.3834 32.0198 21.4333C32.1875 21.4832 32.3601 21.5081 32.5377 21.5081H33.8104V23.14H25.9228V21.5081H26.2928C26.5592 21.5081 26.8009 21.4782 27.0179 21.4183C27.2448 21.3584 27.452 21.2486 27.6394 21.0889C27.8368 20.9192 28.0193 20.6897 28.187 20.4002C28.3646 20.1108 28.5422 19.7365 28.7197 19.2774L35.2902 1.2519H39.4486L45.7823 19.3073C45.9303 19.7365 46.0832 20.0958 46.2411 20.3853C46.4088 20.6647 46.5864 20.8893 46.7738 21.059C46.9711 21.2187 47.1783 21.3335 47.3954 21.4033C47.6124 21.4732 47.8393 21.5081 48.0761 21.5081H48.6236V23.14H38.6199V21.5081H39.8038C39.9517 21.5081 40.1047 21.4882 40.2625 21.4482C40.4204 21.3983 40.5585 21.3285 40.6769 21.2386C40.8051 21.1388 40.9087 21.0141 40.9876 20.8643C41.0666 20.7146 41.106 20.535 41.106 20.3254C41.106 20.0759 41.0764 19.8363 41.0172 19.6068C40.958 19.3772 40.8988 19.1776 40.8397 19.0079L39.7742 15.9388H32.4045ZM37.5692 9.03699C37.4607 8.68766 37.3472 8.32336 37.2288 7.94409C37.1203 7.55483 37.0069 7.16059 36.8885 6.76135C36.78 6.36211 36.6714 5.96787 36.5629 5.57861C36.4643 5.17938 36.3755 4.8001 36.2965 4.44079C36.2077 4.7502 36.1042 5.08955 35.9858 5.45884C35.8674 5.82814 35.7391 6.20741 35.601 6.59666C35.4728 6.98592 35.3396 7.37517 35.2015 7.76443L34.8315 8.88728L33.0409 14.0674H39.1674L37.5692 9.03699ZM85.3178 20.9991C86.0577 20.9991 86.7138 20.9143 87.286 20.7446C87.8681 20.5649 88.386 20.3354 88.8399 20.0559C89.2937 19.7764 89.6883 19.462 90.0237 19.1127C90.369 18.7634 90.6699 18.419 90.9264 18.0797C91.0843 18.1994 91.2076 18.3841 91.2964 18.6336C91.3951 18.8831 91.4444 19.1377 91.4444 19.3972C91.4444 19.8263 91.3309 20.2805 91.104 20.7596C90.8771 21.2287 90.4973 21.6628 89.9645 22.0621C89.4318 22.4613 88.7264 22.7907 87.8484 23.0502C86.9703 23.3097 85.8851 23.4394 84.5927 23.4394C82.8366 23.4394 81.3025 23.1699 79.9904 22.631C78.6783 22.092 77.5881 21.3285 76.7199 20.3404C75.8518 19.3522 75.2006 18.1645 74.7665 16.7772C74.3325 15.3898 74.1154 13.8528 74.1154 12.166C74.1154 10.5092 74.3374 8.99208 74.7813 7.61472C75.2253 6.23735 75.8814 5.05462 76.7495 4.06651C77.6276 3.0784 78.7177 2.30987 80.02 1.76092C81.3321 1.21197 82.8465 0.9375 84.5631 0.9375C85.7272 0.9375 86.7385 1.03232 87.5968 1.22196C88.465 1.40161 89.1852 1.65113 89.7574 1.97052C90.3296 2.28991 90.7587 2.66918 91.0448 3.10834C91.3309 3.53752 91.474 4.00163 91.474 4.50068C91.474 4.87995 91.3901 5.23427 91.2224 5.56364C91.0646 5.88303 90.8229 6.1625 90.4973 6.40204C90.1816 6.64158 89.787 6.83122 89.3134 6.97095C88.8399 7.1007 88.2972 7.16558 87.6856 7.16558C87.6856 6.65655 87.6313 6.15251 87.5228 5.65347C87.4143 5.14444 87.2268 4.68532 86.9605 4.27611C86.7039 3.86689 86.3636 3.53752 85.9394 3.288C85.5151 3.0285 84.9873 2.89875 84.3559 2.89875C83.399 2.89875 82.59 3.10335 81.929 3.51257C81.268 3.92179 80.7352 4.52064 80.3308 5.30913C79.9361 6.09762 79.65 7.07076 79.4725 8.22854C79.2949 9.37634 79.2061 10.6888 79.2061 12.166C79.2061 13.6432 79.3146 14.9357 79.5316 16.0436C79.7487 17.1515 80.0989 18.0747 80.5823 18.8133C81.0657 19.5419 81.6922 20.0908 82.4617 20.4601C83.2411 20.8194 84.1931 20.9991 85.3178 20.9991ZM5.42347 40.0037H6.10538L3.50048 33.4131H2.6049L0 40.0037H0.681912C0.75768 40.0037 0.821325 39.9822 0.872847 39.9393C0.92437 39.8964 0.960738 39.8473 0.981953 39.7921L1.59113 38.2008H4.51426L5.12343 39.7921C5.14768 39.8535 5.18405 39.9041 5.23254 39.9439C5.28103 39.9838 5.34467 40.0037 5.42347 40.0037ZM4.26877 37.5569H1.83662L2.85948 34.8802C2.88979 34.8005 2.9201 34.7085 2.95041 34.6042C2.98374 34.4969 3.01708 34.3804 3.05042 34.2547C3.11406 34.5031 3.17922 34.71 3.2459 34.8756L4.26877 37.5569ZM9.54407 39.3552C9.71985 39.3552 9.88048 39.3476 10.026 39.3322C10.1745 39.3138 10.3139 39.2878 10.4442 39.254C10.5745 39.2203 10.6973 39.1805 10.8124 39.1345C10.9276 39.0854 11.0428 39.0302 11.1579 38.9689V37.5155H10.1487C10.0911 37.5155 10.0441 37.4987 10.0078 37.4649C9.97443 37.4312 9.95776 37.3898 9.95776 37.3408V36.8349H11.958V39.3644C11.7944 39.484 11.6231 39.5882 11.4443 39.6772C11.2685 39.7661 11.0791 39.8412 10.8761 39.9025C10.676 39.9608 10.4609 40.0037 10.2305 40.0313C10.0002 40.062 9.75016 40.0773 9.48042 40.0773C9.00763 40.0773 8.57424 39.996 8.18024 39.8335C7.78625 39.668 7.44681 39.438 7.16192 39.1437C6.87703 38.8462 6.65428 38.4906 6.49365 38.0766C6.33605 37.6627 6.25725 37.2074 6.25725 36.7107C6.25725 36.2078 6.33454 35.7495 6.4891 35.3355C6.6467 34.9216 6.86946 34.5675 7.15738 34.2731C7.44832 33.9757 7.79837 33.7457 8.20752 33.5832C8.6197 33.4207 9.08037 33.3395 9.58953 33.3395C9.84714 33.3395 10.0866 33.3594 10.3078 33.3993C10.5291 33.4361 10.7336 33.4912 10.9215 33.5648C11.1125 33.6354 11.2882 33.7227 11.4489 33.827C11.6095 33.9282 11.7595 34.0431 11.8989 34.1719L11.6489 34.5767C11.5974 34.6594 11.5307 34.7008 11.4489 34.7008C11.4004 34.7008 11.3473 34.684 11.2898 34.6502C11.214 34.6073 11.1291 34.5552 11.0352 34.4939C10.9412 34.4325 10.8261 34.3743 10.6897 34.3191C10.5563 34.2608 10.3972 34.2118 10.2123 34.1719C10.0305 34.1321 9.8138 34.1121 9.56225 34.1121C9.19553 34.1121 8.86367 34.1735 8.56666 34.2961C8.26965 34.4157 8.01658 34.5889 7.80746 34.8158C7.59834 35.0396 7.43772 35.3125 7.32558 35.6345C7.21344 35.9533 7.15738 36.3121 7.15738 36.7107C7.15738 37.1277 7.21496 37.5002 7.33013 37.8283C7.44832 38.1533 7.6135 38.4292 7.82565 38.6561C8.0378 38.883 8.28935 39.0563 8.5803 39.1758C8.87125 39.2954 9.1925 39.3552 9.54407 39.3552ZM13.3889 40.0037H14.2709V33.4131H13.3889V40.0037ZM20.3593 33.4131V34.1627H18.2545V40.0037H17.3726V34.1627H15.2586V33.4131H20.3593ZM25.2685 40.0037H25.9504L23.3455 33.4131H22.45L19.8451 40.0037H20.527C20.6027 40.0037 20.6664 39.9822 20.7179 39.9393C20.7694 39.8964 20.8058 39.8473 20.827 39.7921L21.4362 38.2008H24.3593L24.9685 39.7921C24.9927 39.8535 25.0291 39.9041 25.0776 39.9439C25.1261 39.9838 25.1897 40.0037 25.2685 40.0037ZM24.1138 37.5569H21.6817L22.7045 34.8802C22.7348 34.8005 22.7652 34.7085 22.7955 34.6042C22.8288 34.4969 22.8621 34.3804 22.8955 34.2547C22.9591 34.5031 23.0243 34.71 23.091 34.8756L24.1138 37.5569ZM30.5127 33.4131V34.1627H28.4079V40.0037H27.5259V34.1627H25.412V33.4131H30.5127ZM31.5114 40.0037H32.3934V33.4131H31.5114V40.0037ZM40.0957 36.7107C40.0957 37.2043 40.0184 37.6581 39.8639 38.072C39.7093 38.4829 39.4911 38.837 39.2092 39.1345C38.9274 39.4319 38.5879 39.6634 38.1909 39.8289C37.7969 39.9914 37.3605 40.0727 36.8816 40.0727C36.4028 40.0727 35.9664 39.9914 35.5724 39.8289C35.1784 39.6634 34.8404 39.4319 34.5586 39.1345C34.2767 38.837 34.0585 38.4829 33.9039 38.072C33.7494 37.6581 33.6721 37.2043 33.6721 36.7107C33.6721 36.217 33.7494 35.7648 33.9039 35.3539C34.0585 34.94 34.2767 34.5843 34.5586 34.2869C34.8404 33.9864 35.1784 33.7534 35.5724 33.5878C35.9664 33.4223 36.4028 33.3395 36.8816 33.3395C37.3605 33.3395 37.7969 33.4223 38.1909 33.5878C38.5879 33.7534 38.9274 33.9864 39.2092 34.2869C39.4911 34.5843 39.7093 34.94 39.8639 35.3539C40.0184 35.7648 40.0957 36.217 40.0957 36.7107ZM39.191 36.7107C39.191 36.306 39.1365 35.9426 39.0274 35.6207C38.9183 35.2987 38.7637 35.0274 38.5637 34.8066C38.3637 34.5828 38.1212 34.4111 37.8363 34.2915C37.5514 34.1719 37.2332 34.1121 36.8816 34.1121C36.5331 34.1121 36.2164 34.1719 35.9315 34.2915C35.6466 34.4111 35.4026 34.5828 35.1996 34.8066C34.9996 35.0274 34.845 35.2987 34.7359 35.6207C34.6268 35.9426 34.5722 36.306 34.5722 36.7107C34.5722 37.1154 34.6268 37.4787 34.7359 37.8007C34.845 38.1196 34.9996 38.3909 35.1996 38.6147C35.4026 38.8355 35.6466 39.0057 35.9315 39.1253C36.2164 39.2418 36.5331 39.3 36.8816 39.3C37.2332 39.3 37.5514 39.2418 37.8363 39.1253C38.1212 39.0057 38.3637 38.8355 38.5637 38.6147C38.7637 38.3909 38.9183 38.1196 39.0274 37.8007C39.1365 37.4787 39.191 37.1154 39.191 36.7107ZM41.8355 33.4452C41.7991 33.4238 41.7416 33.4131 41.6628 33.4131H41.2081V40.0037H41.981V35.3079C41.981 35.2466 41.9795 35.1791 41.9764 35.1056C41.9734 35.032 41.9689 34.9569 41.9628 34.8802L45.7315 39.8427C45.777 39.901 45.8224 39.9424 45.8679 39.9669C45.9164 39.9914 45.9755 40.0037 46.0452 40.0037H46.4907V33.4131H45.7179V38.0812C45.7179 38.1518 45.7194 38.2253 45.7224 38.302C45.7254 38.3756 45.7315 38.4522 45.7406 38.532L41.9673 33.5648C41.9188 33.5035 41.8749 33.4636 41.8355 33.4452ZM50.7024 40.0037H49.8204V33.4131H50.7024V40.0037ZM52.9812 33.4452C52.9448 33.4238 52.8873 33.4131 52.8085 33.4131H52.3539V40.0037H53.1267V35.3079C53.1267 35.2466 53.1252 35.1791 53.1221 35.1056C53.1191 35.032 53.1146 34.9569 53.1085 34.8802L56.8772 39.8427C56.9227 39.901 56.9681 39.9424 57.0136 39.9669C57.0621 39.9914 57.1212 40.0037 57.1909 40.0037H57.6364V33.4131H56.8636V38.0812C56.8636 38.1518 56.8651 38.2253 56.8681 38.302C56.8711 38.3756 56.8772 38.4522 56.8863 38.532L53.113 33.5648C53.0646 33.5035 53.0206 33.4636 52.9812 33.4452ZM66.1623 40.0037H65.4804C65.4016 40.0037 65.3379 39.9838 65.2894 39.9439C65.2409 39.9041 65.2046 39.8535 65.1803 39.7921L64.5712 38.2008H61.648L61.0389 39.7921C61.0176 39.8473 60.9813 39.8964 60.9298 39.9393C60.8782 39.9822 60.8146 40.0037 60.7388 40.0037H60.0569L62.6618 33.4131H63.5574L66.1623 40.0037ZM61.8935 37.5569H64.3257L63.3028 34.8756C63.2361 34.71 63.171 34.5031 63.1073 34.2547C63.074 34.3804 63.0406 34.4969 63.0073 34.6042C62.977 34.7085 62.9467 34.8005 62.9164 34.8802L61.8935 37.5569ZM70.5919 39.254H67.7733V33.4131H66.8914V40.0037H70.5919V39.254ZM76.0078 33.4131V33.7442C76.0078 33.8484 75.976 33.9466 75.9123 34.0385L72.2255 39.277H75.9442V40.0037H71.0708V39.6542C71.0708 39.5622 71.0996 39.4748 71.1572 39.392L74.8486 34.1397H71.2435V33.4131H76.0078ZM81.4497 40.0037H82.3362V33.4131H81.4497V36.3519H77.9401V33.4131H77.0536V40.0037H77.9401V37.005H81.4497V40.0037ZM87.8493 33.4131V34.1397H84.7216V36.3289H87.2537V37.028H84.7216V39.277H87.8493V40.0037H83.8351V33.4131H87.8493ZM89.1909 40.0037H90.0728V33.4131H89.1909V40.0037ZM94.9293 37.6213C94.9717 37.6949 95.0081 37.7731 95.0384 37.8559C95.0717 37.9356 95.1036 38.0169 95.1339 38.0996C95.1642 38.0138 95.196 37.9325 95.2293 37.8559C95.2627 37.7762 95.3006 37.6964 95.343 37.6167L97.5478 33.5648C97.5872 33.4943 97.6282 33.4514 97.6706 33.4361C97.713 33.4207 97.7736 33.4131 97.8524 33.4131H98.5025V40.0037H97.7297V35.1608C97.7297 35.0964 97.7312 35.0274 97.7342 34.9538C97.7373 34.8802 97.7418 34.8051 97.7479 34.7284L95.5157 38.8493C95.44 38.9873 95.3339 39.0563 95.1975 39.0563H95.0702C94.9338 39.0563 94.8278 38.9873 94.752 38.8493L92.4699 34.7146C92.479 34.7943 92.485 34.8725 92.4881 34.9492C92.4941 35.0258 92.4971 35.0964 92.4971 35.1608V40.0037H91.7243V33.4131H92.3744C92.4532 33.4131 92.5138 33.4207 92.5562 33.4361C92.5987 33.4514 92.6396 33.4943 92.679 33.5648L94.9293 37.6213ZM104.012 34.1397V33.4131H99.9975V40.0037H104.012V39.277H100.884V37.028H103.416V36.3289H100.884V34.1397H104.012ZM106.158 37.2534V40.0037H105.281V33.4131H107.122C107.534 33.4131 107.89 33.456 108.19 33.5418C108.49 33.6246 108.737 33.7457 108.931 33.9052C109.128 34.0646 109.273 34.2578 109.367 34.4847C109.461 34.7085 109.508 34.9599 109.508 35.2389C109.508 35.472 109.472 35.6897 109.399 35.892C109.327 36.0944 109.22 36.2768 109.081 36.4393C108.945 36.5988 108.776 36.7352 108.576 36.8487C108.379 36.9621 108.155 37.048 107.904 37.1062C108.013 37.1706 108.11 37.2641 108.195 37.3868L110.095 40.0037H109.313C109.152 40.0037 109.034 39.9408 108.958 39.8151L107.267 37.4604C107.216 37.3868 107.16 37.3346 107.099 37.304C107.038 37.2703 106.947 37.2534 106.826 37.2534H106.158ZM106.158 36.6049H107.081C107.338 36.6049 107.564 36.5742 107.758 36.5129C107.955 36.4485 108.119 36.3596 108.249 36.2462C108.382 36.1297 108.482 35.9917 108.549 35.8322C108.616 35.6728 108.649 35.4965 108.649 35.3033C108.649 34.9109 108.52 34.615 108.263 34.4157C108.008 34.2164 107.628 34.1167 107.122 34.1167H106.158V36.6049ZM111.582 33.5096C111.542 33.3625 111.479 33.2153 111.391 33.0681L110.895 33.2705C110.814 33.3042 110.773 33.3579 110.773 33.4315C110.773 33.4652 110.783 33.4989 110.804 33.5326C110.874 33.6491 110.923 33.7595 110.95 33.8638C110.98 33.968 110.995 34.0692 110.995 34.1673C110.995 34.2593 110.985 34.3467 110.964 34.4295C110.942 34.5123 110.914 34.592 110.877 34.6686C110.841 34.7422 110.8 34.8143 110.754 34.8848C110.709 34.9523 110.662 35.0151 110.614 35.0734C110.583 35.104 110.568 35.1408 110.568 35.1838C110.568 35.2021 110.571 35.2205 110.577 35.2389C110.586 35.2573 110.603 35.2742 110.627 35.2895L110.877 35.4459C111.117 35.2343 111.303 35.0028 111.436 34.7514C111.573 34.4969 111.641 34.2302 111.641 33.9512C111.641 33.804 111.621 33.6568 111.582 33.5096ZM116.123 34.4433C116.095 34.4893 116.067 34.5245 116.036 34.5491C116.006 34.5705 115.967 34.5813 115.918 34.5813C115.867 34.5813 115.806 34.5552 115.736 34.5031C115.67 34.4509 115.583 34.3942 115.477 34.3329C115.374 34.2685 115.248 34.2103 115.1 34.1581C114.954 34.106 114.777 34.0799 114.568 34.0799C114.371 34.0799 114.197 34.1075 114.045 34.1627C113.894 34.2149 113.766 34.2869 113.663 34.3789C113.563 34.4709 113.487 34.5797 113.436 34.7054C113.384 34.8281 113.359 34.9615 113.359 35.1056C113.359 35.2895 113.403 35.4428 113.49 35.5655C113.581 35.6851 113.7 35.7878 113.845 35.8736C113.994 35.9595 114.16 36.0346 114.345 36.099C114.533 36.1603 114.724 36.2247 114.918 36.2922C115.115 36.3596 115.306 36.4363 115.491 36.5221C115.679 36.6049 115.845 36.7107 115.991 36.8395C116.139 36.9682 116.257 37.1261 116.345 37.3132C116.436 37.5002 116.482 37.7302 116.482 38.0031C116.482 38.2913 116.433 38.5626 116.336 38.8171C116.239 39.0685 116.097 39.2878 115.909 39.4748C115.724 39.6618 115.495 39.809 115.223 39.9163C114.953 40.0236 114.645 40.0773 114.3 40.0773C113.878 40.0773 113.493 40.0006 113.145 39.8473C112.799 39.691 112.504 39.4809 112.258 39.2172L112.513 38.7941C112.537 38.7604 112.566 38.7328 112.599 38.7113C112.636 38.6868 112.675 38.6745 112.718 38.6745C112.781 38.6745 112.854 38.7098 112.936 38.7803C113.018 38.8478 113.119 38.9229 113.24 39.0057C113.365 39.0885 113.513 39.1651 113.686 39.2356C113.862 39.3031 114.075 39.3368 114.327 39.3368C114.536 39.3368 114.722 39.3077 114.886 39.2494C115.05 39.1912 115.188 39.1099 115.3 39.0057C115.415 38.8984 115.503 38.7711 115.563 38.6239C115.624 38.4768 115.654 38.3127 115.654 38.1318C115.654 37.9325 115.609 37.77 115.518 37.6443C115.43 37.5155 115.313 37.4082 115.168 37.3224C115.022 37.2365 114.856 37.1645 114.668 37.1062C114.483 37.0449 114.292 36.9836 114.095 36.9222C113.901 36.8579 113.71 36.7843 113.522 36.7015C113.337 36.6187 113.172 36.5114 113.027 36.3795C112.881 36.2477 112.763 36.0837 112.672 35.8874C112.584 35.6881 112.54 35.4428 112.54 35.1516C112.54 34.9185 112.584 34.6932 112.672 34.4755C112.763 34.2578 112.893 34.0646 113.063 33.896C113.233 33.7273 113.442 33.5924 113.69 33.4912C113.942 33.3901 114.23 33.3395 114.554 33.3395C114.918 33.3395 115.25 33.3977 115.55 33.5142C115.85 33.6307 116.112 33.7994 116.336 34.0201L116.123 34.4433ZM3.996 44.9739C4.02631 44.9494 4.0551 44.9141 4.08238 44.8681L4.29604 44.445C4.07177 44.2242 3.80961 44.0556 3.50957 43.9391C3.20953 43.8226 2.87767 43.7643 2.51398 43.7643C2.18969 43.7643 1.90178 43.8149 1.65023 43.9161C1.40171 44.0173 1.19259 44.1522 1.02287 44.3208C0.853148 44.4895 0.722827 44.6826 0.631905 44.9003C0.544014 45.118 0.500069 45.3434 0.500069 45.5764C0.500069 45.8677 0.544014 46.113 0.631905 46.3123C0.722827 46.5085 0.841025 46.6725 0.986499 46.8044C1.13197 46.9362 1.29715 47.0435 1.48202 47.1263C1.66993 47.2091 1.86086 47.2827 2.05483 47.3471C2.25182 47.4084 2.44276 47.4697 2.62763 47.5311C2.81554 47.5893 2.98223 47.6614 3.1277 47.7472C3.27318 47.8331 3.38986 47.9404 3.47775 48.0692C3.56867 48.1949 3.61413 48.3574 3.61413 48.5567C3.61413 48.7376 3.58383 48.9016 3.52321 49.0488C3.4626 49.196 3.37471 49.3232 3.25954 49.4305C3.1474 49.5348 3.0095 49.616 2.84585 49.6743C2.68219 49.7325 2.4958 49.7617 2.28668 49.7617C2.03513 49.7617 1.82146 49.7279 1.64568 49.6605C1.47293 49.59 1.32442 49.5133 1.20016 49.4305C1.07894 49.3477 0.977407 49.2726 0.895578 49.2052C0.813748 49.1346 0.741011 49.0994 0.677366 49.0994C0.634936 49.0994 0.595536 49.1116 0.559168 49.1362C0.52583 49.1576 0.497038 49.1852 0.472792 49.219L0.218212 49.6421C0.4637 49.9058 0.759195 50.1158 1.1047 50.2722C1.45323 50.4255 1.83813 50.5021 2.2594 50.5021C2.6049 50.5021 2.91252 50.4485 3.18226 50.3412C3.45502 50.2338 3.68384 50.0867 3.86871 49.8996C4.05662 49.7126 4.19906 49.4934 4.29604 49.242C4.39303 48.9875 4.44152 48.7161 4.44152 48.4279C4.44152 48.155 4.39606 47.9251 4.30514 47.738C4.21725 47.551 4.09905 47.3931 3.95054 47.2643C3.80507 47.1355 3.63838 47.0297 3.45047 46.947C3.2656 46.8611 3.07466 46.7845 2.87767 46.717C2.6837 46.6495 2.49277 46.5852 2.30486 46.5238C2.11999 46.4594 1.9533 46.3843 1.80479 46.2985C1.65932 46.2126 1.54112 46.1099 1.4502 45.9903C1.36231 45.8677 1.31836 45.7144 1.31836 45.5304C1.31836 45.3863 1.34412 45.2529 1.39565 45.1303C1.44717 45.0046 1.52294 44.8957 1.62295 44.8037C1.72599 44.7117 1.85329 44.6397 2.00482 44.5876C2.15636 44.5324 2.33062 44.5048 2.52762 44.5048C2.73674 44.5048 2.91404 44.5308 3.05951 44.583C3.20802 44.6351 3.33379 44.6934 3.43684 44.7577C3.54291 44.8191 3.62929 44.8758 3.69596 44.9279C3.76567 44.98 3.82628 45.0061 3.87781 45.0061C3.9263 45.0061 3.9657 44.9954 3.996 44.9739ZM10.0675 49.0672C10.116 49.0672 10.1599 49.0871 10.1993 49.127L10.5448 49.5087C10.2781 49.8214 9.95385 50.0652 9.57198 50.24C9.19314 50.4147 8.7355 50.5021 8.19907 50.5021C7.72931 50.5021 7.30349 50.4209 6.92162 50.2584C6.53975 50.0928 6.21395 49.8628 5.94421 49.5685C5.67448 49.2711 5.46536 48.9154 5.31685 48.5015C5.16835 48.0876 5.09409 47.6322 5.09409 47.1355C5.09409 46.6388 5.17289 46.1835 5.33049 45.7696C5.49112 45.3556 5.71539 45 6.00331 44.7025C6.29123 44.4051 6.63522 44.1752 7.03527 44.0127C7.43836 43.8471 7.88236 43.7643 8.36727 43.7643C8.84612 43.7643 9.2583 43.8394 9.6038 43.9897C9.95234 44.1399 10.2615 44.3438 10.5312 44.6014L10.2448 45.0107C10.2236 45.0414 10.1993 45.0674 10.1721 45.0889C10.1448 45.1073 10.1054 45.1165 10.0539 45.1165C10.0145 45.1165 9.97204 45.1027 9.92658 45.0751C9.88415 45.0444 9.83262 45.0076 9.77201 44.9647C9.7114 44.9218 9.64017 44.8758 9.55834 44.8267C9.47652 44.7777 9.37953 44.7317 9.2674 44.6888C9.15526 44.6458 9.02494 44.6106 8.87643 44.583C8.72793 44.5523 8.55669 44.537 8.36273 44.537C8.01419 44.537 7.69445 44.5983 7.4035 44.7209C7.11558 44.8405 6.86707 45.0122 6.65795 45.2361C6.44883 45.4599 6.28517 45.7328 6.16697 46.0547C6.0518 46.3767 5.99422 46.7369 5.99422 47.1355C5.99422 47.5464 6.0518 47.9128 6.16697 48.2347C6.28517 48.5567 6.44428 48.8296 6.64431 49.0534C6.84737 49.2741 7.08679 49.4428 7.36259 49.5593C7.63838 49.6758 7.93539 49.7341 8.25362 49.7341C8.44759 49.7341 8.62185 49.7233 8.77642 49.7019C8.93099 49.6773 9.07343 49.6406 9.20375 49.5915C9.3371 49.5424 9.45985 49.4811 9.57198 49.4075C9.68715 49.3309 9.80232 49.2404 9.91748 49.1362C9.96901 49.0902 10.019 49.0672 10.0675 49.0672ZM11.7002 50.4285H12.5776V47.6782H13.2459C13.3671 47.6782 13.458 47.6951 13.5186 47.7288C13.5792 47.7595 13.6353 47.8116 13.6868 47.8852L15.378 50.24C15.4537 50.3657 15.5719 50.4285 15.7326 50.4285H16.5145L14.6142 47.8116C14.5294 47.689 14.4324 47.5954 14.3233 47.5311C14.5748 47.4728 14.7991 47.3869 14.9961 47.2735C15.1961 47.1601 15.3643 47.0236 15.5007 46.8642C15.6401 46.7017 15.7462 46.5192 15.8189 46.3169C15.8917 46.1145 15.928 45.8968 15.928 45.6638C15.928 45.3848 15.8811 45.1333 15.7871 44.9095C15.6932 44.6826 15.5477 44.4895 15.3507 44.33C15.1567 44.1706 14.9097 44.0495 14.6097 43.9667C14.3096 43.8808 13.9535 43.8379 13.5413 43.8379H11.7002V50.4285ZM13.5004 47.0297H12.5776V44.5416H13.5413C14.0475 44.5416 14.4278 44.6412 14.6824 44.8405C14.94 45.0398 15.0688 45.3357 15.0688 45.7282C15.0688 45.9213 15.0355 46.0976 14.9688 46.2571C14.9021 46.4165 14.8021 46.5545 14.6688 46.671C14.5385 46.7844 14.3748 46.8734 14.1778 46.9378C13.9838 46.9991 13.758 47.0297 13.5004 47.0297ZM21.3838 43.8379V44.5646H18.2561V46.7538H20.7883V47.4529H18.2561V49.7019H21.3838V50.4285H17.3696V43.8379H21.3838ZM26.576 44.5646V43.8379H22.5618V50.4285H26.576V49.7019H23.4483V47.4529H25.9804V46.7538H23.4483V44.5646H26.576ZM28.2085 43.8379C28.2873 43.8379 28.3449 43.8486 28.3812 43.8701C28.4206 43.8885 28.4646 43.9284 28.5131 43.9897L32.2863 48.9568C32.2772 48.8771 32.2712 48.8004 32.2681 48.7268C32.2651 48.6502 32.2636 48.5766 32.2636 48.5061V43.8379H33.0364V50.4285H32.5909C32.5212 50.4285 32.4621 50.4163 32.4136 50.3918C32.3682 50.3672 32.3227 50.3258 32.2772 50.2676L28.5085 45.305C28.5146 45.3817 28.5191 45.4568 28.5222 45.5304C28.5252 45.604 28.5267 45.6714 28.5267 45.7328V50.4285H27.7539V43.8379H28.2085ZM38.5495 44.5646V43.8379H34.5354V50.4285H38.5495V49.7019H35.4218V47.4529H37.954V46.7538H35.4218V44.5646H38.5495ZM40.6958 50.4285H39.8184V43.8379H41.6596C42.0717 43.8379 42.4278 43.8808 42.7279 43.9667C43.0279 44.0495 43.2749 44.1706 43.4689 44.33C43.6659 44.4895 43.8114 44.6826 43.9053 44.9095C43.9993 45.1333 44.0462 45.3848 44.0462 45.6638C44.0462 45.8968 44.0099 46.1145 43.9371 46.3169C43.8644 46.5192 43.7583 46.7017 43.6189 46.8642C43.4825 47.0236 43.3143 47.1601 43.1143 47.2735C42.9173 47.3869 42.693 47.4728 42.4415 47.5311C42.5506 47.5954 42.6476 47.689 42.7324 47.8116L44.6327 50.4285H43.8508C43.6901 50.4285 43.5719 50.3657 43.4962 50.24L41.805 47.8852C41.7535 47.8116 41.6974 47.7595 41.6368 47.7288C41.5762 47.6951 41.4853 47.6782 41.3641 47.6782H40.6958V50.4285ZM40.6958 47.0297H41.6186C41.8762 47.0297 42.102 46.9991 42.296 46.9378C42.493 46.8734 42.6567 46.7844 42.787 46.671C42.9203 46.5545 43.0203 46.4165 43.087 46.2571C43.1537 46.0976 43.187 45.9213 43.187 45.7282C43.187 45.3357 43.0582 45.0398 42.8006 44.8405C42.546 44.6412 42.1657 44.5416 41.6596 44.5416H40.6958V47.0297ZM51.1692 44.5646V43.8379H47.155V50.4285H48.0415V47.5954H50.7146V46.8688H48.0415V44.5646H51.1692ZM58.2648 47.1355C58.2648 47.6292 58.1875 48.083 58.0329 48.4969C57.8783 48.9077 57.6601 49.2619 57.3783 49.5593C57.0964 49.8567 56.757 50.0882 56.3599 50.2538C55.966 50.4163 55.5295 50.4975 55.0507 50.4975C54.5718 50.4975 54.1354 50.4163 53.7414 50.2538C53.3474 50.0882 53.0095 49.8567 52.7276 49.5593C52.4458 49.2619 52.2276 48.9077 52.073 48.4969C51.9184 48.083 51.8411 47.6292 51.8411 47.1355C51.8411 46.6419 51.9184 46.1896 52.073 45.7788C52.2276 45.3648 52.4458 45.0092 52.7276 44.7117C53.0095 44.4113 53.3474 44.1782 53.7414 44.0127C54.1354 43.8471 54.5718 43.7643 55.0507 43.7643C55.5295 43.7643 55.966 43.8471 56.3599 44.0127C56.757 44.1782 57.0964 44.4113 57.3783 44.7117C57.6601 45.0092 57.8783 45.3648 58.0329 45.7788C58.1875 46.1896 58.2648 46.6419 58.2648 47.1355ZM57.3601 47.1355C57.3601 46.7308 57.3055 46.3675 57.1964 46.0455C57.0873 45.7236 56.9327 45.4522 56.7327 45.2315C56.5327 45.0076 56.2902 44.8359 56.0053 44.7163C55.7205 44.5968 55.4022 44.537 55.0507 44.537C54.7021 44.537 54.3854 44.5968 54.1005 44.7163C53.8156 44.8359 53.5717 45.0076 53.3686 45.2315C53.1686 45.4522 53.014 45.7236 52.9049 46.0455C52.7958 46.3675 52.7413 46.7308 52.7413 47.1355C52.7413 47.5402 52.7958 47.9036 52.9049 48.2255C53.014 48.5444 53.1686 48.8158 53.3686 49.0396C53.5717 49.2603 53.8156 49.4305 54.1005 49.5501C54.3854 49.6666 54.7021 49.7249 55.0507 49.7249C55.4022 49.7249 55.7205 49.6666 56.0053 49.5501C56.2902 49.4305 56.5327 49.2603 56.7327 49.0396C56.9327 48.8158 57.0873 48.5444 57.1964 48.2255C57.3055 47.9036 57.3601 47.5402 57.3601 47.1355ZM59.4681 50.4285H60.3455V47.6782H61.0138C61.135 47.6782 61.2259 47.6951 61.2865 47.7288C61.3472 47.7595 61.4032 47.8116 61.4548 47.8852L63.1459 50.24C63.2217 50.3657 63.3399 50.4285 63.5005 50.4285H64.2824L62.3821 47.8116C62.2973 47.689 62.2003 47.5954 62.0912 47.5311C62.3427 47.4728 62.567 47.3869 62.764 47.2735C62.964 47.1601 63.1323 47.0236 63.2686 46.8642C63.408 46.7017 63.5141 46.5192 63.5869 46.3169C63.6596 46.1145 63.696 45.8968 63.696 45.6638C63.696 45.3848 63.649 45.1333 63.555 44.9095C63.4611 44.6826 63.3156 44.4895 63.1186 44.33C62.9247 44.1706 62.6776 44.0495 62.3776 43.9667C62.0776 43.8808 61.7215 43.8379 61.3093 43.8379H59.4681V50.4285ZM61.2684 47.0297H60.3455V44.5416H61.3093C61.8154 44.5416 62.1958 44.6412 62.4503 44.8405C62.708 45.0398 62.8368 45.3357 62.8368 45.7282C62.8368 45.9213 62.8034 46.0976 62.7367 46.2571C62.6701 46.4165 62.5701 46.5545 62.4367 46.671C62.3064 46.7844 62.1427 46.8734 61.9457 46.9378C61.7518 46.9991 61.526 47.0297 61.2684 47.0297ZM71.3962 49.0672C71.4447 49.0672 71.4887 49.0871 71.5281 49.127L71.8736 49.5087C71.6069 49.8214 71.2826 50.0652 70.9007 50.24C70.5219 50.4147 70.0642 50.5021 69.5278 50.5021C69.058 50.5021 68.6322 50.4209 68.2504 50.2584C67.8685 50.0928 67.5427 49.8628 67.2729 49.5685C67.0032 49.2711 66.7941 48.9154 66.6456 48.5015C66.4971 48.0876 66.4228 47.6322 66.4228 47.1355C66.4228 46.6388 66.5016 46.1835 66.6592 45.7696C66.8199 45.3556 67.0441 45 67.332 44.7025C67.62 44.4051 67.964 44.1752 68.364 44.0127C68.7671 43.8471 69.2111 43.7643 69.696 43.7643C70.1749 43.7643 70.587 43.8394 70.9325 43.9897C71.2811 44.1399 71.5902 44.3438 71.8599 44.6014L71.5735 45.0107C71.5523 45.0414 71.5281 45.0674 71.5008 45.0889C71.4735 45.1073 71.4341 45.1165 71.3826 45.1165C71.3432 45.1165 71.3008 45.1027 71.2553 45.0751C71.2129 45.0444 71.1614 45.0076 71.1008 44.9647C71.0401 44.9218 70.9689 44.8758 70.8871 44.8267C70.8053 44.7777 70.7083 44.7317 70.5961 44.6888C70.484 44.6458 70.3537 44.6106 70.2052 44.583C70.0567 44.5523 69.8854 44.537 69.6915 44.537C69.3429 44.537 69.0232 44.5983 68.7322 44.7209C68.4443 44.8405 68.1958 45.0122 67.9867 45.2361C67.7776 45.4599 67.6139 45.7328 67.4957 46.0547C67.3805 46.3767 67.323 46.7369 67.323 47.1355C67.323 47.5464 67.3805 47.9128 67.4957 48.2347C67.6139 48.5567 67.773 48.8296 67.973 49.0534C68.1761 49.2741 68.4155 49.4428 68.6913 49.5593C68.9671 49.6758 69.2641 49.7341 69.5824 49.7341C69.7763 49.7341 69.9506 49.7233 70.1052 49.7019C70.2597 49.6773 70.4022 49.6406 70.5325 49.5915C70.6658 49.5424 70.7886 49.4811 70.9007 49.4075C71.0159 49.3309 71.1311 49.2404 71.2462 49.1362C71.2977 49.0902 71.3477 49.0672 71.3962 49.0672ZM77.6159 50.4285H78.2978L75.6929 43.8379H74.7973L72.1924 50.4285H72.8744C72.9501 50.4285 73.0138 50.4071 73.0653 50.3642C73.1168 50.3212 73.1532 50.2722 73.1744 50.217L73.7836 48.6257H76.7067L77.3159 50.217C77.3401 50.2783 77.3765 50.3289 77.425 50.3688C77.4735 50.4086 77.5371 50.4285 77.6159 50.4285ZM76.4612 47.9818H74.0291L75.0519 45.305C75.0822 45.2253 75.1125 45.1333 75.1429 45.0291C75.1762 44.9218 75.2095 44.8053 75.2429 44.6796C75.3065 44.9279 75.3717 45.1349 75.4383 45.3004L76.4612 47.9818ZM79.9952 50.4285H79.1178V43.8379H80.959C81.3712 43.8379 81.7273 43.8808 82.0273 43.9667C82.3274 44.0495 82.5744 44.1706 82.7683 44.33C82.9653 44.4895 83.1108 44.6826 83.2048 44.9095C83.2987 45.1333 83.3457 45.3848 83.3457 45.6638C83.3457 45.8968 83.3093 46.1145 83.2366 46.3169C83.1638 46.5192 83.0578 46.7017 82.9183 46.8642C82.782 47.0236 82.6138 47.1601 82.4137 47.2735C82.2167 47.3869 81.9925 47.4728 81.7409 47.5311C81.85 47.5954 81.947 47.689 82.0319 47.8116L83.9321 50.4285H83.1502C82.9896 50.4285 82.8714 50.3657 82.7956 50.24L81.1045 47.8852C81.0529 47.8116 80.9969 47.7595 80.9363 47.7288C80.8756 47.6951 80.7847 47.6782 80.6635 47.6782H79.9952V50.4285ZM79.9952 47.0297H80.9181C81.1757 47.0297 81.4015 46.9991 81.5954 46.9378C81.7924 46.8734 81.9561 46.7844 82.0864 46.671C82.2198 46.5545 82.3198 46.4165 82.3865 46.2571C82.4531 46.0976 82.4865 45.9213 82.4865 45.7282C82.4865 45.3357 82.3577 45.0398 82.1001 44.8405C81.8455 44.6412 81.4651 44.5416 80.959 44.5416H79.9952V47.0297ZM88.8015 44.5646V43.8379H84.7873V50.4285H88.8015V49.7019H85.6738V47.4529H88.2059V46.7538H85.6738V44.5646H88.8015ZM92.8843 49.7801C93.0601 49.7801 93.2208 49.7724 93.3662 49.7571C93.5147 49.7387 93.6542 49.7126 93.7845 49.6789C93.9148 49.6451 94.0375 49.6053 94.1527 49.5593C94.2679 49.5102 94.383 49.455 94.4982 49.3937V47.9404H93.489C93.4314 47.9404 93.3844 47.9235 93.3481 47.8898C93.3147 47.8561 93.298 47.8147 93.298 47.7656V47.2597H95.2983V49.7893C95.1347 49.9088 94.9634 50.0131 94.7846 50.102C94.6088 50.1909 94.4194 50.266 94.2163 50.3274C94.0163 50.3856 93.8011 50.4285 93.5708 50.4561C93.3405 50.4868 93.0904 50.5021 92.8207 50.5021C92.3479 50.5021 91.9145 50.4209 91.5205 50.2584C91.1265 50.0928 90.7871 49.8628 90.5022 49.5685C90.2173 49.2711 89.9946 48.9154 89.8339 48.5015C89.6763 48.0876 89.5975 47.6322 89.5975 47.1355C89.5975 46.6327 89.6748 46.1743 89.8294 45.7604C89.987 45.3464 90.2097 44.9923 90.4977 44.6979C90.7886 44.4005 91.1387 44.1706 91.5478 44.0081C91.96 43.8456 92.4207 43.7643 92.9298 43.7643C93.1874 43.7643 93.4268 43.7842 93.6481 43.8241C93.8693 43.8609 94.0739 43.9161 94.2618 43.9897C94.4527 44.0602 94.6285 44.1476 94.7892 44.2518C94.9498 44.353 95.0998 44.468 95.2392 44.5968L94.9892 45.0015C94.9377 45.0843 94.871 45.1257 94.7892 45.1257C94.7407 45.1257 94.6876 45.1088 94.63 45.0751C94.5543 45.0322 94.4694 44.98 94.3755 44.9187C94.2815 44.8574 94.1664 44.7991 94.03 44.7439C93.8966 44.6857 93.7375 44.6366 93.5526 44.5968C93.3708 44.5569 93.1541 44.537 92.9025 44.537C92.5358 44.537 92.204 44.5983 91.9069 44.7209C91.6099 44.8405 91.3569 45.0138 91.1477 45.2407C90.9386 45.4645 90.778 45.7374 90.6659 46.0593C90.5537 46.3782 90.4977 46.7369 90.4977 47.1355C90.4977 47.5525 90.5552 47.925 90.6704 48.2531C90.7886 48.5781 90.9538 48.8541 91.1659 49.081C91.3781 49.3079 91.6296 49.4811 91.9206 49.6007C92.2115 49.7203 92.5328 49.7801 92.8843 49.7801ZM96.7292 50.4285H97.6111V43.8379H96.7292V50.4285ZM98.508 43.8379H99.2126C99.2914 43.8379 99.3551 43.8578 99.4036 43.8977C99.4521 43.9375 99.4884 43.9881 99.5127 44.0495L101.354 48.6992C101.396 48.8035 101.434 48.9169 101.467 49.0396C101.504 49.1622 101.539 49.2895 101.572 49.4213C101.599 49.2895 101.628 49.1622 101.658 49.0396C101.692 48.9169 101.73 48.8035 101.772 48.6992L103.604 44.0495C103.625 43.9973 103.662 43.9498 103.713 43.9069C103.765 43.8609 103.828 43.8379 103.904 43.8379H104.613L101.958 50.4285H101.163L98.508 43.8379ZM109.366 44.5646V43.8379H105.352V50.4285H109.366V49.7019H106.238V47.4529H108.77V46.7538H106.238V44.5646H109.366ZM111.512 50.4285H110.635V43.8379H112.476C112.888 43.8379 113.244 43.8808 113.544 43.9667C113.844 44.0495 114.091 44.1706 114.285 44.33C114.482 44.4895 114.628 44.6826 114.722 44.9095C114.815 45.1333 114.862 45.3848 114.862 45.6638C114.862 45.8968 114.826 46.1145 114.753 46.3169C114.681 46.5192 114.575 46.7017 114.435 46.8642C114.299 47.0236 114.131 47.1601 113.93 47.2735C113.733 47.3869 113.509 47.4728 113.258 47.5311C113.367 47.5954 113.464 47.689 113.549 47.8116L115.449 50.4285H114.667C114.506 50.4285 114.388 50.3657 114.312 50.24L112.621 47.8852C112.57 47.8116 112.514 47.7595 112.453 47.7288C112.392 47.6951 112.301 47.6782 112.18 47.6782H111.512V50.4285ZM111.512 47.0297H112.435C112.692 47.0297 112.918 46.9991 113.112 46.9378C113.309 46.8734 113.473 46.7844 113.603 46.671C113.737 46.5545 113.837 46.4165 113.903 46.2571C113.97 46.0976 114.003 45.9213 114.003 45.7282C114.003 45.3357 113.874 45.0398 113.617 44.8405C113.362 44.6412 112.982 44.5416 112.476 44.5416H111.512V47.0297ZM119.554 44.9739C119.585 44.9494 119.614 44.9141 119.641 44.8681L119.855 44.445C119.63 44.2242 119.368 44.0556 119.068 43.9391C118.768 43.8226 118.436 43.7643 118.072 43.7643C117.748 43.7643 117.46 43.8149 117.209 43.9161C116.96 44.0173 116.751 44.1522 116.581 44.3208C116.412 44.4895 116.281 44.6826 116.19 44.9003C116.103 45.118 116.059 45.3434 116.059 45.5764C116.059 45.8677 116.103 46.113 116.19 46.3123C116.281 46.5085 116.4 46.6725 116.545 46.8044C116.69 46.9362 116.856 47.0435 117.041 47.1263C117.228 47.2091 117.419 47.2827 117.613 47.3471C117.81 47.4084 118.001 47.4697 118.186 47.5311C118.374 47.5893 118.541 47.6614 118.686 47.7472C118.832 47.8331 118.948 47.9404 119.036 48.0692C119.127 48.1949 119.173 48.3574 119.173 48.5567C119.173 48.7376 119.142 48.9016 119.082 49.0488C119.021 49.196 118.933 49.3232 118.818 49.4305C118.706 49.5348 118.568 49.616 118.404 49.6743C118.241 49.7325 118.054 49.7617 117.845 49.7617C117.594 49.7617 117.38 49.7279 117.204 49.6605C117.031 49.59 116.883 49.5133 116.759 49.4305C116.637 49.3477 116.536 49.2726 116.454 49.2052C116.372 49.1346 116.299 49.0994 116.236 49.0994C116.193 49.0994 116.154 49.1116 116.118 49.1362C116.084 49.1576 116.056 49.1852 116.031 49.219L115.777 49.6421C116.022 49.9058 116.318 50.1158 116.663 50.2722C117.012 50.4255 117.397 50.5021 117.818 50.5021C118.163 50.5021 118.471 50.4485 118.741 50.3412C119.014 50.2338 119.242 50.0867 119.427 49.8996C119.615 49.7126 119.758 49.4934 119.855 49.242C119.952 48.9875 120 48.7161 120 48.4279C120 48.155 119.955 47.9251 119.864 47.738C119.776 47.551 119.658 47.3931 119.509 47.2643C119.364 47.1355 119.197 47.0297 119.009 46.947C118.824 46.8611 118.633 46.7845 118.436 46.717C118.242 46.6495 118.051 46.5852 117.863 46.5238C117.678 46.4594 117.512 46.3843 117.363 46.2985C117.218 46.2126 117.1 46.1099 117.009 45.9903C116.921 45.8677 116.877 45.7144 116.877 45.5304C116.877 45.3863 116.903 45.2529 116.954 45.1303C117.006 45.0046 117.081 44.8957 117.181 44.8037C117.284 44.7117 117.412 44.6397 117.563 44.5876C117.715 44.5324 117.889 44.5048 118.086 44.5048C118.295 44.5048 118.473 44.5308 118.618 44.583C118.767 44.6351 118.892 44.6934 118.995 44.7577C119.101 44.8191 119.188 44.8758 119.254 44.9279C119.324 44.98 119.385 45.0061 119.436 45.0061C119.485 45.0061 119.524 44.9954 119.554 44.9739ZM100.055 9.80859H99.8438V10.3477H103.047V9.80859H102.82C102.716 9.80859 102.617 9.80339 102.523 9.79297C102.435 9.77734 102.354 9.7513 102.281 9.71484C102.214 9.67318 102.159 9.61589 102.117 9.54297C102.076 9.47005 102.049 9.37109 102.039 9.24609V7.37109H102.883L104.648 10.3477H106.344V9.80859C106.214 9.80859 106.102 9.80339 106.008 9.79297C105.919 9.78255 105.841 9.76172 105.773 9.73047C105.706 9.69922 105.646 9.65755 105.594 9.60547C105.547 9.54818 105.497 9.47526 105.445 9.38672L104.023 7.09766C104.206 7.04036 104.383 6.96484 104.555 6.87109C104.732 6.77214 104.888 6.65234 105.023 6.51172C105.159 6.37109 105.268 6.20443 105.352 6.01172C105.435 5.81901 105.477 5.59505 105.477 5.33984C105.477 4.06901 104.56 3.43359 102.727 3.43359H99.8438V3.99609H100.055C100.159 3.99609 100.258 4.0013 100.352 4.01172C100.445 4.02214 100.529 4.04818 100.602 4.08984C100.674 4.1263 100.732 4.18359 100.773 4.26172C100.815 4.33464 100.836 4.43359 100.836 4.55859V9.24609C100.836 9.37109 100.815 9.47005 100.773 9.54297C100.732 9.61589 100.674 9.67318 100.602 9.71484C100.529 9.7513 100.445 9.77734 100.352 9.79297C100.258 9.80339 100.159 9.80859 100.055 9.80859ZM102.711 6.76172H102.039V4.05859H102.664C102.945 4.05859 103.182 4.08203 103.375 4.12891C103.573 4.17578 103.732 4.2513 103.852 4.35547C103.977 4.45443 104.068 4.58724 104.125 4.75391C104.182 4.92057 104.211 5.12109 104.211 5.35547C104.211 5.59505 104.185 5.80339 104.133 5.98047C104.086 6.15755 104.005 6.30339 103.891 6.41797C103.776 6.53255 103.622 6.61849 103.43 6.67578C103.237 6.73307 102.997 6.76172 102.711 6.76172ZM97.2109 5.33203C97.0703 5.83203 97 6.35286 97 6.89453C97 7.4362 97.0703 7.95703 97.2109 8.45703C97.3516 8.95703 97.5469 9.42578 97.7969 9.86328C98.0521 10.2956 98.3568 10.6914 98.7109 11.0508C99.0703 11.4049 99.4661 11.7096 99.8984 11.9648C100.336 12.2201 100.805 12.418 101.305 12.5586C101.805 12.694 102.326 12.7617 102.867 12.7617C103.409 12.7617 103.93 12.694 104.43 12.5586C104.935 12.418 105.404 12.2201 105.836 11.9648C106.273 11.7096 106.672 11.4049 107.031 11.0508C107.391 10.6914 107.698 10.2956 107.953 9.86328C108.208 9.42578 108.406 8.95703 108.547 8.45703C108.688 7.95703 108.758 7.4362 108.758 6.89453C108.758 6.35286 108.688 5.83203 108.547 5.33203C108.406 4.82682 108.208 4.35807 107.953 3.92578C107.698 3.48828 107.391 3.08984 107.031 2.73047C106.672 2.37109 106.273 2.0638 105.836 1.80859C105.404 1.55339 104.935 1.35547 104.43 1.21484C103.93 1.07422 103.409 1.00391 102.867 1.00391C102.326 1.00391 101.805 1.07422 101.305 1.21484C100.805 1.35547 100.336 1.55339 99.8984 1.80859C99.4661 2.0638 99.0703 2.37109 98.7109 2.73047C98.3568 3.08984 98.0521 3.48828 97.7969 3.92578C97.5469 4.35807 97.3516 4.82682 97.2109 5.33203ZM98.0547 8.22266C97.9349 7.79557 97.875 7.35286 97.875 6.89453C97.875 6.43099 97.9349 5.98828 98.0547 5.56641C98.1745 5.13932 98.3411 4.74089 98.5547 4.37109C98.7734 3.99609 99.0339 3.65755 99.3359 3.35547C99.6432 3.04818 99.9818 2.78776 100.352 2.57422C100.721 2.35547 101.117 2.1862 101.539 2.06641C101.966 1.94661 102.409 1.88672 102.867 1.88672C103.331 1.88672 103.776 1.94661 104.203 2.06641C104.63 2.1862 105.029 2.35547 105.398 2.57422C105.768 2.78776 106.104 3.04818 106.406 3.35547C106.714 3.65755 106.974 3.99609 107.188 4.37109C107.406 4.74089 107.576 5.13932 107.695 5.56641C107.815 5.99349 107.875 6.4362 107.875 6.89453C107.875 7.35286 107.815 7.79557 107.695 8.22266C107.576 8.64453 107.406 9.04036 107.188 9.41016C106.974 9.77995 106.714 10.1185 106.406 10.4258C106.104 10.7279 105.768 10.9883 105.398 11.207C105.029 11.4206 104.63 11.5872 104.203 11.707C103.776 11.8268 103.331 11.8867 102.867 11.8867C102.409 11.8867 101.966 11.8268 101.539 11.707C101.117 11.5872 100.721 11.4206 100.352 11.207C99.9818 10.9883 99.6432 10.7279 99.3359 10.4258C99.0339 10.1185 98.7734 9.77995 98.5547 9.41016C98.3411 9.04036 98.1745 8.64453 98.0547 8.22266Z" fill="#010B12"/>
</g>
</svg>
