<svg width="150" height="63" viewBox="0 0 150 63" fill="none" xmlns="http://www.w3.org/2000/svg">
<path fill-rule="evenodd" clip-rule="evenodd" d="M70.3208 28.1838C71.4554 28.5082 72.8736 28.6704 74.5754 28.6704C76.1539 28.6704 77.5721 28.4645 78.8299 28.0528C80.1001 27.6411 81.1853 27.0672 82.0856 26.3311C82.9858 25.595 83.6764 24.7154 84.1574 23.6924C84.6383 22.6569 84.8788 21.5216 84.8788 20.2864C84.8788 19.3507 84.7431 18.5023 84.4718 17.7413C84.2129 16.9678 83.7874 16.2629 83.1955 15.6266C82.6159 14.9778 81.8698 14.3727 80.9572 13.8113C80.0446 13.2499 78.9409 12.7009 77.6461 12.1645C76.3635 11.6405 75.3153 11.1539 74.5014 10.7048C73.6998 10.2431 73.0647 9.78777 72.5961 9.33863C72.1398 8.87701 71.8253 8.40916 71.6527 7.93507C71.48 7.46097 71.3937 6.95569 71.3937 6.41922C71.3937 5.84532 71.4924 5.34003 71.6897 4.90337C71.887 4.45423 72.1521 4.07995 72.4851 3.78052C72.8304 3.48109 73.2312 3.25652 73.6875 3.10681C74.1438 2.9571 74.6247 2.88224 75.1303 2.88224C75.8579 2.88224 76.4745 3.05691 76.9801 3.40624C77.4981 3.75557 77.9174 4.19847 78.238 4.73494C78.5586 5.25894 78.7868 5.83284 78.9224 6.45665C79.0704 7.06798 79.1444 7.64188 79.1444 8.17835C79.9213 8.17835 80.5996 8.09726 81.1792 7.93507C81.7711 7.77288 82.2582 7.54831 82.6405 7.26136C83.0351 6.97441 83.325 6.63755 83.5099 6.25079C83.7073 5.86403 83.8059 5.44608 83.8059 4.99694C83.8059 4.37314 83.6456 3.793 83.325 3.25652C83.0043 2.70757 82.511 2.23348 81.8451 1.83425C81.1915 1.43501 80.3591 1.12311 79.3479 0.898538C78.3366 0.661492 77.1343 0.542969 75.7408 0.542969C74.4089 0.542969 73.1757 0.723872 72.0412 1.08568C70.9066 1.44749 69.9262 1.96525 69.1 2.63896C68.2737 3.31267 67.6263 4.12361 67.1577 5.0718C66.689 6.01998 66.4547 7.08045 66.4547 8.25321C66.4547 9.18892 66.5719 10.0498 66.8062 10.8358C67.0528 11.6218 67.4536 12.3516 68.0086 13.0253C68.5635 13.699 69.2911 14.3291 70.1913 14.9155C71.1039 15.4894 72.22 16.0508 73.5395 16.5997C74.6 17.0489 75.5249 17.4731 76.3142 17.8723C77.1158 18.259 77.7755 18.6708 78.2935 19.1074C78.8238 19.5316 79.2184 19.9995 79.4774 20.511C79.7363 21.01 79.8658 21.5839 79.8658 22.2327C79.8658 22.8191 79.761 23.368 79.5514 23.8795C79.3417 24.3786 79.0334 24.8152 78.6264 25.1895C78.2195 25.5638 77.7262 25.857 77.1466 26.0691C76.567 26.2812 75.9072 26.3872 75.1673 26.3872C74.4151 26.3872 73.7183 26.25 73.077 25.9755C72.4481 25.6886 71.9055 25.2706 71.4492 24.7217C70.9929 24.1603 70.6353 23.4678 70.3763 22.6444C70.1174 21.8085 69.9879 20.8416 69.9879 19.7437C69.4329 19.7437 68.8965 19.8061 68.3785 19.9308C67.8729 20.0556 67.4166 20.2615 67.0097 20.5484C66.6151 20.8354 66.2944 21.2034 66.0478 21.6526C65.8135 22.1017 65.6963 22.6569 65.6963 23.3181C65.6963 23.9419 65.8381 24.572 66.1218 25.2082C66.4177 25.8445 66.9049 26.4184 67.5831 26.9299C68.2737 27.4415 69.1863 27.8594 70.3208 28.1838ZM8.1933 19.2946L7.10192 22.5883C7.00326 22.9002 6.89844 23.2682 6.78745 23.6924C6.68879 24.1041 6.63947 24.4659 6.63947 24.7778C6.63947 25.0273 6.68879 25.2457 6.78745 25.4328C6.88611 25.62 7.01559 25.7759 7.17591 25.9007C7.33623 26.013 7.51504 26.1003 7.71235 26.1627C7.922 26.225 8.13781 26.2562 8.35978 26.2562H9.95061V28.2961H0.0911584V26.2562H0.553609C0.886574 26.2562 1.18871 26.2188 1.46001 26.144C1.74365 26.0691 2.00262 25.9319 2.23693 25.7322C2.48357 25.5201 2.71171 25.2332 2.92136 24.8714C3.14334 24.5096 3.36531 24.0417 3.58729 23.4678L11.8004 0.935966H16.9984L24.9155 23.5053C25.1005 24.0417 25.2917 24.4909 25.489 24.8527C25.6986 25.202 25.9206 25.4827 26.1549 25.6948C26.4015 25.8944 26.6605 26.0379 26.9318 26.1252C27.2031 26.2126 27.4868 26.2562 27.7827 26.2562H28.4672V28.2961H15.9625V26.2562H17.4423C17.6273 26.2562 17.8184 26.2313 18.0158 26.1814C18.2131 26.119 18.3857 26.0317 18.5337 25.9194C18.694 25.7946 18.8235 25.6387 18.9222 25.4515C19.0208 25.2644 19.0702 25.0398 19.0702 24.7778C19.0702 24.4659 19.0332 24.1665 18.9592 23.8795C18.8852 23.5926 18.8112 23.3431 18.7372 23.131L17.4053 19.2946H8.1933ZM14.6491 10.6673C14.5135 10.2307 14.3716 9.77529 14.2237 9.3012C14.088 8.81463 13.9462 8.32183 13.7982 7.82278C13.6626 7.32374 13.5269 6.83093 13.3913 6.34436C13.2679 5.84532 13.1569 5.37122 13.0583 4.92208C12.9473 5.30884 12.8178 5.73303 12.6698 6.19465C12.5218 6.65626 12.3615 7.13036 12.1889 7.61692C12.0286 8.10349 11.8621 8.59006 11.6894 9.07663L11.227 10.4802L8.98872 16.9553H16.6469L14.6491 10.6673ZM40.5057 19.2946L39.4143 22.5883C39.3156 22.9002 39.2108 23.2682 39.0998 23.6924C39.0012 24.1041 38.9518 24.4659 38.9518 24.7778C38.9518 25.0273 39.0012 25.2457 39.0998 25.4328C39.1985 25.62 39.328 25.7759 39.4883 25.9007C39.6486 26.013 39.8274 26.1003 40.0247 26.1627C40.2344 26.225 40.4502 26.2562 40.6722 26.2562H42.263V28.2961H32.4035V26.2562H32.866C33.199 26.2562 33.5011 26.2188 33.7724 26.144C34.056 26.0691 34.315 25.9319 34.5493 25.7322C34.796 25.5201 35.0241 25.2332 35.2337 24.8714C35.4557 24.5096 35.6777 24.0417 35.8997 23.4678L44.1128 0.935966H49.3108L57.2279 23.5053C57.4129 24.0417 57.604 24.4909 57.8014 24.8527C58.011 25.202 58.233 25.4827 58.4673 25.6948C58.7139 25.8944 58.9729 26.0379 59.2442 26.1252C59.5155 26.2126 59.7991 26.2562 60.0951 26.2562H60.7795V28.2961H48.2749V26.2562H49.7547C49.9397 26.2562 50.1308 26.2313 50.3281 26.1814C50.5255 26.119 50.6981 26.0317 50.8461 25.9194C51.0064 25.7946 51.1359 25.6387 51.2346 25.4515C51.3332 25.2644 51.3825 25.0398 51.3825 24.7778C51.3825 24.4659 51.3455 24.1665 51.2715 23.8795C51.1976 23.5926 51.1236 23.3431 51.0496 23.131L49.7177 19.2946H40.5057ZM46.9615 10.6673C46.8258 10.2307 46.684 9.77529 46.536 9.3012C46.4004 8.81463 46.2586 8.32183 46.1106 7.82278C45.9749 7.32374 45.8393 6.83093 45.7036 6.34436C45.5803 5.84532 45.4693 5.37122 45.3707 4.92208C45.2597 5.30884 45.1302 5.73303 44.9822 6.19465C44.8342 6.65626 44.6739 7.13036 44.5013 7.61692C44.3409 8.10349 44.1745 8.59006 44.0018 9.07663L43.5394 10.4802L41.3011 16.9553H48.9593L46.9615 10.6673ZM106.647 25.62C107.572 25.62 108.392 25.5139 109.108 25.3018C109.835 25.0772 110.483 24.7903 111.05 24.441C111.617 24.0916 112.11 23.6986 112.53 23.262C112.961 22.8253 113.337 22.3949 113.658 21.9707C113.855 22.1204 114.01 22.3512 114.12 22.6631C114.244 22.975 114.305 23.2932 114.305 23.6175C114.305 24.154 114.164 24.7217 113.88 25.3205C113.596 25.9069 113.122 26.4496 112.456 26.9487C111.79 27.4477 110.908 27.8594 109.81 28.1838C108.713 28.5082 107.356 28.6704 105.741 28.6704C103.546 28.6704 101.628 28.3335 99.988 27.6598C98.3478 26.9861 96.9851 26.0317 95.8999 24.7965C94.8147 23.5614 94.0008 22.0767 93.4582 20.3426C92.9156 18.6084 92.6443 16.6871 92.6443 14.5786C92.6443 12.5076 92.9217 10.6112 93.4767 8.88949C94.0316 7.16778 94.8517 5.68937 95.9369 4.45423C97.0345 3.21909 98.3972 2.25843 100.025 1.57225C101.665 0.886062 103.558 0.542969 105.704 0.542969C107.159 0.542969 108.423 0.661492 109.496 0.898538C110.581 1.12311 111.481 1.43501 112.197 1.83425C112.912 2.23348 113.448 2.70757 113.806 3.25652C114.164 3.793 114.342 4.37314 114.342 4.99694C114.342 5.47103 114.238 5.91394 114.028 6.32565C113.831 6.72488 113.529 7.07421 113.122 7.37364C112.727 7.67307 112.234 7.91011 111.642 8.08478C111.05 8.24697 110.372 8.32806 109.607 8.32806C109.607 7.69178 109.539 7.06174 109.404 6.43793C109.268 5.80165 109.034 5.22775 108.701 4.71623C108.38 4.20471 107.954 3.793 107.424 3.48109C106.894 3.15671 106.234 2.99452 105.445 2.99452C104.249 2.99452 103.237 3.25029 102.411 3.76181C101.585 4.27333 100.919 5.02189 100.413 6.00751C99.9202 6.99312 99.5625 8.20954 99.3406 9.65677C99.1186 11.0915 99.0076 12.7321 99.0076 14.5786C99.0076 16.4251 99.1433 18.0407 99.4146 19.4256C99.6859 20.8104 100.124 21.9645 100.728 22.8877C101.332 23.7984 102.115 24.4846 103.077 24.9462C104.051 25.3954 105.241 25.62 106.647 25.62ZM6.77934 49.3757H7.63173L4.3756 41.1374H3.25613L0 49.3757H0.85239C0.9471 49.3757 1.02666 49.3489 1.09106 49.2952C1.15546 49.2416 1.20092 49.1803 1.22744 49.1113L1.98891 47.1221H5.64282L6.40429 49.1113C6.4346 49.1879 6.48006 49.2512 6.54067 49.301C6.60129 49.3508 6.68084 49.3757 6.77934 49.3757ZM5.33596 46.3173H2.29577L3.57435 42.9713C3.61224 42.8717 3.65012 42.7567 3.68801 42.6264C3.72968 42.4923 3.77135 42.3466 3.81302 42.1895C3.89258 42.4999 3.97403 42.7586 4.05738 42.9656L5.33596 46.3173ZM11.9301 48.5651C12.1498 48.5651 12.3506 48.5555 12.5324 48.5364C12.7181 48.5134 12.8923 48.4808 13.0552 48.4386C13.2181 48.3965 13.3716 48.3467 13.5155 48.2892C13.6595 48.2278 13.8034 48.1589 13.9474 48.0822V46.2655H12.6859C12.6139 46.2655 12.5552 46.2444 12.5097 46.2023C12.468 46.1601 12.4472 46.1084 12.4472 46.0471V45.4147H14.9475V48.5766C14.743 48.7261 14.5289 48.8564 14.3054 48.9675C14.0857 49.0787 13.8489 49.1726 13.5951 49.2492C13.3451 49.3221 13.0761 49.3757 12.7882 49.4102C12.5002 49.4485 12.1877 49.4677 11.8505 49.4677C11.2595 49.4677 10.7178 49.3661 10.2253 49.163C9.73281 48.9561 9.30851 48.6686 8.9524 48.3007C8.59629 47.9289 8.31785 47.4843 8.11706 46.9669C7.92006 46.4495 7.82156 45.8803 7.82156 45.2594C7.82156 44.6309 7.91817 44.0579 8.11138 43.5405C8.30837 43.0231 8.58682 42.5804 8.94672 42.2125C9.31041 41.8407 9.74796 41.5533 10.2594 41.3501C10.7746 41.147 11.3505 41.0454 11.9869 41.0454C12.3089 41.0454 12.6082 41.0703 12.8848 41.1202C13.1613 41.1662 13.417 41.2351 13.6519 41.3271C13.8906 41.4153 14.1103 41.5245 14.3111 41.6548C14.5119 41.7813 14.6994 41.925 14.8737 42.086L14.5611 42.5919C14.4967 42.6954 14.4134 42.7471 14.3111 42.7471C14.2505 42.7471 14.1842 42.7261 14.1122 42.6839C14.0175 42.6302 13.9114 42.5651 13.794 42.4884C13.6765 42.4118 13.5326 42.339 13.3621 42.27C13.1954 42.1971 12.9965 42.1358 12.7654 42.086C12.5381 42.0362 12.2673 42.0113 11.9528 42.0113C11.4944 42.0113 11.0796 42.0879 10.7083 42.2412C10.3371 42.3907 10.0207 42.6072 9.75933 42.8909C9.49793 43.1706 9.29715 43.5117 9.15698 43.9142C9.01681 44.3128 8.94672 44.7612 8.94672 45.2594C8.94672 45.7807 9.0187 46.2463 9.16266 46.6564C9.31041 47.0627 9.51687 47.4076 9.78206 47.6913C10.0472 47.9749 10.3617 48.1914 10.7254 48.3409C11.0891 48.4904 11.4906 48.5651 11.9301 48.5651ZM16.7361 49.3757H17.8386V41.1374H16.7361V49.3757ZM25.4492 41.1374V42.0745H22.8181V49.3757H21.7157V42.0745H19.0733V41.1374H25.4492ZM31.5857 49.3757H32.4381L29.1819 41.1374H28.0625L24.8063 49.3757H25.6587C25.7534 49.3757 25.833 49.3489 25.8974 49.2952C25.9618 49.2416 26.0072 49.1803 26.0338 49.1113L26.7952 47.1221H30.4491L31.2106 49.1113C31.2409 49.1879 31.2864 49.2512 31.347 49.301C31.4076 49.3508 31.4872 49.3757 31.5857 49.3757ZM30.1423 46.3173H27.1021L28.3807 42.9713C28.4186 42.8717 28.4564 42.7567 28.4943 42.6264C28.536 42.4923 28.5777 42.3466 28.6193 42.1895C28.6989 42.4999 28.7804 42.7586 28.8637 42.9656L30.1423 46.3173ZM38.1409 41.1374V42.0745H35.5098V49.3757H34.4074V42.0745H31.765V41.1374H38.1409ZM39.3893 49.3757H40.4917V41.1374H39.3893V49.3757ZM50.1196 45.2594C50.1196 45.8765 50.023 46.4437 49.8298 46.9611C49.6366 47.4747 49.3639 47.9174 49.0115 48.2892C48.6592 48.6609 48.2349 48.9503 47.7386 49.1573C47.2461 49.3604 46.7006 49.462 46.102 49.462C45.5035 49.462 44.9579 49.3604 44.4654 49.1573C43.973 48.9503 43.5505 48.6609 43.1982 48.2892C42.8459 47.9174 42.5731 47.4747 42.3799 46.9611C42.1867 46.4437 42.0901 45.8765 42.0901 45.2594C42.0901 44.6424 42.1867 44.0771 42.3799 43.5635C42.5731 43.0461 42.8459 42.6015 43.1982 42.2297C43.5505 41.8541 43.973 41.5628 44.4654 41.3559C44.9579 41.1489 45.5035 41.0454 46.102 41.0454C46.7006 41.0454 47.2461 41.1489 47.7386 41.3559C48.2349 41.5628 48.6592 41.8541 49.0115 42.2297C49.3639 42.6015 49.6366 43.0461 49.8298 43.5635C50.023 44.0771 50.1196 44.6424 50.1196 45.2594ZM48.9888 45.2594C48.9888 44.7535 48.9206 44.2994 48.7842 43.8969C48.6478 43.4945 48.4546 43.1553 48.2046 42.8794C47.9546 42.5996 47.6515 42.3849 47.2954 42.2355C46.9393 42.086 46.5415 42.0113 46.102 42.0113C45.6664 42.0113 45.2705 42.086 44.9144 42.2355C44.5583 42.3849 44.2533 42.5996 43.9995 42.8794C43.7494 43.1553 43.5562 43.4945 43.4198 43.8969C43.2835 44.2994 43.2153 44.7535 43.2153 45.2594C43.2153 45.7654 43.2835 46.2195 43.4198 46.622C43.5562 47.0206 43.7494 47.3597 43.9995 47.6395C44.2533 47.9155 44.5583 48.1282 44.9144 48.2777C45.2705 48.4233 45.6664 48.4961 46.102 48.4961C46.5415 48.4961 46.9393 48.4233 47.2954 48.2777C47.6515 48.1282 47.9546 47.9155 48.2046 47.6395C48.4546 47.3597 48.6478 47.0206 48.7842 46.622C48.9206 46.2195 48.9888 45.7654 48.9888 45.2594ZM52.2944 41.1777C52.2489 41.1508 52.1769 41.1374 52.0784 41.1374H51.5102V49.3757H52.4762V43.506C52.4762 43.4293 52.4743 43.345 52.4705 43.253C52.4668 43.1611 52.4611 43.0672 52.4535 42.9713L57.1644 49.1745C57.2212 49.2473 57.278 49.2991 57.3349 49.3297C57.3955 49.3604 57.4693 49.3757 57.5565 49.3757H58.1134V41.1374H57.1473V46.9726C57.1473 47.0608 57.1492 47.1528 57.153 47.2486C57.1568 47.3406 57.1644 47.4364 57.1757 47.536L52.4592 41.3271C52.3986 41.2505 52.3436 41.2006 52.2944 41.1777ZM63.3779 49.3757H62.2755V41.1374H63.3779V49.3757ZM66.2265 41.1777C66.1811 41.1508 66.1091 41.1374 66.0106 41.1374H65.4423V49.3757H66.4084V43.506C66.4084 43.4293 66.4065 43.345 66.4027 43.253C66.3989 43.1611 66.3932 43.0672 66.3856 42.9713L71.0965 49.1745C71.1533 49.2473 71.2102 49.2991 71.267 49.3297C71.3276 49.3604 71.4015 49.3757 71.4886 49.3757H72.0455V41.1374H71.0795V46.9726C71.0795 47.0608 71.0813 47.1528 71.0851 47.2486C71.0889 47.3406 71.0965 47.4364 71.1079 47.536L66.3913 41.3271C66.3307 41.2505 66.2758 41.2006 66.2265 41.1777ZM82.7029 49.3757H81.8505C81.752 49.3757 81.6724 49.3508 81.6118 49.301C81.5512 49.2512 81.5057 49.1879 81.4754 49.1113L80.714 47.1221H77.06L76.2986 49.1113C76.272 49.1803 76.2266 49.2416 76.1622 49.2952C76.0978 49.3489 76.0182 49.3757 75.9235 49.3757H75.0711L78.3273 41.1374H79.4467L82.7029 49.3757ZM77.3669 46.3173H80.4071L79.1285 42.9656C79.0452 42.7586 78.9637 42.4999 78.8842 42.1895C78.8425 42.3466 78.8008 42.4923 78.7591 42.6264C78.7213 42.7567 78.6834 42.8717 78.6455 42.9713L77.3669 46.3173ZM88.2398 48.4386H84.7166V41.1374H83.6142V49.3757H88.2398V48.4386ZM95.0098 41.1374V41.5513C95.0098 41.6817 94.97 41.8043 94.8904 41.9193L90.2818 48.4674H94.9302V49.3757H88.8385V48.9388C88.8385 48.8238 88.8745 48.7146 88.9464 48.6111L93.5607 42.0458H89.0544V41.1374H95.0098ZM101.812 49.3757H102.92V41.1374H101.812V44.811H97.4251V41.1374H96.317V49.3757H97.4251V45.6274H101.812V49.3757ZM109.812 41.1374V42.0458H105.902V44.7823H109.067V45.6561H105.902V48.4674H109.812V49.3757H104.794V41.1374H109.812ZM111.489 49.3757H112.591V41.1374H111.489V49.3757ZM118.662 46.3977C118.715 46.4897 118.76 46.5875 118.798 46.6909C118.84 46.7906 118.879 46.8922 118.917 46.9956C118.955 46.8883 118.995 46.7868 119.037 46.6909C119.078 46.5913 119.126 46.4916 119.179 46.392L121.935 41.3271C121.984 41.239 122.035 41.1853 122.088 41.1662C122.141 41.147 122.217 41.1374 122.316 41.1374H123.128V49.3757H122.162V43.322C122.162 43.2415 122.164 43.1553 122.168 43.0633C122.172 42.9713 122.177 42.8774 122.185 42.7816L119.395 47.9327C119.3 48.1052 119.167 48.1914 118.997 48.1914H118.838C118.667 48.1914 118.535 48.1052 118.44 47.9327L115.587 42.7644C115.599 42.864 115.606 42.9618 115.61 43.0576C115.618 43.1534 115.621 43.2415 115.621 43.322V49.3757H114.655V41.1374H115.468C115.567 41.1374 115.642 41.147 115.695 41.1662C115.748 41.1853 115.799 41.239 115.849 41.3271L118.662 46.3977ZM130.015 42.0458V41.1374H124.997V49.3757H130.015V48.4674H126.105V45.6561H129.27V44.7823H126.105V42.0458H130.015ZM132.697 45.9378V49.3757H131.601V41.1374H133.902C134.417 41.1374 134.862 41.1911 135.238 41.2984C135.613 41.4019 135.921 41.5533 136.164 41.7526C136.41 41.9519 136.592 42.1933 136.709 42.4769C136.827 42.7567 136.885 43.071 136.885 43.4198C136.885 43.711 136.84 43.9832 136.749 44.2361C136.658 44.4891 136.526 44.7171 136.351 44.9203C136.181 45.1196 135.971 45.2901 135.721 45.4319C135.474 45.5737 135.194 45.681 134.88 45.7539C135.016 45.8343 135.137 45.9512 135.243 46.1045L137.619 49.3757H136.641C136.44 49.3757 136.293 49.2971 136.198 49.14L134.084 46.1965C134.02 46.1045 133.949 46.0394 133.874 46.0011C133.798 45.9589 133.684 45.9378 133.533 45.9378H132.697ZM132.697 45.1272H133.851C134.173 45.1272 134.455 45.0889 134.698 45.0122C134.944 44.9318 135.148 44.8206 135.311 44.6788C135.478 44.5332 135.603 44.3607 135.686 44.1614C135.77 43.9621 135.811 43.7417 135.811 43.5003C135.811 43.0097 135.65 42.6398 135.328 42.3907C135.01 42.1416 134.535 42.017 133.902 42.017H132.697V45.1272ZM139.477 41.2581C139.428 41.0742 139.349 40.8902 139.239 40.7062L138.619 40.9592C138.517 41.0014 138.466 41.0684 138.466 41.1604C138.466 41.2026 138.479 41.2447 138.506 41.2869C138.593 41.4325 138.653 41.5705 138.687 41.7008C138.725 41.8311 138.744 41.9576 138.744 42.0802C138.744 42.1952 138.731 42.3045 138.705 42.4079C138.678 42.5114 138.642 42.6111 138.597 42.7069C138.551 42.7989 138.5 42.8889 138.443 42.9771C138.386 43.0614 138.328 43.14 138.267 43.2128C138.229 43.2511 138.21 43.2971 138.21 43.3508C138.21 43.3738 138.214 43.3968 138.221 43.4198C138.233 43.4428 138.254 43.4638 138.284 43.483L138.597 43.6785C138.896 43.414 139.129 43.1246 139.295 42.8104C139.466 42.4923 139.551 42.1588 139.551 41.8101C139.551 41.6261 139.527 41.4421 139.477 41.2581ZM145.153 42.4252C145.119 42.4827 145.083 42.5268 145.045 42.5574C145.007 42.5842 144.958 42.5977 144.898 42.5977C144.833 42.5977 144.757 42.5651 144.67 42.4999C144.587 42.4348 144.479 42.3639 144.346 42.2872C144.218 42.2067 144.06 42.1339 143.875 42.0688C143.693 42.0036 143.471 41.971 143.21 41.971C142.964 41.971 142.746 42.0055 142.556 42.0745C142.367 42.1397 142.208 42.2297 142.079 42.3447C141.954 42.4597 141.859 42.5957 141.795 42.7529C141.73 42.9062 141.698 43.0729 141.698 43.253C141.698 43.483 141.753 43.6746 141.863 43.8279C141.977 43.9774 142.124 44.1058 142.306 44.2131C142.492 44.3204 142.7 44.4143 142.931 44.4948C143.166 44.5715 143.405 44.652 143.647 44.7363C143.894 44.8206 144.132 44.9164 144.363 45.0237C144.598 45.1272 144.807 45.2594 144.988 45.4204C145.174 45.5814 145.322 45.7788 145.432 46.0126C145.545 46.2463 145.602 46.5338 145.602 46.8749C145.602 47.2352 145.542 47.5744 145.42 47.8925C145.299 48.2068 145.121 48.4808 144.886 48.7146C144.655 48.9484 144.369 49.1323 144.028 49.2665C143.691 49.4006 143.306 49.4677 142.875 49.4677C142.348 49.4677 141.867 49.3719 141.431 49.1803C140.999 48.9848 140.63 48.7223 140.323 48.3926L140.641 47.8637C140.672 47.8216 140.708 47.7871 140.749 47.7603C140.795 47.7296 140.844 47.7143 140.897 47.7143C140.977 47.7143 141.068 47.7583 141.17 47.8465C141.272 47.9308 141.399 48.0247 141.551 48.1282C141.706 48.2317 141.891 48.3275 142.107 48.4156C142.327 48.5 142.594 48.5421 142.909 48.5421C143.17 48.5421 143.403 48.5057 143.608 48.4329C143.812 48.3601 143.985 48.2585 144.125 48.1282C144.269 47.994 144.379 47.835 144.454 47.651C144.53 47.4671 144.568 47.262 144.568 47.0359C144.568 46.7868 144.511 46.5836 144.397 46.4265C144.288 46.2655 144.142 46.1314 143.96 46.0241C143.778 45.9167 143.57 45.8267 143.335 45.7539C143.104 45.6772 142.865 45.6006 142.619 45.5239C142.376 45.4434 142.138 45.3514 141.903 45.2479C141.672 45.1445 141.465 45.0103 141.283 44.8455C141.102 44.6807 140.954 44.4757 140.84 44.2304C140.73 43.9813 140.675 43.6746 140.675 43.3105C140.675 43.0192 140.73 42.7376 140.84 42.4654C140.954 42.1933 141.117 41.9519 141.329 41.7411C141.541 41.5303 141.802 41.3616 142.113 41.2351C142.428 41.1087 142.787 41.0454 143.193 41.0454C143.647 41.0454 144.062 41.1182 144.437 41.2639C144.812 41.4095 145.14 41.6203 145.42 41.8963L145.153 42.4252ZM4.995 55.5885C5.03289 55.5578 5.06888 55.5137 5.10297 55.4562L5.37006 54.9273C5.08971 54.6514 4.76202 54.4406 4.38697 54.2949C4.01191 54.1493 3.59709 54.0765 3.14248 54.0765C2.73712 54.0765 2.37722 54.1397 2.06278 54.2662C1.75213 54.3927 1.49074 54.5613 1.27858 54.7721C1.06643 54.9829 0.903533 55.2244 0.789881 55.4965C0.680018 55.7686 0.625086 56.0503 0.625086 56.3416C0.625086 56.7057 0.680018 57.0123 0.789881 57.2614C0.903533 57.5067 1.05128 57.7118 1.23312 57.8766C1.41497 58.0414 1.62143 58.1755 1.85253 58.279C2.08741 58.3825 2.32608 58.4745 2.56853 58.5549C2.81478 58.6316 3.05345 58.7083 3.28454 58.7849C3.51942 58.8577 3.72779 58.9478 3.90963 59.0551C4.09147 59.1624 4.23733 59.2966 4.34719 59.4575C4.46084 59.6147 4.51767 59.8178 4.51767 60.0669C4.51767 60.2931 4.47978 60.4981 4.40401 60.6821C4.32825 60.866 4.21838 61.0251 4.07442 61.1592C3.93425 61.2895 3.76188 61.3911 3.55731 61.4639C3.35273 61.5368 3.11975 61.5732 2.85835 61.5732C2.54391 61.5732 2.27683 61.531 2.0571 61.4467C1.84116 61.3585 1.65553 61.2627 1.50021 61.1592C1.34867 61.0558 1.22176 60.9619 1.11947 60.8775C1.01719 60.7894 0.926264 60.7453 0.846707 60.7453C0.79367 60.7453 0.744421 60.7607 0.69896 60.7913C0.657287 60.8181 0.621297 60.8526 0.59099 60.8948L0.272765 61.4237C0.579625 61.7533 0.948994 62.0158 1.38087 62.2113C1.81654 62.4029 2.29766 62.4988 2.82425 62.4988C3.25613 62.4988 3.64065 62.4317 3.97782 62.2975C4.31878 62.1634 4.6048 61.9794 4.83589 61.7456C5.07077 61.5118 5.24883 61.2378 5.37006 60.9235C5.49128 60.6054 5.5519 60.2662 5.5519 59.906C5.5519 59.5649 5.49507 59.2774 5.38142 59.0436C5.27156 58.8098 5.12381 58.6124 4.93818 58.4515C4.75634 58.2905 4.54797 58.1583 4.31309 58.0548C4.082 57.9475 3.84333 57.8517 3.59708 57.7673C3.35463 57.683 3.11596 57.6025 2.88108 57.5259C2.64999 57.4454 2.44162 57.3515 2.25599 57.2442C2.07415 57.1369 1.9264 57.0085 1.81275 56.859C1.70289 56.7057 1.64795 56.5141 1.64795 56.2841C1.64795 56.104 1.68016 55.9372 1.74456 55.7839C1.80896 55.6268 1.90367 55.4907 2.02869 55.3758C2.15749 55.2608 2.31661 55.1707 2.50603 55.1056C2.69545 55.0366 2.91328 55.0021 3.15953 55.0021C3.42092 55.0021 3.64255 55.0346 3.82439 55.0998C4.01002 55.165 4.16724 55.2378 4.29604 55.3183C4.42864 55.3949 4.53661 55.4658 4.61995 55.531C4.70709 55.5961 4.78285 55.6287 4.84726 55.6287C4.90787 55.6287 4.95712 55.6153 4.995 55.5885ZM12.5844 60.7051C12.645 60.7051 12.6999 60.73 12.7492 60.7798L13.1811 61.257C12.8477 61.6479 12.4423 61.9526 11.965 62.1711C11.4914 62.3895 10.9194 62.4988 10.2488 62.4988C9.66163 62.4988 9.12936 62.3972 8.65202 62.1941C8.17469 61.9871 7.76743 61.6996 7.43026 61.3317C7.0931 60.9599 6.8317 60.5154 6.64607 59.9979C6.46043 59.4805 6.36762 58.9114 6.36762 58.2905C6.36762 57.6696 6.46612 57.1005 6.66311 56.583C6.8639 56.0656 7.14424 55.621 7.50414 55.2493C7.86404 54.8775 8.29402 54.5901 8.79409 54.3869C9.29795 54.18 9.85294 54.0765 10.4591 54.0765C11.0577 54.0765 11.5729 54.1704 12.0048 54.3582C12.4404 54.546 12.8268 54.8008 13.164 55.1228L12.806 55.6345C12.7795 55.6728 12.7492 55.7054 12.7151 55.7322C12.681 55.7552 12.6317 55.7667 12.5673 55.7667C12.5181 55.7667 12.465 55.7494 12.4082 55.7149C12.3552 55.6766 12.2908 55.6306 12.215 55.577C12.1392 55.5233 12.0502 55.4658 11.9479 55.4045C11.8456 55.3432 11.7244 55.2857 11.5842 55.232C11.4441 55.1784 11.2812 55.1343 11.0955 55.0998C10.9099 55.0615 10.6959 55.0423 10.4534 55.0423C10.0177 55.0423 9.61807 55.119 9.25438 55.2723C8.89448 55.4217 8.58383 55.6364 8.32243 55.9162C8.06103 56.1959 7.85646 56.5371 7.70871 56.9395C7.56475 57.3419 7.49277 57.7922 7.49277 58.2905C7.49277 58.8041 7.56475 59.2621 7.70871 59.6645C7.85646 60.0669 8.05535 60.408 8.30538 60.6878C8.55921 60.9638 8.85849 61.1746 9.20323 61.3202C9.54798 61.4659 9.91924 61.5387 10.317 61.5387C10.5595 61.5387 10.7773 61.5253 10.9705 61.4984C11.1637 61.4678 11.3418 61.4218 11.5047 61.3605C11.6714 61.2991 11.8248 61.2225 11.965 61.1305C12.1089 61.0347 12.2529 60.9216 12.3969 60.7913C12.4613 60.7338 12.5238 60.7051 12.5844 60.7051ZM15.722 62.4068V58.9689H16.5573C16.7089 58.9689 16.8225 58.99 16.8983 59.0321C16.974 59.0704 17.0441 59.1356 17.1085 59.2276L19.2225 62.1711C19.3172 62.3282 19.4649 62.4068 19.6657 62.4068H20.6431L18.2678 59.1356C18.1617 58.9823 18.0405 58.8654 17.9041 58.7849C18.2185 58.7121 18.4989 58.6048 18.7451 58.463C18.9952 58.3212 19.2054 58.1506 19.3759 57.9513C19.5502 57.7482 19.6827 57.5201 19.7737 57.2672C19.8646 57.0142 19.9101 56.7421 19.9101 56.4508C19.9101 56.102 19.8513 55.7878 19.7339 55.508C19.6164 55.2244 19.4346 54.9829 19.1884 54.7836C18.9459 54.5843 18.6371 54.4329 18.2621 54.3294C17.887 54.2221 17.4419 54.1685 16.9267 54.1685H14.6252V62.4068H15.722ZM16.8755 58.1583H15.722V55.0481H16.9267C17.5593 55.0481 18.0348 55.1726 18.353 55.4217C18.675 55.6709 18.836 56.0407 18.836 56.5313C18.836 56.7728 18.7944 56.9931 18.711 57.1924C18.6277 57.3917 18.5027 57.5642 18.336 57.7098C18.1731 57.8517 17.9685 57.9628 17.7222 58.0433C17.4798 58.1199 17.1976 58.1583 16.8755 58.1583ZM26.7298 54.1685V55.0768H22.8202V57.8133H25.9854V58.6872H22.8202V61.4984H26.7298V62.4068H21.7121V54.1685H26.7298ZM33.2199 55.0768V54.1685H28.2022V62.4068H33.2199V61.4984H29.3103V58.6872H32.4755V57.8133H29.3103V55.0768H33.2199ZM35.2606 54.1685C35.3591 54.1685 35.4311 54.1819 35.4766 54.2087C35.5258 54.2317 35.5807 54.2815 35.6413 54.3582L40.3579 60.5671C40.3465 60.4674 40.339 60.3716 40.3352 60.2796C40.3314 60.1838 40.3295 60.0918 40.3295 60.0037V54.1685H41.2955V62.4068H40.7386C40.6515 62.4068 40.5776 62.3914 40.517 62.3608C40.4602 62.3301 40.4034 62.2784 40.3465 62.2056L35.6357 56.0024C35.6432 56.0982 35.6489 56.1921 35.6527 56.2841C35.6565 56.3761 35.6584 56.4604 35.6584 56.537V62.4068H34.6924V54.1685H35.2606ZM48.1869 55.0768V54.1685H43.1692V62.4068H48.1869V61.4984H44.2773V58.6872H47.4425V57.8133H44.2773V55.0768H48.1869ZM50.8697 58.9689V62.4068H49.773V54.1685H52.0744C52.5897 54.1685 53.0348 54.2221 53.4099 54.3294C53.7849 54.4329 54.0937 54.5843 54.3361 54.7836C54.5824 54.9829 54.7642 55.2244 54.8816 55.508C54.9991 55.7878 55.0578 56.102 55.0578 56.4508C55.0578 56.7421 55.0124 57.0142 54.9214 57.2672C54.8305 57.5201 54.6979 57.7482 54.5237 57.9513C54.3532 58.1506 54.1429 58.3212 53.8929 58.463C53.6466 58.6048 53.3663 58.7121 53.0518 58.7849C53.1882 58.8654 53.3095 58.9823 53.4155 59.1356L55.7909 62.4068H54.8135C54.6127 62.4068 54.4649 62.3282 54.3702 62.1711L52.2563 59.2276C52.1919 59.1356 52.1218 59.0704 52.046 59.0321C51.9703 58.99 51.8566 58.9689 51.7051 58.9689H50.8697ZM50.8697 58.1583H52.0233C52.3453 58.1583 52.6275 58.1199 52.87 58.0433C53.1163 57.9628 53.3208 57.8517 53.4837 57.7098C53.6504 57.5642 53.7754 57.3917 53.8588 57.1924C53.9421 56.9931 53.9838 56.7728 53.9838 56.5313C53.9838 56.0407 53.8228 55.6709 53.5008 55.4217C53.1826 55.1726 52.7071 55.0481 52.0744 55.0481H50.8697V58.1583ZM63.9615 55.0768V54.1685H58.9437V62.4068H60.0518V58.8654H63.3932V57.9571H60.0518V55.0768H63.9615ZM72.8309 58.2905C72.8309 58.9075 72.7343 59.4748 72.5411 59.9922C72.3479 60.5058 72.0751 60.9484 71.7228 61.3202C71.3705 61.692 70.9462 61.9813 70.4499 62.1883C69.9574 62.3914 69.4119 62.493 68.8133 62.493C68.2148 62.493 67.6693 62.3914 67.1768 62.1883C66.6843 61.9813 66.2618 61.692 65.9095 61.3202C65.5572 60.9484 65.2844 60.5058 65.0912 59.9922C64.898 59.4748 64.8014 58.9075 64.8014 58.2905C64.8014 57.6734 64.898 57.1081 65.0912 56.5945C65.2844 56.0771 65.5572 55.6325 65.9095 55.2608C66.2618 54.8852 66.6843 54.5939 67.1768 54.3869C67.6693 54.18 68.2148 54.0765 68.8133 54.0765C69.4119 54.0765 69.9574 54.18 70.4499 54.3869C70.9462 54.5939 71.3705 54.8852 71.7228 55.2608C72.0751 55.6325 72.3479 56.0771 72.5411 56.5945C72.7343 57.1081 72.8309 57.6734 72.8309 58.2905ZM71.7001 58.2905C71.7001 57.7846 71.6319 57.3304 71.4955 56.928C71.3591 56.5256 71.1659 56.1864 70.9159 55.9104C70.6659 55.6306 70.3628 55.416 70.0067 55.2665C69.6506 55.1171 69.2528 55.0423 68.8133 55.0423C68.3777 55.0423 67.9818 55.1171 67.6257 55.2665C67.2696 55.416 66.9646 55.6306 66.7108 55.9104C66.4607 56.1864 66.2675 56.5256 66.1312 56.928C65.9948 57.3304 65.9266 57.7846 65.9266 58.2905C65.9266 58.7964 65.9948 59.2506 66.1312 59.653C66.2675 60.0516 66.4607 60.3908 66.7108 60.6706C66.9646 60.9465 67.2696 61.1592 67.6257 61.3087C67.9818 61.4544 68.3777 61.5272 68.8133 61.5272C69.2528 61.5272 69.6506 61.4544 70.0067 61.3087C70.3628 61.1592 70.6659 60.9465 70.9159 60.6706C71.1659 60.3908 71.3591 60.0516 71.4955 59.653C71.6319 59.2506 71.7001 58.7964 71.7001 58.2905ZM75.4319 62.4068V58.9689H76.2672C76.4188 58.9689 76.5324 58.99 76.6082 59.0321C76.6839 59.0704 76.754 59.1356 76.8184 59.2276L78.9324 62.1711C79.0271 62.3282 79.1748 62.4068 79.3756 62.4068H80.353L77.9777 59.1356C77.8716 58.9823 77.7504 58.8654 77.614 58.7849C77.9284 58.7121 78.2088 58.6048 78.455 58.463C78.7051 58.3212 78.9153 58.1506 79.0858 57.9513C79.2601 57.7482 79.3927 57.5201 79.4836 57.2672C79.5745 57.0142 79.62 56.7421 79.62 56.4508C79.62 56.102 79.5612 55.7878 79.4438 55.508C79.3264 55.2244 79.1445 54.9829 78.8983 54.7836C78.6558 54.5843 78.3471 54.4329 77.972 54.3294C77.5969 54.2221 77.1518 54.1685 76.6366 54.1685H74.3351V62.4068H75.4319ZM76.5854 58.1583H75.4319V55.0481H76.6366C77.2693 55.0481 77.7447 55.1726 78.0629 55.4217C78.3849 55.6709 78.5459 56.0407 78.5459 56.5313C78.5459 56.7728 78.5043 56.9931 78.4209 57.1924C78.3376 57.3917 78.2126 57.5642 78.0459 57.7098C77.883 57.8517 77.6784 57.9628 77.4322 58.0433C77.1897 58.1199 76.9075 58.1583 76.5854 58.1583ZM89.2453 60.7051C89.3059 60.7051 89.3608 60.73 89.4101 60.7798L89.842 61.257C89.5086 61.6479 89.1032 61.9526 88.6259 62.1711C88.1524 62.3895 87.5803 62.4988 86.9098 62.4988C86.3226 62.4988 85.7903 62.3972 85.313 62.1941C84.8356 61.9871 84.4284 61.6996 84.0912 61.3317C83.754 60.9599 83.4926 60.5154 83.307 59.9979C83.1214 59.4805 83.0285 58.9114 83.0285 58.2905C83.0285 57.6696 83.127 57.1005 83.324 56.583C83.5248 56.0656 83.8052 55.621 84.1651 55.2493C84.525 54.8775 84.9549 54.5901 85.455 54.3869C85.9589 54.18 86.5139 54.0765 87.12 54.0765C87.7186 54.0765 88.2338 54.1704 88.6657 54.3582C89.1013 54.546 89.4878 54.8008 89.8249 55.1228L89.4669 55.6345C89.4404 55.6728 89.4101 55.7054 89.376 55.7322C89.3419 55.7552 89.2927 55.7667 89.2283 55.7667C89.179 55.7667 89.126 55.7494 89.0691 55.7149C89.0161 55.6766 88.9517 55.6306 88.8759 55.577C88.8002 55.5233 88.7111 55.4658 88.6089 55.4045C88.5066 55.3432 88.3853 55.2857 88.2452 55.232C88.105 55.1784 87.9421 55.1343 87.7565 55.0998C87.5708 55.0615 87.3568 55.0423 87.1143 55.0423C86.6787 55.0423 86.279 55.119 85.9153 55.2723C85.5554 55.4217 85.2448 55.6364 84.9834 55.9162C84.722 56.1959 84.5174 56.5371 84.3696 56.9395C84.2257 57.3419 84.1537 57.7922 84.1537 58.2905C84.1537 58.8041 84.2257 59.2621 84.3696 59.6645C84.5174 60.0669 84.7163 60.408 84.9663 60.6878C85.2201 60.9638 85.5194 61.1746 85.8642 61.3202C86.2089 61.4659 86.5802 61.5387 86.978 61.5387C87.2204 61.5387 87.4382 61.5253 87.6314 61.4984C87.8247 61.4678 88.0027 61.4218 88.1656 61.3605C88.3323 61.2991 88.4857 61.2225 88.6259 61.1305C88.7699 61.0347 88.9138 60.9216 89.0578 60.7913C89.1222 60.7338 89.1847 60.7051 89.2453 60.7051ZM97.0199 62.4068H97.8723L94.6162 54.1685H93.4967L90.2406 62.4068H91.0929C91.1877 62.4068 91.2672 62.3799 91.3316 62.3263C91.396 62.2726 91.4415 62.2113 91.468 62.1423L92.2295 60.1532H95.8834L96.6448 62.1423C96.6751 62.219 96.7206 62.2822 96.7812 62.332C96.8418 62.3819 96.9214 62.4068 97.0199 62.4068ZM95.5765 59.3483H92.5363L93.8149 56.0024C93.8528 55.9027 93.8907 55.7878 93.9286 55.6575C93.9702 55.5233 94.0119 55.3777 94.0536 55.2205C94.1331 55.531 94.2146 55.7897 94.2979 55.9966L95.5765 59.3483ZM99.994 58.9689V62.4068H98.8973V54.1685H101.199C101.714 54.1685 102.159 54.2221 102.534 54.3294C102.909 54.4329 103.218 54.5843 103.46 54.7836C103.707 54.9829 103.888 55.2244 104.006 55.508C104.123 55.7878 104.182 56.102 104.182 56.4508C104.182 56.7421 104.137 57.0142 104.046 57.2672C103.955 57.5201 103.822 57.7482 103.648 57.9513C103.477 58.1506 103.267 58.3212 103.017 58.463C102.771 58.6048 102.491 58.7121 102.176 58.7849C102.313 58.8654 102.434 58.9823 102.54 59.1356L104.915 62.4068H103.938C103.737 62.4068 103.589 62.3282 103.494 62.1711L101.381 59.2276C101.316 59.1356 101.246 59.0704 101.17 59.0321C101.095 58.99 100.981 58.9689 100.829 58.9689H99.994ZM99.994 58.1583H101.148C101.47 58.1583 101.752 58.1199 101.994 58.0433C102.241 57.9628 102.445 57.8517 102.608 57.7098C102.775 57.5642 102.9 57.3917 102.983 57.1924C103.066 56.9931 103.108 56.7728 103.108 56.5313C103.108 56.0407 102.947 55.6709 102.625 55.4217C102.307 55.1726 101.831 55.0481 101.199 55.0481H99.994V58.1583ZM111.002 55.0768V54.1685H105.984V62.4068H111.002V61.4984H107.092V58.6872H110.257V57.8133H107.092V55.0768H111.002ZM116.105 61.5962C116.325 61.5962 116.526 61.5866 116.708 61.5674C116.893 61.5444 117.068 61.5118 117.231 61.4697C117.394 61.4275 117.547 61.3777 117.691 61.3202C117.835 61.2589 117.979 61.1899 118.123 61.1133V59.2966H116.861C116.789 59.2966 116.731 59.2755 116.685 59.2333C116.643 59.1912 116.623 59.1394 116.623 59.0781V58.4457H119.123V61.6077C118.918 61.7571 118.704 61.8874 118.481 61.9986C118.261 62.1097 118.024 62.2036 117.77 62.2803C117.52 62.3531 117.251 62.4068 116.964 62.4413C116.676 62.4796 116.363 62.4988 116.026 62.4988C115.435 62.4988 114.893 62.3972 114.401 62.1941C113.908 61.9871 113.484 61.6996 113.128 61.3317C112.772 60.9599 112.493 60.5154 112.292 59.9979C112.095 59.4805 111.997 58.9114 111.997 58.2905C111.997 57.6619 112.094 57.089 112.287 56.5715C112.484 56.0541 112.762 55.6115 113.122 55.2435C113.486 54.8718 113.923 54.5843 114.435 54.3812C114.95 54.178 115.526 54.0765 116.162 54.0765C116.484 54.0765 116.784 54.1014 117.06 54.1512C117.337 54.1972 117.592 54.2662 117.827 54.3582C118.066 54.4463 118.286 54.5556 118.486 54.6859C118.687 54.8124 118.875 54.9561 119.049 55.1171L118.736 55.623C118.672 55.7264 118.589 55.7782 118.486 55.7782C118.426 55.7782 118.36 55.7571 118.288 55.7149C118.193 55.6613 118.087 55.5961 117.969 55.5195C117.852 55.4428 117.708 55.37 117.537 55.301C117.371 55.2282 117.172 55.1669 116.941 55.1171C116.713 55.0672 116.443 55.0423 116.128 55.0423C115.67 55.0423 115.255 55.119 114.884 55.2723C114.512 55.4217 114.196 55.6383 113.935 55.9219C113.673 56.2017 113.472 56.5428 113.332 56.9452C113.192 57.3438 113.122 57.7922 113.122 58.2905C113.122 58.8117 113.194 59.2774 113.338 59.6875C113.486 60.0938 113.692 60.4387 113.957 60.7223C114.223 61.0059 114.537 61.2225 114.901 61.372C115.264 61.5214 115.666 61.5962 116.105 61.5962ZM120.911 62.4068H122.014V54.1685H120.911V62.4068ZM123.135 54.1685H124.016C124.114 54.1685 124.194 54.1934 124.254 54.2432C124.315 54.293 124.361 54.3563 124.391 54.4329L126.692 60.2452C126.745 60.3755 126.793 60.5173 126.834 60.6706C126.88 60.8239 126.923 60.9829 126.965 61.1477C126.999 60.9829 127.035 60.8239 127.073 60.6706C127.115 60.5173 127.162 60.3755 127.215 60.2452L129.505 54.4329C129.532 54.3678 129.577 54.3084 129.642 54.2547C129.706 54.1972 129.786 54.1685 129.88 54.1685H130.767L127.448 62.4068H126.454L123.135 54.1685ZM136.707 55.0768V54.1685H131.689V62.4068H136.707V61.4984H132.798V58.6872H135.963V57.8133H132.798V55.0768H136.707ZM139.39 58.9689V62.4068H138.293V54.1685H140.595C141.11 54.1685 141.555 54.2221 141.93 54.3294C142.305 54.4329 142.614 54.5843 142.856 54.7836C143.103 54.9829 143.284 55.2244 143.402 55.508C143.519 55.7878 143.578 56.102 143.578 56.4508C143.578 56.7421 143.533 57.0142 143.442 57.2672C143.351 57.5201 143.218 57.7482 143.044 57.9513C142.873 58.1506 142.663 58.3212 142.413 58.463C142.167 58.6048 141.887 58.7121 141.572 58.7849C141.708 58.8654 141.83 58.9823 141.936 59.1356L144.311 62.4068H143.334C143.133 62.4068 142.985 62.3282 142.89 62.1711L140.777 59.2276C140.712 59.1356 140.642 59.0704 140.566 59.0321C140.491 58.99 140.377 58.9689 140.225 58.9689H139.39ZM139.39 58.1583H140.544C140.866 58.1583 141.148 58.1199 141.39 58.0433C141.637 57.9628 141.841 57.8517 142.004 57.7098C142.171 57.5642 142.296 57.3917 142.379 57.1924C142.462 56.9931 142.504 56.7728 142.504 56.5313C142.504 56.0407 142.343 55.6709 142.021 55.4217C141.703 55.1726 141.227 55.0481 140.595 55.0481H139.39V58.1583ZM149.443 55.5885C149.481 55.5578 149.517 55.5137 149.551 55.4562L149.818 54.9273C149.538 54.6514 149.21 54.4406 148.835 54.2949C148.46 54.1493 148.045 54.0765 147.591 54.0765C147.185 54.0765 146.825 54.1397 146.511 54.2662C146.2 54.3927 145.939 54.5613 145.727 54.7721C145.515 54.9829 145.352 55.2244 145.238 55.4965C145.128 55.7686 145.073 56.0503 145.073 56.3416C145.073 56.7057 145.128 57.0123 145.238 57.2614C145.352 57.5067 145.499 57.7118 145.681 57.8766C145.863 58.0414 146.07 58.1755 146.301 58.279C146.536 58.3825 146.774 58.4745 147.017 58.5549C147.263 58.6316 147.502 58.7083 147.733 58.7849C147.968 58.8577 148.176 58.9478 148.358 59.0551C148.54 59.1624 148.685 59.2966 148.795 59.4575C148.909 59.6147 148.966 59.8178 148.966 60.0669C148.966 60.2931 148.928 60.4981 148.852 60.6821C148.776 60.866 148.667 61.0251 148.523 61.1592C148.382 61.2895 148.21 61.3911 148.005 61.4639C147.801 61.5368 147.568 61.5732 147.306 61.5732C146.992 61.5732 146.725 61.531 146.505 61.4467C146.289 61.3585 146.104 61.2627 145.948 61.1592C145.797 61.0558 145.67 60.9619 145.568 60.8775C145.465 60.7894 145.374 60.7453 145.295 60.7453C145.242 60.7453 145.193 60.7607 145.147 60.7913C145.105 60.8181 145.069 60.8526 145.039 60.8948L144.721 61.4237C145.028 61.7533 145.397 62.0158 145.829 62.2113C146.265 62.4029 146.746 62.4988 147.272 62.4988C147.704 62.4988 148.089 62.4317 148.426 62.2975C148.767 62.1634 149.053 61.9794 149.284 61.7456C149.519 61.5118 149.697 61.2378 149.818 60.9235C149.939 60.6054 150 60.2662 150 59.906C150 59.5649 149.943 59.2774 149.83 59.0436C149.72 58.8098 149.572 58.6124 149.386 58.4515C149.204 58.2905 148.996 58.1583 148.761 58.0548C148.53 57.9475 148.291 57.8517 148.045 57.7673C147.803 57.683 147.564 57.6025 147.329 57.5259C147.098 57.4454 146.89 57.3515 146.704 57.2442C146.522 57.1369 146.375 57.0085 146.261 56.859C146.151 56.7057 146.096 56.5141 146.096 56.2841C146.096 56.104 146.128 55.9372 146.193 55.7839C146.257 55.6268 146.352 55.4907 146.477 55.3758C146.606 55.2608 146.765 55.1707 146.954 55.1056C147.144 55.0366 147.361 55.0021 147.608 55.0021C147.869 55.0021 148.091 55.0346 148.272 55.0998C148.458 55.165 148.615 55.2378 148.744 55.3183C148.877 55.3949 148.985 55.4658 149.068 55.531C149.155 55.5961 149.231 55.6287 149.295 55.6287C149.356 55.6287 149.405 55.6153 149.443 55.5885ZM125.068 11.6318H124.805V12.3057H128.809V11.6318H128.525C128.395 11.6318 128.271 11.6253 128.154 11.6123C128.044 11.5928 127.943 11.5602 127.852 11.5146C127.767 11.4626 127.699 11.391 127.646 11.2998C127.594 11.2087 127.562 11.085 127.549 10.9287V8.58496H128.604L130.811 12.3057H132.93V11.6318C132.767 11.6318 132.627 11.6253 132.51 11.6123C132.399 11.5993 132.301 11.5732 132.217 11.5342C132.132 11.4951 132.057 11.443 131.992 11.3779C131.934 11.3063 131.872 11.2152 131.807 11.1045L130.029 8.24316C130.257 8.17155 130.479 8.07715 130.693 7.95996C130.915 7.83626 131.11 7.68652 131.279 7.51074C131.449 7.33496 131.585 7.12663 131.689 6.88574C131.794 6.64486 131.846 6.36491 131.846 6.0459C131.846 4.45736 130.7 3.66309 128.408 3.66309H124.805V4.36621H125.068C125.199 4.36621 125.322 4.37272 125.439 4.38574C125.557 4.39876 125.661 4.43132 125.752 4.4834C125.843 4.52897 125.915 4.60059 125.967 4.69824C126.019 4.78939 126.045 4.91309 126.045 5.06934V10.9287C126.045 11.085 126.019 11.2087 125.967 11.2998C125.915 11.391 125.843 11.4626 125.752 11.5146C125.661 11.5602 125.557 11.5928 125.439 11.6123C125.322 11.6253 125.199 11.6318 125.068 11.6318ZM128.389 7.82324H127.549V4.44434H128.33C128.682 4.44434 128.978 4.47363 129.219 4.53223C129.466 4.59082 129.665 4.68522 129.814 4.81543C129.971 4.93913 130.085 5.10514 130.156 5.31348C130.228 5.52181 130.264 5.77246 130.264 6.06543C130.264 6.36491 130.231 6.62533 130.166 6.84668C130.107 7.06803 130.007 7.25033 129.863 7.39355C129.72 7.53678 129.528 7.64421 129.287 7.71582C129.046 7.78744 128.747 7.82324 128.389 7.82324ZM121.514 6.03613C121.338 6.66113 121.25 7.31217 121.25 7.98926C121.25 8.66634 121.338 9.31738 121.514 9.94238C121.689 10.5674 121.934 11.1533 122.246 11.7002C122.565 12.2406 122.946 12.7354 123.389 13.1846C123.838 13.6273 124.333 14.0081 124.873 14.3271C125.42 14.6462 126.006 14.8936 126.631 15.0693C127.256 15.2386 127.907 15.3232 128.584 15.3232C129.261 15.3232 129.912 15.2386 130.537 15.0693C131.169 14.8936 131.755 14.6462 132.295 14.3271C132.842 14.0081 133.34 13.6273 133.789 13.1846C134.238 12.7354 134.622 12.2406 134.941 11.7002C135.26 11.1533 135.508 10.5674 135.684 9.94238C135.859 9.31738 135.947 8.66634 135.947 7.98926C135.947 7.31217 135.859 6.66113 135.684 6.03613C135.508 5.40462 135.26 4.81869 134.941 4.27832C134.622 3.73145 134.238 3.2334 133.789 2.78418C133.34 2.33496 132.842 1.95085 132.295 1.63184C131.755 1.31283 131.169 1.06543 130.537 0.889648C129.912 0.713867 129.261 0.625977 128.584 0.625977C127.907 0.625977 127.256 0.713867 126.631 0.889648C126.006 1.06543 125.42 1.31283 124.873 1.63184C124.333 1.95085 123.838 2.33496 123.389 2.78418C122.946 3.2334 122.565 3.73145 122.246 4.27832C121.934 4.81869 121.689 5.40462 121.514 6.03613ZM122.568 9.64941C122.419 9.11556 122.344 8.56217 122.344 7.98926C122.344 7.40983 122.419 6.85645 122.568 6.3291C122.718 5.79525 122.926 5.2972 123.193 4.83496C123.467 4.36621 123.792 3.94303 124.17 3.56543C124.554 3.18132 124.977 2.85579 125.439 2.58887C125.902 2.31543 126.396 2.10384 126.924 1.9541C127.458 1.80436 128.011 1.72949 128.584 1.72949C129.163 1.72949 129.72 1.80436 130.254 1.9541C130.788 2.10384 131.286 2.31543 131.748 2.58887C132.21 2.85579 132.63 3.18132 133.008 3.56543C133.392 3.94303 133.717 4.36621 133.984 4.83496C134.258 5.2972 134.469 5.79525 134.619 6.3291C134.769 6.86296 134.844 7.41634 134.844 7.98926C134.844 8.56217 134.769 9.11556 134.619 9.64941C134.469 10.1768 134.258 10.6715 133.984 11.1338C133.717 11.596 133.392 12.0192 133.008 12.4033C132.63 12.7809 132.21 13.1064 131.748 13.3799C131.286 13.6468 130.788 13.8551 130.254 14.0049C129.72 14.1546 129.163 14.2295 128.584 14.2295C128.011 14.2295 127.458 14.1546 126.924 14.0049C126.396 13.8551 125.902 13.6468 125.439 13.3799C124.977 13.1064 124.554 12.7809 124.17 12.4033C123.792 12.0192 123.467 11.596 123.193 11.1338C122.926 10.6715 122.718 10.1768 122.568 9.64941Z" fill="white"/>
</svg>
