<svg width="80" height="80" viewBox="0 0 80 80" fill="none" xmlns="http://www.w3.org/2000/svg">
<g clip-path="url(#clip0_1296_31274)">
<path fill-rule="evenodd" clip-rule="evenodd" d="M74.1151 51.9547C71.7496 61.8636 60.9165 66.4257 51.4157 69.924C43.0131 73.018 34.1629 73.187 25.9451 69.6918C16.7762 65.7921 7.7555 59.9364 5.15544 50.2487C2.3832 39.9195 5.87831 28.8262 12.7839 20.6537C19.6231 12.5597 29.897 7.45782 40.3572 8.58867C49.9965 9.63078 55.9349 18.2893 61.9098 25.9647C68.0829 33.8948 76.4619 42.1242 74.1151 51.9547Z" fill="#D1E3F4"/>
<path d="M58.5 51V55C58.5 56.6569 57.1569 58 55.5 58H33C31.3431 58 30 56.6569 30 55V20C30 18.3431 31.3431 17 33 17H47.2143C48.0353 17 48.8205 17.3365 49.3867 17.931L57.6724 26.631C58.2037 27.1889 58.5 27.9297 58.5 28.7V34" stroke="#2554C3" stroke-width="2.5" stroke-linecap="round" stroke-linejoin="round"/>
<path fill-rule="evenodd" clip-rule="evenodd" d="M72.0901 31.2407C73.3649 29.8379 73.2806 28.0224 72.1006 26.9504C70.9206 25.8784 69.2039 25.9412 67.9291 27.344L52.4621 44.2474L51.2199 50.0749L56.9024 48.2827L72.0901 31.2407ZM71.0155 28.4826C71.7303 29.1322 71.1069 29.7917 70.682 30.2593L69.5048 31.4419L68.0247 30.0968L69.2019 28.9142C69.6268 28.4466 70.3008 27.8331 71.0155 28.4826ZM53.9941 47.0223L55.8883 46.4249L67.966 33.1351L66.4859 31.79L54.4082 45.0798L53.9941 47.0223Z" fill="#2554C3"/>
<path d="M43.5 50L37 50" stroke="#2554C3" stroke-width="2.5" stroke-linecap="round"/>
<path d="M46.5 43L37 43" stroke="#2554C3" stroke-width="2.5" stroke-linecap="round"/>
<path d="M50 36L45 36" stroke="#2554C3" stroke-width="2.5" stroke-linecap="round"/>
<path d="M47.5 18.5V27.5C47.5 28.0523 47.9477 28.5 48.5 28.5H57.5" stroke="#2554C3" stroke-width="2.5" stroke-linecap="round" stroke-linejoin="round"/>
<path d="M35.7018 35.074L37.276 37.0372C37.6795 37.5404 38.4469 37.5356 38.8441 37.0273L42.5937 32.2288" stroke="#2554C3" stroke-width="2.5" stroke-linecap="round" stroke-linejoin="round"/>
</g>
<defs>
<clipPath id="clip0_1296_31274">
<rect width="80" height="80" fill="white"/>
</clipPath>
</defs>
</svg>
