<svg width="104" height="72" viewBox="0 0 104 72" fill="none" xmlns="http://www.w3.org/2000/svg">
<g id="Stylized icons">
<path id="Vector" fill-rule="evenodd" clip-rule="evenodd" d="M36.863 0.148266C47.3426 -0.917376 57.6373 3.87748 64.9671 10.7955C72.1815 17.6045 76.45 27.029 75.3196 36.4444C74.278 45.1198 66.1347 50.8167 59.4165 57.0275C52.6276 63.3036 46.5239 71.7958 36.863 71.9961C27.1088 72.1983 19.9181 64.4941 13.261 57.9845C6.91783 51.7819 0.277202 44.9262 0.505736 36.4444C0.730748 28.0932 8.2179 22.1037 14.3939 15.9381C21.0243 9.3189 27.0967 1.14138 36.863 0.148266Z" fill="#D1E3F4"/>
<path id="Vector_2" fill-rule="evenodd" clip-rule="evenodd" d="M49.3462 28.25C50.5902 28.25 51.7554 27.9178 52.7552 27.3386L54.1751 29.575H41.2693C41.2063 29.575 41.1444 29.5792 41.0838 29.5874C37.9591 29.721 35.3105 30.9226 33.4216 32.89C31.4671 34.9257 30.5246 37.5721 30.5005 40.1384C30.4765 42.7064 31.3722 45.3843 33.343 47.4504C35.0094 49.1974 37.2699 50.3234 39.9231 50.665V50.7488L39.923 50.7686V50.7749V64.0249C39.923 66.1433 41.6108 67.8894 43.7603 67.995C45.9097 68.1005 47.7657 66.5284 47.9798 64.4204L48.9624 54.7499H49.7297L50.7123 64.4204C50.9264 66.5284 52.7824 68.1005 54.9318 67.995C57.0813 67.8894 58.7691 66.1433 58.7691 64.0249V53.4428L58.7692 53.4249V37.525H61.4616C62.9297 37.525 64.282 36.7408 64.9937 35.4769C65.7054 34.213 65.6642 32.6686 64.8862 31.4432L58.1554 20.8432C57.5476 19.8861 56.5937 19.2714 55.5532 19.0583C54.5343 16.6741 52.1389 15 49.3462 15C45.6289 15 42.6154 17.9661 42.6154 21.625C42.6154 25.2838 45.6289 28.25 49.3462 28.25ZM49.3462 25.6C50.066 25.6 50.7419 25.4146 51.3272 25.0897L51.3062 25.0567C50.1241 23.1951 50.6991 20.7427 52.5904 19.5792C52.6433 19.5467 52.6966 19.5155 52.7505 19.4856C52.033 18.3818 50.7763 17.65 49.3462 17.65C47.1157 17.65 45.3077 19.4297 45.3077 21.625C45.3077 23.8204 47.1157 25.6 49.3462 25.6ZM55.8723 22.2477C55.4783 21.6272 54.6477 21.4385 54.0173 21.8264C53.3869 22.2142 53.1952 23.0317 53.5893 23.6522L57.7455 30.1977C58.0049 30.6061 58.0186 31.121 57.7813 31.5422C57.5441 31.9635 57.0933 32.225 56.604 32.225H41.4025C41.3731 32.2277 41.3434 32.2297 41.3134 32.2307C38.7921 32.3121 36.7785 33.2518 35.3784 34.7101C33.9322 36.2164 33.2111 38.2026 33.1928 40.1628C33.1745 42.1238 33.8594 44.1203 35.3057 45.6366C36.7065 47.1049 38.7409 48.0395 41.3118 48.1194C41.4151 48.1225 41.5154 48.1371 41.6113 48.1619C42.0066 48.1646 42.3859 48.1714 42.744 48.1783L42.846 48.1802C43.2707 48.1884 43.6607 48.1958 44.0271 48.1965C44.8358 48.1979 45.4209 48.164 45.8516 48.068C46.263 47.9763 46.3966 47.8577 46.4545 47.7845C46.5198 47.7023 46.6539 47.4668 46.6539 46.8357C46.6539 46.2709 46.5111 46.0561 46.4257 45.9637C46.3204 45.8498 46.1018 45.7083 45.6182 45.6076C45.1319 45.5063 44.5128 45.4735 43.7432 45.4749C43.3778 45.4756 42.9985 45.4837 42.5967 45.4922L42.5536 45.4931C42.1409 45.5018 41.7064 45.5107 41.2693 45.5107C41.1088 45.5107 40.9548 45.483 40.812 45.4323C39.1891 45.266 38.0377 44.6289 37.2685 43.8227C36.3464 42.8559 35.8723 41.5406 35.8849 40.1871C35.8976 38.8333 36.3971 37.5073 37.3351 36.5303C38.1742 35.6564 39.4316 34.9913 41.1896 34.8887C41.5598 34.8671 41.9227 34.9969 42.1926 35.2472C42.4624 35.4976 42.6154 35.8464 42.6154 36.2115V42.8411C42.9879 42.8333 43.3677 42.8256 43.7383 42.8249C44.5461 42.8235 45.3994 42.8534 46.1752 43.0149C46.9535 43.1769 47.7865 43.4979 48.4175 44.1807C49.0683 44.8852 49.3462 45.8013 49.3462 46.8357C49.3462 47.8039 49.1437 48.6995 48.5779 49.4138C48.0049 50.1373 47.2131 50.4816 46.4466 50.6525C45.6993 50.819 44.8542 50.8479 44.0223 50.8465C43.6308 50.8457 43.2177 50.8379 42.7988 50.8298L42.6153 50.8263V64.0249C42.6153 64.731 43.1778 65.3131 43.8944 65.3483C44.611 65.3834 45.2295 64.8594 45.3009 64.1567L46.4046 53.2931C46.4735 52.6157 47.0525 52.0999 47.7441 52.0999H50.948C51.6396 52.0999 52.2186 52.6157 52.2875 53.2931L53.3912 64.1567C53.4626 64.8594 54.0813 65.3834 54.7977 65.3483C55.5143 65.3131 56.0768 64.731 56.0768 64.0249V53.4249L56.0769 53.4069V36.2C56.0769 35.4682 56.6796 34.875 57.4231 34.875H61.4616C61.9509 34.875 62.4017 34.6135 62.6389 34.1923C62.8762 33.771 62.8625 33.2562 62.6031 32.8477L55.8723 22.2477ZM39.9231 37.8854C39.65 38.0249 39.4463 38.1897 39.2919 38.3504C38.8601 38.8003 38.5841 39.4669 38.5771 40.2115C38.5701 40.9539 38.831 41.5891 39.2313 42.0087C39.3867 42.1716 39.6066 42.3489 39.9231 42.4965V37.8854Z" fill="#2554C3"/>
<path id="Vector_3" fill-rule="evenodd" clip-rule="evenodd" d="M87.3462 28.25C88.5902 28.25 89.7554 27.9178 90.7552 27.3386L92.1751 29.575H79.2693C79.2063 29.575 79.1444 29.5792 79.0838 29.5874C75.9591 29.721 73.3105 30.9226 71.4216 32.89C69.4671 34.9257 68.5246 37.5721 68.5005 40.1384C68.4765 42.7064 69.3722 45.3843 71.343 47.4504C73.0094 49.1974 75.2699 50.3234 77.9231 50.665V50.7488L77.923 50.7686V50.7749V64.0249C77.923 66.1433 79.6108 67.8894 81.7603 67.995C83.9097 68.1005 85.7657 66.5284 85.9798 64.4204L86.9624 54.7499H87.7297L88.7123 64.4204C88.9264 66.5284 90.7824 68.1005 92.9318 67.995C95.0813 67.8894 96.7691 66.1433 96.7691 64.0249V53.4428L96.7692 53.4249V37.525H99.4616C100.93 37.525 102.282 36.7408 102.994 35.4769C103.705 34.213 103.664 32.6686 102.886 31.4432L96.1554 20.8432C95.5476 19.8861 94.5937 19.2714 93.5532 19.0583C92.5343 16.6741 90.1389 15 87.3462 15C83.6289 15 80.6154 17.9661 80.6154 21.625C80.6154 25.2838 83.6289 28.25 87.3462 28.25ZM87.3462 25.6C88.066 25.6 88.7419 25.4146 89.3272 25.0897L89.3062 25.0567C88.1241 23.1951 88.6991 20.7427 90.5904 19.5792C90.6433 19.5467 90.6966 19.5155 90.7505 19.4856C90.033 18.3818 88.7763 17.65 87.3462 17.65C85.1157 17.65 83.3077 19.4297 83.3077 21.625C83.3077 23.8204 85.1157 25.6 87.3462 25.6ZM93.8723 22.2477C93.4783 21.6272 92.6477 21.4385 92.0173 21.8264C91.3869 22.2142 91.1952 23.0317 91.5893 23.6522L95.7455 30.1977C96.0049 30.6061 96.0186 31.121 95.7813 31.5422C95.5441 31.9635 95.0933 32.225 94.604 32.225H79.4025C79.3731 32.2277 79.3434 32.2297 79.3134 32.2307C76.7921 32.3121 74.7785 33.2518 73.3784 34.7101C71.9322 36.2164 71.2111 38.2026 71.1928 40.1628C71.1745 42.1238 71.8594 44.1203 73.3057 45.6366C74.7065 47.1049 76.7409 48.0395 79.3118 48.1194C79.4151 48.1225 79.5154 48.1371 79.6113 48.1619C80.0066 48.1646 80.3859 48.1714 80.744 48.1783L80.846 48.1802C81.2707 48.1884 81.6607 48.1958 82.0271 48.1965C82.8358 48.1979 83.4209 48.164 83.8516 48.068C84.263 47.9763 84.3966 47.8577 84.4545 47.7845C84.5198 47.7023 84.6539 47.4668 84.6539 46.8357C84.6539 46.2709 84.5111 46.0561 84.4257 45.9637C84.3204 45.8498 84.1018 45.7083 83.6182 45.6076C83.1319 45.5063 82.5128 45.4735 81.7432 45.4749C81.3778 45.4756 80.9985 45.4837 80.5967 45.4922L80.5536 45.4931C80.1409 45.5018 79.7064 45.5107 79.2693 45.5107C79.1088 45.5107 78.9548 45.483 78.812 45.4323C77.1891 45.266 76.0377 44.6289 75.2685 43.8227C74.3464 42.8559 73.8723 41.5406 73.8849 40.1871C73.8976 38.8333 74.3971 37.5073 75.3351 36.5303C76.1742 35.6564 77.4316 34.9913 79.1896 34.8887C79.5598 34.8671 79.9227 34.9969 80.1926 35.2472C80.4624 35.4976 80.6154 35.8464 80.6154 36.2115V42.8411C80.9879 42.8333 81.3677 42.8256 81.7383 42.8249C82.5461 42.8235 83.3994 42.8534 84.1752 43.0149C84.9535 43.1769 85.7865 43.4979 86.4175 44.1807C87.0683 44.8852 87.3462 45.8013 87.3462 46.8357C87.3462 47.8039 87.1437 48.6995 86.5779 49.4138C86.0049 50.1373 85.2131 50.4816 84.4466 50.6525C83.6993 50.819 82.8542 50.8479 82.0223 50.8465C81.6308 50.8457 81.2177 50.8379 80.7988 50.8298L80.6153 50.8263V64.0249C80.6153 64.731 81.1778 65.3131 81.8944 65.3483C82.611 65.3834 83.2295 64.8594 83.3009 64.1567L84.4046 53.2931C84.4735 52.6157 85.0525 52.0999 85.7441 52.0999H88.948C89.6396 52.0999 90.2186 52.6157 90.2875 53.2931L91.3912 64.1567C91.4626 64.8594 92.0813 65.3834 92.7977 65.3483C93.5143 65.3131 94.0768 64.731 94.0768 64.0249V53.4249L94.0769 53.4069V36.2C94.0769 35.4682 94.6796 34.875 95.4231 34.875H99.4616C99.9509 34.875 100.402 34.6135 100.639 34.1923C100.876 33.771 100.862 33.2562 100.603 32.8477L93.8723 22.2477ZM77.9231 37.8854C77.65 38.0249 77.4463 38.1897 77.2919 38.3504C76.8601 38.8003 76.5841 39.4669 76.5771 40.2115C76.5701 40.9539 76.831 41.5891 77.2313 42.0087C77.3867 42.1716 77.6066 42.3489 77.9231 42.4965V37.8854Z" fill="#2554C3"/>
</g>
</svg>
