<svg width="80" height="80" viewBox="0 0 80 80" fill="none" xmlns="http://www.w3.org/2000/svg">
<g clip-path="url(#clip0_1217_5667)">
<path fill-rule="evenodd" clip-rule="evenodd" d="M53.409 8.42783C62.0189 11.6203 68.2033 18.7722 71.5254 27.3329C75.2026 36.8087 77.5544 47.8055 71.9912 56.3122C66.356 64.9292 55.1883 66.3411 45.0081 67.8812C33.3169 69.6499 19.8206 73.7599 11.3773 65.482C2.74754 57.0213 4.11103 42.7909 7.62109 31.2265C10.5258 21.6566 18.917 15.6033 27.8696 11.1457C35.9326 7.13096 44.9636 5.29637 53.409 8.42783Z" fill="#D1E3F4"/>
<path fill-rule="evenodd" clip-rule="evenodd" d="M74.1597 51.0932L53.5675 30.4336L32.8431 51.0905C32.3867 51.5454 32.3855 52.284 32.8404 52.7404C33.2952 53.1968 34.0339 53.198 34.4903 52.7431L37.1667 50.0754V66.5C37.1667 67.1443 37.689 67.6667 38.3333 67.6667H48.8333C49.4777 67.6667 50 67.1443 50 66.5V56.3025C50 55.6582 50.5223 55.1358 51.1667 55.1358H55.8333C56.4777 55.1358 57 55.6582 57 56.3025V66.5C57 67.1443 57.5223 67.6667 58.1667 67.6667H68.6667C69.311 67.6667 69.8333 67.1443 69.8333 66.5V50.0579L72.507 52.7404C72.9619 53.1968 73.7006 53.198 74.1569 52.7431C74.6133 52.2882 74.6144 51.5496 74.1597 51.0932ZM67.5 47.717L53.5622 33.7335L39.5 47.7498V65.3333H47.6667V56.3025C47.6667 54.3695 49.2336 52.8025 51.1667 52.8025H55.8333C57.7664 52.8025 59.3333 54.3695 59.3333 56.3025V65.3333H67.5V47.717Z" fill="#2554C3"/>
<circle cx="34" cy="31" r="5" stroke="#2554C3" stroke-width="2"/>
<path d="M34 22L34 21" stroke="#2554C3" stroke-width="2" stroke-linecap="round"/>
<path d="M43 31L44 31" stroke="#2554C3" stroke-width="2" stroke-linecap="round"/>
<path d="M41.0068 24.7148L41.7577 24.0544" stroke="#2554C3" stroke-width="2" stroke-linecap="round"/>
<path d="M28 24.7148L27.2491 24.0544" stroke="#2554C3" stroke-width="2" stroke-linecap="round"/>
<path d="M34 41L34 40" stroke="#2554C3" stroke-width="2" stroke-linecap="round"/>
<path d="M24 31L25 31" stroke="#2554C3" stroke-width="2" stroke-linecap="round"/>
<path d="M27 37.5859L27.7509 36.9255" stroke="#2554C3" stroke-width="2" stroke-linecap="round"/>
<path d="M41.7617 37.5859L41.0108 36.9255" stroke="#2554C3" stroke-width="2" stroke-linecap="round"/>
</g>
<defs>
<clipPath id="clip0_1217_5667">
<rect width="80" height="80" fill="white"/>
</clipPath>
</defs>
</svg>
