<svg width="80" height="80" viewBox="0 0 80 80" fill="none" xmlns="http://www.w3.org/2000/svg">
<g id="Stylized icons" clip-path="url(#clip0_1296_31260)">
<path id="Vector" fill-rule="evenodd" clip-rule="evenodd" d="M41.8843 3.85448C53.031 2.88522 63.913 8.75241 70.5739 17.6077C76.9743 26.1166 76.7709 37.1264 74.7321 47.5235C72.5754 58.5221 69.4475 70.6903 59.2085 75.5684C48.9564 80.4528 37.422 75.1147 27.2003 70.169C17.1189 65.2911 5.59687 59.6253 3.71689 48.7193C1.89678 38.1605 11.9303 30.3091 18.9142 22.0998C25.5605 14.2872 31.5752 4.7509 41.8843 3.85448Z" fill="#D1E3F4"/>
<path id="Rectangle 10573" d="M54.5 46H52C50.3431 46 49 44.6569 49 43V19C49 17.3431 50.3431 16 52 16H76C77.6569 16 79 17.3431 79 19V43C79 44.6569 77.6569 46 76 46H66.5" stroke="#2554C3" stroke-width="2.5" stroke-linecap="round" stroke-linejoin="round"/>
<path id="Rectangle 10574" d="M31.5833 59H30C28.3431 59 27 57.6569 27 56V37C27 35.3431 28.3431 34 30 34H43.5M41.5833 59H49C50.6569 59 52 57.6569 52 56V51.5" stroke="#2554C3" stroke-width="2.5" stroke-linecap="round" stroke-linejoin="round"/>
<path id="?" d="M54 25.9508C54.427 25.5546 54.8953 25.179 55.405 24.8238C55.9284 24.4686 56.4931 24.1544 57.0992 23.8811C57.719 23.6079 58.3802 23.3962 59.0826 23.2459C59.7989 23.082 60.5702 23 61.3967 23C62.4848 23 63.4904 23.1571 64.4132 23.4713C65.3499 23.7855 66.1556 24.2295 66.8306 24.8033C67.5055 25.3771 68.0358 26.0738 68.4215 26.8934C68.8072 27.7131 69 28.6352 69 29.6598C69 30.6981 68.8416 31.5929 68.5248 32.3443C68.2218 33.0956 67.8292 33.7582 67.3471 34.332C66.8788 34.8921 66.3623 35.3839 65.7975 35.8074C65.2466 36.2172 64.7231 36.6066 64.2273 36.9754C63.7314 37.3443 63.3044 37.7131 62.9463 38.082C62.6019 38.4508 62.4022 38.8607 62.3471 39.3115L61.9752 42.4467H59.4545L59.2066 39.0451C59.1515 38.4303 59.2686 37.8975 59.5579 37.4467C59.8471 36.9822 60.2259 36.5519 60.6942 36.1557C61.1625 35.7459 61.6791 35.3497 62.2438 34.9672C62.8085 34.571 63.332 34.1339 63.8141 33.6557C64.3099 33.1776 64.7231 32.638 65.0537 32.0369C65.3843 31.4221 65.5496 30.6913 65.5496 29.8443C65.5496 29.2568 65.4325 28.724 65.1983 28.2459C64.9642 27.7678 64.6474 27.3648 64.2479 27.0369C63.8485 26.6954 63.3733 26.4358 62.8223 26.2582C62.2851 26.0806 61.7066 25.9918 61.0868 25.9918C60.2466 25.9918 59.5234 26.0943 58.9174 26.2992C58.3251 26.5041 57.8223 26.7295 57.4091 26.9754C56.9959 27.2213 56.6584 27.4467 56.3967 27.6516C56.1488 27.8566 55.9421 27.959 55.7769 27.959C55.4325 27.959 55.1639 27.8019 54.9711 27.4877L54 25.9508ZM58.0289 47.4385C58.0289 47.0833 58.0909 46.7486 58.2149 46.4344C58.3526 46.1202 58.5317 45.847 58.7521 45.6148C58.9862 45.3825 59.2617 45.1981 59.5785 45.0615C59.8953 44.9249 60.2328 44.8566 60.5909 44.8566C60.949 44.8566 61.2865 44.9249 61.6033 45.0615C61.9201 45.1981 62.1956 45.3825 62.4298 45.6148C62.6639 45.847 62.8499 46.1202 62.9876 46.4344C63.1253 46.7486 63.1942 47.0833 63.1942 47.4385C63.1942 47.8074 63.1253 48.1489 62.9876 48.4631C62.8499 48.7637 62.6639 49.0301 62.4298 49.2623C62.1956 49.4945 61.9201 49.6721 61.6033 49.7951C61.2865 49.9317 60.949 50 60.5909 50C60.2328 50 59.8953 49.9317 59.5785 49.7951C59.2617 49.6721 58.9862 49.4945 58.7521 49.2623C58.5317 49.0301 58.3526 48.7637 58.2149 48.4631C58.0909 48.1489 58.0289 47.8074 58.0289 47.4385Z" fill="#2554C3"/>
<path id="?_2" d="M31 42.4044C31.3701 42.0816 31.7759 41.7755 32.2176 41.486C32.6713 41.1966 33.1607 40.9406 33.686 40.718C34.2231 40.4953 34.7961 40.3228 35.405 40.2004C36.0257 40.0668 36.6942 40 37.4105 40C38.3535 40 39.225 40.128 40.0248 40.384C40.8365 40.6401 41.5349 41.0018 42.1198 41.4693C42.7048 41.9369 43.1644 42.5046 43.4986 43.1724C43.8329 43.8403 44 44.5917 44 45.4265C44 46.2725 43.8627 47.0016 43.5882 47.6138C43.3255 48.2261 42.9853 48.7659 42.5675 49.2335C42.1616 49.6898 41.714 50.0906 41.2245 50.4356C40.747 50.7696 40.2934 51.0868 39.8636 51.3874C39.4339 51.6879 39.0638 51.9885 38.7534 52.289C38.455 52.5896 38.2819 52.9235 38.2342 53.2908L37.9118 55.8455H35.7273L35.5124 53.0738C35.4646 52.5729 35.5661 52.1387 35.8168 51.7714C36.0675 51.3929 36.3958 51.0423 36.8017 50.7195C37.2075 50.3856 37.6552 50.0627 38.1446 49.7511C38.6341 49.4283 39.0877 49.0721 39.5055 48.6825C39.9353 48.2929 40.2934 47.8532 40.5799 47.3634C40.8664 46.8625 41.0096 46.267 41.0096 45.5768C41.0096 45.0982 40.9082 44.664 40.7052 44.2744C40.5023 43.8848 40.2277 43.5565 39.8815 43.2893C39.5354 43.011 39.1235 42.7995 38.646 42.6548C38.1804 42.5101 37.6791 42.4378 37.1419 42.4378C36.4137 42.4378 35.787 42.5213 35.2617 42.6882C34.7484 42.8552 34.3127 43.0389 33.9545 43.2392C33.5964 43.4396 33.3039 43.6233 33.0771 43.7902C32.8623 43.9572 32.6832 44.0407 32.5399 44.0407C32.2415 44.0407 32.0087 43.9127 31.8416 43.6566L31 42.4044ZM34.4917 59.9129C34.4917 59.6235 34.5455 59.3507 34.6529 59.0947C34.7723 58.8387 34.9275 58.6161 35.1185 58.4268C35.3214 58.2376 35.5601 58.0873 35.8347 57.976C36.1093 57.8647 36.4017 57.809 36.7121 57.809C37.0225 57.809 37.315 57.8647 37.5895 57.976C37.8641 58.0873 38.1028 58.2376 38.3058 58.4268C38.5087 58.6161 38.6699 58.8387 38.7893 59.0947C38.9086 59.3507 38.9683 59.6235 38.9683 59.9129C38.9683 60.2134 38.9086 60.4917 38.7893 60.7477C38.6699 60.9926 38.5087 61.2097 38.3058 61.3989C38.1028 61.5881 37.8641 61.7328 37.5895 61.833C37.315 61.9443 37.0225 62 36.7121 62C36.4017 62 36.1093 61.9443 35.8347 61.833C35.5601 61.7328 35.3214 61.5881 35.1185 61.3989C34.9275 61.2097 34.7723 60.9926 34.6529 60.7477C34.5455 60.4917 34.4917 60.2134 34.4917 59.9129Z" fill="#2554C3"/>
</g>
<defs>
<clipPath id="clip0_1296_31260">
<rect width="80" height="80" fill="white"/>
</clipPath>
</defs>
</svg>
