<svg xmlns="http://www.w3.org/2000/svg" width="60" height="60" viewBox="0 0 60 60"><g fill="none" fill-rule="evenodd"><circle cx="30" cy="30" r="29.1" fill="#D1EA8D" stroke="#006171" stroke-width="1.8"/><path fill="#006171" fill-rule="nonzero" d="M26.1102797,32.8622802 L27.3764396,34.12844 L17.0522459,44.4520473 L23.0522241,44.4524388 L23.0522241,46.2419328 L15.1392425,46.2409999 L13.7286207,46.2421399 L13.7286207,36.9194388 L15.5192543,36.9194388 L15.5190254,43.4527486 L26.1102797,32.8622802 Z M34.1280159,32.6234256 L44.4520473,42.9477678 L44.4524388,36.9480596 L46.2419328,36.9480596 L46.2409999,44.8607576 L46.2421399,46.271663 L36.9194388,46.271663 L36.9194388,44.4810417 L43.4527648,44.4810042 L32.8618561,33.8895854 L34.1280159,32.6234256 Z M46.271663,13.7 L46.271663,23.0236034 L44.4810418,23.0236034 L44.4810045,17.0213326 L34.1565098,27.3473003 L32.8903497,26.0811402 L43.479752,15.4900649 L36.9480596,15.4906499 L36.9480596,13.7 L46.271663,13.7 Z M23.0236034,13.7286207 L23.0236034,15.5192552 L17.0242615,15.5190275 L27.3476671,25.8430386 L26.0815075,27.1091982 L15.4900648,16.5173486 L15.4906499,23.0522241 L13.7,23.0522241 L13.7,13.7286207 L23.0236034,13.7286207 Z"/></g></svg>