<svg xmlns="http://www.w3.org/2000/svg" width="55" height="60" viewBox="0 0 55 60"><g fill="none" fill-rule="evenodd"><rect width="52.392" height="41.064" x="1.416" y="16.992" fill="#D1EA8D"/><path fill="#006171" fill-rule="nonzero" d="M53.9653364,17.6213343 L1.1013334,17.6213343 C0.493083757,17.6213343 0,17.1282506 0,16.5200009 C0,15.9117513 0.493083757,15.4186675 1.1013334,15.4186675 L53.9653364,15.4186675 C54.573586,15.4186675 55.0666698,15.9117513 55.0666698,16.5200009 C55.0666698,17.1282506 54.573586,17.6213343 53.9653364,17.6213343 Z"/><path fill="#006171" fill-rule="nonzero" d="M51.7626696,59.4720034 L3.30400019,59.4720034 C1.48007656,59.4700125 0.00199089321,57.9919268 0,56.1680032 L0,7.70933377 C0.00199089321,5.88541014 1.48007656,4.40732448 3.30400019,4.40533358 L14.3173341,4.40533358 C14.9255838,4.40533358 15.4186675,4.89841734 15.4186675,5.50666698 C15.4186675,6.11491662 14.9255838,6.60800037 14.3173341,6.60800037 L3.30400019,6.60800037 C2.69600219,6.60860746 2.20327388,7.10133577 2.20266679,7.70933377 L2.20266679,56.1680032 C2.20327388,56.7760012 2.69600219,57.2687295 3.30400019,57.2693366 L51.7626696,57.2693366 C52.3706676,57.2687295 52.8633959,56.7760012 52.864003,56.1680032 L52.864003,7.70933377 C52.8633959,7.10133577 52.3706676,6.60860746 51.7626696,6.60800037 L40.7493356,6.60800037 C40.141086,6.60800037 39.6480022,6.11491662 39.6480022,5.50666698 C39.6480022,4.89841734 40.141086,4.40533358 40.7493356,4.40533358 L51.7626696,4.40533358 C53.5865932,4.40732448 55.0646789,5.88541014 55.0666698,7.70933377 L55.0666698,56.1680032 C55.0646789,57.9919268 53.5865932,59.4700125 51.7626696,59.4720034 Z"/><path fill="#006171" fill-rule="nonzero" d="M36.3440021,6.60800037 L18.7226677,6.60800037 C18.1144181,6.60800037 17.6213343,6.11491662 17.6213343,5.50666698 C17.6213343,4.89841734 18.1144181,4.40533358 18.7226677,4.40533358 L36.3440021,4.40533358 C36.9522517,4.40533358 37.4453355,4.89841734 37.4453355,5.50666698 C37.4453355,6.11491662 36.9522517,6.60800037 36.3440021,6.60800037 Z"/><path fill="#006171" fill-rule="nonzero" d="M38.5466688 11.013334C36.7227452 11.0113431 35.2446596 9.53325739 35.2426687 7.70933377L35.2426687 3.30400019C35.2426687 1.47925127 36.7219199 0 38.5466688 0 40.3714178 0 41.850669 1.47925127 41.850669 3.30400019L41.850669 7.70933377C41.8486781 9.53325739 40.3705925 11.0113431 38.5466688 11.013334L38.5466688 11.013334ZM38.5466688 2.20266679C37.9386709 2.20327388 37.4459425 2.69600219 37.4453355 3.30400019L37.4453355 7.70933377C37.4453355 8.31758341 37.9384192 8.81066717 38.5466688 8.81066717 39.1549185 8.81066717 39.6480022 8.31758341 39.6480022 7.70933377L39.6480022 3.30400019C39.6473952 2.69600219 39.1546668 2.20327388 38.5466688 2.20266679ZM16.5200009 11.013334C14.6960773 11.0113431 13.2179916 9.53325739 13.2160007 7.70933377L13.2160007 3.30400019C13.2160007 1.47925127 14.695252 0 16.5200009 0 18.3447499 0 19.8240011 1.47925127 19.8240011 3.30400019L19.8240011 7.70933377C19.8220102 9.53325739 18.3439246 11.0113431 16.5200009 11.013334L16.5200009 11.013334ZM16.5200009 2.20266679C15.9120029 2.20327388 15.4192746 2.69600219 15.4186675 3.30400019L15.4186675 7.70933377C15.4186675 8.31758341 15.9117513 8.81066717 16.5200009 8.81066717 17.1282506 8.81066717 17.6213343 8.31758341 17.6213343 7.70933377L17.6213343 3.30400019C17.6207272 2.69600219 17.1279989 2.20327388 16.5200009 2.20266679Z"/><rect width="8" height="5" x="23" y="24" stroke="#006171" stroke-width="2"/><rect width="8" height="5" x="37" y="24" stroke="#006171" stroke-width="2"/><rect width="8" height="5" x="9" y="35" stroke="#006171" stroke-width="2"/><rect width="8" height="5" x="9" y="46" stroke="#006171" stroke-width="2"/><rect width="8" height="5" x="23" y="35" stroke="#006171" stroke-width="2"/><rect width="8" height="5" x="23" y="46" stroke="#006171" stroke-width="2"/><rect width="8" height="5" x="37" y="35" stroke="#006171" stroke-width="2"/></g></svg>