<svg xmlns="http://www.w3.org/2000/svg" width="60" height="60" viewBox="0 0 60 60"><g fill="none" fill-rule="evenodd"><circle cx="30" cy="30" r="29.1" fill="#D1EA8D" stroke="#006171" stroke-width="1.8"/><path fill="#006171" fill-rule="nonzero" d="M30.25,7.75 C30.7677573,7.75 31.1874767,7.3302573 31.1875,6.8125 L31.1875,4.9375 C31.1875,4.41973305 30.767767,4 30.25,4 C29.732233,4 29.3125,4.41973305 29.3125,4.9375 L29.3125,6.8125 C29.3125233,7.3302573 29.7322427,7.75 30.25,7.75 Z M30.25,52.75 C29.7322427,52.75 29.3125233,53.1697427 29.3125,53.6875 L29.3125,55.5625 C29.3125,56.0802669 29.7322331,56.4999999 30.25,56.4999999 C30.7677669,56.4999999 31.1875,56.0802669 31.1875,55.5625 L31.1875,53.6875 C31.1874767,53.1697427 30.7677573,52.75 30.25,52.75 Z M55.5625,29.3125 L53.6875,29.3125 C53.169733,29.3125 52.75,29.732233 52.75,30.25 C52.75,30.767767 53.169733,31.1875 53.6875,31.1875 L55.5625,31.1875 C56.080267,31.1875 56.5,30.767767 56.5,30.25 C56.5,29.732233 56.080267,29.3125 55.5625,29.3125 Z M6.8125,29.3125 L4.9375,29.3125 C4.41973305,29.3125 4,29.732233 4,30.25 C4,30.767767 4.41973305,31.1875 4.9375,31.1875 L6.8125,31.1875 C7.33026695,31.1875 7.75,30.767767 7.75,30.25 C7.75,29.732233 7.33026695,29.3125 6.8125,29.3125 Z M47.4859375,46.1600313 C47.1198633,45.7938263 46.5262338,45.7937204 46.1600289,46.1597945 C45.793824,46.5258687 45.793718,47.1194982 46.1597922,47.4857031 L47.4854687,48.8118438 C47.8539453,49.1723351 48.4429407,49.1723351 48.8114172,48.8118438 C48.9872461,48.6360784 49.0860467,48.3976613 49.0860819,48.1490466 C49.086117,47.9004319 48.9873839,47.661987 48.8116047,47.4861719 L47.4859375,46.1600313 Z M13.0145313,11.6885781 C12.6482792,11.3233377 12.0554277,11.3237004 11.6896229,11.6893889 C11.3238181,12.0550773 11.3232667,12.6479286 11.6883906,13.0142969 L13.0140625,14.3404375 C13.3803146,14.705678 13.973166,14.7053152 14.3389708,14.3396267 C14.7047756,13.9739383 14.705327,13.381087 14.3402031,13.0147188 L13.0145313,11.6885781 Z M13.0145312,46.1595625 L11.6879219,47.4852812 C11.4502874,47.7218719 11.3571058,48.0673653 11.4435468,48.391361 C11.5299878,48.7153568 11.7828882,48.9685165 12.1067952,49.0552897 C12.4307021,49.1420629 12.7762908,49.0492356 13.013125,48.8118437 L14.3397344,47.4861719 C14.7060674,47.1202271 14.7063822,46.5265987 14.3404375,46.1602657 C13.9744927,45.7939326 13.3808643,45.7936178 13.0145312,46.1595625 L13.0145312,46.1595625 Z M47.4845734,14.3404375 L48.8111828,13.0147188 C49.1768636,12.6486525 49.1768547,12.0555479 48.8111629,11.6894927 C48.4454711,11.3234374 47.8523668,11.3228393 47.4859375,11.6881563 L46.1593234,13.0138281 C45.7968798,13.3815146 45.796694,13.9720543 46.1589062,14.3399688 C46.330483,14.5234593 46.5704264,14.6276454 46.8216382,14.6277342 C47.07285,14.627823 47.3128669,14.5238067 47.4845734,14.3404375 L47.4845734,14.3404375 Z M28.3804797,13.8524688 C28.6702961,14.0163251 29.0254598,14.0133599 29.3125,13.8446875 L29.3125,24.7097031 C29.932398,24.5967656 30.567602,24.5967656 31.1875,24.7097031 L31.1875,13.8483438 C31.1875,13.9114844 31.5481984,13.9714844 31.6070313,13.9746719 C31.947273,13.9868797 32.2678653,13.8154461 32.4466399,13.5256995 C32.6254144,13.2359528 32.6348335,12.8725244 32.4713078,12.5739063 L31.0650578,10.0992344 C30.898423,9.80608324 30.5871967,9.62499989 30.2499953,9.62499989 C29.912794,9.62499989 29.6015676,9.80608324 29.4349328,10.0992344 L28.0286828,12.5739063 C27.7728715,13.024131 27.9303543,13.5964827 28.3804797,13.8524688 Z M30.25,42.723625 C30.767767,42.723625 31.1875,43.143358 31.1875,43.661125 L31.1875,44.129875 C31.1875,44.647642 30.767767,45.067375 30.25,45.067375 C29.732233,45.067375 29.3125,44.647642 29.3125,44.129875 L29.3125,43.661125 C29.3125,43.143358 29.732233,42.723625 30.25,42.723625 Z M34.9139172,33.3916094 L42.7851672,40.875625 C42.881533,40.4631045 43.2432824,40.1669691 43.6667097,40.1539764 C44.090137,40.1409837 44.4693624,40.4143827 44.5908391,40.8202188 L45.4156984,43.5448281 C45.513285,43.8676131 45.4300394,44.2179394 45.1976808,44.4623218 C44.9653222,44.7067042 44.6196376,44.8075036 44.2923438,44.7263125 L41.5292922,44.0396875 C41.1180553,43.9387909 40.8260085,43.5740531 40.8174814,43.1507055 C40.8089542,42.7273579 41.0860768,42.3511558 41.4929172,42.2337813 L33.6170734,34.7452188 C34.1215454,34.369187 34.5598292,33.9117186 34.9139172,33.3916094 Z M30.25,37.567375 C30.767767,37.567375 31.1875,37.987108 31.1875,38.504875 L31.1875,38.973625 C31.1874586,39.4913748 30.7677498,39.9110836 30.25,39.911125 C29.7322491,39.9110862 29.3125388,39.4913759 29.3125,38.973625 L29.3125,38.504875 C29.3125,37.987108 29.732233,37.567375 30.25,37.567375 Z M30.25,26.5 C32.3200826,26.5023765 33.9976235,28.1799174 34,30.25 C34,32.3210678 32.3210678,34 30.25,34 C28.1789322,34 26.5,32.3210678 26.5,30.25 C26.5,28.1789322 28.1789322,26.5 30.25,26.5 Z M30.25,28.375 C29.2144661,28.375 28.375,29.2144661 28.375,30.25 C28.375,31.2855339 29.2144661,32.125 30.25,32.125 C31.285082,32.1239097 32.1239097,31.285082 32.125,30.25 C32.125,29.2144661 31.2855339,28.375 30.25,28.375 Z M38.9561828,29.1660156 C39.4737664,29.1571721 39.9005919,29.5694452 39.9097013,30.0870241 C39.9188107,30.604603 39.506757,31.0316403 38.9891828,31.0410156 L38.520625,31.0492656 L38.5039328,31.0492656 C37.9894918,31.0489926 37.5713532,30.6342456 37.5668906,30.1198239 C37.562428,29.6054022 37.9733084,29.1834634 38.4876672,29.1742656 Z M44.1126672,29.0794844 C44.6296794,29.0719939 45.0551701,29.4844595 45.0637523,30.0014547 C45.0723344,30.5184499 44.6607681,30.9448106 44.1437922,30.9544844 L43.6750422,30.9622656 L43.6592453,30.9622656 C43.1445713,30.9620706 42.7262736,30.5470213 42.7220662,30.0323644 C42.7178589,29.5177075 43.1293151,29.095875 43.6439172,29.0872656 Z M32.1195109,46.6475313 C31.6692009,46.3925362 31.0974643,46.5499834 30.8411828,46.9995625 L30.25,48.0400469 L29.6588078,46.9995625 C29.4029533,46.5494159 28.8306263,46.3919111 28.3804797,46.6477656 C27.9303331,46.9036202 27.7728283,47.4759472 28.0286828,47.9260938 L29.4349328,50.4007656 C29.6015676,50.6939168 29.912794,50.8750001 30.2499953,50.8750001 C30.5871967,50.8750001 30.898423,50.6939168 31.0650578,50.4007656 L32.4713078,47.9260938 C32.7271191,47.475869 32.5696363,46.9035173 32.1195109,46.6475313 L32.1195109,46.6475313 Z M36.0379797,25.2974867 C36.4746672,25.2974867 36.7523078,24.9747344 37.0349641,24.68725 C37.3974575,24.3180454 37.3922793,23.7249653 37.0233946,23.3621464 C36.6545099,22.9993274 36.0614255,23.0039824 35.6982813,23.3725469 L35.3696359,23.7067187 C35.1034738,23.9749781 35.0253305,24.3772573 35.1717067,24.7256527 C35.3180829,25.0740482 35.6600909,25.2998034 36.0379797,25.2974867 L36.0379797,25.2974867 Z M39.3134641,19.6962813 C39.5483048,19.4575042 39.8926926,19.3621511 40.2169,19.4461406 C40.5411073,19.5301301 40.7958794,19.7807022 40.8852461,20.1034687 C40.9746127,20.4262353 40.884997,20.7721604 40.6501562,21.0109375 L40.3214641,21.3451094 C40.1448421,21.5232444 39.9040173,21.6228884 39.6531672,21.6216369 C39.2791671,21.6157381 38.944056,21.3891987 38.7992072,21.0443371 C38.6543584,20.6994754 38.727198,20.3015885 38.9848234,20.0304063 Z M43.7975266,15.3104219 C44.12189,15.2182837 44.4707475,15.3074162 44.7111604,15.5438538 C44.9515733,15.7802913 45.0465096,16.1276143 44.9597922,16.4534688 L44.2273703,19.2041406 C44.0927057,19.7027376 43.5801539,19.9985149 43.0810801,19.8656283 C42.5820064,19.7327416 42.284404,19.2212474 42.4155109,18.7217031 L42.7233859,17.5653906 L41.5723234,17.8926719 C41.0742705,18.0342552 40.5557427,17.7452795 40.4141594,17.2472266 C40.272576,16.7491736 40.5615517,16.2306459 41.0596047,16.0890625 Z M50.3844953,29.0964531 L47.8864797,27.7322969 C47.5925548,27.5713824 47.2350853,27.5796167 46.9488815,27.7538944 C46.6626777,27.9281721 46.4912807,28.2419798 46.4993282,28.5769732 C46.5073758,28.9119665 46.6936438,29.2171821 46.9878859,29.3775156 L48.0377922,29.9510781 L47.0071047,30.5598906 C46.7180311,30.7298636 46.54178,31.0413144 46.5449022,31.376642 C46.5480245,31.7119697 46.7300444,32.0200845 47.0222329,32.1846453 C47.3144214,32.3492061 47.6722614,32.3451408 47.9606359,32.1739844 L50.4119641,30.7260625 C50.702298,30.554602 50.8781512,30.2403993 50.8724684,29.903264 C50.8667857,29.5661287 50.680443,29.2580312 50.3844953,29.0964531 L50.3844953,29.0964531 Z M17.2923131,41.0739889 C17.6126336,40.9761095 17.96084,41.0565542 18.2057662,41.2850201 C18.4506925,41.5134861 18.5551286,41.855264 18.4797344,42.1816094 L18.2103438,43.3470625 L19.3495,42.9813438 C19.8424918,42.8229589 20.3705369,43.0942114 20.5289218,43.5872031 C20.6873067,44.0801949 20.4160543,44.6082401 19.9230625,44.766625 L17.2121875,45.6372813 C16.8910137,45.7403703 16.539219,45.6630084 16.2909239,45.4346894 C16.0426289,45.2063705 15.9361008,44.8622831 16.0119531,44.5336094 L16.6528281,41.7595469 C16.7282223,41.4332015 16.9719926,41.1718683 17.2923131,41.0739889 Z M20.4831719,39.4885938 C20.7096271,39.2411018 21.0510549,39.1334564 21.3785093,39.2063116 C21.7059637,39.2791668 21.9695426,39.5214199 22.0697011,39.8415801 C22.1698597,40.1617402 22.0913342,40.5110169 21.8637813,40.7575 L21.5465313,41.1026406 C21.1916764,41.4741837 20.6066299,41.4988591 20.22175,41.1585156 C19.8405945,40.8080625 19.8156025,40.2150129 20.1659219,39.8337344 Z M23.9729172,35.692375 L23.6556672,36.0375156 C23.4281142,36.2839987 23.3495888,36.6332754 23.4497473,36.9534355 C23.5499058,37.2735957 23.8134848,37.5158489 24.1409392,37.5887041 C24.4683935,37.6615593 24.8098213,37.5539138 25.0362766,37.3064219 L25.3535266,36.9612813 C25.5810795,36.7147982 25.659605,36.3655215 25.5594465,36.0453613 C25.4592879,35.7252012 25.195709,35.482948 24.8682546,35.4100928 C24.5408002,35.3372376 24.1993724,35.444883 23.9729172,35.692375 Z"/></g></svg>