<svg xmlns="http://www.w3.org/2000/svg" width="60" height="57" viewBox="0 0 60 57"><g fill="none" fill-rule="evenodd"><rect width="13.029" height="53.743" x="43.971" y="1.629" fill="#D1EA8D"/><rect width="14.657" height="40.714" x="29.314" y="14.657" fill="#D1EA8D"/><rect width="14.657" height="26.057" x="14.657" y="29.314" fill="#D1EA8D"/><rect width="14.657" height="11.4" y="43.971" fill="#D1EA8D"/><path fill="#006171" fill-rule="nonzero" d="M57.6248772,56.6210264 C57.6248772,56.6210264 43.4729061,56.6210264 43.4729061,56.6210264 C43.4729061,56.6210264 29.3199241,56.6210264 29.3199241,56.6210264 C29.3199241,56.6210264 15.167953,56.6210264 15.167953,56.6210264 C15.167953,56.6210264 1.014971,56.6210264 1.014971,56.6210264 C0.456939134,56.6210264 0.00404370915,56.168131 0.00404370915,55.6100991 C0.00404370915,55.6100991 0.00404370915,45.5008262 0.00404370915,45.5008262 C0.00404370915,43.8287525 1.36475184,42.4680444 3.03682557,42.4680444 C3.03682557,42.4680444 13.1460984,42.4680444 13.1460984,42.4680444 C13.5019448,42.4680444 13.8395946,42.5408311 14.1570257,42.654055 C14.1570257,42.654055 14.1570257,31.3478442 14.1570257,31.3478442 C14.1570257,29.6757705 15.5177338,28.3160733 17.1898076,28.3160733 C17.1898076,28.3160733 27.2980695,28.3160733 27.2980695,28.3160733 C27.6539159,28.3160733 27.9915656,28.3888601 28.3089968,28.5020839 C28.3089968,28.5020839 28.3089968,17.1958731 28.3089968,17.1958731 C28.3089968,15.5237994 29.6697049,14.1630913 31.3417787,14.1630913 C31.3417787,14.1630913 41.4510515,14.1630913 41.4510515,14.1630913 C41.8068979,14.1630913 42.1435367,14.2358781 42.4619788,14.3491019 C42.4619788,14.3491019 42.4619788,3.04289113 42.4619788,3.04289113 C42.4619788,1.3708174 43.821676,0.0101092729 45.4947607,0.0101092729 C45.4947607,0.0101092729 55.6030226,0.0101092729 55.6030226,0.0101092729 C57.2761073,0.0101092729 58.6358045,1.3708174 58.6358045,3.04289113 C58.6358045,3.04289113 58.6358045,55.6100991 58.6358045,55.6100991 C58.6358045,56.168131 58.1829091,56.6210264 57.6248772,56.6210264 Z M14.1570257,45.5008262 C14.1570257,44.9438053 13.7031194,44.489899 13.1460984,44.489899 C13.1460984,44.489899 3.03682557,44.489899 3.03682557,44.489899 C2.47980463,44.489899 2.02589828,44.9438053 2.02589828,45.5008262 C2.02589828,45.5008262 2.02589828,54.5991718 2.02589828,54.5991718 C2.02589828,54.5991718 14.1570257,54.5991718 14.1570257,54.5991718 C14.1570257,54.5991718 14.1570257,45.5008262 14.1570257,45.5008262 Z M28.3089968,31.3478442 C28.3089968,30.7908233 27.8561014,30.3369169 27.2980695,30.3369169 C27.2980695,30.3369169 17.1898076,30.3369169 17.1898076,30.3369169 C16.6327866,30.3369169 16.1788803,30.7908233 16.1788803,31.3478442 C16.1788803,31.3478442 16.1788803,45.5008262 16.1788803,45.5008262 C16.1788803,45.5008262 16.1788803,54.5991718 16.1788803,54.5991718 C16.1788803,54.5991718 28.3089968,54.5991718 28.3089968,54.5991718 C28.3089968,54.5991718 28.3089968,31.3478442 28.3089968,31.3478442 Z M42.4619788,17.1958731 C42.4619788,16.6378413 42.0080725,16.1849459 41.4510515,16.1849459 C41.4510515,16.1849459 31.3417787,16.1849459 31.3417787,16.1849459 C30.7847577,16.1849459 30.3308514,16.6378413 30.3308514,17.1958731 C30.3308514,17.1958731 30.3308514,31.3478442 30.3308514,31.3478442 C30.3308514,31.3478442 30.3308514,54.5991718 30.3308514,54.5991718 C30.3308514,54.5991718 42.4619788,54.5991718 42.4619788,54.5991718 C42.4619788,54.5991718 42.4619788,17.1958731 42.4619788,17.1958731 Z M56.6139499,3.04289113 C56.6139499,2.4858702 56.1610545,2.03196385 55.6030226,2.03196385 C55.6030226,2.03196385 45.4947607,2.03196385 45.4947607,2.03196385 C44.9367288,2.03196385 44.4838334,2.4858702 44.4838334,3.04289113 C44.4838334,3.04289113 44.4838334,17.1958731 44.4838334,17.1958731 C44.4838334,17.1958731 44.4838334,54.5991718 44.4838334,54.5991718 C44.4838334,54.5991718 56.6139499,54.5991718 56.6139499,54.5991718 C56.6139499,54.5991718 56.6139499,3.04289113 56.6139499,3.04289113 Z M24.2652877,3.04289113 C24.2652877,3.04289113 24.2652877,13.152164 24.2652877,13.152164 C24.2652877,13.7101959 23.8134032,14.1630913 23.2553713,14.1630913 C22.6963285,14.1630913 22.244444,13.7101959 22.244444,13.152164 C22.244444,13.152164 22.244444,5.4832696 22.244444,5.4832696 C22.244444,5.4832696 7.79526031,19.9324533 7.79526031,19.9324533 C7.59812949,20.1295841 7.3393321,20.228655 7.08053472,20.228655 C6.82173733,20.228655 6.56293994,20.1295841 6.36580912,19.9324533 C5.97154748,19.5371807 5.97154748,18.8972638 6.36580912,18.5030021 C6.36580912,18.5030021 20.8149928,4.05381842 20.8149928,4.05381842 C20.8149928,4.05381842 13.1460984,4.05381842 13.1460984,4.05381842 C12.5880666,4.05381842 12.1351711,3.60092299 12.1351711,3.04289113 C12.1351711,2.48485927 12.5880666,2.03196385 13.1460984,2.03196385 C13.1460984,2.03196385 23.2543604,2.03196385 23.2543604,2.03196385 C23.3857809,2.03196385 23.5172015,2.05925888 23.6415455,2.10980525 C23.8882118,2.21291983 24.0853426,2.41005065 24.1874463,2.65671691 C24.2390036,2.78005004 24.2652877,2.91147059 24.2652877,3.04289113 Z"/></g></svg>