<?xml version="1.0" encoding="UTF-8"?>
<svg width="251.527924px" height="25px" viewBox="0 0 251.527924 25" version="1.1" xmlns="http://www.w3.org/2000/svg" xmlns:xlink="http://www.w3.org/1999/xlink">
    <title>logo/nuedexta</title>
    <g id="Design-Mockups" stroke="none" stroke-width="1" fill="none" fill-rule="evenodd">
        <g id="Home-[mobile]" transform="translate(-69, -478)" fill="#006171" fill-rule="nonzero">
            <g id="logo/nuedexta" transform="translate(69, 478)">
                <path d="M0,0.210748156 L7.56059009,0.210748156 L19.573235,13.0663857 L19.573235,0.210748156 L27.5816649,0.210748156 L27.5816649,24.5521602 L20.5216017,24.5521602 L8.00842993,11.1959958 L8.00842993,24.5521602 L0,24.5521602 L0,0.210748156 Z M34.7997893,13.8830348 L34.7997893,0.210748156 L42.9662803,0.210748156 L42.9662803,13.7249737 C42.9662803,17.2286617 45.1001054,18.914647 48.3403583,18.914647 C51.6332982,18.914647 53.7671233,17.3076923 53.7671233,13.9093783 L53.7671233,0.210748156 L61.9336143,0.210748156 L61.9336143,13.6986301 C61.9336143,21.5226554 56.5595364,25 48.2349842,25 C40.0158061,25 34.7997893,21.4963119 34.7997893,13.8830348 Z M69.1253952,0.210748156 L92.6238145,0.210748156 L92.6238145,5.90094837 L77.1338251,5.90094837 L77.1338251,9.64172813 L91.1485774,9.64172813 L91.1485774,14.9631191 L77.1338251,14.9631191 L77.1338251,18.8356164 L92.8345627,18.8356164 L92.8345627,24.5785037 L69.1253952,24.5785037 L69.1253952,0.210748156 L69.1253952,0.210748156 Z M99.4994731,0.210748156 L110.800843,0.210748156 C121.18019,0.210748156 127.239199,5.21601686 127.239199,12.2497366 L127.239199,12.3287671 C127.239199,19.3624868 121.101159,24.5785037 110.642782,24.5785037 L99.4994731,24.5785037 L99.4994731,0.210748156 L99.4994731,0.210748156 Z M107.586934,6.16438356 L107.586934,18.5721812 L110.879874,18.5721812 C115.753425,18.5721812 118.967334,16.3593256 118.967334,12.4077977 L118.967334,12.3287671 C118.967334,8.42992624 115.753425,6.13804004 110.879874,6.13804004 L107.586934,6.13804004 L107.586934,6.16438356 Z M133.298209,0.210748156 L156.796628,0.210748156 L156.796628,5.90094837 L141.306639,5.90094837 L141.306639,9.64172813 L155.321391,9.64172813 L155.321391,14.9631191 L141.306639,14.9631191 L141.306639,18.8356164 L157.007376,18.8356164 L157.007376,24.5785037 L133.298209,24.5785037 L133.298209,0.210748156 L133.298209,0.210748156 Z M190.331928,0.210748156 L180.742887,12.0653319 L190.753425,24.5521602 L181.454162,24.5521602 L175.869336,17.1759747 L170.231823,24.5521602 L161.143309,24.5521602 L171.153846,12.170706 L161.538462,0.210748156 L170.837724,0.210748156 L175.97471,7.06006322 L181.243414,0.210748156 L190.331928,0.210748156 Z M239.093783,0.052687039 L251.527924,24.5785037 L242.860906,24.5785037 L240.779768,20.1791359 L229.452055,20.1791359 L227.370917,24.5521602 L218.914647,24.5521602 L231.296101,0.052687039 L239.093783,0.052687039 Z M219.968388,0.210748156 L219.968388,6.11169652 L211.195996,6.11169652 L211.195996,24.5521602 L203.108535,24.5521602 L203.108535,6.13804004 L194.38883,6.13804004 L194.38883,0.210748156 L219.968388,0.210748156 Z M235.115911,8.06111697 L231.822972,14.9367756 L238.382508,14.9367756 L235.115911,8.06111697 Z M248.103267,0 C250.026344,0 251.527924,1.55426765 251.527924,3.42465753 L251.527924,3.45100105 C251.527924,5.32139094 250,6.90200211 248.103267,6.90200211 C246.244292,6.90200211 244.779183,5.44962534 244.683574,3.66328396 L244.678609,3.47734457 C244.678609,1.58061117 246.206533,0 248.103267,0 Z M248.12961,0.368809273 C246.417281,0.368809273 245.100105,1.76501581 245.100105,3.45100105 L245.100105,3.47734457 C245.100105,5.16332982 246.390938,6.53319283 248.12961,6.53319283 C249.780784,6.53319283 251.064527,5.23493446 251.154117,3.63048308 L251.159115,3.45100105 C251.159115,1.76501581 249.841939,0.368809273 248.12961,0.368809273 Z M248.340358,1.55426765 C249.288725,1.55426765 249.920969,1.97576396 249.920969,2.79241307 C249.920969,3.3719705 249.657534,3.74077977 249.183351,3.9251844 L250.026344,5.16332982 L248.735511,5.16332982 L248.024236,4.10958904 L247.68177,4.10958904 L247.68177,5.16332982 L246.575342,5.16332982 L246.575342,1.55426765 L248.340358,1.55426765 Z M248.287671,2.50263435 L247.708114,2.50263435 L247.708114,3.29293994 L248.287671,3.29293994 C248.630137,3.29293994 248.788198,3.13487882 248.788198,2.89778714 C248.788198,2.63435195 248.603793,2.50263435 248.287671,2.50263435 Z"></path>
            </g>
        </g>
    </g>
</svg>