<?xml version="1.0" encoding="UTF-8"?>
<svg width="402.444679px" height="40px" viewBox="0 0 402.444679 40" version="1.1" xmlns="http://www.w3.org/2000/svg" xmlns:xlink="http://www.w3.org/1999/xlink">
    <title>logo/nuedexta</title>
    <g id="Design-Mockups" stroke="none" stroke-width="1" fill="none" fill-rule="evenodd">
        <g id="Homepage" transform="translate(-521, -903)" fill="#006171" fill-rule="nonzero">
            <g id="Group-2" transform="translate(173, 903)">
                <g id="logo/nuedexta" transform="translate(348, 0)">
                    <path d="M0,0.33719705 L12.0969442,0.33719705 L31.317176,20.9062171 L31.317176,0.33719705 L44.1306639,0.33719705 L44.1306639,39.2834563 L32.8345627,39.2834563 L12.8134879,17.9135933 L12.8134879,39.2834563 L0,39.2834563 L0,0.33719705 Z M55.6796628,22.2128556 L55.6796628,0.33719705 L68.7460485,0.33719705 L68.7460485,21.9599579 C68.7460485,27.5658588 72.1601686,30.2634352 77.3445732,30.2634352 C82.6132771,30.2634352 86.0273973,27.6923077 86.0273973,22.2550053 L86.0273973,0.33719705 L99.0937829,0.33719705 L99.0937829,21.9178082 C99.0937829,34.4362487 90.4952582,40 77.1759747,40 C64.0252898,40 55.6796628,34.3940991 55.6796628,22.2128556 Z M110.600632,0.33719705 L148.198103,0.33719705 L148.198103,9.44151739 L123.41412,9.44151739 L123.41412,15.426765 L145.837724,15.426765 L145.837724,23.9409905 L123.41412,23.9409905 L123.41412,30.1369863 L148.5353,30.1369863 L148.5353,39.3256059 L110.600632,39.3256059 L110.600632,0.33719705 L110.600632,0.33719705 Z M159.199157,0.33719705 L177.281349,0.33719705 C193.888303,0.33719705 203.582719,8.34562698 203.582719,19.5995785 L203.582719,19.7260274 C203.582719,30.9799789 193.761855,39.3256059 177.028451,39.3256059 L159.199157,39.3256059 L159.199157,0.33719705 L159.199157,0.33719705 Z M172.139094,9.8630137 L172.139094,29.71549 L177.407798,29.71549 C185.205479,29.71549 190.347734,26.174921 190.347734,19.8524763 L190.347734,19.7260274 C190.347734,13.487882 185.205479,9.82086407 177.407798,9.82086407 L172.139094,9.82086407 L172.139094,9.8630137 Z M213.277134,0.33719705 L250.874605,0.33719705 L250.874605,9.44151739 L226.090622,9.44151739 L226.090622,15.426765 L248.514226,15.426765 L248.514226,23.9409905 L226.090622,23.9409905 L226.090622,30.1369863 L251.211802,30.1369863 L251.211802,39.3256059 L213.277134,39.3256059 L213.277134,0.33719705 L213.277134,0.33719705 Z M304.531085,0.33719705 L289.18862,19.3045311 L305.205479,39.2834563 L290.32666,39.2834563 L281.390938,27.4815595 L272.370917,39.2834563 L257.829294,39.2834563 L273.846154,19.4731296 L258.461538,0.33719705 L273.340358,0.33719705 L281.559536,11.2961012 L289.989463,0.33719705 L304.531085,0.33719705 Z M382.550053,0.0842992624 L402.444679,39.3256059 L388.57745,39.3256059 L385.247629,32.2866175 L367.123288,32.2866175 L363.793467,39.2834563 L350.263435,39.2834563 L370.073762,0.0842992624 L382.550053,0.0842992624 Z M351.94942,0.33719705 L351.94942,9.77871444 L337.913593,9.77871444 L337.913593,39.2834563 L324.973656,39.2834563 L324.973656,9.82086407 L311.022129,9.82086407 L311.022129,0.33719705 L351.94942,0.33719705 Z M376.185458,12.8977871 L370.916754,23.8988409 L381.412013,23.8988409 L376.185458,12.8977871 Z M396.965227,0 C400.04215,0 402.444679,2.48682824 402.444679,5.47945205 L402.444679,5.52160169 C402.444679,8.5142255 400,11.0432034 396.965227,11.0432034 C393.96335,11.0432034 391.603372,8.67620445 391.490037,5.78179238 L391.485774,5.56375132 C391.485774,2.52897787 393.930453,0 396.965227,0 Z M397.007376,0.590094837 C394.26765,0.590094837 392.160169,2.82402529 392.160169,5.52160169 L392.160169,5.56375132 C392.160169,8.26132771 394.225501,10.4531085 397.007376,10.4531085 C399.673056,10.4531085 401.740204,8.33829928 401.849995,5.73927312 L401.854584,5.52160169 C401.854584,2.82402529 399.747102,0.590094837 397.007376,0.590094837 Z M397.344573,2.48682824 C398.86196,2.48682824 399.873551,3.16122234 399.873551,4.46786091 C399.873551,5.39515279 399.452055,5.98524763 398.693361,6.28029505 L400.04215,8.26132771 L397.976818,8.26132771 L396.838778,6.57534247 L396.290832,6.57534247 L396.290832,8.26132771 L394.520548,8.26132771 L394.520548,2.48682824 L397.344573,2.48682824 Z M397.260274,4.00421496 L396.332982,4.00421496 L396.332982,5.2687039 L397.260274,5.2687039 C397.808219,5.2687039 398.061117,5.01580611 398.061117,4.63645943 C398.061117,4.21496312 397.76607,4.00421496 397.260274,4.00421496 Z"></path>
                </g>
            </g>
        </g>
    </g>
</svg>