<svg xmlns="http://www.w3.org/2000/svg" width="60" height="60" viewBox="0 0 60 60"><g fill="none" fill-rule="evenodd"><circle cx="30" cy="30" r="29.1" fill="#D1EA8D" stroke="#006171" stroke-width="1.8"/><path fill="#006171" fill-rule="nonzero" d="M31.9565367,34.3555657 C32.9662805,36.9187618 34.1197563,38.1306413 35.6627078,38.1306413 L43.509,38.13 L42.2525132,36.8733776 C41.8619889,36.4828533 41.8619889,35.8496883 42.2525132,35.459164 C42.6430375,35.0686397 43.2762024,35.0686397 43.6667267,35.459164 L46.6310973,38.4235345 C46.6581112,38.4505485 46.6835868,38.4791008 46.7073813,38.5090488 L46.6310973,38.4235345 C46.670562,38.4629993 46.7060386,38.504942 46.7375271,38.5488617 C46.7479406,38.5635138 46.7583336,38.5788854 46.7683025,38.5945531 L46.7761736,38.6069625 L46.7836097,38.6192384 C46.7882745,38.6270664 46.792823,38.6349444 46.7972553,38.6428699 C46.8089568,38.6639301 46.8199954,38.6854377 46.8302606,38.7073795 C46.8390179,38.7260463 46.8471852,38.7450692 46.8547352,38.7642787 C46.8611098,38.7804049 46.8671803,38.7970886 46.8728128,38.8139727 C46.8788495,38.8323024 46.884265,38.8502865 46.8891637,38.8683813 C46.894557,38.8879265 46.8994064,38.9082778 46.9036235,38.9288596 C46.9071268,38.9464044 46.9102049,38.9637613 46.9128228,38.981174 C46.9158086,39.0005443 46.9182122,39.0206052 46.920013,39.0408395 C46.9221055,39.0647582 46.9233677,39.0881844 46.9238108,39.1116233 C46.9239292,39.1177327 46.9239905,39.1241799 46.9239905,39.1306413 L46.9237913,39.1506603 C46.9233333,39.1736795 46.9220851,39.196686 46.9200468,39.2196356 L46.9239905,39.1306413 C46.9239905,39.1810091 46.9202667,39.2305072 46.9130795,39.2788753 C46.91035,39.2967675 46.9071004,39.3151199 46.9033363,39.3333873 C46.8992741,39.3534671 46.8947277,39.3725625 46.8896427,39.391437 C46.8847139,39.4095022 46.8790959,39.4282389 46.8729172,39.4468303 C46.8671803,39.464194 46.8611098,39.4808778 46.8546147,39.4973477 C46.847074,39.5164964 46.8387771,39.5357969 46.8298446,39.5548734 C46.8211412,39.5733424 46.8119311,39.5914975 46.802194,39.6093235 C46.7941771,39.6241901 46.7853553,39.6394116 46.776099,39.6544413 C46.7635559,39.6746021 46.7508395,39.6937026 46.7374995,39.7123259 C46.7291415,39.7241267 46.7202342,39.7359961 46.7110284,39.7477075 C46.696312,39.7663687 46.6808311,39.7847025 46.6647208,39.8024548 C46.653768,39.8145279 46.6426021,39.8262433 46.6310973,39.8377481 L43.6667267,42.8021187 C43.2762024,43.1926429 42.6430375,43.1926429 42.2525132,42.8021187 C41.8619889,42.4115944 41.8619889,41.7784294 42.2525132,41.3879051 L43.509,40.13 L35.6627078,40.1306413 C33.0855781,40.1306413 31.373275,38.3316393 30.0957199,35.0886148 C29.893294,34.5747644 30.1457534,33.9941078 30.6596037,33.7916819 C31.1734541,33.589256 31.7541108,33.8417154 31.9565367,34.3555657 Z M43.7427362,17.2928932 L46.4418257,19.9910111 C46.7725148,20.1541416 47,20.4946853 47,20.888361 C47,21.2820368 46.7725148,21.6225805 46.4418257,21.785711 L43.6667267,24.5598384 C43.2762024,24.9503627 42.6430375,24.9503627 42.2525132,24.5598384 C41.8619889,24.1693141 41.8619889,23.5361491 42.2525132,23.1456248 L43.509,21.888 L35.7387173,21.888361 C33.5020175,21.888361 32.3716573,23.8545133 30.5985335,29.8120772 L30.5629592,29.9316526 C30.5239356,30.0628186 30.5124149,30.1015183 30.4548111,30.2950168 C29.4599911,33.6342727 28.8707533,35.2566484 27.9492045,36.7943427 C26.6574783,38.9497145 24.9707914,40.1306413 22.7410926,40.1306413 L14,40.1306413 C13.4477153,40.1306413 13,39.6829261 13,39.1306413 C13,38.5783566 13.4477153,38.1306413 14,38.1306413 L22.7410926,38.1306413 C25.3820825,38.1306413 26.6775721,35.9689901 28.538063,29.7239856 L28.59891,29.5195825 C28.6213025,29.4443482 28.6385397,29.3864082 28.6816328,29.2415584 C29.6516398,25.9824071 30.176232,24.5059904 31.0067533,23.061379 C32.1837499,21.0141071 33.7106973,19.888361 35.7387173,19.888361 L43.509,19.888 L42.3285227,18.7071068 C41.9379984,18.3165825 41.9379984,17.6834175 42.3285227,17.2928932 C42.719047,16.9023689 43.3522119,16.9023689 43.7427362,17.2928932 Z M22.7410926,19.888361 C25.653286,19.888361 27.6319814,21.8888003 28.9937624,25.3905229 C29.1939359,25.9052548 28.9389359,26.4848003 28.424204,26.6849738 C27.909472,26.8851473 27.3299266,26.6301473 27.129753,26.1154154 C26.0335366,23.2965732 24.6406312,21.888361 22.7410926,21.888361 L14,21.888361 C13.4477153,21.888361 13,21.4406458 13,20.888361 C13,20.3360763 13.4477153,19.888361 14,19.888361 L22.7410926,19.888361 Z" transform="rotate(-45 30 30.048)"/></g></svg>