<svg xmlns="http://www.w3.org/2000/svg" width="60" height="60" viewBox="0 0 60 60"><g fill="none" fill-rule="evenodd"><path fill="#006171" fill-rule="nonzero" d="M29.9249996,59.8499992 C13.4248152,59.8499992 0,46.425184 0,29.9249996 C0,13.4248152 13.4248152,0 29.9249996,0 C46.425184,0 59.8499992,13.4248152 59.8499992,29.9249996 C59.8499992,46.425184 46.425184,59.8499992 29.9249996,59.8499992 Z"/><path fill="#D1EA8D" fill-rule="nonzero" d="M29.9249996,2.30192305 C14.6943258,2.30192305 2.30192305,14.6943258 2.30192305,29.9249996 C2.30192305,45.1556735 14.6943258,57.5480762 29.9249996,57.5480762 C45.1568244,57.5480762 57.5480762,45.1556735 57.5480762,29.9249996 C57.5480762,14.6943258 45.1568244,2.30192305 29.9249996,2.30192305 Z"/><path fill="#006171" fill-rule="nonzero" d="M29.9249996,46.038461 C21.0395767,46.038461 13.8115383,38.8104226 13.8115383,29.9249996 C13.8115383,29.2896689 14.3271691,28.7740381 14.9624998,28.7740381 C15.5978306,28.7740381 16.1134613,29.2896689 16.1134613,29.9249996 C16.1134613,37.540912 22.3090872,43.7365379 29.9249996,43.7365379 C37.540912,43.7365379 43.7365379,37.540912 43.7365379,29.9249996 C43.7365379,22.3090872 37.540912,16.1134613 29.9249996,16.1134613 C26.3857929,16.1134613 23.092892,17.4439729 20.5607767,19.7965382 C20.5607767,19.7965382 23.9399997,19.7965382 23.9399997,19.7965382 C24.5753305,19.7965382 25.0909612,20.312169 25.0909612,20.9474997 C25.0909612,21.5828305 24.5753305,22.0984613 23.9399997,22.0984613 C23.9399997,22.0984613 17.9549998,22.0984613 17.9549998,22.0984613 C17.9032065,22.0984613 17.858319,22.075442 17.8088277,22.0696872 C17.738619,22.0604795 17.6718632,22.0501209 17.6039565,22.0282526 C17.5199363,22.0006295 17.4462748,21.9614968 17.3714623,21.9166093 C17.3369334,21.895892 17.2966498,21.8901372 17.2644229,21.865967 C17.2437056,21.8510045 17.2344979,21.8279853 17.2160825,21.8118718 C17.1504777,21.7566257 17.0998354,21.6921718 17.0480421,21.6231142 C17.0077584,21.569019 16.9674748,21.5183767 16.9375498,21.4585267 C16.9041719,21.3929218 16.8857565,21.3238642 16.8650392,21.2513536 C16.8443219,21.1765411 16.8247556,21.1028795 16.8201517,21.0246142 C16.8178498,20.998142 16.8040383,20.9751228 16.8040383,20.9474997 C16.8040383,20.9474997 16.8040383,14.9624998 16.8040383,14.9624998 C16.8040383,14.3271691 17.319669,13.8115383 17.9549998,13.8115383 C18.5903305,13.8115383 19.1059613,14.3271691 19.1059613,14.9624998 C19.1059613,14.9624998 19.1059613,18.0102459 19.1059613,18.0102459 C22.0443661,15.3262037 25.844841,13.8115383 29.9249996,13.8115383 C38.8104226,13.8115383 46.038461,21.0395767 46.038461,29.9249996 C46.038461,38.8104226 38.8104226,46.038461 29.9249996,46.038461 Z"/></g></svg>