<svg xmlns="http://www.w3.org/2000/svg" width="60" height="60" viewBox="0 0 60 60"><g fill="none" fill-rule="evenodd"><circle cx="30" cy="30" r="29.1" fill="#D1EA8D" stroke="#006171" stroke-width="1.8"/><path fill="#006171" fill-rule="nonzero" d="M44.8591831,49.0243902 C43.3691446,49.0243902 42.1573907,47.8047692 42.1573907,46.3065717 C42.1573907,44.8076947 43.3691446,43.5887531 44.8591831,43.5887531 C46.3492217,43.5887531 47.5609756,44.8076947 47.5609756,46.3065717 C47.5609756,47.8047692 46.3492217,49.0243902 44.8591831,49.0243902 Z M44.8591831,44.9476624 C44.1141639,44.9476624 43.5082869,45.5571332 43.5082869,46.3065717 C43.5082869,47.0560101 44.1141639,47.665481 44.8591831,47.665481 C45.6042024,47.665481 46.2100794,47.0560101 46.2100794,46.3065717 C46.2100794,45.5571332 45.6042024,44.9476624 44.8591831,44.9476624 Z M44.6612768,29.8012595 C44.5295645,29.9337532 44.3566497,30.0003397 44.183735,30.0003397 C44.0108203,30.0003397 43.8379056,29.9337532 43.7061932,29.8012595 C43.7061932,29.8012595 42.1573907,28.24327 42.1573907,28.24327 C42.1573907,28.24327 40.6085881,29.8012595 40.6085881,29.8012595 C40.4768758,29.9337532 40.303961,30.0003397 40.1310463,30.0003397 C39.9581316,30.0003397 39.7852169,29.9337532 39.6535045,29.8012595 C39.3900797,29.5355928 39.3900797,29.105498 39.6535045,28.8405107 C39.6535045,28.8405107 41.202307,27.2825212 41.202307,27.2825212 C41.202307,27.2825212 39.6535045,25.7245317 39.6535045,25.7245317 C39.3900797,25.4588649 39.3900797,25.0287701 39.6535045,24.7637828 C39.9176047,24.498116 40.3451634,24.498116 40.6085881,24.7637828 C40.6085881,24.7637828 42.1573907,26.3217723 42.1573907,26.3217723 C42.1573907,26.3217723 43.7061932,24.7637828 43.7061932,24.7637828 C43.9702934,24.498116 44.3971766,24.498116 44.6612768,24.7637828 C44.9253771,25.0287701 44.9253771,25.4588649 44.6612768,25.7245317 C44.6612768,25.7245317 43.1124743,27.2825212 43.1124743,27.2825212 C43.1124743,27.2825212 44.6612768,28.8405107 44.6612768,28.8405107 C44.9253771,29.105498 44.9253771,29.5355928 44.6612768,29.8012595 Z M43.5082869,19.1290655 C43.1354395,19.1290655 42.8328388,18.8246698 42.8328388,18.4496108 C42.8328388,18.4496108 42.8328388,13.2952679 42.8328388,13.2952679 C42.8328388,13.2952679 36.412029,19.7541637 36.412029,19.7541637 C32.7125996,23.4762163 30.6754481,28.424005 30.6754481,33.6870606 C30.6754481,33.6870606 30.6754481,40.9395595 30.6754481,40.9395595 C32.5876417,41.2656977 34.0526887,42.9323999 34.0526887,44.9476624 C34.0526887,47.1952983 32.2343824,49.0243902 30,49.0243902 C27.7649422,49.0243902 25.9473113,47.1952983 25.9473113,44.9476624 C25.9473113,42.9323999 27.4116828,41.2656977 29.3245519,40.9395595 C29.3245519,40.9395595 29.3245519,33.6870606 29.3245519,33.6870606 C29.3245519,28.0611762 31.5021966,22.7716218 35.4569453,18.7934149 C35.4569453,18.7934149 41.8777551,12.334519 41.8777551,12.334519 C41.8777551,12.334519 36.7538057,12.334519 36.7538057,12.334519 C36.3809584,12.334519 36.0783576,12.0301234 36.0783576,11.6550644 C36.0783576,11.2800054 36.3809584,10.9756098 36.7538057,10.9756098 C36.7538057,10.9756098 43.5082869,10.9756098 43.5082869,10.9756098 C43.5089624,10.9756098 43.5089624,10.9762892 43.5096378,10.9762892 C43.5967706,10.9762892 43.6839034,10.993955 43.7663081,11.0279278 C43.9317929,11.0972321 44.0628298,11.2297258 44.1317255,11.3955127 C44.1661734,11.4784062 44.183735,11.5667353 44.183735,11.6557439 C44.183735,11.6557439 44.183735,18.4496108 44.183735,18.4496108 C44.183735,18.8246698 43.8811343,19.1290655 43.5082869,19.1290655 Z M27.2982075,44.9476624 C27.2982075,46.4458599 28.5099615,47.665481 30,47.665481 C31.4893631,47.665481 32.701117,46.4458599 32.701117,44.9476624 C32.701117,43.4487855 31.4893631,42.2298438 30,42.2298438 C28.5099615,42.2298438 27.2982075,43.4487855 27.2982075,44.9476624 Z M23.0476125,18.9299852 C22.9159001,19.0624789 22.7429854,19.1290655 22.5700707,19.1290655 C22.397156,19.1290655 22.2242413,19.0624789 22.0925289,18.9299852 C22.0925289,18.9299852 20.5437264,17.3719958 20.5437264,17.3719958 C20.5437264,17.3719958 18.9949238,18.9299852 18.9949238,18.9299852 C18.8632114,19.0624789 18.6902967,19.1290655 18.517382,19.1290655 C18.3451427,19.1290655 18.172228,19.0624789 18.0398402,18.9299852 C17.7764154,18.6643185 17.7764154,18.2349031 18.0398402,17.9692364 C18.0398402,17.9692364 19.5886427,16.4112469 19.5886427,16.4112469 C19.5886427,16.4112469 18.0398402,14.8532574 18.0398402,14.8532574 C17.7764154,14.5875906 17.7764154,14.1581753 18.0398402,13.8925085 C18.3039404,13.6268418 18.7314991,13.6268418 18.9949238,13.8925085 C18.9949238,13.8925085 20.5437264,15.450498 20.5437264,15.450498 C20.5437264,15.450498 22.0925289,13.8925085 22.0925289,13.8925085 C22.3566291,13.6268418 22.7841878,13.6268418 23.0476125,13.8925085 C23.3117127,14.1581753 23.3117127,14.5875906 23.0476125,14.8532574 C23.0476125,14.8532574 21.49881,16.4112469 21.49881,16.4112469 C21.49881,16.4112469 23.0476125,17.9692364 23.0476125,17.9692364 C23.3117127,18.2349031 23.3117127,18.6643185 23.0476125,18.9299852 Z M18.9766867,26.7246889 C18.9699322,27.0990684 18.6727351,27.3905544 18.3079931,27.3905544 C18.3012386,27.3905544 18.2944841,27.3905544 18.2944841,27.3905544 C17.9162332,27.3844394 17.619036,27.0718902 17.632545,26.6975107 C17.6392994,26.3238107 17.9432511,26.0255301 18.321502,26.0316452 C18.6929985,26.0391192 18.9834412,26.3516683 18.9766867,26.7246889 Z M17.6933353,40.2390417 C17.5582457,40.3885217 17.3758747,40.4700563 17.1867492,40.4700563 C17.0246417,40.4700563 16.8692886,40.4156999 16.7409535,40.3001926 C16.4572652,40.0487944 16.4370018,39.620738 16.6801631,39.3421616 C16.9307544,39.0567906 17.3556112,39.0296125 17.632545,39.2810107 C17.9094787,39.5256144 17.9432511,39.9604653 17.6933353,40.2390417 Z M15.5190678,42.1143365 C15.4035662,42.1958711 15.2684766,42.2298438 15.1401414,42.2298438 C14.923998,42.2298438 14.7078546,42.1211311 14.5795195,41.9308838 C14.370806,41.6183346 14.4579388,41.1902782 14.7686449,40.9864418 C15.073272,40.7758109 15.4981289,40.86414 15.7007634,41.1766891 C15.9101523,41.4824437 15.822344,41.9037056 15.5190678,42.1143365 Z M17.8419339,46.3065717 C17.8419339,47.8047692 16.63018,49.0243902 15.1401414,49.0243902 C13.6507783,49.0243902 12.4390244,47.8047692 12.4390244,46.3065717 C12.4390244,44.8076947 13.6507783,43.5887531 15.1401414,43.5887531 C16.63018,43.5887531 17.8419339,44.8076947 17.8419339,46.3065717 Z M13.7899206,46.3065717 C13.7899206,47.0560101 14.3957976,47.665481 15.1401414,47.665481 C15.8858361,47.665481 16.4910376,47.0560101 16.4910376,46.3065717 C16.4910376,45.5571332 15.8858361,44.9476624 15.1401414,44.9476624 C14.3957976,44.9476624 13.7899206,45.5571332 13.7899206,46.3065717 Z M18.8145792,36.8417685 C19.1590577,36.9708649 19.3414287,37.3649486 19.2130936,37.718265 C19.1117763,37.9900469 18.8551061,38.1599105 18.5781723,38.1599105 C18.4971186,38.1599105 18.4228193,38.1463214 18.3417655,38.1191432 C17.9905325,37.9832523 17.814916,37.5959632 17.9432511,37.2426468 C18.0715862,36.8893303 18.4633462,36.7126721 18.8145792,36.8417685 Z M18.503873,30.1015785 C18.166149,30.1015785 17.8757063,29.8501803 17.8351794,29.5104529 C17.7811436,29.1367529 18.0378138,28.797705 18.4093103,28.7494637 C18.7808068,28.6951074 19.1185308,28.9539796 19.1725667,29.3270002 C19.219848,29.7013797 18.9631778,30.041107 18.5916813,30.0947839 C18.5646634,30.0947839 18.530891,30.1015785 18.503873,30.1015785 Z M18.7875612,24.7345663 C18.7065075,24.7345663 18.6254537,24.7209772 18.5443999,24.686325 C18.1931669,24.5511135 18.0243049,24.1570298 18.1593945,23.8098285 C18.2944841,23.4565121 18.686244,23.2866484 19.0307226,23.4225393 C19.3819556,23.5591097 19.5508176,23.952514 19.415728,24.2997153 C19.3144108,24.5714971 19.0577405,24.7345663 18.7875612,24.7345663 Z M18.9766867,32.7854243 C18.9496688,32.7854243 18.9158964,32.7922189 18.8888785,32.7922189 C18.5579089,32.7922189 18.2674662,32.5408206 18.2201848,32.1942988 C18.1729035,31.8273933 18.4363282,31.4876659 18.8010702,31.4333096 C19.1725667,31.3857477 19.5102907,31.6507351 19.5643266,32.0244351 C19.611608,32.3913406 19.3481832,32.7378625 18.9766867,32.7854243 Z M19.0442315,35.4964483 C18.6659806,35.4896538 18.3755379,35.1703101 18.3890469,34.79661 C18.4025558,34.42291 18.713262,34.1307445 19.0847584,34.137539 C19.4562549,34.1511281 19.7466976,34.4636773 19.7399431,34.8373773 C19.7264341,35.2110774 19.429237,35.4964483 19.0651704,35.4964483 C19.0577405,35.4964483 19.050986,35.4964483 19.0442315,35.4964483 Z M19.78047,21.323704 C20.0438947,21.0587166 20.4694271,21.0512426 20.7396063,21.3169094 C21.0030311,21.5818967 21.0030311,22.0099531 20.7463608,22.2749404 C20.7463608,22.2749404 20.7396063,22.2749404 20.7396063,22.2749404 C20.6112712,22.4101519 20.4356547,22.4787768 20.2600381,22.4787768 C20.0911761,22.4787768 19.9223141,22.4176259 19.7872245,22.2810555 C19.5237997,22.0235422 19.5170452,21.5880118 19.78047,21.323704 Z M41.0766737,36.6515212 C41.4549246,36.6447267 41.7588763,36.9436867 41.7656308,37.3241813 C41.7656308,37.6978814 41.4684336,38.003636 41.0969371,38.0104305 C41.0969371,38.0104305 41.0901826,38.0104305 41.0901826,38.0104305 C40.7186862,38.0104305 40.4147345,37.7114705 40.4147345,37.3377704 C40.40798,36.9640704 40.7051772,36.6583158 41.0766737,36.6515212 Z M42.0695824,34.79661 C41.9952831,35.1091592 41.7183494,35.3265847 41.4076433,35.3265847 C41.3603619,35.3265847 41.3130805,35.3197901 41.2590447,35.306201 C40.8943027,35.2246665 40.6646503,34.8645555 40.7524586,34.49765 C40.8335124,34.1307445 41.1982543,33.8997299 41.5562418,33.9812645 C41.9209838,34.0695936 42.1506362,34.4297045 42.0695824,34.79661 Z M43.5751563,41.8425547 C43.8054841,42.1347202 43.7582027,42.5627766 43.46776,42.7937912 C43.3394249,42.8957094 43.1908263,42.9432712 43.0422277,42.9432712 C42.8463477,42.9432712 42.6504678,42.8549421 42.5153782,42.6850784 C42.2857258,42.3929129 42.3330072,41.9648565 42.6234499,41.7338419 C42.9138926,41.4960328 43.3394249,41.5435946 43.5751563,41.8425547 Z M41.6778225,32.520437 C41.5562418,32.3913406 41.4819426,32.2146824 41.4819426,32.0380242 C41.4819426,31.861366 41.5562418,31.6847078 41.6778225,31.5556114 C41.9277383,31.3042132 42.387043,31.3042132 42.6369588,31.5556114 C42.7585395,31.6847078 42.8328388,31.861366 42.8328388,32.0380242 C42.8328388,32.2146824 42.7585395,32.3913406 42.6369588,32.520437 C42.5086237,32.6427388 42.3330072,32.7174788 42.1573907,32.7174788 C41.9817742,32.7174788 41.8061576,32.6427388 41.6778225,32.520437 Z M41.3671164,39.3421616 C41.7115949,39.1926816 42.1101093,39.3557507 42.2519534,39.7022726 C42.400552,40.0487944 42.2384444,40.4428781 41.8939659,40.5923581 C41.8061576,40.6263309 41.7183494,40.6467145 41.6305411,40.6467145 C41.3671164,40.6467145 41.1172006,40.4904399 41.0091289,40.2322472 C40.8605303,39.8857253 41.0226378,39.4916416 41.3671164,39.3421616 Z"/></g></svg>