<svg width="43" height="43" viewBox="0 0 43 43" fill="none" xmlns="http://www.w3.org/2000/svg">
<g clip-path="url(#clip0_2435_9081)">
<path d="M23.8278 5.64062L39.2971 32.4332C39.5329 32.8418 39.6571 33.3052 39.6571 33.7769C39.6571 34.2487 39.5329 34.7121 39.2971 35.1207C39.0612 35.5292 38.722 35.8685 38.3134 36.1044C37.9049 36.3403 37.4414 36.4644 36.9697 36.4645H6.03118C5.55943 36.4644 5.096 36.3403 4.68746 36.1044C4.27891 35.8685 3.93966 35.5292 3.70379 35.1207C3.46792 34.7121 3.34375 34.2487 3.34375 33.7769C3.34375 33.3052 3.46793 32.8418 3.70381 32.4332L19.1731 5.64062C20.2068 3.84896 22.7922 3.84896 23.8278 5.64062ZM21.5004 26.8755C21.0253 26.8755 20.5695 27.0642 20.2335 27.4002C19.8975 27.7362 19.7088 28.1919 19.7088 28.6671C19.7088 29.1423 19.8975 29.598 20.2335 29.934C20.5695 30.27 21.0253 30.4588 21.5004 30.4588C21.9756 30.4588 22.4313 30.27 22.7673 29.934C23.1033 29.598 23.2921 29.1423 23.2921 28.6671C23.2921 28.1919 23.1033 27.7362 22.7673 27.4002C22.4313 27.0642 21.9756 26.8755 21.5004 26.8755ZM21.5004 14.3338C21.0616 14.3338 20.638 14.495 20.3101 14.7866C19.9822 15.0782 19.7726 15.48 19.7213 15.9158L19.7088 16.1255V23.2921C19.7093 23.7488 19.8841 24.188 20.1976 24.5201C20.5111 24.8521 20.9396 25.052 21.3954 25.0787C21.8513 25.1055 22.3002 24.9572 22.6504 24.6641C23.0006 24.371 23.2256 23.9552 23.2796 23.5017L23.2921 23.2921V16.1255C23.2921 15.6503 23.1033 15.1946 22.7673 14.8586C22.4313 14.5226 21.9756 14.3338 21.5004 14.3338Z" fill="#E91111"/>
</g>
<defs>
<clipPath id="clip0_2435_9081">
<rect width="43" height="43" fill="white"/>
</clipPath>
</defs>
</svg>
