<svg xmlns="http://www.w3.org/2000/svg" width="60" height="60" viewBox="0 0 60 60"><path fill="#D1EA8D" d="M31.2423203,2.53745634e-05 C31.6710696,0.00244435552 32.0990873,0.155773167 32.4511327,0.459680988 L39.2875029,6.36126627 L40.561,7.5 L47.7966102,7.50005133 C49.7803605,7.50005133 51.5809861,8.12289677 52.8858195,9.12705114 C54.1906528,10.1312055 55,11.5169043 55,13.0435296 L55.0003268,15.0007913 C55.4234416,14.989502 55.853725,15.1072345 56.2257108,15.3649199 C56.7498318,15.7279936 57.4359654,16.33689 58.1163318,17.1963366 C59.2787397,18.6647034 60,20.3859297 60,22.3349876 L60,53.2599873 C60,55.1161418 59.2256516,56.8009502 57.9772435,58.021856 C56.7288353,59.2427618 55.0060747,60.0000513 53.1081081,60.0000513 L6.89189189,60.0000513 C4.99392535,60.0000513 3.27116466,59.2427618 2.02275652,58.021856 C0.774348385,56.8009502 0,55.1161418 0,53.2599873 L0,22.3349876 C0,20.5094334 0.752037683,18.8461544 1.94062705,17.3350281 C2.62011798,16.4711498 3.29786963,15.8284785 3.80129382,15.4346115 C4.15669246,15.1565561 4.57843817,15.0144544 5.00083567,15.0011678 L5,13.0435296 C5,11.5169043 5.80934718,10.1312055 7.11418055,9.12705114 C8.41901391,8.12289677 10.2196395,7.50005133 12.2033898,7.50005133 L21.786,7.5 L23.1927477,6.2251019 L30.0291179,0.446466316 C30.3840901,0.14641603 30.813571,-0.00223421304 31.2423203,2.53745634e-05 Z M55.7815413,21.2354653 L31.2658117,39.5917323 C30.9022784,39.863945 30.4511392,40.0000513 30,40.0000513 C29.5488608,40.0000513 29.0977216,39.863945 28.7341883,39.5917323 L4.26655129,21.2716796 C4.12559981,21.6478881 4.05405405,22.0062918 4.05405405,22.3349876 L4.05405405,53.2599873 C4.05405405,53.3458116 4.0581358,53.4308028 4.06612013,53.5147808 L21.6998844,40.4131066 C22.0908194,40.1226167 22.5607916,39.988271 23.0236922,40.0008595 L23.1967803,40.0124497 C23.7140409,40.067775 24.208729,40.3076069 24.5582404,40.7188316 C24.9077518,41.1300564 25.0459101,41.6348128 24.98674,42.1184634 C24.92757,42.6021139 24.6710716,43.0646586 24.2312698,43.3914597 L7.214,56.035 L52.836,56.035 L35.8041595,43.5418998 C35.3612541,43.217023 35.0943378,42.7465624 35.0208332,42.2485579 C34.9473285,41.7505534 35.0672354,41.2250051 35.3979765,40.7899526 C35.7287175,40.3549002 36.2076702,40.0927165 36.714664,40.0205151 C37.2216579,39.9483137 37.7566927,40.0660946 38.1995982,40.3909714 L55.9420491,53.4050038 C55.9446362,53.3569541 55.9459459,53.3086043 55.9459459,53.2599873 L55.9459459,22.3349876 C55.9459459,21.9612229 55.8898218,21.5942514 55.7815413,21.2354653 Z M47.7966102,10.7609209 L12.2033898,10.7609209 C11.3913949,10.7609209 10.6491662,11.0182151 10.1103957,11.4328341 C9.57162524,11.8474532 9.23728814,12.4186465 9.23728814,13.0435296 L9.23728814,19.8913557 C9.23728814,20.0899875 9.19113252,20.2803232 9.10662467,20.4563577 L30,36.1029946 L50.762,20.555 L50.7627119,13.0435296 C50.7627119,12.4186465 50.4283748,11.8474532 49.8896043,11.4328341 C49.3508338,11.0182151 48.6086051,10.7609209 47.7966102,10.7609209 Z M31.2186251,4.68051509 L27.882,7.5 L34.485,7.5 L31.2186251,4.68051509 Z"/></svg>