<?xml version="1.0" encoding="UTF-8"?>
<svg width="358px" height="228px" viewBox="0 0 358 228" version="1.1" xmlns="http://www.w3.org/2000/svg" xmlns:xlink="http://www.w3.org/1999/xlink">
    <title>component/card/w-icon copy</title>
    <g id="Phase-2-Design" stroke="none" stroke-width="1" fill="none" fill-rule="evenodd">
        <g id="Caregiving-for-PBA-1-[mobile]" transform="translate(-16, -2271)">
            <g id="section" transform="translate(-1, 1155)">
                <g id="Group-2" transform="translate(15, 620)">
                    <g id="component/card/w-icon-copy" transform="translate(2, 496)">
                        <rect id="Rectangle" stroke="#A6C7D3" stroke-width="2" fill="#FFFFFF" x="1" y="1" width="356" height="226" rx="20"></rect>
                        <text id="Title" font-family="franklin-gothic-urw, sans-serif" font-size="22.5" font-weight="700" line-spacing="32" fill="#231F20">
                            <tspan x="30" y="126">Observe and document </tspan>
                            <tspan x="30" y="158">your loved one’s episodes </tspan>
                            <tspan x="30" y="190">and the impact they have.</tspan>
                        </text>
                        <g id="graphic/symbole/unpredictable" transform="translate(30, 30)">
                            <circle id="Oval" stroke="#006171" stroke-width="1.8" fill="#D1EA8D" cx="30" cy="30" r="29.1"></circle>
                            <path d="M27.5167492,20.3465401 C27.7175644,20.5473554 27.8417712,20.824779 27.8417712,21.1312128 C27.7397523,24.0947239 28.8655313,26.9510252 30.950093,29.035585 C33.0346547,31.1201449 35.8909569,32.2459214 38.8372155,32.1441976 C39.1609022,32.1438998 39.4383259,32.2681066 39.6391411,32.4689219 C39.8399564,32.6697371 39.9641632,32.9471608 39.9641632,33.2535946 C39.9641632,33.5600283 39.8399564,33.837452 39.6391411,34.0382672 C39.4383259,34.2390825 39.1609022,34.3632893 38.8544684,34.3632893 C35.8909517,34.2612673 33.0346446,35.3870477 30.950082,37.471614 C28.8655193,39.5561803 27.739744,42.4124893 27.8414735,45.358753 C27.8416946,45.6825032 27.7174743,45.9598907 27.5166795,46.1606788 C27.3158654,46.3614862 27.0384732,46.4856812 26.7320765,46.4856812 C26.4256749,46.4856812 26.1482796,46.3614811 25.9474648,46.1606663 C25.7466708,45.9598722 25.6224533,45.6824775 25.6223818,45.3761032 C25.7244062,42.4124738 24.5986307,39.55617 22.5140703,37.4716077 C20.4295099,35.3870455 17.5732071,34.2612674 14.6269477,34.3629915 C14.303261,34.3632893 14.0258373,34.2390825 13.8250221,34.0382672 C13.6242068,33.837452 13.5,33.5600283 13.5,33.2535946 C13.5,32.9471608 13.6242068,32.6697371 13.8250221,32.4689219 C14.0258373,32.2681066 14.303261,32.1438998 14.6096947,32.1438998 C17.5732053,32.2459215 20.4295065,31.1201448 22.5140667,29.0355847 C24.5986268,26.9510246 25.7244035,24.0947234 25.6226795,21.1484657 C25.6223818,20.824779 25.7465886,20.5473554 25.9474038,20.3465401 C27.1901035,19.9135198 27.3476985,20.1774894 27.5167492,20.3465401 Z M26.7322581,26.728581 C25.4743224,29.6574992 23.1367258,31.9952595 20.2072206,33.2533468 C23.1362094,34.5114383 25.473858,36.8490842 26.7318971,39.7786086 C27.9899369,36.8494831 30.3275771,34.5118184 33.2571005,33.2537754 C30.3279717,31.9957423 27.9903031,29.6581044 26.7322581,26.728581 Z M39.0431341,14.5 C39.8545294,14.7490782 39.9242546,14.9155681 40.0056649,15.0574658 C40.1012499,15.2240697 40.1536313,15.4154605 40.1528196,15.6142265 C40.0873639,17.0372855 40.6159082,18.4017705 41.6083138,19.3941761 C42.6007194,20.3865817 43.9652044,20.9151259 45.3671753,20.8502014 C45.696739,20.8496661 45.9741627,20.9738729 46.1749779,21.1746882 C46.3757932,21.3755034 46.5,21.6529271 46.5,21.9593609 C46.5,22.2657946 46.3757932,22.5432183 46.1749779,22.7440335 C45.9741627,22.9448488 45.696739,23.0690556 45.3903053,23.0690556 C43.9653345,23.0035423 42.6009659,23.5319401 41.6085793,24.5241543 C40.6161927,25.5163686 40.0875579,26.8806454 40.1522915,28.2824763 C40.1527624,28.6120201 40.0285487,28.8894189 39.8277546,29.0902164 C39.6269412,29.2910331 39.3495439,29.4152354 39.0431392,29.4152354 C38.7367329,29.4152354 38.4593336,29.2910343 38.2585188,29.0902194 C38.0577217,28.8894223 37.9335058,28.6120235 37.9334445,28.3056407 C37.9987103,26.8806454 37.4700755,25.5163686 36.4776889,24.5241543 C35.4853023,23.5319401 34.1209336,23.0035423 32.719114,23.0685193 C32.3895292,23.0690556 32.1121055,22.9448488 31.9112902,22.7440335 C31.710475,22.5432183 31.5862682,22.2657946 31.5862682,21.9593609 C31.5862682,21.6529271 31.710475,21.3755034 31.9112902,21.1746882 C32.1121055,20.9738729 32.3895292,20.8496661 32.6959629,20.8496661 C34.1210638,20.9151259 35.4855488,20.3865817 36.4779544,19.3941761 C37.47036,18.4017705 37.9989042,17.0372855 37.9339797,15.6353145 C37.9326369,15.4154605 37.9850183,15.2240697 38.0806032,15.0574658 C38.1761882,14.890862 38.3149766,14.7490452 38.486979,14.6494271 C38.6589814,14.549809 38.8510578,14.5 39.0431341,14.5 Z M39.0432002,19.688608 C38.4729414,20.6113558 37.6953273,21.3889927 36.7725413,21.9591833 C37.6953321,22.5292723 38.472999,23.3069406 39.0431026,24.2298492 C39.6132095,23.3070308 40.390843,22.5294169 41.3136902,21.9593595 C40.3910326,21.3891534 39.6133963,20.6114746 39.0432002,19.688608 Z" id="Combined-Shape" fill="#006171" fill-rule="nonzero"></path>
                        </g>
                    </g>
                </g>
            </g>
        </g>
    </g>
</svg>