<?xml version="1.0" encoding="UTF-8"?>
<svg width="420px" height="231px" viewBox="0 0 420 231" version="1.1" xmlns="http://www.w3.org/2000/svg" xmlns:xlink="http://www.w3.org/1999/xlink">
    <title>component/card/w-icon copy 3</title>
    <g id="Phase-2-Design" stroke="none" stroke-width="1" fill="none" fill-rule="evenodd">
        <g id="Caregiving-for-PBA-1" transform="translate(-735, -2378)">
            <g id="section" transform="translate(-1, 1434)">
                <g id="component/card/w-icon-copy-3" transform="translate(736, 944)">
                    <rect id="Rectangle" stroke="#A6C7D3" stroke-width="2" fill="#FFFFFF" x="1" y="1" width="418" height="229" rx="20"></rect>
                    <text id="Title" font-family="franklin-gothic-urw, sans-serif" font-size="25.5" font-weight="700" line-spacing="32" fill="#231F20">
                        <tspan x="30" y="128">Seek treatment for your </tspan>
                        <tspan x="30" y="160">loved one and support their </tspan>
                        <tspan x="30" y="192">treatment plan.</tspan>
                    </text>
                    <g id="graphic/symbole/unpredictable" transform="translate(30, 30)">
                        <circle id="Oval" stroke="#006171" stroke-width="1.8" fill="#D1EA8D" cx="30" cy="30" r="29.1"></circle>
                        <path d="M36.1646282,14 C38.6820434,14 41.1994608,14.9605577 43.1198026,16.881682 C45.0402786,18.8029405 46.0002081,21.3205551 46.0002081,23.8379562 C46.0002081,26.355067 45.0393578,28.8719532 43.1182281,30.7923004 L30.7923004,43.1182281 C28.8711409,45.0393876 26.353687,46 23.836412,46 C21.319202,46 18.8021932,45.039432 16.881682,43.1181383 C14.9605577,41.1977965 14,38.680379 14,36.1629639 C14,33.6455487 14.9605577,31.1281313 16.8817421,29.2077294 L29.2094538,16.881682 C31.1297956,14.9605577 33.647213,14 36.1646282,14 Z M24.3081056,24.9490389 L18.4631119,30.7922325 C16.9798817,32.2754626 16.2382768,34.219614 16.2382768,36.1640041 C16.2382768,38.1082967 16.979815,40.0528205 18.4629093,41.5368213 C19.9462062,43.0201183 21.8903576,43.7617232 23.8347477,43.7617232 C25.7790403,43.7617232 27.7235641,43.020185 29.2075649,41.5370907 L35.0509611,35.6918944 L24.3081056,24.9490389 Z" id="Shape" fill="#006171" fill-rule="nonzero"></path>
                        <path d="M35.1014649,32.8020215 L37.9144649,32.8300215 L36.5224562,34.2221994 L35.1014649,32.8020215 Z M31.7024649,29.4030215 L41.2474649,29.4970215 L39.2384649,31.5060215 L33.7514649,31.4510215 L31.7024649,29.4030215 Z M28.3034649,26.0040215 L43.3985413,26.1537509 C43.1728695,26.8610924 42.841046,27.5420579 42.403046,28.1717694 L30.3514649,28.0520215 L28.3034649,26.0040215 Z M26.6364649,22.6220215 L43.6863275,22.791486 C43.7343723,23.138618 43.7583946,23.4884441 43.7583946,23.8382843 C43.7583946,24.1660226 43.7373113,24.4937752 43.6951427,24.8193391 L26.9534649,24.6530215 L25.7794649,23.4792081 L26.6364649,22.6220215 Z M29.9694649,19.2890215 L42.3357129,19.4111061 C42.7919523,20.0454575 43.1384559,20.7342648 43.375227,21.4513643 L27.9604649,21.2980215 L29.9694649,19.2890215 Z M36.1621317,16.2420215 C37.9196462,16.2420215 39.6771677,16.848393 41.0940403,18.0610611 L31.3450063,17.9647709 C32.7414874,16.8162637 34.4518129,16.2420215 36.1621317,16.2420215 Z" id="Combined-Shape" fill="#D1EA8D" fill-rule="nonzero"></path>
                    </g>
                </g>
            </g>
        </g>
    </g>
</svg>