<?xml version="1.0" encoding="UTF-8"?>
<svg width="420px" height="231px" viewBox="0 0 420 231" version="1.1" xmlns="http://www.w3.org/2000/svg" xmlns:xlink="http://www.w3.org/1999/xlink">
    <title>component/card/w-icon copy 2</title>
    <g id="Phase-2-Design" stroke="none" stroke-width="1" fill="none" fill-rule="evenodd">
        <g id="Caregiving-for-PBA-1" transform="translate(-285, -2378)">
            <g id="section" transform="translate(-1, 1434)">
                <g id="component/card/w-icon-copy-2" transform="translate(286, 944)">
                    <rect id="Rectangle" stroke="#A6C7D3" stroke-width="2" fill="#FFFFFF" x="1" y="1" width="418" height="229" rx="20"></rect>
                    <text id="Title" font-family="franklin-gothic-urw, sans-serif" font-size="25.5" font-weight="700" line-spacing="32" fill="#231F20">
                        <tspan x="30" y="128">Advocate for your loved one </tspan>
                        <tspan x="30" y="160">at healthcare appointments.</tspan>
                    </text>
                    <g id="graphic/symbole/unpredictable" transform="translate(30, 30)">
                        <rect id="Rectangle" fill="#D1EA8D" x="1.54472736" y="16.992001" width="57.1549123" height="41.0640023"></rect>
                        <path d="M58.8712761,17.6213343 L1.20145461,17.6213343 C0.537909553,17.6213343 -3.55271368e-15,17.1282506 -3.55271368e-15,16.5200009 C-3.55271368e-15,15.9117513 0.537909553,15.4186675 1.20145461,15.4186675 L58.8712761,15.4186675 C59.5348211,15.4186675 60.0727307,15.9117513 60.0727307,16.5200009 C60.0727307,17.1282506 59.5348211,17.6213343 58.8712761,17.6213343 Z" id="Path" fill="#006171" fill-rule="nonzero"></path>
                        <path d="M56.4683668,59.4720034 L3.60436384,59.4720034 C1.61462898,59.4700125 0.00217188351,57.9919268 -3.55271368e-15,56.1680032 L-3.55271368e-15,7.70933377 C0.00217188351,5.88541014 1.61462898,4.40732448 3.60436384,4.40533358 L15.61891,4.40533358 C16.282455,4.40533358 16.8203646,4.89841734 16.8203646,5.50666698 C16.8203646,6.11491662 16.282455,6.60800037 15.61891,6.60800037 L3.60436384,6.60800037 C2.9410933,6.60860746 2.4035715,7.10133577 2.40290923,7.70933377 L2.40290923,56.1680032 C2.4035715,56.7760012 2.9410933,57.2687295 3.60436384,57.2693366 L56.4683668,57.2693366 C57.1316374,57.2687295 57.6691592,56.7760012 57.6698214,56.1680032 L57.6698214,7.70933377 C57.6691592,7.10133577 57.1316374,6.60860746 56.4683668,6.60800037 L44.4538207,6.60800037 C43.7902756,6.60800037 43.2523661,6.11491662 43.2523661,5.50666698 C43.2523661,4.89841734 43.7902756,4.40533358 44.4538207,4.40533358 L56.4683668,4.40533358 C58.4581017,4.40732448 60.0705588,5.88541014 60.0727307,7.70933377 L60.0727307,56.1680032 C60.0705588,57.9919268 58.4581017,59.4700125 56.4683668,59.4720034 Z" id="Path" fill="#006171" fill-rule="nonzero"></path>
                        <path d="M39.6480022,6.60800037 L20.4247284,6.60800037 C19.7611834,6.60800037 19.2232738,6.11491662 19.2232738,5.50666698 C19.2232738,4.89841734 19.7611834,4.40533358 20.4247284,4.40533358 L39.6480022,4.40533358 C40.3115473,4.40533358 40.8494569,4.89841734 40.8494569,5.50666698 C40.8494569,6.11491662 40.3115473,6.60800037 39.6480022,6.60800037 Z" id="Path" fill="#006171" fill-rule="nonzero"></path>
                        <path d="M42.0509115,11.013334 C40.0611766,11.0113431 38.4487195,9.53325739 38.4465476,7.70933377 L38.4465476,3.30400019 C38.4465476,1.47925127 40.0602763,0 42.0509115,0 C44.0415467,0 45.6552753,1.47925127 45.6552753,3.30400019 L45.6552753,7.70933377 C45.6531034,9.53325739 44.0406463,11.0113431 42.0509115,11.013334 L42.0509115,11.013334 Z M42.0509115,2.20266679 C41.3876409,2.20327388 40.8501191,2.69600219 40.8494569,3.30400019 L40.8494569,7.70933377 C40.8494569,8.31758341 41.3873664,8.81066717 42.0509115,8.81066717 C42.7144565,8.81066717 43.2523661,8.31758341 43.2523661,7.70933377 L43.2523661,3.30400019 C43.2517038,2.69600219 42.714182,2.20327388 42.0509115,2.20266679 Z" id="Shape" fill="#006171" fill-rule="nonzero"></path>
                        <path d="M18.0218192,11.013334 C16.0320843,11.0113431 14.4196272,9.53325739 14.4174554,7.70933377 L14.4174554,3.30400019 C14.4174554,1.47925127 16.031184,0 18.0218192,0 C20.0124544,0 21.626183,1.47925127 21.626183,3.30400019 L21.626183,7.70933377 C21.6240112,9.53325739 20.0115541,11.0113431 18.0218192,11.013334 L18.0218192,11.013334 Z M18.0218192,2.20266679 C17.3585487,2.20327388 16.8210269,2.69600219 16.8203646,3.30400019 L16.8203646,7.70933377 C16.8203646,8.31758341 17.3582741,8.81066717 18.0218192,8.81066717 C18.6853643,8.81066717 19.2232738,8.31758341 19.2232738,7.70933377 L19.2232738,3.30400019 C19.2226115,2.69600219 18.6850897,2.20327388 18.0218192,2.20266679 Z" id="Shape" fill="#006171" fill-rule="nonzero"></path>
                        <rect id="Rectangle-Copy" stroke="#006171" stroke-width="2" x="25" y="24" width="8.90909091" height="5"></rect>
                        <rect id="Rectangle-Copy-2" stroke="#006171" stroke-width="2" x="40.2727273" y="24" width="8.90909091" height="5"></rect>
                        <rect id="Rectangle-Copy-5" stroke="#006171" stroke-width="2" x="9.72727273" y="35" width="8.90909091" height="5"></rect>
                        <rect id="Rectangle-Copy-6" stroke="#006171" stroke-width="2" x="9.72727273" y="46" width="8.90909091" height="5"></rect>
                        <rect id="Rectangle-Copy-4" stroke="#006171" stroke-width="2" x="25" y="35" width="8.90909091" height="5"></rect>
                        <rect id="Rectangle-Copy-7" stroke="#006171" stroke-width="2" x="25" y="46" width="8.90909091" height="5"></rect>
                        <rect id="Rectangle-Copy-3" stroke="#006171" stroke-width="2" x="40.2727273" y="35" width="8.90909091" height="5"></rect>
                    </g>
                </g>
            </g>
        </g>
    </g>
</svg>