<?xml version="1.0" encoding="UTF-8"?>
<svg width="420px" height="231px" viewBox="0 0 420 231" version="1.1" xmlns="http://www.w3.org/2000/svg" xmlns:xlink="http://www.w3.org/1999/xlink">
    <title>component/card/w-icon</title>
    <g id="Phase-2-Design" stroke="none" stroke-width="1" fill="none" fill-rule="evenodd">
        <g id="Caregiving-for-PBA-1" transform="translate(-285, -2117)">
            <g id="section" transform="translate(-1, 1434)">
                <g id="component/card/w-icon" transform="translate(286, 683)">
                    <rect id="Rectangle" stroke="#A6C7D3" stroke-width="2" fill="#FFFFFF" x="1" y="1" width="418" height="229" rx="20"></rect>
                    <text id="Title" font-family="franklin-gothic-urw, sans-serif" font-size="25.5" font-weight="700" line-spacing="32" fill="#231F20">
                        <tspan x="30" y="128">Learn about PBA and how </tspan>
                        <tspan x="30" y="160">it’s different from </tspan>
                        <tspan x="30" y="192">depression.</tspan>
                    </text>
                    <g id="graphic/symbole/unpredictable" transform="translate(30, 30)" fill-rule="nonzero">
                        <path d="M29.9249996,59.8499992 C13.4248152,59.8499992 3.55271368e-15,46.425184 3.55271368e-15,29.9249996 C3.55271368e-15,13.4248152 13.4248152,3.55271368e-15 29.9249996,3.55271368e-15 C46.425184,3.55271368e-15 59.8499992,13.4248152 59.8499992,29.9249996 C59.8499992,46.425184 46.425184,59.8499992 29.9249996,59.8499992 Z" id="Shape" fill="#006171"></path>
                        <path d="M29.9249996,2.30192305 C14.6943258,2.30192305 2.30192305,14.6943258 2.30192305,29.9249996 C2.30192305,45.1556735 14.6943258,57.5480762 29.9249996,57.5480762 C45.1568244,57.5480762 57.5480762,45.1556735 57.5480762,29.9249996 C57.5480762,14.6943258 45.1568244,2.30192305 29.9249996,2.30192305 Z" id="Path" fill="#D1EA8D"></path>
                        <path d="M28.4333333,21.1666667 L8.93333333,21.1666667 C8.44097626,22.3045703 8.06138235,23.4880101 7.8,24.7 L28.4333333,24.7 L28.4333333,21.1666667 Z M28.4333333,14.1333333 L13.5666667,14.1333333 C12.5354062,15.1492308 11.6085527,16.2659218 10.8,17.4666667 L28.4333333,17.4666667 L28.4333333,14.1333333 Z M28.4333333,7.16666667 C24.7030463,7.40279617 21.087009,8.54711178 17.9,10.5 L28.4333333,10.5 L28.4333333,7.16666667 Z M28.4333333,28.2333333 L7.23333333,28.2333333 C7.23333333,28.8333333 7.23333333,29.4 7.23333333,30 C7.23333333,30.6 7.23333333,31.1666667 7.23333333,31.7666667 L28.4333333,31.7666667 L28.4333333,28.2333333 Z M28.4333333,35.3 L7.8,35.3 C8.06138235,36.5119899 8.44097626,37.6954297 8.93333333,38.8333333 L28.4333333,38.8333333 L28.4333333,35.3 Z M31.6930328,53.1211103 C43.7154759,52.3681484 53.2333333,42.3789149 53.2333333,30.1666667 C53.2333333,17.9427695 43.6973096,7.94613009 31.6586224,7.21005888 L31.6930328,53.1211103 Z M28.4333333,42.5 L10.8,42.5 C11.5993296,43.7587601 12.5264657,44.931643 13.5666667,46 L28.4333333,46 L28.4333333,42.5 Z M28.4333333,49.5333333 L17.9,49.5333333 C21.087009,51.4862216 24.7030463,52.6305372 28.4333333,52.8666667 L28.4333333,49.5333333 Z" id="Shape" fill="#006171"></path>
                    </g>
                </g>
            </g>
        </g>
    </g>
</svg>